<svg width="114" height="94" viewBox="0 0 114 94" fill="none" xmlns="http://www.w3.org/2000/svg">
<ellipse cx="20.1781" cy="3.16656" rx="2.5" ry="2.62469" transform="rotate(14.4844 20.1781 3.16656)" fill="#0B50FF"/>
<ellipse cx="9.225" cy="45.5591" rx="2.5" ry="2.62469" transform="rotate(14.4844 9.225 45.5591)" fill="#0B50FF"/>
<ellipse cx="56.3812" cy="12.5181" rx="2.5" ry="2.62469" transform="rotate(14.4844 56.3812 12.5181)" fill="#0B50FF"/>
<ellipse cx="45.4281" cy="54.9107" rx="2.5" ry="2.62469" transform="rotate(14.4844 45.4281 54.9107)" fill="#0B50FF"/>
<ellipse cx="92.5844" cy="21.8697" rx="2.5" ry="2.62469" transform="rotate(14.4844 92.5844 21.8697)" fill="#0B50FF"/>
<ellipse cx="81.6312" cy="64.2623" rx="2.5" ry="2.62469" transform="rotate(14.4844 81.6312 64.2623)" fill="#0B50FF"/>
<ellipse cx="14.7016" cy="24.3619" rx="2.5" ry="2.62469" transform="rotate(14.4844 14.7016 24.3619)" fill="#0B50FF"/>
<ellipse cx="3.74844" cy="66.7544" rx="2.5" ry="2.62469" transform="rotate(14.4844 3.74844 66.7544)" fill="#0B50FF"/>
<ellipse cx="50.9047" cy="33.7154" rx="2.5" ry="2.62469" transform="rotate(14.4844 50.9047 33.7154)" fill="#0B50FF"/>
<ellipse cx="39.9516" cy="76.108" rx="2.5" ry="2.62469" transform="rotate(14.4844 39.9516 76.108)" fill="#0B50FF"/>
<ellipse cx="87.1078" cy="43.0669" rx="2.5" ry="2.62469" transform="rotate(14.4844 87.1078 43.0669)" fill="#0B50FF"/>
<ellipse cx="76.1547" cy="85.4595" rx="2.5" ry="2.62469" transform="rotate(14.4844 76.1547 85.4595)" fill="#0B50FF"/>
<ellipse cx="38.2797" cy="7.84234" rx="2.5" ry="2.62469" transform="rotate(14.4844 38.2797 7.84234)" fill="#0B50FF"/>
<ellipse cx="27.3266" cy="50.2349" rx="2.5" ry="2.62469" transform="rotate(14.4844 27.3266 50.2349)" fill="#0B50FF"/>
<ellipse cx="74.4828" cy="17.1939" rx="2.5" ry="2.62469" transform="rotate(14.4844 74.4828 17.1939)" fill="#0B50FF"/>
<ellipse cx="63.5297" cy="59.5865" rx="2.5" ry="2.62469" transform="rotate(14.4844 63.5297 59.5865)" fill="#0B50FF"/>
<ellipse cx="110.686" cy="26.5455" rx="2.5" ry="2.62469" transform="rotate(14.4844 110.686 26.5455)" fill="#0B50FF"/>
<ellipse cx="99.7328" cy="68.938" rx="2.5" ry="2.62469" transform="rotate(14.4844 99.7328 68.938)" fill="#0B50FF"/>
<ellipse cx="32.8031" cy="29.0396" rx="2.5" ry="2.62469" transform="rotate(14.4844 32.8031 29.0396)" fill="#0B50FF"/>
<ellipse cx="21.85" cy="71.4322" rx="2.5" ry="2.62469" transform="rotate(14.4844 21.85 71.4322)" fill="#0B50FF"/>
<ellipse cx="69.0062" cy="38.3912" rx="2.5" ry="2.62469" transform="rotate(14.4844 69.0062 38.3912)" fill="#0B50FF"/>
<ellipse cx="58.0531" cy="80.7837" rx="2.5" ry="2.62469" transform="rotate(14.4844 58.0531 80.7837)" fill="#0B50FF"/>
<ellipse cx="105.209" cy="47.7427" rx="2.5" ry="2.62469" transform="rotate(14.4844 105.209 47.7427)" fill="#0B50FF"/>
<ellipse cx="94.2562" cy="90.1353" rx="2.5" ry="2.62469" transform="rotate(14.4844 94.2562 90.1353)" fill="#0B50FF"/>
</svg>
