<svg width="1440" height="979" viewBox="0 0 1440 979" fill="none" xmlns="http://www.w3.org/2000/svg">
<g clip-path="url(#clip0_4361_23460)">
<rect width="1440" height="1000" fill="#0F75BB"/>
<path d="M1405.49 247.101C1374.06 221.583 1335.77 205.954 1295.46 202.19C1255.15 198.425 1214.63 206.694 1179.02 225.951C1143.41 245.208 1114.31 274.589 1095.39 310.381C1076.47 346.173 1068.59 386.769 1072.73 427.04C1073.43 433.795 1071.41 440.548 1067.12 445.815C1062.84 451.081 1056.64 454.43 1049.88 455.124C1043.13 455.818 1036.38 453.801 1031.11 449.516C1025.84 445.231 1022.49 439.029 1021.8 432.275C1018.33 398.875 1021.48 365.118 1031.07 332.939C1040.67 300.759 1056.52 270.788 1077.71 244.745C1166.81 134.996 1328 118.258 1437.75 207.358C1547.5 296.459 1564.24 457.648 1475.14 567.397C1454.01 593.493 1427.93 615.163 1398.41 631.165C1368.89 647.167 1336.5 657.186 1303.1 660.648C1296.34 661.356 1289.59 659.353 1284.31 655.079C1279.04 650.806 1275.67 644.611 1274.97 637.858C1274.26 631.106 1276.26 624.348 1280.53 619.072C1284.81 613.796 1291 610.435 1297.76 609.726C1338.02 605.51 1376.13 589.453 1407.27 563.585C1438.41 537.716 1461.19 503.197 1472.72 464.39C1484.25 425.582 1484.01 384.227 1472.05 345.552C1460.08 306.877 1436.92 272.617 1405.49 247.101Z" fill="url(#paint0_linear_4361_23460)" fill-opacity="0.5"/>
<path d="M1308.7 366.327C1298.16 357.769 1284.65 353.75 1271.14 355.152C1257.64 356.554 1245.25 363.264 1236.69 373.804C1228.13 384.344 1224.11 397.852 1225.51 411.356C1226.92 424.861 1233.62 437.254 1244.17 445.812C1254.71 454.369 1268.21 458.389 1281.72 456.986C1295.22 455.584 1307.62 448.875 1316.17 438.334C1324.73 427.794 1328.75 414.286 1327.35 400.782C1325.95 387.278 1319.24 374.884 1308.7 366.327Z" fill="url(#paint1_linear_4361_23460)" fill-opacity="0.5"/>
<path d="M1196.94 341.535C1207.55 328.46 1221.22 318.204 1236.74 311.675C1252.26 305.147 1269.16 302.547 1285.92 304.107C1302.69 305.666 1318.81 311.337 1332.86 320.617C1346.91 329.896 1358.46 342.498 1366.47 357.306C1374.49 372.114 1378.73 388.67 1378.82 405.508C1378.91 422.346 1374.84 438.946 1366.98 453.838C1359.12 468.729 1347.71 481.452 1333.76 490.88C1319.81 500.307 1303.75 506.148 1287 507.884C1283.65 508.232 1280.41 509.235 1277.45 510.836C1274.49 512.437 1271.88 514.605 1269.76 517.216C1267.64 519.827 1266.06 522.829 1265.1 526.053C1264.14 529.276 1263.82 532.657 1264.17 536.002C1264.87 542.758 1268.23 548.958 1273.5 553.239C1276.11 555.359 1279.12 556.944 1282.34 557.903C1285.56 558.862 1288.94 559.177 1292.29 558.83C1322.5 555.694 1351.1 543.669 1374.48 524.276C1397.86 504.884 1414.96 478.994 1423.63 449.882C1432.29 420.769 1432.12 389.741 1423.15 360.722C1414.18 331.703 1396.81 305.995 1373.23 286.85C1349.65 267.706 1320.92 255.984 1290.67 253.167C1260.43 250.35 1230.03 256.565 1203.32 271.025C1176.61 285.486 1154.79 307.542 1140.61 334.406C1126.43 361.269 1120.54 391.733 1123.68 421.945C1124.03 425.288 1125.03 428.531 1126.63 431.487C1128.24 434.443 1130.4 437.054 1133.01 439.172C1135.63 441.291 1138.63 442.874 1141.85 443.831C1145.07 444.789 1148.45 445.103 1151.8 444.754C1155.14 444.406 1158.38 443.402 1161.34 441.801C1164.3 440.199 1166.91 438.031 1169.02 435.42C1171.14 432.81 1172.73 429.807 1173.68 426.585C1174.64 423.362 1174.95 419.982 1174.61 416.638C1173.19 403.266 1174.44 389.745 1178.27 376.856C1182.11 363.967 1188.45 351.963 1196.94 341.535Z" fill="url(#paint2_linear_4361_23460)" fill-opacity="0.5"/>
<path d="M1281.21 992.885C1316.27 972.644 1344.55 942.465 1362.46 906.16C1380.37 869.855 1387.12 829.055 1381.86 788.914C1376.59 748.774 1359.55 711.096 1332.87 680.641C1306.2 650.186 1271.1 628.321 1232 617.81C1225.44 616.045 1219.86 611.749 1216.47 605.865C1213.08 599.981 1212.17 592.993 1213.93 586.436C1215.7 579.88 1219.99 574.293 1225.88 570.904C1231.76 567.515 1238.75 566.603 1245.31 568.367C1277.74 577.052 1308.15 592.053 1334.78 612.509C1361.41 632.965 1383.74 658.475 1400.49 687.577C1471.17 810.002 1429.23 966.536 1306.81 1037.22C1184.38 1107.9 1027.85 1065.96 957.165 943.532C940.339 914.472 929.412 882.377 925.011 849.087C920.61 815.797 922.822 781.966 931.519 749.532C933.269 742.971 937.554 737.375 943.43 733.974C949.307 730.573 956.294 729.646 962.854 731.396C969.414 733.146 975.01 737.431 978.411 743.308C981.813 749.184 982.74 756.171 980.989 762.731C970.545 801.845 971.929 843.177 984.968 881.504C998.006 919.831 1022.11 953.433 1054.24 978.064C1086.37 1002.69 1125.08 1017.25 1165.48 1019.89C1205.88 1022.52 1246.15 1013.13 1281.21 992.885Z" fill="url(#paint3_linear_4361_23460)" fill-opacity="0.5"/>
<path d="M1204.43 859.89C1216.18 853.102 1224.76 841.921 1228.28 828.807C1231.79 815.693 1229.95 801.72 1223.16 789.962C1216.37 778.205 1205.19 769.625 1192.08 766.111C1178.96 762.597 1164.99 764.437 1153.23 771.225C1141.48 778.013 1132.9 789.194 1129.38 802.309C1125.87 815.423 1127.71 829.395 1134.5 841.153C1141.29 852.911 1152.47 861.49 1165.58 865.004C1178.69 868.518 1192.67 866.679 1204.43 859.89Z" fill="url(#paint4_linear_4361_23460)" fill-opacity="0.5"/>
<path d="M1267.5 764.368C1275.92 778.948 1280.61 795.381 1281.17 812.21C1281.72 829.04 1278.12 845.746 1270.67 860.848C1263.23 875.951 1252.17 888.984 1238.48 898.794C1224.8 908.603 1208.9 914.885 1192.21 917.083C1175.51 919.281 1158.54 917.328 1142.78 911.397C1127.02 905.465 1112.96 895.738 1101.86 883.078C1090.76 870.417 1082.95 855.214 1079.13 838.815C1075.31 822.416 1075.59 805.328 1079.95 789.064C1080.82 785.816 1081.05 782.427 1080.61 779.093C1080.17 775.759 1079.08 772.543 1077.39 769.631C1075.71 766.718 1073.47 764.166 1070.81 762.118C1068.14 760.071 1065.09 758.569 1061.84 757.699C1055.28 755.941 1048.29 756.861 1042.41 760.257C1039.5 761.939 1036.95 764.177 1034.9 766.846C1032.85 769.514 1031.35 772.559 1030.48 775.808C1022.62 805.147 1023.63 836.158 1033.39 864.921C1043.16 893.683 1061.23 918.905 1085.33 937.396C1109.42 955.887 1138.46 966.817 1168.77 968.804C1199.08 970.791 1229.3 963.745 1255.6 948.558C1281.91 933.371 1303.12 910.724 1316.55 883.482C1329.99 856.24 1335.04 825.627 1331.08 795.512C1327.11 765.398 1314.3 737.136 1294.28 714.3C1274.25 691.463 1247.9 675.079 1218.56 667.219C1215.31 666.35 1211.93 666.129 1208.59 666.569C1205.26 667.009 1202.05 668.101 1199.13 669.783C1196.22 671.465 1193.67 673.704 1191.63 676.372C1189.58 679.04 1188.08 682.085 1187.21 685.332C1186.34 688.58 1186.12 691.967 1186.56 695.3C1187 698.633 1188.09 701.847 1189.78 704.758C1191.46 707.669 1193.7 710.22 1196.37 712.265C1199.03 714.311 1202.08 715.811 1205.33 716.68C1218.32 720.137 1230.5 726.13 1241.17 734.314C1251.84 742.498 1260.79 752.712 1267.5 764.368Z" fill="url(#paint5_linear_4361_23460)" fill-opacity="0.5"/>
</g>
<defs>
<linearGradient id="paint0_linear_4361_23460" x1="1437.75" y1="207.358" x2="1157.71" y2="552.298" gradientUnits="userSpaceOnUse">
<stop stop-color="white"/>
<stop offset="1" stop-color="white" stop-opacity="0"/>
</linearGradient>
<linearGradient id="paint1_linear_4361_23460" x1="1308.7" y1="366.327" x2="1244.17" y2="445.812" gradientUnits="userSpaceOnUse">
<stop stop-color="white"/>
<stop offset="1" stop-color="white" stop-opacity="0"/>
</linearGradient>
<linearGradient id="paint2_linear_4361_23460" x1="1373.23" y1="286.85" x2="1203.26" y2="496.211" gradientUnits="userSpaceOnUse">
<stop stop-color="white"/>
<stop offset="1" stop-color="white" stop-opacity="0"/>
</linearGradient>
<linearGradient id="paint3_linear_4361_23460" x1="1306.81" y1="1037.22" x2="1084.65" y2="652.439" gradientUnits="userSpaceOnUse">
<stop stop-color="white"/>
<stop offset="1" stop-color="white" stop-opacity="0"/>
</linearGradient>
<linearGradient id="paint4_linear_4361_23460" x1="1204.43" y1="859.89" x2="1153.23" y2="771.225" gradientUnits="userSpaceOnUse">
<stop stop-color="white"/>
<stop offset="1" stop-color="white" stop-opacity="0"/>
</linearGradient>
<linearGradient id="paint5_linear_4361_23460" x1="1255.6" y1="948.558" x2="1120.77" y2="715.017" gradientUnits="userSpaceOnUse">
<stop stop-color="white"/>
<stop offset="1" stop-color="white" stop-opacity="0"/>
</linearGradient>
<clipPath id="clip0_4361_23460">
<rect width="1440" height="979" fill="white"/>
</clipPath>
</defs>
</svg>
