<svg width="64" height="65" viewBox="0 0 64 65" fill="none" xmlns="http://www.w3.org/2000/svg">
<g clip-path="url(#clip0_4628_17369)">
<path opacity="0.2" d="M27 36.916H10C9.46957 36.916 8.96086 36.7053 8.58579 36.3302C8.21071 35.9552 8 35.4464 8 34.916V18.916C8 18.3856 8.21071 17.8769 8.58579 17.5018C8.96086 17.1267 9.46957 16.916 10 16.916H25C25.5304 16.916 26.0391 17.1267 26.4142 17.5018C26.7893 17.8769 27 18.3856 27 18.916V36.916Z" fill="#377DFF"/>
<path opacity="0.2" d="M56 36.916H39C38.4696 36.916 37.9609 36.7053 37.5858 36.3302C37.2107 35.9552 37 35.4464 37 34.916V18.916C37 18.3856 37.2107 17.8769 37.5858 17.5018C37.9609 17.1267 38.4696 16.916 39 16.916H54C54.5304 16.916 55.0391 17.1267 55.4142 17.5018C55.7893 17.8769 56 18.3856 56 18.916V36.916Z" fill="#377DFF"/>
<path d="M27 36.916H10C9.46957 36.916 8.96086 36.7053 8.58579 36.3302C8.21071 35.9552 8 35.4464 8 34.916V18.916C8 18.3856 8.21071 17.8769 8.58579 17.5018C8.96086 17.1267 9.46957 16.916 10 16.916H25C25.5304 16.916 26.0391 17.1267 26.4142 17.5018C26.7893 17.8769 27 18.3856 27 18.916V40.916C27 43.5682 25.9464 46.1117 24.0711 47.9871C22.1957 49.8624 19.6522 50.916 17 50.916" stroke="#377DFF" stroke-width="3" stroke-linecap="round" stroke-linejoin="round"/>
<path d="M56 36.916H39C38.4696 36.916 37.9609 36.7053 37.5858 36.3302C37.2107 35.9552 37 35.4464 37 34.916V18.916C37 18.3856 37.2107 17.8769 37.5858 17.5018C37.9609 17.1267 38.4696 16.916 39 16.916H54C54.5304 16.916 55.0391 17.1267 55.4142 17.5018C55.7893 17.8769 56 18.3856 56 18.916V40.916C56 43.5682 54.9464 46.1117 53.0711 47.9871C51.1957 49.8624 48.6522 50.916 46 50.916" stroke="#377DFF" stroke-width="3" stroke-linecap="round" stroke-linejoin="round"/>
</g>
<defs>
<clipPath id="clip0_4628_17369">
<rect width="64" height="64" fill="white" transform="translate(0 0.916016)"/>
</clipPath>
</defs>
</svg>
