<svg width="19" height="18" viewBox="0 0 19 18" fill="none" xmlns="http://www.w3.org/2000/svg">
<path d="M8.54894 0.843067C8.8483 -0.0782433 10.1517 -0.0782444 10.4511 0.843066L11.9697 5.51683C12.1035 5.92885 12.4875 6.20781 12.9207 6.20781H17.835C18.8037 6.20781 19.2065 7.44743 18.4228 8.01683L14.447 10.9054C14.0966 11.16 13.9499 11.6114 14.0838 12.0234L15.6024 16.6972C15.9017 17.6185 14.8472 18.3846 14.0635 17.8152L10.0878 14.9267C9.7373 14.672 9.2627 14.672 8.91221 14.9267L4.93648 17.8152C4.15276 18.3846 3.09828 17.6185 3.39763 16.6972L4.91623 12.0234C5.05011 11.6114 4.90345 11.16 4.55296 10.9054L0.577221 8.01683C-0.206493 7.44743 0.196283 6.20781 1.16501 6.20781H6.07929C6.51252 6.20781 6.89647 5.92885 7.03035 5.51683L8.54894 0.843067Z" fill="#377DFF"/>
</svg>
