<svg width="342" height="298" viewBox="0 0 342 298" fill="none" xmlns="http://www.w3.org/2000/svg">
<g filter="url(#filter0_d_4608_17601)">
<rect x="46" y="36" width="250" height="206" rx="10" fill="#FBFEFF"/>
<path d="M73.2871 66.4004V68H68.2764V66.4004H73.2871ZM68.9395 58.0469V68H66.8887V58.0469H68.9395ZM76.418 60.6035V68H74.4424V60.6035H76.418ZM74.3193 58.6758C74.3193 58.3887 74.4196 58.1517 74.6201 57.9648C74.8206 57.778 75.0895 57.6846 75.4268 57.6846C75.7594 57.6846 76.026 57.778 76.2266 57.9648C76.4316 58.1517 76.5342 58.3887 76.5342 58.6758C76.5342 58.9629 76.4316 59.1999 76.2266 59.3867C76.026 59.5736 75.7594 59.667 75.4268 59.667C75.0895 59.667 74.8206 59.5736 74.6201 59.3867C74.4196 59.1999 74.3193 58.9629 74.3193 58.6758ZM80.5605 66.5645L82.2012 60.6035H84.2588L81.7637 68H80.5195L80.5605 66.5645ZM79.4326 60.6035L81.0801 66.5713L81.1143 68H79.8633L77.3682 60.6035H79.4326ZM88.4492 68.1367C87.875 68.1367 87.36 68.0456 86.9043 67.8633C86.4486 67.6764 86.0612 67.4189 85.7422 67.0908C85.4277 66.7627 85.1862 66.3822 85.0176 65.9492C84.849 65.5117 84.7646 65.0469 84.7646 64.5547V64.2812C84.7646 63.7207 84.8444 63.208 85.0039 62.7432C85.1634 62.2783 85.3913 61.875 85.6875 61.5332C85.9883 61.1914 86.3529 60.9294 86.7812 60.7471C87.2096 60.5602 87.6927 60.4668 88.2305 60.4668C88.7546 60.4668 89.2194 60.5534 89.625 60.7266C90.0306 60.8997 90.3701 61.1458 90.6436 61.4648C90.9215 61.7839 91.1312 62.1667 91.2725 62.6133C91.4137 63.0553 91.4844 63.5475 91.4844 64.0898V64.9102H85.6055V63.5977H89.5498V63.4473C89.5498 63.1738 89.4997 62.93 89.3994 62.7158C89.3037 62.4971 89.1579 62.3239 88.9619 62.1963C88.766 62.0687 88.5153 62.0049 88.21 62.0049C87.9502 62.0049 87.7269 62.0618 87.54 62.1758C87.3532 62.2897 87.2005 62.4492 87.082 62.6543C86.9681 62.8594 86.8815 63.1009 86.8223 63.3789C86.7676 63.6523 86.7402 63.9531 86.7402 64.2812V64.5547C86.7402 64.8509 86.7812 65.1243 86.8633 65.375C86.9499 65.6257 87.0706 65.8421 87.2256 66.0244C87.3851 66.2067 87.5765 66.348 87.7998 66.4482C88.0277 66.5485 88.2852 66.5986 88.5723 66.5986C88.9277 66.5986 89.2581 66.5303 89.5635 66.3936C89.8734 66.2523 90.14 66.0404 90.3633 65.7578L91.3203 66.7969C91.1654 67.0202 90.9535 67.2344 90.6846 67.4395C90.4202 67.6445 90.1012 67.8132 89.7275 67.9453C89.3538 68.0729 88.9277 68.1367 88.4492 68.1367ZM101.711 58.0469H103.755V64.623C103.755 65.3887 103.591 66.0335 103.263 66.5576C102.939 67.0817 102.49 67.4759 101.916 67.7402C101.346 68.0046 100.69 68.1367 99.9473 68.1367C99.2044 68.1367 98.5436 68.0046 97.9648 67.7402C97.3906 67.4759 96.9395 67.0817 96.6113 66.5576C96.2878 66.0335 96.126 65.3887 96.126 64.623V58.0469H98.1768V64.623C98.1768 65.0697 98.2474 65.4342 98.3887 65.7168C98.5299 65.9993 98.7327 66.2067 98.9971 66.3389C99.266 66.471 99.5827 66.5371 99.9473 66.5371C100.321 66.5371 100.638 66.471 100.897 66.3389C101.162 66.2067 101.362 65.9993 101.499 65.7168C101.64 65.4342 101.711 65.0697 101.711 64.623V58.0469ZM107.289 62.0254V70.8438H105.32V60.6035H107.146L107.289 62.0254ZM111.972 64.2197V64.3633C111.972 64.901 111.908 65.4001 111.78 65.8604C111.657 66.3206 111.475 66.7217 111.233 67.0635C110.992 67.4007 110.691 67.665 110.331 67.8564C109.976 68.0433 109.565 68.1367 109.101 68.1367C108.649 68.1367 108.257 68.0456 107.925 67.8633C107.592 67.681 107.312 67.4258 107.084 67.0977C106.861 66.765 106.681 66.3799 106.544 65.9424C106.407 65.5049 106.302 65.0355 106.229 64.5342V64.1582C106.302 63.6204 106.407 63.1283 106.544 62.6816C106.681 62.2305 106.861 61.8408 107.084 61.5127C107.312 61.18 107.59 60.9225 107.918 60.7402C108.251 60.5579 108.64 60.4668 109.087 60.4668C109.556 60.4668 109.969 60.5557 110.324 60.7334C110.684 60.9111 110.985 61.1663 111.227 61.499C111.473 61.8317 111.657 62.2282 111.78 62.6885C111.908 63.1488 111.972 63.6592 111.972 64.2197ZM109.996 64.3633V64.2197C109.996 63.9053 109.969 63.6159 109.914 63.3516C109.864 63.0827 109.782 62.848 109.668 62.6475C109.559 62.4469 109.413 62.292 109.23 62.1826C109.053 62.0687 108.836 62.0117 108.581 62.0117C108.312 62.0117 108.082 62.055 107.891 62.1416C107.704 62.2282 107.551 62.3535 107.433 62.5176C107.314 62.6816 107.225 62.8776 107.166 63.1055C107.107 63.3333 107.07 63.5908 107.057 63.8779V64.8281C107.079 65.1654 107.143 65.4684 107.248 65.7373C107.353 66.0016 107.515 66.2113 107.733 66.3662C107.952 66.5212 108.239 66.5986 108.595 66.5986C108.854 66.5986 109.073 66.5417 109.251 66.4277C109.429 66.3092 109.572 66.1475 109.682 65.9424C109.796 65.7373 109.875 65.5003 109.921 65.2314C109.971 64.9626 109.996 64.6732 109.996 64.3633ZM117.563 66.3867V57.5H119.546V68H117.762L117.563 66.3867ZM112.888 64.3906V64.2471C112.888 63.682 112.951 63.1693 113.079 62.709C113.207 62.2441 113.394 61.8454 113.64 61.5127C113.886 61.18 114.189 60.9225 114.549 60.7402C114.909 60.5579 115.319 60.4668 115.779 60.4668C116.212 60.4668 116.59 60.5579 116.914 60.7402C117.242 60.9225 117.52 61.1823 117.748 61.5195C117.98 61.8522 118.167 62.2464 118.309 62.7021C118.45 63.1533 118.552 63.6478 118.616 64.1855V64.5C118.552 65.015 118.45 65.4935 118.309 65.9355C118.167 66.3776 117.98 66.765 117.748 67.0977C117.52 67.4258 117.242 67.681 116.914 67.8633C116.586 68.0456 116.203 68.1367 115.766 68.1367C115.305 68.1367 114.895 68.0433 114.535 67.8564C114.18 67.6696 113.879 67.4076 113.633 67.0703C113.391 66.7331 113.207 66.3366 113.079 65.8809C112.951 65.4251 112.888 64.9284 112.888 64.3906ZM114.856 64.2471V64.3906C114.856 64.696 114.879 64.9808 114.925 65.2451C114.975 65.5094 115.055 65.7441 115.164 65.9492C115.278 66.1497 115.424 66.307 115.602 66.4209C115.784 66.5303 116.005 66.585 116.265 66.585C116.602 66.585 116.88 66.5098 117.099 66.3594C117.317 66.2044 117.484 65.9925 117.598 65.7236C117.716 65.4548 117.785 65.1449 117.803 64.7939V63.8984C117.789 63.6113 117.748 63.3538 117.68 63.126C117.616 62.8936 117.52 62.6953 117.393 62.5312C117.27 62.3672 117.115 62.2396 116.928 62.1484C116.745 62.0573 116.529 62.0117 116.278 62.0117C116.023 62.0117 115.804 62.071 115.622 62.1895C115.44 62.3034 115.292 62.4606 115.178 62.6611C115.068 62.8617 114.986 63.0986 114.932 63.3721C114.882 63.641 114.856 63.9326 114.856 64.2471ZM125.076 66.332V63.0371C125.076 62.8001 125.037 62.5973 124.96 62.4287C124.882 62.2555 124.762 62.1211 124.598 62.0254C124.438 61.9297 124.231 61.8818 123.976 61.8818C123.757 61.8818 123.568 61.9206 123.408 61.998C123.249 62.071 123.126 62.1781 123.039 62.3193C122.952 62.4561 122.909 62.6178 122.909 62.8047H120.94C120.94 62.4902 121.013 62.1917 121.159 61.9092C121.305 61.6266 121.517 61.3783 121.795 61.1641C122.073 60.9453 122.403 60.7744 122.786 60.6514C123.174 60.5283 123.606 60.4668 124.085 60.4668C124.659 60.4668 125.17 60.5625 125.616 60.7539C126.063 60.9453 126.414 61.2324 126.669 61.6152C126.929 61.998 127.059 62.4766 127.059 63.0508V66.2158C127.059 66.6214 127.084 66.9541 127.134 67.2139C127.184 67.4691 127.257 67.6924 127.353 67.8838V68H125.363C125.268 67.7995 125.195 67.5488 125.145 67.248C125.099 66.9427 125.076 66.6374 125.076 66.332ZM125.336 63.4951L125.35 64.6094H124.249C123.989 64.6094 123.764 64.639 123.572 64.6982C123.381 64.7575 123.224 64.8418 123.101 64.9512C122.978 65.056 122.886 65.179 122.827 65.3203C122.772 65.4616 122.745 65.6165 122.745 65.7852C122.745 65.9538 122.784 66.1064 122.861 66.2432C122.939 66.3753 123.05 66.4801 123.196 66.5576C123.342 66.6305 123.513 66.667 123.709 66.667C124.005 66.667 124.263 66.6077 124.481 66.4893C124.7 66.3708 124.869 66.2249 124.987 66.0518C125.11 65.8786 125.174 65.7145 125.179 65.5596L125.698 66.3936C125.625 66.5804 125.525 66.7741 125.397 66.9746C125.274 67.1751 125.117 67.3643 124.926 67.542C124.734 67.7152 124.504 67.8587 124.235 67.9727C123.966 68.082 123.647 68.1367 123.278 68.1367C122.809 68.1367 122.383 68.0433 122 67.8564C121.622 67.665 121.321 67.403 121.098 67.0703C120.879 66.7331 120.77 66.3503 120.77 65.9219C120.77 65.5345 120.842 65.1904 120.988 64.8896C121.134 64.5889 121.348 64.3359 121.631 64.1309C121.918 63.9212 122.276 63.764 122.704 63.6592C123.132 63.5498 123.629 63.4951 124.194 63.4951H125.336ZM132.199 60.6035V61.998H127.893V60.6035H132.199ZM128.959 58.7783H130.928V65.7715C130.928 65.9857 130.955 66.1497 131.01 66.2637C131.069 66.3776 131.156 66.4574 131.27 66.5029C131.383 66.5439 131.527 66.5645 131.7 66.5645C131.823 66.5645 131.933 66.5599 132.028 66.5508C132.129 66.5371 132.213 66.5234 132.281 66.5098L132.288 67.959C132.119 68.0137 131.937 68.057 131.741 68.0889C131.545 68.1208 131.329 68.1367 131.092 68.1367C130.659 68.1367 130.281 68.0661 129.957 67.9248C129.638 67.779 129.392 67.5465 129.219 67.2275C129.046 66.9085 128.959 66.4893 128.959 65.9697V58.7783ZM136.725 68.1367C136.15 68.1367 135.635 68.0456 135.18 67.8633C134.724 67.6764 134.337 67.4189 134.018 67.0908C133.703 66.7627 133.462 66.3822 133.293 65.9492C133.124 65.5117 133.04 65.0469 133.04 64.5547V64.2812C133.04 63.7207 133.12 63.208 133.279 62.7432C133.439 62.2783 133.667 61.875 133.963 61.5332C134.264 61.1914 134.628 60.9294 135.057 60.7471C135.485 60.5602 135.968 60.4668 136.506 60.4668C137.03 60.4668 137.495 60.5534 137.9 60.7266C138.306 60.8997 138.646 61.1458 138.919 61.4648C139.197 61.7839 139.407 62.1667 139.548 62.6133C139.689 63.0553 139.76 63.5475 139.76 64.0898V64.9102H133.881V63.5977H137.825V63.4473C137.825 63.1738 137.775 62.93 137.675 62.7158C137.579 62.4971 137.433 62.3239 137.237 62.1963C137.041 62.0687 136.791 62.0049 136.485 62.0049C136.226 62.0049 136.002 62.0618 135.815 62.1758C135.629 62.2897 135.476 62.4492 135.357 62.6543C135.243 62.8594 135.157 63.1009 135.098 63.3789C135.043 63.6523 135.016 63.9531 135.016 64.2812V64.5547C135.016 64.8509 135.057 65.1243 135.139 65.375C135.225 65.6257 135.346 65.8421 135.501 66.0244C135.66 66.2067 135.852 66.348 136.075 66.4482C136.303 66.5485 136.561 66.5986 136.848 66.5986C137.203 66.5986 137.534 66.5303 137.839 66.3936C138.149 66.2523 138.415 66.0404 138.639 65.7578L139.596 66.7969C139.441 67.0202 139.229 67.2344 138.96 67.4395C138.696 67.6445 138.377 67.8132 138.003 67.9453C137.629 68.0729 137.203 68.1367 136.725 68.1367Z" fill="#060640"/>
<rect opacity="0.06" x="66" y="86" width="210" height="1" fill="#060640"/>
<rect x="66" y="102" width="210" height="55" rx="10" fill="#ECF9FF"/>
<path d="M82.75 134.891L81.5293 142H81.2656L82.4912 134.891H82.75ZM85.2598 134.891L85.2256 135.154H79.9424L79.9766 134.891H85.2598ZM85.7529 137.635L85.001 142H84.7373L85.6455 136.717H85.9092L85.7529 137.635ZM87.9502 136.678L87.8867 136.902C87.8346 136.896 87.7826 136.891 87.7305 136.888C87.6784 136.881 87.6247 136.878 87.5693 136.878C87.2568 136.878 86.9801 136.946 86.7393 137.083C86.4984 137.216 86.29 137.396 86.1143 137.62C85.9417 137.845 85.7985 138.092 85.6846 138.362C85.5739 138.629 85.4909 138.896 85.4355 139.163L85.2549 139.178C85.3135 138.875 85.3997 138.572 85.5137 138.27C85.6309 137.967 85.7822 137.69 85.9678 137.439C86.1566 137.189 86.3828 136.989 86.6465 136.839C86.9134 136.689 87.2243 136.616 87.5791 136.619C87.6442 136.619 87.7077 136.624 87.7695 136.634C87.8314 136.644 87.8916 136.658 87.9502 136.678ZM91.1729 141.009L91.6416 138.279C91.6937 137.98 91.6693 137.726 91.5684 137.518C91.4707 137.309 91.3161 137.151 91.1045 137.044C90.8929 136.937 90.6406 136.883 90.3477 136.883C90.0775 136.883 89.8105 136.933 89.5469 137.034C89.2865 137.132 89.0586 137.277 88.8633 137.469C88.668 137.658 88.5378 137.89 88.4727 138.167L88.209 138.157C88.2578 137.913 88.3506 137.697 88.4873 137.508C88.6273 137.316 88.7965 137.155 88.9951 137.024C89.1937 136.894 89.4085 136.795 89.6396 136.727C89.874 136.655 90.11 136.619 90.3477 136.619C90.6862 136.619 90.9824 136.686 91.2363 136.819C91.4902 136.95 91.6774 137.14 91.7979 137.391C91.9215 137.638 91.9557 137.938 91.9004 138.289L91.4463 140.936C91.417 141.102 91.3942 141.271 91.3779 141.443C91.3649 141.616 91.373 141.787 91.4023 141.956L91.3975 142H91.0996C91.0866 141.834 91.0882 141.668 91.1045 141.502C91.1208 141.336 91.1436 141.172 91.1729 141.009ZM91.6221 139.051L91.5977 139.319H90.2793C90.0514 139.323 89.8105 139.347 89.5566 139.393C89.3027 139.435 89.0586 139.508 88.8242 139.612C88.5898 139.713 88.388 139.852 88.2188 140.027C88.0527 140.2 87.9437 140.418 87.8916 140.682C87.8493 140.916 87.8753 141.119 87.9697 141.292C88.0641 141.465 88.2025 141.598 88.3848 141.692C88.5671 141.787 88.7673 141.836 88.9854 141.839C89.3337 141.842 89.6559 141.782 89.9521 141.658C90.2516 141.531 90.5202 141.357 90.7578 141.136C90.9954 140.911 91.1973 140.651 91.3633 140.354L91.4463 140.608C91.3291 140.836 91.1842 141.043 91.0117 141.229C90.8392 141.414 90.6455 141.572 90.4307 141.702C90.2158 141.829 89.9863 141.927 89.7422 141.995C89.5013 142.063 89.2507 142.098 88.9902 142.098C88.7103 142.094 88.4596 142.036 88.2383 141.922C88.0169 141.805 87.8493 141.639 87.7354 141.424C87.6214 141.209 87.5872 140.955 87.6328 140.662C87.6816 140.359 87.7956 140.105 87.9746 139.9C88.1536 139.695 88.3701 139.531 88.624 139.407C88.8812 139.284 89.153 139.194 89.4395 139.139C89.7259 139.083 89.9993 139.054 90.2598 139.051H91.6221ZM94.3906 141.688L97.0469 136.722H97.335L94.5225 142H94.2686L94.3906 141.688ZM93.3652 136.712L94.4834 141.692L94.5127 142H94.2686L93.0918 136.712H93.3652ZM99.3027 142.098C98.9479 142.098 98.6419 142.021 98.3848 141.868C98.1309 141.712 97.9258 141.507 97.7695 141.253C97.6165 140.996 97.5124 140.713 97.457 140.403C97.4049 140.094 97.4001 139.783 97.4424 139.471L97.4766 139.256C97.5254 138.94 97.6198 138.628 97.7598 138.318C97.8997 138.006 98.0788 137.723 98.2969 137.469C98.515 137.212 98.7689 137.007 99.0586 136.854C99.3483 136.697 99.6689 136.619 100.021 136.619C100.336 136.619 100.605 136.684 100.826 136.814C101.048 136.941 101.225 137.114 101.358 137.332C101.492 137.547 101.581 137.788 101.627 138.055C101.676 138.322 101.681 138.595 101.642 138.875L101.603 139.183H97.6572L97.6914 138.919H101.358L101.373 138.855C101.428 138.543 101.415 138.235 101.334 137.933C101.253 137.63 101.103 137.381 100.885 137.186C100.667 136.987 100.379 136.886 100.021 136.883C99.7048 136.883 99.4167 136.953 99.1562 137.093C98.8991 137.229 98.6729 137.415 98.4775 137.649C98.2855 137.881 98.126 138.136 97.999 138.416C97.8753 138.696 97.7891 138.976 97.7402 139.256L97.7061 139.471C97.6637 139.744 97.6637 140.019 97.7061 140.296C97.7484 140.573 97.8346 140.828 97.9648 141.062C98.0951 141.294 98.2708 141.481 98.4922 141.624C98.7135 141.764 98.9821 141.836 99.2979 141.839C99.6266 141.842 99.9261 141.78 100.196 141.653C100.466 141.523 100.715 141.344 100.943 141.116L101.119 141.253C100.963 141.432 100.79 141.585 100.602 141.712C100.413 141.839 100.209 141.935 99.9912 142C99.7731 142.065 99.5436 142.098 99.3027 142.098ZM103.912 134.5L102.623 142H102.359L103.648 134.5H103.912ZM108.009 134.891H110.187C110.593 134.897 110.956 134.982 111.275 135.145C111.594 135.304 111.834 135.535 111.993 135.838C112.153 136.141 112.197 136.508 112.125 136.941C112.066 137.293 111.946 137.599 111.764 137.859C111.581 138.12 111.355 138.336 111.085 138.509C110.815 138.678 110.517 138.808 110.191 138.899L110.03 138.958H107.369L107.398 138.694H109.757C110.102 138.688 110.421 138.61 110.714 138.46C111.01 138.31 111.259 138.105 111.461 137.845C111.663 137.584 111.796 137.283 111.861 136.941C111.93 136.561 111.896 136.238 111.759 135.975C111.625 135.711 111.419 135.511 111.139 135.374C110.862 135.234 110.545 135.161 110.187 135.154H108.229L107.042 142H106.783L108.009 134.891ZM111.271 142L109.908 138.86L110.201 138.851L111.549 141.932L111.539 142H111.271ZM116.407 141.009L116.876 138.279C116.928 137.98 116.904 137.726 116.803 137.518C116.705 137.309 116.55 137.151 116.339 137.044C116.127 136.937 115.875 136.883 115.582 136.883C115.312 136.883 115.045 136.933 114.781 137.034C114.521 137.132 114.293 137.277 114.098 137.469C113.902 137.658 113.772 137.89 113.707 138.167L113.443 138.157C113.492 137.913 113.585 137.697 113.722 137.508C113.862 137.316 114.031 137.155 114.229 137.024C114.428 136.894 114.643 136.795 114.874 136.727C115.108 136.655 115.344 136.619 115.582 136.619C115.921 136.619 116.217 136.686 116.471 136.819C116.725 136.95 116.912 137.14 117.032 137.391C117.156 137.638 117.19 137.938 117.135 138.289L116.681 140.936C116.651 141.102 116.629 141.271 116.612 141.443C116.599 141.616 116.607 141.787 116.637 141.956L116.632 142H116.334C116.321 141.834 116.323 141.668 116.339 141.502C116.355 141.336 116.378 141.172 116.407 141.009ZM116.856 139.051L116.832 139.319H115.514C115.286 139.323 115.045 139.347 114.791 139.393C114.537 139.435 114.293 139.508 114.059 139.612C113.824 139.713 113.622 139.852 113.453 140.027C113.287 140.2 113.178 140.418 113.126 140.682C113.084 140.916 113.11 141.119 113.204 141.292C113.299 141.465 113.437 141.598 113.619 141.692C113.801 141.787 114.002 141.836 114.22 141.839C114.568 141.842 114.89 141.782 115.187 141.658C115.486 141.531 115.755 141.357 115.992 141.136C116.23 140.911 116.432 140.651 116.598 140.354L116.681 140.608C116.563 140.836 116.419 141.043 116.246 141.229C116.074 141.414 115.88 141.572 115.665 141.702C115.45 141.829 115.221 141.927 114.977 141.995C114.736 142.063 114.485 142.098 114.225 142.098C113.945 142.094 113.694 142.036 113.473 141.922C113.251 141.805 113.084 141.639 112.97 141.424C112.856 141.209 112.822 140.955 112.867 140.662C112.916 140.359 113.03 140.105 113.209 139.9C113.388 139.695 113.604 139.531 113.858 139.407C114.116 139.284 114.387 139.194 114.674 139.139C114.96 139.083 115.234 139.054 115.494 139.051H116.856ZM120.797 136.717L120.763 136.985H118.38L118.419 136.717H120.797ZM119.615 135.291H119.884L118.941 140.735C118.912 140.905 118.901 141.074 118.907 141.243C118.914 141.409 118.961 141.549 119.049 141.663C119.137 141.774 119.286 141.831 119.498 141.834C119.589 141.834 119.679 141.829 119.767 141.819C119.854 141.81 119.942 141.8 120.03 141.79L120.04 142.039C119.952 142.062 119.864 142.076 119.776 142.083C119.688 142.093 119.599 142.098 119.508 142.098C119.231 142.094 119.028 142.029 118.897 141.902C118.767 141.772 118.688 141.604 118.658 141.399C118.632 141.191 118.639 140.97 118.678 140.735L119.615 135.291ZM123.121 142.098C122.766 142.098 122.46 142.021 122.203 141.868C121.949 141.712 121.744 141.507 121.588 141.253C121.435 140.996 121.331 140.713 121.275 140.403C121.223 140.094 121.218 139.783 121.261 139.471L121.295 139.256C121.344 138.94 121.438 138.628 121.578 138.318C121.718 138.006 121.897 137.723 122.115 137.469C122.333 137.212 122.587 137.007 122.877 136.854C123.167 136.697 123.487 136.619 123.839 136.619C124.155 136.619 124.423 136.684 124.645 136.814C124.866 136.941 125.043 137.114 125.177 137.332C125.31 137.547 125.4 137.788 125.445 138.055C125.494 138.322 125.499 138.595 125.46 138.875L125.421 139.183H121.476L121.51 138.919H125.177L125.191 138.855C125.247 138.543 125.234 138.235 125.152 137.933C125.071 137.63 124.921 137.381 124.703 137.186C124.485 136.987 124.197 136.886 123.839 136.883C123.523 136.883 123.235 136.953 122.975 137.093C122.717 137.229 122.491 137.415 122.296 137.649C122.104 137.881 121.944 138.136 121.817 138.416C121.694 138.696 121.607 138.976 121.559 139.256L121.524 139.471C121.482 139.744 121.482 140.019 121.524 140.296C121.567 140.573 121.653 140.828 121.783 141.062C121.913 141.294 122.089 141.481 122.311 141.624C122.532 141.764 122.8 141.836 123.116 141.839C123.445 141.842 123.744 141.78 124.015 141.653C124.285 141.523 124.534 141.344 124.762 141.116L124.938 141.253C124.781 141.432 124.609 141.585 124.42 141.712C124.231 141.839 124.028 141.935 123.81 142C123.591 142.065 123.362 142.098 123.121 142.098Z" fill="black"/>
<path d="M87.2969 125.898C87.2969 126.607 87.1328 127.203 86.8047 127.688C86.4766 128.172 86.0286 128.539 85.4609 128.789C84.8984 129.034 84.263 129.156 83.5547 129.156C82.8464 129.156 82.2083 129.034 81.6406 128.789C81.0729 128.539 80.625 128.172 80.2969 127.688C79.9688 127.203 79.8047 126.607 79.8047 125.898C79.8047 125.43 79.8958 125.005 80.0781 124.625C80.2604 124.24 80.5182 123.909 80.8516 123.633C81.1901 123.352 81.5859 123.135 82.0391 122.984C82.4974 122.833 82.9974 122.758 83.5391 122.758C84.2578 122.758 84.901 122.891 85.4688 123.156C86.0365 123.422 86.4818 123.789 86.8047 124.258C87.1328 124.727 87.2969 125.273 87.2969 125.898ZM85.4062 125.805C85.4062 125.424 85.3281 125.091 85.1719 124.805C85.0156 124.518 84.7969 124.297 84.5156 124.141C84.2344 123.984 83.9089 123.906 83.5391 123.906C83.1641 123.906 82.8385 123.984 82.5625 124.141C82.2865 124.297 82.0703 124.518 81.9141 124.805C81.763 125.091 81.6875 125.424 81.6875 125.805C81.6875 126.19 81.763 126.523 81.9141 126.805C82.0651 127.081 82.2812 127.292 82.5625 127.438C82.8438 127.583 83.1745 127.656 83.5547 127.656C83.9349 127.656 84.263 127.583 84.5391 127.438C84.8151 127.292 85.0286 127.081 85.1797 126.805C85.3307 126.523 85.4062 126.19 85.4062 125.805ZM87.0391 120.617C87.0391 121.185 86.888 121.69 86.5859 122.133C86.2891 122.576 85.8776 122.924 85.3516 123.18C84.8255 123.43 84.2266 123.555 83.5547 123.555C82.8776 123.555 82.2734 123.43 81.7422 123.18C81.2161 122.924 80.8021 122.576 80.5 122.133C80.2031 121.69 80.0547 121.185 80.0547 120.617C80.0547 119.94 80.2031 119.37 80.5 118.906C80.8021 118.438 81.2161 118.081 81.7422 117.836C82.2682 117.591 82.8698 117.469 83.5469 117.469C84.224 117.469 84.8255 117.591 85.3516 117.836C85.8776 118.081 86.2891 118.438 86.5859 118.906C86.888 119.37 87.0391 119.94 87.0391 120.617ZM85.1562 120.68C85.1562 120.341 85.0885 120.044 84.9531 119.789C84.8229 119.529 84.638 119.326 84.3984 119.18C84.1589 119.034 83.875 118.961 83.5469 118.961C83.2188 118.961 82.9349 119.031 82.6953 119.172C82.4557 119.312 82.2708 119.51 82.1406 119.766C82.0104 120.021 81.9453 120.326 81.9453 120.68C81.9453 121.029 82.0104 121.333 82.1406 121.594C82.2708 121.849 82.4557 122.049 82.6953 122.195C82.9401 122.341 83.2266 122.414 83.5547 122.414C83.8828 122.414 84.1667 122.341 84.4062 122.195C84.6458 122.049 84.8307 121.849 84.9609 121.594C85.0911 121.333 85.1562 121.029 85.1562 120.68ZM96.3672 122.359V124.219C96.3672 125.109 96.2786 125.87 96.1016 126.5C95.9297 127.125 95.6797 127.633 95.3516 128.023C95.0234 128.414 94.6302 128.701 94.1719 128.883C93.7188 129.065 93.2109 129.156 92.6484 129.156C92.2005 129.156 91.7839 129.099 91.3984 128.984C91.0182 128.87 90.6745 128.69 90.3672 128.445C90.0599 128.201 89.7969 127.885 89.5781 127.5C89.3646 127.109 89.1979 126.643 89.0781 126.102C88.9635 125.56 88.9062 124.932 88.9062 124.219V122.359C88.9062 121.464 88.9948 120.708 89.1719 120.094C89.349 119.474 89.6016 118.971 89.9297 118.586C90.2578 118.195 90.6484 117.911 91.1016 117.734C91.5599 117.557 92.0703 117.469 92.6328 117.469C93.0859 117.469 93.5026 117.526 93.8828 117.641C94.2682 117.75 94.612 117.924 94.9141 118.164C95.2214 118.404 95.4818 118.716 95.6953 119.102C95.9141 119.482 96.0807 119.943 96.1953 120.484C96.3099 121.021 96.3672 121.646 96.3672 122.359ZM94.4844 124.484V122.078C94.4844 121.625 94.4583 121.227 94.4062 120.883C94.3542 120.534 94.276 120.24 94.1719 120C94.0729 119.755 93.9479 119.557 93.7969 119.406C93.6458 119.25 93.474 119.138 93.2812 119.07C93.0885 118.997 92.8724 118.961 92.6328 118.961C92.3411 118.961 92.0807 119.018 91.8516 119.133C91.6224 119.242 91.4297 119.419 91.2734 119.664C91.1172 119.909 90.9974 120.232 90.9141 120.633C90.8359 121.029 90.7969 121.51 90.7969 122.078V124.484C90.7969 124.943 90.8229 125.346 90.875 125.695C90.9271 126.044 91.0052 126.344 91.1094 126.594C91.2135 126.839 91.3385 127.042 91.4844 127.203C91.6354 127.359 91.8073 127.474 92 127.547C92.1979 127.62 92.4141 127.656 92.6484 127.656C92.9453 127.656 93.2083 127.599 93.4375 127.484C93.6667 127.37 93.8594 127.188 94.0156 126.938C94.1719 126.682 94.2891 126.352 94.3672 125.945C94.4453 125.539 94.4844 125.052 94.4844 124.484ZM97.9688 120.414V119.812C97.9688 119.38 98.0625 118.987 98.25 118.633C98.4375 118.279 98.7109 117.995 99.0703 117.781C99.4297 117.568 99.862 117.461 100.367 117.461C100.888 117.461 101.326 117.568 101.68 117.781C102.039 117.995 102.312 118.279 102.5 118.633C102.688 118.987 102.781 119.38 102.781 119.812V120.414C102.781 120.836 102.688 121.224 102.5 121.578C102.318 121.932 102.047 122.216 101.688 122.43C101.333 122.643 100.898 122.75 100.383 122.75C99.8724 122.75 99.4349 122.643 99.0703 122.43C98.7109 122.216 98.4375 121.932 98.25 121.578C98.0625 121.224 97.9688 120.836 97.9688 120.414ZM99.2734 119.812V120.414C99.2734 120.622 99.3125 120.82 99.3906 121.008C99.474 121.195 99.599 121.346 99.7656 121.461C99.9323 121.576 100.138 121.633 100.383 121.633C100.633 121.633 100.836 121.576 100.992 121.461C101.154 121.346 101.273 121.195 101.352 121.008C101.43 120.82 101.469 120.622 101.469 120.414V119.812C101.469 119.599 101.427 119.398 101.344 119.211C101.266 119.018 101.146 118.865 100.984 118.75C100.823 118.635 100.617 118.578 100.367 118.578C100.128 118.578 99.9245 118.635 99.7578 118.75C99.5964 118.865 99.474 119.018 99.3906 119.211C99.3125 119.398 99.2734 119.599 99.2734 119.812ZM103.453 126.82V126.211C103.453 125.784 103.547 125.393 103.734 125.039C103.927 124.685 104.203 124.401 104.562 124.188C104.922 123.974 105.354 123.867 105.859 123.867C106.38 123.867 106.818 123.974 107.172 124.188C107.531 124.401 107.802 124.685 107.984 125.039C108.172 125.393 108.266 125.784 108.266 126.211V126.82C108.266 127.247 108.172 127.638 107.984 127.992C107.802 128.346 107.534 128.63 107.18 128.844C106.826 129.057 106.393 129.164 105.883 129.164C105.367 129.164 104.927 129.057 104.562 128.844C104.203 128.63 103.927 128.346 103.734 127.992C103.547 127.638 103.453 127.247 103.453 126.82ZM104.766 126.211V126.82C104.766 127.029 104.807 127.227 104.891 127.414C104.979 127.602 105.107 127.755 105.273 127.875C105.44 127.99 105.641 128.047 105.875 128.047C106.141 128.047 106.354 127.99 106.516 127.875C106.677 127.755 106.792 127.604 106.859 127.422C106.932 127.234 106.969 127.034 106.969 126.82V126.211C106.969 125.997 106.927 125.797 106.844 125.609C106.766 125.422 106.643 125.271 106.477 125.156C106.315 125.042 106.109 124.984 105.859 124.984C105.615 124.984 105.411 125.042 105.25 125.156C105.089 125.271 104.966 125.422 104.883 125.609C104.805 125.797 104.766 125.997 104.766 126.211ZM106.328 119.25L100.773 128.141L99.8125 127.586L105.367 118.695L106.328 119.25Z" fill="#0F75BB"/>
<path d="M183 140.5C183 140.5 206.86 114.558 223 121C230.955 124.175 230.529 134.738 239 136C249.739 137.599 261 119 261 119" stroke="#FF4443"/>
<rect x="66" y="167" width="210" height="55" rx="10" fill="#ECF9FF"/>
<path d="M85.6406 199.891L84.4199 207H84.166L80.8652 200.33L79.708 207H79.4395L80.6602 199.891H80.9189L84.2246 206.546L85.377 199.891H85.6406ZM88.0723 207.098C87.7174 207.098 87.4115 207.021 87.1543 206.868C86.9004 206.712 86.6953 206.507 86.5391 206.253C86.3861 205.996 86.2819 205.713 86.2266 205.403C86.1745 205.094 86.1696 204.783 86.2119 204.471L86.2461 204.256C86.2949 203.94 86.3893 203.628 86.5293 203.318C86.6693 203.006 86.8483 202.723 87.0664 202.469C87.2845 202.212 87.5384 202.007 87.8281 201.854C88.1178 201.697 88.4385 201.619 88.79 201.619C89.1058 201.619 89.3743 201.684 89.5957 201.814C89.8171 201.941 89.9945 202.114 90.1279 202.332C90.2614 202.547 90.3509 202.788 90.3965 203.055C90.4453 203.322 90.4502 203.595 90.4111 203.875L90.3721 204.183H86.4268L86.4609 203.919H90.1279L90.1426 203.855C90.1979 203.543 90.1849 203.235 90.1035 202.933C90.0221 202.63 89.8724 202.381 89.6543 202.186C89.4362 201.987 89.1481 201.886 88.79 201.883C88.4743 201.883 88.1862 201.953 87.9258 202.093C87.6686 202.229 87.4424 202.415 87.2471 202.649C87.055 202.881 86.8955 203.136 86.7686 203.416C86.6449 203.696 86.5586 203.976 86.5098 204.256L86.4756 204.471C86.4333 204.744 86.4333 205.019 86.4756 205.296C86.5179 205.573 86.6042 205.828 86.7344 206.062C86.8646 206.294 87.0404 206.481 87.2617 206.624C87.4831 206.764 87.7516 206.836 88.0674 206.839C88.3962 206.842 88.6956 206.78 88.9658 206.653C89.236 206.523 89.485 206.344 89.7129 206.116L89.8887 206.253C89.7324 206.432 89.5599 206.585 89.3711 206.712C89.1823 206.839 88.9788 206.935 88.7607 207C88.5426 207.065 88.3132 207.098 88.0723 207.098ZM92.8672 205.472L94.6738 201.722H94.9131L94.3223 203.05L92.3984 207H92.1445L92.8672 205.472ZM91.8467 201.717L92.252 205.496L92.3691 207H92.1348L91.5537 201.712L91.8467 201.717ZM96.0605 205.472L97.7549 201.722H98.0674L95.665 207H95.4209L96.0605 205.472ZM94.9375 201.712L95.4355 205.496L95.6455 207H95.4062L94.8203 203.006L94.708 201.712H94.9375ZM106.524 199.891H106.788L105.958 204.71C105.877 205.179 105.711 205.592 105.46 205.95C105.209 206.308 104.892 206.59 104.508 206.795C104.127 206.997 103.694 207.098 103.209 207.098C102.737 207.098 102.34 206.995 102.018 206.79C101.699 206.582 101.471 206.299 101.334 205.94C101.197 205.579 101.165 205.169 101.236 204.71L102.071 199.891H102.33L101.5 204.71C101.435 205.11 101.459 205.472 101.573 205.794C101.69 206.113 101.887 206.367 102.164 206.556C102.441 206.741 102.789 206.834 103.209 206.834C103.632 206.834 104.016 206.743 104.361 206.561C104.71 206.375 104.999 206.123 105.23 205.804C105.462 205.485 105.616 205.12 105.694 204.71L106.524 199.891ZM110.655 205.706C110.707 205.439 110.663 205.219 110.523 205.047C110.383 204.871 110.2 204.733 109.972 204.632C109.747 204.531 109.529 204.454 109.317 204.402C109.125 204.354 108.932 204.297 108.736 204.231C108.541 204.163 108.365 204.077 108.209 203.973C108.053 203.865 107.934 203.73 107.853 203.567C107.774 203.401 107.753 203.196 107.789 202.952C107.822 202.724 107.9 202.527 108.023 202.361C108.147 202.195 108.299 202.059 108.478 201.951C108.66 201.84 108.857 201.757 109.068 201.702C109.28 201.647 109.488 201.619 109.693 201.619C110.006 201.619 110.291 201.674 110.548 201.785C110.808 201.896 111.01 202.063 111.153 202.288C111.3 202.509 111.355 202.789 111.319 203.128H111.056C111.085 202.851 111.038 202.622 110.914 202.439C110.79 202.254 110.619 202.116 110.401 202.024C110.183 201.93 109.949 201.883 109.698 201.883C109.47 201.883 109.239 201.92 109.005 201.995C108.771 202.067 108.565 202.181 108.39 202.337C108.214 202.493 108.102 202.695 108.053 202.942C108.014 203.147 108.03 203.32 108.102 203.46C108.173 203.6 108.279 203.715 108.419 203.807C108.562 203.895 108.72 203.968 108.893 204.026C109.065 204.082 109.231 204.131 109.391 204.173C109.658 204.241 109.916 204.334 110.167 204.451C110.421 204.565 110.621 204.723 110.768 204.925C110.917 205.123 110.968 205.385 110.919 205.711C110.883 205.952 110.8 206.16 110.67 206.336C110.543 206.508 110.383 206.652 110.191 206.766C110.003 206.876 109.798 206.959 109.576 207.015C109.358 207.07 109.14 207.098 108.922 207.098C108.626 207.098 108.339 207.049 108.062 206.951C107.789 206.85 107.568 206.694 107.398 206.482C107.232 206.268 107.166 205.993 107.198 205.657H107.457C107.444 205.944 107.506 206.175 107.643 206.351C107.783 206.523 107.966 206.647 108.194 206.722C108.422 206.797 108.663 206.834 108.917 206.834C109.151 206.831 109.392 206.79 109.64 206.712C109.89 206.631 110.11 206.508 110.299 206.346C110.488 206.18 110.606 205.966 110.655 205.706ZM113.971 207.098C113.616 207.098 113.31 207.021 113.053 206.868C112.799 206.712 112.594 206.507 112.438 206.253C112.285 205.996 112.18 205.713 112.125 205.403C112.073 205.094 112.068 204.783 112.11 204.471L112.145 204.256C112.193 203.94 112.288 203.628 112.428 203.318C112.568 203.006 112.747 202.723 112.965 202.469C113.183 202.212 113.437 202.007 113.727 201.854C114.016 201.697 114.337 201.619 114.688 201.619C115.004 201.619 115.273 201.684 115.494 201.814C115.715 201.941 115.893 202.114 116.026 202.332C116.16 202.547 116.249 202.788 116.295 203.055C116.344 203.322 116.349 203.595 116.31 203.875L116.271 204.183H112.325L112.359 203.919H116.026L116.041 203.855C116.096 203.543 116.083 203.235 116.002 202.933C115.921 202.63 115.771 202.381 115.553 202.186C115.335 201.987 115.047 201.886 114.688 201.883C114.373 201.883 114.085 201.953 113.824 202.093C113.567 202.229 113.341 202.415 113.146 202.649C112.953 202.881 112.794 203.136 112.667 203.416C112.543 203.696 112.457 203.976 112.408 204.256L112.374 204.471C112.332 204.744 112.332 205.019 112.374 205.296C112.416 205.573 112.503 205.828 112.633 206.062C112.763 206.294 112.939 206.481 113.16 206.624C113.382 206.764 113.65 206.836 113.966 206.839C114.295 206.842 114.594 206.78 114.864 206.653C115.134 206.523 115.383 206.344 115.611 206.116L115.787 206.253C115.631 206.432 115.458 206.585 115.27 206.712C115.081 206.839 114.877 206.935 114.659 207C114.441 207.065 114.212 207.098 113.971 207.098ZM117.979 202.635L117.228 207H116.964L117.872 201.717H118.136L117.979 202.635ZM120.177 201.678L120.113 201.902C120.061 201.896 120.009 201.891 119.957 201.888C119.905 201.881 119.851 201.878 119.796 201.878C119.483 201.878 119.207 201.946 118.966 202.083C118.725 202.216 118.517 202.396 118.341 202.62C118.168 202.845 118.025 203.092 117.911 203.362C117.8 203.629 117.717 203.896 117.662 204.163L117.481 204.178C117.54 203.875 117.626 203.572 117.74 203.27C117.857 202.967 118.009 202.69 118.194 202.439C118.383 202.189 118.609 201.989 118.873 201.839C119.14 201.689 119.451 201.616 119.806 201.619C119.871 201.619 119.934 201.624 119.996 201.634C120.058 201.644 120.118 201.658 120.177 201.678ZM123.614 205.706C123.666 205.439 123.622 205.219 123.482 205.047C123.342 204.871 123.159 204.733 122.931 204.632C122.706 204.531 122.488 204.454 122.276 204.402C122.084 204.354 121.891 204.297 121.695 204.231C121.5 204.163 121.324 204.077 121.168 203.973C121.012 203.865 120.893 203.73 120.812 203.567C120.733 203.401 120.712 203.196 120.748 202.952C120.781 202.724 120.859 202.527 120.982 202.361C121.106 202.195 121.257 202.059 121.437 201.951C121.619 201.84 121.816 201.757 122.027 201.702C122.239 201.647 122.447 201.619 122.652 201.619C122.965 201.619 123.25 201.674 123.507 201.785C123.767 201.896 123.969 202.063 124.112 202.288C124.259 202.509 124.314 202.789 124.278 203.128H124.015C124.044 202.851 123.997 202.622 123.873 202.439C123.749 202.254 123.578 202.116 123.36 202.024C123.142 201.93 122.908 201.883 122.657 201.883C122.429 201.883 122.198 201.92 121.964 201.995C121.729 202.067 121.524 202.181 121.349 202.337C121.173 202.493 121.061 202.695 121.012 202.942C120.973 203.147 120.989 203.32 121.061 203.46C121.132 203.6 121.238 203.715 121.378 203.807C121.521 203.895 121.679 203.968 121.852 204.026C122.024 204.082 122.19 204.131 122.35 204.173C122.617 204.241 122.875 204.334 123.126 204.451C123.38 204.565 123.58 204.723 123.727 204.925C123.876 205.123 123.927 205.385 123.878 205.711C123.842 205.952 123.759 206.16 123.629 206.336C123.502 206.508 123.342 206.652 123.15 206.766C122.962 206.876 122.757 206.959 122.535 207.015C122.317 207.07 122.099 207.098 121.881 207.098C121.585 207.098 121.298 207.049 121.021 206.951C120.748 206.85 120.527 206.694 120.357 206.482C120.191 206.268 120.125 205.993 120.157 205.657H120.416C120.403 205.944 120.465 206.175 120.602 206.351C120.742 206.523 120.925 206.647 121.153 206.722C121.381 206.797 121.622 206.834 121.876 206.834C122.11 206.831 122.351 206.79 122.599 206.712C122.849 206.631 123.069 206.508 123.258 206.346C123.447 206.18 123.565 205.966 123.614 205.706Z" fill="black"/>
<path d="M85 182.586V194H83.1172V184.82L80.3281 185.766V184.211L84.7734 182.586H85ZM89.1406 193.062C89.1406 192.771 89.2396 192.526 89.4375 192.328C89.6354 192.125 89.9036 192.023 90.2422 192.023C90.5859 192.023 90.8542 192.125 91.0469 192.328C91.2448 192.526 91.3438 192.771 91.3438 193.062C91.3438 193.354 91.2448 193.599 91.0469 193.797C90.8542 193.995 90.5859 194.094 90.2422 194.094C89.9036 194.094 89.6354 193.995 89.4375 193.797C89.2396 193.599 89.1406 193.354 89.1406 193.062ZM99.0938 182.555H99.3281V184.094H99.1953C98.5234 184.094 97.9427 184.198 97.4531 184.406C96.9688 184.615 96.5703 184.901 96.2578 185.266C95.9453 185.63 95.7109 186.057 95.5547 186.547C95.4036 187.031 95.3281 187.547 95.3281 188.094V189.883C95.3281 190.336 95.3776 190.737 95.4766 191.086C95.5755 191.43 95.7135 191.719 95.8906 191.953C96.0729 192.182 96.2812 192.357 96.5156 192.477C96.75 192.596 97.0026 192.656 97.2734 192.656C97.5547 192.656 97.8099 192.599 98.0391 192.484C98.2682 192.365 98.4635 192.201 98.625 191.992C98.7865 191.784 98.9089 191.536 98.9922 191.25C99.0755 190.964 99.1172 190.651 99.1172 190.312C99.1172 189.99 99.0755 189.688 98.9922 189.406C98.9141 189.12 98.7969 188.87 98.6406 188.656C98.4844 188.438 98.2891 188.268 98.0547 188.148C97.8255 188.023 97.5599 187.961 97.2578 187.961C96.8828 187.961 96.5417 188.049 96.2344 188.227C95.9323 188.404 95.6875 188.635 95.5 188.922C95.3177 189.203 95.2188 189.503 95.2031 189.82L94.4844 189.586C94.526 189.102 94.6328 188.667 94.8047 188.281C94.9818 187.896 95.2135 187.568 95.5 187.297C95.7865 187.026 96.1172 186.82 96.4922 186.68C96.8724 186.534 97.2891 186.461 97.7422 186.461C98.2943 186.461 98.7734 186.565 99.1797 186.773C99.5859 186.982 99.9219 187.266 100.188 187.625C100.458 187.979 100.659 188.385 100.789 188.844C100.924 189.297 100.992 189.771 100.992 190.266C100.992 190.812 100.909 191.323 100.742 191.797C100.576 192.266 100.331 192.677 100.008 193.031C99.6901 193.385 99.3021 193.661 98.8438 193.859C98.3906 194.057 97.875 194.156 97.2969 194.156C96.6875 194.156 96.1432 194.039 95.6641 193.805C95.1901 193.57 94.7865 193.247 94.4531 192.836C94.125 192.424 93.875 191.951 93.7031 191.414C93.5312 190.878 93.4453 190.31 93.4453 189.711V188.93C93.4453 188.065 93.5547 187.25 93.7734 186.484C93.9922 185.714 94.3281 185.034 94.7812 184.445C95.2396 183.857 95.8255 183.396 96.5391 183.062C97.2526 182.724 98.1042 182.555 99.0938 182.555ZM104.477 188.711L102.977 188.344L103.594 182.625H109.727V184.219H105.156L104.844 187.008C105.021 186.904 105.266 186.802 105.578 186.703C105.891 186.599 106.247 186.547 106.648 186.547C107.185 186.547 107.664 186.635 108.086 186.812C108.513 186.984 108.875 187.237 109.172 187.57C109.469 187.898 109.695 188.299 109.852 188.773C110.008 189.242 110.086 189.771 110.086 190.359C110.086 190.885 110.008 191.378 109.852 191.836C109.701 192.294 109.471 192.698 109.164 193.047C108.857 193.396 108.469 193.669 108 193.867C107.536 194.06 106.987 194.156 106.352 194.156C105.878 194.156 105.422 194.089 104.984 193.953C104.552 193.812 104.164 193.607 103.82 193.336C103.477 193.06 103.201 192.721 102.992 192.32C102.784 191.914 102.664 191.448 102.633 190.922H104.477C104.523 191.292 104.625 191.607 104.781 191.867C104.943 192.122 105.156 192.318 105.422 192.453C105.688 192.589 105.995 192.656 106.344 192.656C106.661 192.656 106.935 192.602 107.164 192.492C107.393 192.378 107.583 192.216 107.734 192.008C107.891 191.794 108.005 191.544 108.078 191.258C108.156 190.971 108.195 190.654 108.195 190.305C108.195 189.971 108.151 189.667 108.062 189.391C107.979 189.115 107.852 188.875 107.68 188.672C107.513 188.469 107.302 188.312 107.047 188.203C106.792 188.089 106.497 188.031 106.164 188.031C105.716 188.031 105.372 188.096 105.133 188.227C104.898 188.357 104.68 188.518 104.477 188.711ZM112.688 182.625H114.438L117.727 191.398L121.008 182.625H122.758L118.414 194H117.023L112.688 182.625ZM111.891 182.625H113.555L113.844 190.219V194H111.891V182.625ZM121.891 182.625H123.562V194H121.602V190.219L121.891 182.625Z" fill="#0F75BB"/>
<path d="M180 202.104C180 202.104 194.111 179.278 207.5 181.104C220.583 182.889 215.316 208.337 228.5 207.604C239.963 206.967 236.531 185.095 248 185.604C253.586 185.852 261 191.604 261 191.604" stroke="#FF4443"/>
<g opacity="0.2">
<circle cx="274.5" cy="60.5" r="1.5" fill="#060640"/>
<circle cx="274.5" cy="66.5" r="1.5" fill="#060640"/>
</g>
</g>
<defs>
<filter id="filter0_d_4608_17601" x="0" y="0" width="342" height="298" filterUnits="userSpaceOnUse" color-interpolation-filters="sRGB">
<feFlood flood-opacity="0" result="BackgroundImageFix"/>
<feColorMatrix in="SourceAlpha" type="matrix" values="0 0 0 0 0 0 0 0 0 0 0 0 0 0 0 0 0 0 127 0" result="hardAlpha"/>
<feMorphology radius="16" operator="dilate" in="SourceAlpha" result="effect1_dropShadow_4608_17601"/>
<feOffset dy="10"/>
<feGaussianBlur stdDeviation="15"/>
<feComposite in2="hardAlpha" operator="out"/>
<feColorMatrix type="matrix" values="0 0 0 0 0.0235294 0 0 0 0 0.0235294 0 0 0 0 0.25098 0 0 0 0.03 0"/>
<feBlend mode="normal" in2="BackgroundImageFix" result="effect1_dropShadow_4608_17601"/>
<feBlend mode="normal" in="SourceGraphic" in2="effect1_dropShadow_4608_17601" result="shape"/>
</filter>
</defs>
</svg>
