<svg width="291" height="282" viewBox="0 0 291 282" fill="none" xmlns="http://www.w3.org/2000/svg">
<g filter="url(#filter0_d_4608_17617)">
<rect x="44" y="36" width="202.929" height="194" rx="8.11716" fill="#FBFEFF"/>
<g filter="url(#filter1_d_4608_17617)">
<rect x="60.2344" y="52.2344" width="36.5272" height="36.5272" rx="18.2636" fill="white"/>
<path d="M83.6728 69.9708C84.0786 70.2051 84.0786 70.7909 83.6728 71.0252L76.3673 75.243C75.9615 75.4774 75.4541 75.1845 75.4541 74.7158V66.2802C75.4541 65.8116 75.9615 65.5187 76.3673 65.753L83.6728 69.9708Z" fill="#060640"/>
</g>
<path d="M109.981 65.8237L111.591 59.0264H112.49L112.695 60.1583L110.98 67.1055H110.015L109.981 65.8237ZM109.155 59.0264L110.486 65.8237L110.375 67.1055H109.299L107.507 59.0264H109.155ZM114.11 65.7959L115.425 59.0264H117.073L115.286 67.1055H114.21L114.11 65.7959ZM112.995 59.0264L114.615 65.8514L114.57 67.1055H113.605L111.879 60.1528L112.101 59.0264H112.995ZM120.463 67.2164C119.997 67.2164 119.579 67.1425 119.209 66.9945C118.839 66.8428 118.525 66.6338 118.266 66.3675C118.011 66.1011 117.815 65.7922 117.678 65.4408C117.541 65.0857 117.472 64.7084 117.472 64.3089V64.0869C117.472 63.6319 117.537 63.2157 117.667 62.8384C117.796 62.4611 117.981 62.1337 118.222 61.8563C118.466 61.5788 118.762 61.3661 119.109 61.2182C119.457 61.0665 119.849 60.9907 120.286 60.9907C120.711 60.9907 121.088 61.0609 121.418 61.2015C121.747 61.3421 122.022 61.5418 122.244 61.8008C122.47 62.0597 122.64 62.3705 122.755 62.733C122.87 63.0918 122.927 63.4913 122.927 63.9315V64.5974H118.155V63.532H121.357V63.4099C121.357 63.188 121.316 62.9901 121.235 62.8162C121.157 62.6387 121.038 62.4981 120.879 62.3945C120.72 62.2909 120.517 62.2391 120.269 62.2391C120.058 62.2391 119.877 62.2854 119.725 62.3779C119.574 62.4703 119.45 62.5998 119.353 62.7663C119.261 62.9327 119.191 63.1288 119.143 63.3545C119.098 63.5764 119.076 63.8206 119.076 64.0869V64.3089C119.076 64.5493 119.109 64.7713 119.176 64.9747C119.246 65.1782 119.344 65.3539 119.47 65.5019C119.599 65.6498 119.755 65.7645 119.936 65.8459C120.121 65.9273 120.33 65.968 120.563 65.968C120.852 65.968 121.12 65.9125 121.368 65.8015C121.619 65.6868 121.836 65.5148 122.017 65.2855L122.794 66.1289C122.668 66.3101 122.496 66.484 122.278 66.6505C122.063 66.8169 121.804 66.9538 121.501 67.0611C121.198 67.1647 120.852 67.2164 120.463 67.2164ZM123.837 58.5825H125.435V65.7294L125.274 67.1055H123.837V58.5825ZM129.236 64.0425V64.159C129.236 64.6066 129.188 65.0173 129.092 65.3909C128.999 65.7645 128.855 66.0882 128.659 66.3619C128.463 66.632 128.219 66.8428 127.926 66.9945C127.638 67.1425 127.298 67.2164 126.905 67.2164C126.539 67.2164 126.221 67.1425 125.951 66.9945C125.685 66.8465 125.461 66.6375 125.28 66.3675C125.098 66.0974 124.952 65.7811 124.841 65.4186C124.73 65.0561 124.647 64.6603 124.592 64.2312V63.9759C124.647 63.5468 124.73 63.151 124.841 62.7885C124.952 62.426 125.098 62.1097 125.28 61.8396C125.461 61.5696 125.685 61.3606 125.951 61.2126C126.217 61.0646 126.532 60.9907 126.894 60.9907C127.29 60.9907 127.634 61.0665 127.926 61.2182C128.222 61.3661 128.467 61.577 128.659 61.8507C128.855 62.1208 128.999 62.4426 129.092 62.8162C129.188 63.1861 129.236 63.5949 129.236 64.0425ZM127.638 64.159V64.0425C127.638 63.7984 127.619 63.569 127.582 63.3545C127.549 63.1362 127.49 62.9457 127.405 62.7829C127.32 62.6165 127.203 62.4851 127.055 62.389C126.911 62.2928 126.724 62.2447 126.495 62.2447C126.277 62.2447 126.092 62.2817 125.94 62.3557C125.788 62.4296 125.663 62.5332 125.563 62.6664C125.466 62.7996 125.394 62.9586 125.346 63.1436C125.298 63.3249 125.269 63.5246 125.257 63.7429V64.4698C125.269 64.762 125.317 65.021 125.402 65.2466C125.49 65.4686 125.624 65.6443 125.801 65.7737C125.982 65.8995 126.217 65.9624 126.506 65.9624C126.732 65.9624 126.918 65.918 127.066 65.8292C127.214 65.7405 127.329 65.6147 127.41 65.4519C127.495 65.2891 127.555 65.0986 127.588 64.8804C127.621 64.6584 127.638 64.418 127.638 64.159ZM131.916 61.1016V67.1055H130.312V61.1016H131.916ZM130.213 59.5369C130.213 59.3038 130.294 59.1114 130.457 58.9598C130.619 58.8081 130.838 58.7323 131.111 58.7323C131.382 58.7323 131.598 58.8081 131.761 58.9598C131.927 59.1114 132.01 59.3038 132.01 59.5369C132.01 59.7699 131.927 59.9623 131.761 60.1139C131.598 60.2656 131.382 60.3414 131.111 60.3414C130.838 60.3414 130.619 60.2656 130.457 60.1139C130.294 59.9623 130.213 59.7699 130.213 59.5369ZM134.801 62.3834V67.1055H133.203V61.1016H134.702L134.801 62.3834ZM134.568 63.8927H134.136C134.136 63.4488 134.193 63.0493 134.308 62.6941C134.422 62.3353 134.583 62.0301 134.79 61.7786C134.997 61.5233 135.243 61.3291 135.528 61.196C135.817 61.0591 136.139 60.9907 136.494 60.9907C136.775 60.9907 137.032 61.0313 137.265 61.1127C137.498 61.1941 137.698 61.3236 137.864 61.5011C138.035 61.6787 138.164 61.9136 138.253 62.2058C138.345 62.4981 138.392 62.8551 138.392 63.2768V67.1055H136.782V63.2712C136.782 63.0049 136.745 62.7977 136.671 62.6498C136.597 62.5018 136.488 62.3982 136.344 62.339C136.203 62.2761 136.03 62.2447 135.822 62.2447C135.608 62.2447 135.421 62.2872 135.262 62.3723C135.107 62.4574 134.977 62.5758 134.874 62.7274C134.774 62.8754 134.698 63.0493 134.646 63.249C134.594 63.4488 134.568 63.6633 134.568 63.8927ZM142.847 65.7516V63.077C142.847 62.8847 142.816 62.72 142.753 62.5832C142.69 62.4426 142.592 62.3335 142.459 62.2558C142.329 62.1781 142.161 62.1393 141.954 62.1393C141.776 62.1393 141.623 62.1707 141.493 62.2336C141.364 62.2928 141.264 62.3797 141.194 62.4944C141.123 62.6054 141.088 62.7367 141.088 62.8884H139.49C139.49 62.6331 139.549 62.3908 139.668 62.1615C139.786 61.9321 139.958 61.7305 140.184 61.5566C140.409 61.3791 140.678 61.2403 140.988 61.1405C141.303 61.0406 141.654 60.9907 142.043 60.9907C142.509 60.9907 142.923 61.0683 143.286 61.2237C143.648 61.3791 143.933 61.6121 144.14 61.9229C144.351 62.2336 144.456 62.622 144.456 63.0881V65.6572C144.456 65.9865 144.477 66.2565 144.517 66.4674C144.558 66.6745 144.617 66.8558 144.695 67.0111V67.1055H143.08C143.003 66.9427 142.943 66.7392 142.903 66.4951C142.866 66.2472 142.847 65.9994 142.847 65.7516ZM143.058 63.4488L143.069 64.3532H142.176C141.965 64.3532 141.782 64.3773 141.627 64.4254C141.471 64.4735 141.344 64.5419 141.244 64.6307C141.144 64.7158 141.07 64.8156 141.022 64.9303C140.977 65.045 140.955 65.1708 140.955 65.3076C140.955 65.4445 140.987 65.5684 141.049 65.6794C141.112 65.7867 141.203 65.8718 141.321 65.9347C141.44 65.9939 141.578 66.0234 141.737 66.0234C141.978 66.0234 142.187 65.9754 142.364 65.8792C142.542 65.783 142.679 65.6646 142.775 65.5241C142.875 65.3835 142.927 65.2503 142.93 65.1245L143.352 65.8015C143.293 65.9532 143.212 66.1104 143.108 66.2731C143.008 66.4359 142.881 66.5894 142.725 66.7337C142.57 66.8743 142.383 66.9908 142.165 67.0833C141.946 67.1721 141.688 67.2164 141.388 67.2164C141.007 67.2164 140.661 67.1406 140.35 66.9889C140.043 66.8336 139.799 66.6209 139.618 66.3508C139.44 66.0771 139.351 65.7663 139.351 65.4186C139.351 65.1042 139.411 64.8249 139.529 64.5807C139.647 64.3366 139.821 64.1313 140.051 63.9648C140.284 63.7947 140.574 63.667 140.922 63.582C141.27 63.4932 141.673 63.4488 142.131 63.4488H143.058ZM147.286 62.4112V67.1055H145.688V61.1016H147.192L147.286 62.4112ZM149.095 61.0628L149.067 62.5443C148.99 62.5332 148.895 62.524 148.785 62.5166C148.677 62.5055 148.579 62.4999 148.49 62.4999C148.265 62.4999 148.069 62.5295 147.902 62.5887C147.739 62.6442 147.603 62.7274 147.492 62.8384C147.384 62.9494 147.303 63.0844 147.247 63.2435C147.196 63.4025 147.166 63.5838 147.159 63.7873L146.837 63.6874C146.837 63.299 146.876 62.942 146.953 62.6165C147.031 62.2872 147.144 62.0005 147.292 61.7564C147.444 61.5122 147.628 61.3236 147.847 61.1904C148.065 61.0572 148.315 60.9907 148.596 60.9907C148.685 60.9907 148.775 60.998 148.868 61.0128C148.96 61.0239 149.036 61.0406 149.095 61.0628Z" fill="#060640"/>
<path d="M111.502 79.1805L111.47 79.3906H107.63L107.657 79.1805H111.502ZM110 77.183L109.274 81.3842H109.06L109.782 77.183H110ZM114.855 76.1762L113.864 81.9629H113.65L114.601 76.4735L112.893 77.0799L112.925 76.85L114.803 76.1762H114.855ZM116.234 81.7608C116.242 81.7079 116.27 81.659 116.317 81.6141C116.368 81.5692 116.421 81.5467 116.476 81.5467C116.534 81.5467 116.582 81.5705 116.619 81.6181C116.658 81.663 116.674 81.7158 116.666 81.7766C116.658 81.8295 116.629 81.8783 116.579 81.9233C116.529 81.9655 116.476 81.9867 116.421 81.9867C116.36 81.9867 116.311 81.9642 116.274 81.9193C116.237 81.8717 116.224 81.8189 116.234 81.7608ZM121.335 81.7489L121.307 81.9629H117.958L117.982 81.7489L120.146 79.569C120.318 79.3972 120.496 79.2123 120.681 79.0141C120.869 78.8159 121.034 78.6045 121.177 78.3799C121.322 78.1527 121.416 77.9136 121.458 77.6625C121.503 77.3957 121.486 77.1618 121.407 76.961C121.327 76.7602 121.194 76.6043 121.006 76.4933C120.821 76.3823 120.594 76.3269 120.325 76.3269C120.039 76.3295 119.782 76.3995 119.552 76.5369C119.324 76.6743 119.134 76.8566 118.981 77.0839C118.83 77.3085 118.729 77.5542 118.676 77.8211H118.462C118.515 77.5146 118.626 77.2318 118.795 76.9729C118.966 76.714 119.183 76.5065 119.445 76.3506C119.706 76.1947 119.998 76.1155 120.321 76.1128C120.632 76.1128 120.898 76.1776 121.117 76.307C121.337 76.4339 121.496 76.6149 121.597 76.85C121.697 77.0826 121.725 77.3534 121.68 77.6625C121.648 77.8766 121.581 78.0813 121.478 78.2769C121.375 78.4698 121.251 78.6547 121.105 78.8318C120.963 79.0088 120.812 79.1779 120.653 79.3391C120.495 79.5003 120.344 79.6535 120.202 79.7988L118.275 81.7489H121.335ZM123.464 76.1881H123.697L125.053 81.6419L128.307 76.1961H128.549L125.1 81.9629H124.934L123.464 76.1881ZM123.4 76.1921H123.614L123.099 79.1766L122.619 81.9629H122.405L123.4 76.1921ZM128.406 76.1921H128.62L127.625 81.9629H127.411L127.891 79.1766L128.406 76.1921ZM132.441 80.7223L133.907 77.6784H134.101L133.622 78.7565L132.06 81.9629H131.854L132.441 80.7223ZM131.612 77.6744L131.941 80.7421L132.037 81.9629H131.846L131.375 77.6705L131.612 77.6744ZM135.033 80.7223L136.408 77.6784H136.662L134.712 81.9629H134.514L135.033 80.7223ZM134.121 77.6705L134.526 80.7421L134.696 81.9629H134.502L134.026 78.7208L133.935 77.6705H134.121ZM139.69 81.1583L140.07 78.9427C140.113 78.6996 140.093 78.4935 140.011 78.3244C139.932 78.1553 139.806 78.0272 139.634 77.94C139.463 77.8528 139.258 77.8092 139.02 77.8092C138.801 77.8092 138.584 77.8501 138.37 77.9321C138.159 78.0113 137.974 78.1289 137.815 78.2848C137.657 78.4381 137.551 78.627 137.498 78.8516L137.284 78.8437C137.324 78.6455 137.399 78.4698 137.51 78.3165C137.624 78.1606 137.761 78.0298 137.922 77.9241C138.083 77.8184 138.258 77.7378 138.445 77.6824C138.636 77.6242 138.827 77.5952 139.02 77.5952C139.295 77.5952 139.535 77.6493 139.741 77.7577C139.948 77.8634 140.1 78.0179 140.197 78.2214C140.298 78.4222 140.325 78.6653 140.281 78.9507L139.912 81.0989C139.888 81.2336 139.87 81.371 139.856 81.5111C139.846 81.6511 139.852 81.7898 139.876 81.9272L139.872 81.9629H139.631C139.62 81.8281 139.621 81.6934 139.634 81.5586C139.648 81.4239 139.666 81.2904 139.69 81.1583ZM140.055 79.569L140.035 79.787H138.965C138.78 79.7896 138.584 79.8094 138.378 79.8464C138.172 79.8808 137.974 79.9402 137.784 80.0248C137.593 80.1067 137.429 80.219 137.292 80.3617C137.157 80.5017 137.069 80.6787 137.027 80.8928C136.992 81.083 137.013 81.2481 137.09 81.3882C137.167 81.5282 137.279 81.6366 137.427 81.7132C137.575 81.7898 137.737 81.8295 137.914 81.8321C138.197 81.8347 138.459 81.7859 138.699 81.6854C138.942 81.5824 139.16 81.441 139.353 81.2614C139.546 81.079 139.71 80.8677 139.845 80.6272L139.912 80.8333C139.817 81.0183 139.699 81.1861 139.559 81.3367C139.419 81.4873 139.262 81.6154 139.088 81.7211C138.913 81.8242 138.727 81.9034 138.529 81.9589C138.333 82.0144 138.13 82.0422 137.918 82.0422C137.691 82.0395 137.488 81.992 137.308 81.8995C137.128 81.8044 136.992 81.6696 136.9 81.4952C136.807 81.3208 136.779 81.1147 136.816 80.8769C136.856 80.6312 136.949 80.4251 137.094 80.2586C137.239 80.0921 137.415 79.9587 137.621 79.8583C137.83 79.7579 138.05 79.6852 138.283 79.6403C138.515 79.5954 138.737 79.5716 138.949 79.569H140.055ZM143.253 77.6744L143.225 77.8924H141.291L141.323 77.6744H143.253ZM142.294 76.5171H142.512L141.747 80.9364C141.723 81.0738 141.714 81.2112 141.719 81.3486C141.725 81.4833 141.763 81.5969 141.834 81.6894C141.906 81.7793 142.027 81.8255 142.199 81.8281C142.273 81.8281 142.345 81.8242 142.417 81.8162C142.488 81.8083 142.56 81.8004 142.631 81.7925L142.639 81.9946C142.567 82.0131 142.496 82.025 142.425 82.0303C142.353 82.0382 142.281 82.0422 142.207 82.0422C141.982 82.0395 141.817 81.9867 141.711 81.8836C141.606 81.7779 141.541 81.6419 141.517 81.4754C141.496 81.3063 141.501 81.1266 141.533 80.9364L142.294 76.5171ZM145.053 81.8281C145.301 81.8281 145.528 81.7806 145.734 81.6854C145.943 81.5903 146.12 81.4556 146.265 81.2812C146.411 81.1068 146.516 80.902 146.582 80.6668H146.796C146.733 80.9416 146.618 81.1821 146.452 81.3882C146.285 81.5943 146.082 81.7555 145.841 81.8717C145.601 81.9854 145.339 82.0422 145.056 82.0422C144.758 82.0422 144.51 81.9787 144.311 81.8519C144.116 81.7251 143.965 81.5573 143.86 81.3486C143.754 81.1398 143.686 80.9099 143.657 80.6589C143.628 80.4053 143.632 80.1529 143.669 79.9019L143.693 79.7354C143.735 79.4712 143.808 79.2123 143.911 78.9586C144.017 78.7049 144.153 78.4764 144.319 78.2729C144.486 78.0668 144.684 77.903 144.914 77.7814C145.146 77.6573 145.411 77.5952 145.706 77.5952C146 77.5952 146.249 77.6612 146.456 77.7933C146.664 77.9228 146.82 78.0998 146.923 78.3244C147.026 78.549 147.067 78.804 147.046 79.0894H146.832C146.853 78.8463 146.822 78.6283 146.737 78.4354C146.655 78.2425 146.526 78.0906 146.349 77.9796C146.174 77.866 145.961 77.8092 145.71 77.8092C145.441 77.8092 145.203 77.8647 144.997 77.9757C144.791 78.0866 144.614 78.2346 144.466 78.4196C144.321 78.6045 144.202 78.8119 144.109 79.0418C144.017 79.2691 143.951 79.5003 143.911 79.7354L143.883 79.9019C143.849 80.1238 143.84 80.3484 143.856 80.5757C143.874 80.8003 143.926 81.0077 144.01 81.1979C144.095 81.3855 144.222 81.5375 144.391 81.6537C144.562 81.7674 144.783 81.8255 145.053 81.8281ZM148.857 75.875L147.807 81.9629H147.593L148.643 75.875H148.857ZM148.207 79.4501L148.128 79.2202C148.192 79.0114 148.281 78.8106 148.398 78.6177C148.517 78.4248 148.657 78.2518 148.818 78.0985C148.982 77.9453 149.164 77.8237 149.365 77.7339C149.566 77.644 149.782 77.5978 150.015 77.5952C150.258 77.5952 150.456 77.6374 150.609 77.722C150.765 77.8065 150.883 77.9241 150.962 78.0747C151.044 78.2227 151.093 78.3931 151.109 78.586C151.125 78.7763 151.117 78.9771 151.085 79.1885L150.605 81.9629H150.391L150.871 79.1885C150.911 78.948 150.916 78.7221 150.887 78.5107C150.858 78.2993 150.774 78.1289 150.637 77.9994C150.5 77.8673 150.29 77.8026 150.007 77.8052C149.782 77.8079 149.573 77.8568 149.381 77.9519C149.188 78.047 149.013 78.1738 148.857 78.3324C148.702 78.4883 148.568 78.664 148.457 78.8595C148.346 79.0524 148.263 79.2492 148.207 79.4501ZM152.908 77.6744L152.171 81.9629H151.957L152.694 77.6744H152.908ZM152.821 76.3269C152.829 76.274 152.857 76.2251 152.904 76.1802C152.954 76.1353 153.007 76.1128 153.063 76.1128C153.123 76.1128 153.172 76.1366 153.209 76.1842C153.249 76.2317 153.263 76.2846 153.253 76.3427C153.245 76.3956 153.216 76.4444 153.166 76.4894C153.116 76.5316 153.063 76.5528 153.007 76.5528C152.949 76.5528 152.9 76.5303 152.861 76.4854C152.824 76.4378 152.81 76.385 152.821 76.3269ZM154.327 78.59L153.744 81.9629H153.53L154.268 77.6744H154.482L154.327 78.59ZM154.145 79.4501L154.065 79.2202C154.129 79.0114 154.219 78.8106 154.335 78.6177C154.454 78.4248 154.594 78.2518 154.755 78.0985C154.919 77.9453 155.101 77.8237 155.302 77.7339C155.503 77.644 155.719 77.5978 155.952 77.5952C156.195 77.5952 156.393 77.6374 156.547 77.722C156.702 77.8065 156.82 77.9241 156.899 78.0747C156.981 78.2227 157.03 78.3931 157.046 78.586C157.062 78.7763 157.054 78.9771 157.022 79.1885L156.543 81.9629H156.329L156.808 79.1885C156.848 78.948 156.853 78.7221 156.824 78.5107C156.795 78.2993 156.712 78.1289 156.574 77.9994C156.437 77.8673 156.227 77.8026 155.944 77.8052C155.719 77.8079 155.511 77.8568 155.318 77.9519C155.125 78.047 154.951 78.1738 154.795 78.3324C154.639 78.4883 154.505 78.664 154.394 78.8595C154.283 79.0524 154.2 79.2492 154.145 79.4501ZM161.358 77.6744H161.576L160.851 81.9034C160.793 82.2232 160.683 82.5191 160.522 82.7913C160.361 83.0634 160.151 83.2814 159.892 83.4452C159.633 83.609 159.33 83.691 158.984 83.691C158.802 83.691 158.633 83.6619 158.477 83.6038C158.321 83.5456 158.179 83.4624 158.053 83.3541C157.926 83.2457 157.816 83.1149 157.724 82.9617L157.886 82.8269C158.01 83.0277 158.161 83.1863 158.338 83.3025C158.515 83.4214 158.726 83.4809 158.972 83.4809C159.281 83.4809 159.55 83.4082 159.777 83.2629C160.007 83.1202 160.193 82.9287 160.336 82.6882C160.478 82.4504 160.576 82.1888 160.629 81.9034L161.2 78.6177L161.358 77.6744ZM158.009 79.8583L158.021 79.7751C158.066 79.5214 158.136 79.2664 158.231 79.0101C158.329 78.7538 158.456 78.5186 158.611 78.3046C158.767 78.0906 158.956 77.9188 159.178 77.7894C159.4 77.6599 159.658 77.5952 159.951 77.5952C160.147 77.5952 160.329 77.6308 160.498 77.7022C160.67 77.7735 160.819 77.8739 160.946 78.0034C161.073 78.1302 161.171 78.2795 161.239 78.4513C161.308 78.623 161.338 78.8093 161.33 79.0101L161.033 80.758C160.983 80.9535 160.896 81.1306 160.772 81.2891C160.647 81.445 160.501 81.5798 160.332 81.6934C160.165 81.8044 159.985 81.8902 159.793 81.951C159.6 82.0118 159.407 82.0422 159.214 82.0422C158.918 82.0422 158.68 81.9735 158.501 81.8361C158.323 81.696 158.193 81.5163 158.108 81.297C158.026 81.0751 157.98 80.8373 157.969 80.5836C157.959 80.3299 157.972 80.0882 158.009 79.8583ZM158.243 79.7751L158.227 79.8583C158.193 80.0565 158.176 80.2692 158.176 80.4964C158.176 80.7237 158.206 80.9377 158.267 81.1385C158.33 81.3393 158.436 81.5045 158.584 81.6339C158.734 81.7608 158.942 81.8255 159.206 81.8281C159.446 81.8281 159.683 81.7806 159.915 81.6854C160.148 81.5903 160.351 81.4556 160.526 81.2812C160.703 81.1041 160.827 80.8967 160.898 80.6589L161.168 79.1528C161.181 78.9652 161.16 78.7908 161.105 78.6296C161.052 78.4658 160.97 78.3231 160.859 78.2016C160.75 78.0774 160.618 77.9809 160.462 77.9122C160.309 77.8435 160.139 77.8092 159.951 77.8092C159.69 77.8092 159.46 77.8686 159.261 77.9875C159.066 78.1064 158.9 78.2637 158.762 78.4592C158.627 78.6547 158.516 78.8674 158.429 79.0973C158.345 79.3272 158.283 79.5531 158.243 79.7751Z" fill="#0F75BB"/>
<rect opacity="0.04" x="60.2344" y="100.938" width="170.46" height="0.811715" fill="#060640"/>
<path d="M65.2759 121.977V122.924H61.7991V121.977H65.2759ZM62.1321 115.999V122.924H60.9383V115.999H62.1321ZM67.3115 117.778V122.924H66.1605V117.778H67.3115ZM66.0844 116.427C66.0844 116.253 66.1415 116.108 66.2557 115.994C66.373 115.877 66.5347 115.818 66.7408 115.818C66.9437 115.818 67.1038 115.877 67.2212 115.994C67.3385 116.108 67.3971 116.253 67.3971 116.427C67.3971 116.598 67.3385 116.741 67.2212 116.855C67.1038 116.969 66.9437 117.026 66.7408 117.026C66.5347 117.026 66.373 116.969 66.2557 116.855C66.1415 116.741 66.0844 116.598 66.0844 116.427ZM70.2413 122.015L71.5017 117.778H72.6907L70.9024 122.924H70.1604L70.2413 122.015ZM69.2758 117.778L70.56 122.034L70.6218 122.924H69.8798L68.082 117.778H69.2758ZM75.6015 123.019C75.221 123.019 74.877 122.957 74.5694 122.833C74.265 122.707 74.005 122.531 73.7894 122.306C73.5769 122.08 73.4137 121.816 73.2995 121.511C73.1854 121.207 73.1283 120.879 73.1283 120.527V120.336C73.1283 119.934 73.1869 119.569 73.3043 119.243C73.4216 118.916 73.5849 118.637 73.7941 118.405C74.0034 118.171 74.2507 117.992 74.5361 117.868C74.8215 117.744 75.1306 117.683 75.4636 117.683C75.8314 117.683 76.1532 117.744 76.429 117.868C76.7049 117.992 76.9332 118.166 77.1139 118.391C77.2978 118.613 77.4342 118.878 77.523 119.185C77.6149 119.493 77.6609 119.832 77.6609 120.203V120.693H73.6848V119.87H76.5289V119.78C76.5226 119.574 76.4814 119.38 76.4053 119.2C76.3323 119.019 76.2198 118.873 76.0676 118.762C75.9154 118.651 75.7125 118.596 75.4588 118.596C75.2685 118.596 75.0989 118.637 74.9499 118.719C74.804 118.799 74.682 118.914 74.5837 119.067C74.4854 119.219 74.4093 119.403 74.3554 119.618C74.3046 119.831 74.2793 120.07 74.2793 120.336V120.527C74.2793 120.752 74.3094 120.961 74.3696 121.155C74.4331 121.345 74.525 121.511 74.6455 121.654C74.766 121.797 74.9118 121.909 75.0831 121.992C75.2543 122.071 75.4493 122.111 75.6681 122.111C75.9439 122.111 76.1897 122.055 76.4053 121.944C76.6209 121.833 76.808 121.676 76.9665 121.473L77.5705 122.058C77.4595 122.22 77.3153 122.375 77.1377 122.524C76.9602 122.67 76.743 122.789 76.4861 122.881C76.2325 122.973 75.9376 123.019 75.6015 123.019ZM83.725 120.341H81.9224V119.395H83.725C84.0389 119.395 84.2925 119.344 84.486 119.243C84.6794 119.141 84.8205 119.002 84.9093 118.824C85.0012 118.643 85.0472 118.437 85.0472 118.206C85.0472 117.987 85.0012 117.782 84.9093 117.592C84.8205 117.399 84.6794 117.243 84.486 117.126C84.2925 117.009 84.0389 116.95 83.725 116.95H82.2886V122.924H81.0948V115.999H83.725C84.2608 115.999 84.7158 116.094 85.09 116.284C85.4673 116.471 85.7543 116.731 85.9509 117.064C86.1474 117.394 86.2457 117.771 86.2457 118.196C86.2457 118.643 86.1474 119.027 85.9509 119.347C85.7543 119.667 85.4673 119.913 85.09 120.084C84.7158 120.256 84.2608 120.341 83.725 120.341ZM88.3527 118.757V122.924H87.2065V117.778H88.3004L88.3527 118.757ZM89.927 117.744L89.9175 118.81C89.8477 118.797 89.7716 118.788 89.6892 118.781C89.6099 118.775 89.5306 118.772 89.4514 118.772C89.2548 118.772 89.082 118.8 88.933 118.857C88.7839 118.911 88.6587 118.99 88.5572 119.095C88.4589 119.197 88.3828 119.32 88.3289 119.466C88.275 119.612 88.2433 119.775 88.2338 119.956L87.9722 119.975C87.9722 119.652 88.0039 119.352 88.0673 119.076C88.1308 118.8 88.2259 118.558 88.3527 118.348C88.4827 118.139 88.6444 117.976 88.8378 117.859C89.0344 117.741 89.2611 117.683 89.518 117.683C89.5877 117.683 89.6622 117.689 89.7415 117.702C89.8239 117.714 89.8858 117.729 89.927 117.744ZM90.3027 120.408V120.298C90.3027 119.927 90.3566 119.583 90.4644 119.266C90.5722 118.946 90.7276 118.669 90.9305 118.434C91.1366 118.196 91.3871 118.012 91.682 117.882C91.9801 117.749 92.3162 117.683 92.6903 117.683C93.0676 117.683 93.4037 117.749 93.6986 117.882C93.9967 118.012 94.2487 118.196 94.4548 118.434C94.6609 118.669 94.8179 118.946 94.9257 119.266C95.0335 119.583 95.0874 119.927 95.0874 120.298V120.408C95.0874 120.779 95.0335 121.123 94.9257 121.44C94.8179 121.757 94.6609 122.034 94.4548 122.272C94.2487 122.507 93.9982 122.691 93.7034 122.824C93.4085 122.954 93.074 123.019 92.6998 123.019C92.3225 123.019 91.9848 122.954 91.6868 122.824C91.3919 122.691 91.1414 122.507 90.9353 122.272C90.7292 122.034 90.5722 121.757 90.4644 121.44C90.3566 121.123 90.3027 120.779 90.3027 120.408ZM91.449 120.298V120.408C91.449 120.639 91.4727 120.858 91.5203 121.064C91.5679 121.27 91.6424 121.451 91.7438 121.606C91.8453 121.762 91.9753 121.884 92.1338 121.973C92.2924 122.061 92.481 122.106 92.6998 122.106C92.9123 122.106 93.0962 122.061 93.2515 121.973C93.4101 121.884 93.5401 121.762 93.6415 121.606C93.743 121.451 93.8175 121.27 93.8651 121.064C93.9158 120.858 93.9412 120.639 93.9412 120.408V120.298C93.9412 120.07 93.9158 119.855 93.8651 119.652C93.8175 119.446 93.7414 119.263 93.6368 119.105C93.5353 118.946 93.4053 118.822 93.2468 118.734C93.0914 118.642 92.9059 118.596 92.6903 118.596C92.4747 118.596 92.2876 118.642 92.1291 118.734C91.9737 118.822 91.8453 118.946 91.7438 119.105C91.6424 119.263 91.5679 119.446 91.5203 119.652C91.4727 119.855 91.449 120.07 91.449 120.298ZM97.1944 118.824V122.924H96.0481V117.778H97.1278L97.1944 118.824ZM97.0089 120.161L96.6189 120.156C96.6189 119.801 96.6633 119.472 96.7521 119.171C96.8408 118.87 96.9708 118.608 97.1421 118.386C97.3133 118.161 97.5257 117.989 97.7794 117.868C98.0362 117.744 98.3327 117.683 98.6688 117.683C98.9034 117.683 99.1174 117.717 99.3109 117.787C99.5075 117.854 99.6771 117.96 99.8198 118.106C99.9656 118.252 100.077 118.439 100.153 118.667C100.232 118.895 100.272 119.171 100.272 119.495V122.924H99.1254V119.595C99.1254 119.344 99.0873 119.147 99.0112 119.005C98.9383 118.862 98.8321 118.761 98.6926 118.7C98.5562 118.637 98.3929 118.605 98.2027 118.605C97.9871 118.605 97.8032 118.646 97.651 118.729C97.5019 118.811 97.3799 118.924 97.2847 119.067C97.1896 119.209 97.1199 119.374 97.0755 119.561C97.0311 119.748 97.0089 119.948 97.0089 120.161ZM100.2 119.856L99.6628 119.975C99.6628 119.664 99.7056 119.371 99.7912 119.095C99.88 118.816 100.008 118.572 100.176 118.363C100.348 118.15 100.559 117.984 100.809 117.863C101.06 117.743 101.346 117.683 101.67 117.683C101.933 117.683 102.168 117.719 102.374 117.792C102.583 117.862 102.761 117.973 102.907 118.125C103.052 118.277 103.163 118.475 103.239 118.719C103.316 118.96 103.354 119.252 103.354 119.595V122.924H102.203V119.59C102.203 119.33 102.165 119.128 102.088 118.986C102.016 118.843 101.911 118.745 101.775 118.691C101.638 118.634 101.475 118.605 101.285 118.605C101.107 118.605 100.95 118.639 100.814 118.705C100.681 118.769 100.568 118.859 100.476 118.976C100.384 119.09 100.314 119.222 100.267 119.371C100.222 119.52 100.2 119.682 100.2 119.856ZM104.314 120.408V120.298C104.314 119.927 104.368 119.583 104.476 119.266C104.584 118.946 104.739 118.669 104.942 118.434C105.148 118.196 105.399 118.012 105.694 117.882C105.992 117.749 106.328 117.683 106.702 117.683C107.079 117.683 107.415 117.749 107.71 117.882C108.008 118.012 108.26 118.196 108.466 118.434C108.673 118.669 108.829 118.946 108.937 119.266C109.045 119.583 109.099 119.927 109.099 120.298V120.408C109.099 120.779 109.045 121.123 108.937 121.44C108.829 121.757 108.673 122.034 108.466 122.272C108.26 122.507 108.01 122.691 107.715 122.824C107.42 122.954 107.086 123.019 106.711 123.019C106.334 123.019 105.996 122.954 105.698 122.824C105.403 122.691 105.153 122.507 104.947 122.272C104.741 122.034 104.584 121.757 104.476 121.44C104.368 121.123 104.314 120.779 104.314 120.408ZM105.461 120.298V120.408C105.461 120.639 105.484 120.858 105.532 121.064C105.579 121.27 105.654 121.451 105.755 121.606C105.857 121.762 105.987 121.884 106.145 121.973C106.304 122.061 106.493 122.106 106.711 122.106C106.924 122.106 107.108 122.061 107.263 121.973C107.422 121.884 107.552 121.762 107.653 121.606C107.755 121.451 107.829 121.27 107.877 121.064C107.927 120.858 107.953 120.639 107.953 120.408V120.298C107.953 120.07 107.927 119.855 107.877 119.652C107.829 119.446 107.753 119.263 107.648 119.105C107.547 118.946 107.417 118.822 107.258 118.734C107.103 118.642 106.918 118.596 106.702 118.596C106.486 118.596 106.299 118.642 106.141 118.734C105.985 118.822 105.857 118.946 105.755 119.105C105.654 119.263 105.579 119.446 105.532 119.652C105.484 119.855 105.461 120.07 105.461 120.298ZM112.419 117.778V118.615H109.518V117.778H112.419ZM110.355 116.517H111.501V121.502C111.501 121.66 111.523 121.782 111.567 121.868C111.615 121.95 111.68 122.006 111.762 122.034C111.845 122.063 111.942 122.077 112.053 122.077C112.132 122.077 112.208 122.072 112.281 122.063C112.354 122.053 112.412 122.044 112.457 122.034L112.462 122.91C112.366 122.938 112.256 122.963 112.129 122.986C112.005 123.008 111.862 123.019 111.701 123.019C111.437 123.019 111.204 122.973 111.001 122.881C110.799 122.786 110.64 122.632 110.526 122.42C110.412 122.207 110.355 121.925 110.355 121.573V116.517ZM114.531 117.778V122.924H113.38V117.778H114.531ZM113.303 116.427C113.303 116.253 113.361 116.108 113.475 115.994C113.592 115.877 113.754 115.818 113.96 115.818C114.163 115.818 114.323 115.877 114.44 115.994C114.557 116.108 114.616 116.253 114.616 116.427C114.616 116.598 114.557 116.741 114.44 116.855C114.323 116.969 114.163 117.026 113.96 117.026C113.754 117.026 113.592 116.969 113.475 116.855C113.361 116.741 113.303 116.598 113.303 116.427ZM115.567 120.408V120.298C115.567 119.927 115.621 119.583 115.729 119.266C115.837 118.946 115.992 118.669 116.195 118.434C116.401 118.196 116.652 118.012 116.947 117.882C117.245 117.749 117.581 117.683 117.955 117.683C118.332 117.683 118.668 117.749 118.963 117.882C119.261 118.012 119.513 118.196 119.719 118.434C119.926 118.669 120.083 118.946 120.19 119.266C120.298 119.583 120.352 119.927 120.352 120.298V120.408C120.352 120.779 120.298 121.123 120.19 121.44C120.083 121.757 119.926 122.034 119.719 122.272C119.513 122.507 119.263 122.691 118.968 122.824C118.673 122.954 118.339 123.019 117.964 123.019C117.587 123.019 117.249 122.954 116.951 122.824C116.657 122.691 116.406 122.507 116.2 122.272C115.994 122.034 115.837 121.757 115.729 121.44C115.621 121.123 115.567 120.779 115.567 120.408ZM116.714 120.298V120.408C116.714 120.639 116.737 120.858 116.785 121.064C116.833 121.27 116.907 121.451 117.008 121.606C117.11 121.762 117.24 121.884 117.398 121.973C117.557 122.061 117.746 122.106 117.964 122.106C118.177 122.106 118.361 122.061 118.516 121.973C118.675 121.884 118.805 121.762 118.906 121.606C119.008 121.451 119.082 121.27 119.13 121.064C119.18 120.858 119.206 120.639 119.206 120.408V120.298C119.206 120.07 119.18 119.855 119.13 119.652C119.082 119.446 119.006 119.263 118.901 119.105C118.8 118.946 118.67 118.822 118.511 118.734C118.356 118.642 118.171 118.596 117.955 118.596C117.739 118.596 117.552 118.642 117.394 118.734C117.238 118.822 117.11 118.946 117.008 119.105C116.907 119.263 116.833 119.446 116.785 119.652C116.737 119.855 116.714 120.07 116.714 120.298ZM122.45 118.876V122.924H121.303V117.778H122.383L122.45 118.876ZM122.245 120.161L121.874 120.156C121.877 119.791 121.928 119.457 122.026 119.152C122.128 118.848 122.267 118.586 122.445 118.367C122.625 118.149 122.841 117.981 123.092 117.863C123.342 117.743 123.621 117.683 123.929 117.683C124.176 117.683 124.4 117.717 124.599 117.787C124.802 117.854 124.975 117.963 125.118 118.115C125.264 118.268 125.375 118.466 125.451 118.71C125.527 118.951 125.565 119.247 125.565 119.599V122.924H124.414V119.595C124.414 119.347 124.377 119.152 124.304 119.01C124.235 118.864 124.132 118.761 123.995 118.7C123.862 118.637 123.696 118.605 123.496 118.605C123.299 118.605 123.123 118.646 122.968 118.729C122.813 118.811 122.681 118.924 122.573 119.067C122.469 119.209 122.388 119.374 122.331 119.561C122.274 119.748 122.245 119.948 122.245 120.161Z" fill="#060640"/>
<g filter="url(#filter2_d_4608_17617)">
<rect x="60.2344" y="177.238" width="36.5272" height="36.5272" rx="18.2636" fill="white"/>
<path d="M83.6728 194.975C84.0786 195.209 84.0786 195.795 83.6728 196.029L76.3673 200.247C75.9615 200.481 75.4541 200.188 75.4541 199.72V191.284C75.4541 190.815 75.9615 190.523 76.3673 190.757L83.6728 194.975Z" fill="#FF4443" fill-opacity="0.1"/>
</g>
<rect x="107.312" y="186.979" width="93.3473" height="4.87029" rx="2.43515" fill="#FF4443" fill-opacity="0.1"/>
<rect x="107.312" y="198.342" width="64.9372" height="4.87029" rx="2.43515" fill="#FF4443" fill-opacity="0.1"/>
<g filter="url(#filter3_d_4608_17617)">
<rect x="60.2344" y="132.594" width="36.5272" height="36.5272" rx="18.2636" fill="white"/>
<path d="M83.6728 150.33C84.0786 150.564 84.0786 151.15 83.6728 151.385L76.3673 155.602C75.9615 155.837 75.4541 155.544 75.4541 155.075V146.64C75.4541 146.171 75.9615 145.878 76.3673 146.112L83.6728 150.33Z" fill="#FF4443" fill-opacity="0.1"/>
</g>
<rect x="107.312" y="142.334" width="93.3473" height="4.87029" rx="2.43515" fill="#FF4443" fill-opacity="0.1"/>
<rect x="107.312" y="153.697" width="64.9372" height="4.87029" rx="2.43515" fill="#FF4443" fill-opacity="0.1"/>
</g>
<defs>
<filter id="filter0_d_4608_17617" x="0.648537" y="0.765692" width="289.633" height="280.703" filterUnits="userSpaceOnUse" color-interpolation-filters="sRGB">
<feFlood flood-opacity="0" result="BackgroundImageFix"/>
<feColorMatrix in="SourceAlpha" type="matrix" values="0 0 0 0 0 0 0 0 0 0 0 0 0 0 0 0 0 0 127 0" result="hardAlpha"/>
<feMorphology radius="19" operator="dilate" in="SourceAlpha" result="effect1_dropShadow_4608_17617"/>
<feOffset dy="8.11716"/>
<feGaussianBlur stdDeviation="12.1757"/>
<feComposite in2="hardAlpha" operator="out"/>
<feColorMatrix type="matrix" values="0 0 0 0 0.0235294 0 0 0 0 0.0235294 0 0 0 0 0.25098 0 0 0 0.03 0"/>
<feBlend mode="normal" in2="BackgroundImageFix" result="effect1_dropShadow_4608_17617"/>
<feBlend mode="normal" in="SourceGraphic" in2="effect1_dropShadow_4608_17617" result="shape"/>
</filter>
<filter id="filter1_d_4608_17617" x="50.2344" y="45.2344" width="56.5234" height="56.5273" filterUnits="userSpaceOnUse" color-interpolation-filters="sRGB">
<feFlood flood-opacity="0" result="BackgroundImageFix"/>
<feColorMatrix in="SourceAlpha" type="matrix" values="0 0 0 0 0 0 0 0 0 0 0 0 0 0 0 0 0 0 127 0" result="hardAlpha"/>
<feOffset dy="3"/>
<feGaussianBlur stdDeviation="5"/>
<feComposite in2="hardAlpha" operator="out"/>
<feColorMatrix type="matrix" values="0 0 0 0 0.0235294 0 0 0 0 0.0235294 0 0 0 0 0.25098 0 0 0 0.01 0"/>
<feBlend mode="normal" in2="BackgroundImageFix" result="effect1_dropShadow_4608_17617"/>
<feBlend mode="normal" in="SourceGraphic" in2="effect1_dropShadow_4608_17617" result="shape"/>
</filter>
<filter id="filter2_d_4608_17617" x="50.2344" y="170.238" width="56.5234" height="56.5273" filterUnits="userSpaceOnUse" color-interpolation-filters="sRGB">
<feFlood flood-opacity="0" result="BackgroundImageFix"/>
<feColorMatrix in="SourceAlpha" type="matrix" values="0 0 0 0 0 0 0 0 0 0 0 0 0 0 0 0 0 0 127 0" result="hardAlpha"/>
<feOffset dy="3"/>
<feGaussianBlur stdDeviation="5"/>
<feComposite in2="hardAlpha" operator="out"/>
<feColorMatrix type="matrix" values="0 0 0 0 0.0235294 0 0 0 0 0.0235294 0 0 0 0 0.25098 0 0 0 0.01 0"/>
<feBlend mode="normal" in2="BackgroundImageFix" result="effect1_dropShadow_4608_17617"/>
<feBlend mode="normal" in="SourceGraphic" in2="effect1_dropShadow_4608_17617" result="shape"/>
</filter>
<filter id="filter3_d_4608_17617" x="50.2344" y="125.594" width="56.5234" height="56.5273" filterUnits="userSpaceOnUse" color-interpolation-filters="sRGB">
<feFlood flood-opacity="0" result="BackgroundImageFix"/>
<feColorMatrix in="SourceAlpha" type="matrix" values="0 0 0 0 0 0 0 0 0 0 0 0 0 0 0 0 0 0 127 0" result="hardAlpha"/>
<feOffset dy="3"/>
<feGaussianBlur stdDeviation="5"/>
<feComposite in2="hardAlpha" operator="out"/>
<feColorMatrix type="matrix" values="0 0 0 0 0.0235294 0 0 0 0 0.0235294 0 0 0 0 0.25098 0 0 0 0.01 0"/>
<feBlend mode="normal" in2="BackgroundImageFix" result="effect1_dropShadow_4608_17617"/>
<feBlend mode="normal" in="SourceGraphic" in2="effect1_dropShadow_4608_17617" result="shape"/>
</filter>
</defs>
</svg>
