<svg width="144" height="53" viewBox="0 0 144 53" fill="none" xmlns="http://www.w3.org/2000/svg">
<path d="M143.488 49.0595C119.574 35.5913 95.6588 62.5709 71.7656 49.0595V4.05754C95.6588 17.5474 119.574 -9.41069 143.488 4.05754V49.0595Z" fill="#E83434"/>
<path d="M71.7656 36.7999C95.6804 50.3112 119.595 23.2885 143.51 36.7999V16.0579C119.595 2.5681 95.6804 29.5693 71.7656 16.0579V36.7999Z" fill="#FFF915"/>
<path style="mix-blend-mode:multiply" d="M142.949 18.6486V33.7572V48.8658C119.034 35.4191 95.1197 62.3772 71.2266 48.8658V3.88534C95.1197 17.3967 119.034 -9.58289 142.949 3.88534V18.6486Z" fill="url(#paint0_linear_4409_28548)"/>
<path style="mix-blend-mode:overlay" opacity="0.25" d="M142.949 18.6486V33.7572V48.8658C119.034 35.4191 95.1197 62.3772 71.2266 48.8658V3.88534C95.1197 17.3967 119.034 -9.58289 142.949 3.88534V18.6486Z" fill="url(#paint1_linear_4409_28548)"/>
<path d="M-0.00038147 48.9047C23.9359 35.4149 47.8723 62.4161 71.8086 48.9047V3.90269C47.8723 17.3925 23.9359 -9.60871 -0.00038147 3.90269V48.9047Z" fill="#34A53E"/>
<path d="M0.00123978 48.9048C11.5054 42.4297 23.0095 45.3003 34.5352 48.5163V3.51426C23.031 0.27671 11.5269 -2.59394 0.00123978 3.90276V48.9048Z" fill="#E52525"/>
<path d="M23.6774 45.6885C31.7497 47.1778 39.8436 50.2427 47.9375 51.7535V6.96736C39.8436 5.4565 31.7497 2.39162 23.6774 0.902344V45.6885Z" fill="white"/>
<path style="mix-blend-mode:multiply" d="M0.562508 18.7308V33.8394V48.948C24.4772 35.5014 48.392 62.4594 72.2852 48.948V3.9244C48.392 17.4358 24.4772 -9.54383 0.562508 3.9244V18.7308Z" fill="url(#paint2_linear_4409_28548)"/>
<path style="mix-blend-mode:overlay" opacity="0.25" d="M0.562508 18.7308V33.8394V48.948C24.4772 35.5014 48.392 62.4594 72.2852 48.948V3.9244C48.392 17.4358 24.4772 -9.54383 0.562508 3.9244V18.7308Z" fill="url(#paint3_linear_4409_28548)"/>
<defs>
<linearGradient id="paint0_linear_4409_28548" x1="71.2266" y1="26.3971" x2="142.949" y2="26.3971" gradientUnits="userSpaceOnUse">
<stop stop-color="white"/>
<stop offset="0.13" stop-color="#F7F7F7"/>
<stop offset="0.34" stop-color="#E0E0E1"/>
<stop offset="0.54" stop-color="#C4C5C6"/>
<stop offset="0.57" stop-color="#C1C2C3"/>
<stop offset="0.69" stop-color="#BEBFC0"/>
<stop offset="0.91" stop-color="white"/>
</linearGradient>
<linearGradient id="paint1_linear_4409_28548" x1="71.2266" y1="26.3971" x2="142.949" y2="26.3971" gradientUnits="userSpaceOnUse">
<stop stop-color="white"/>
<stop offset="0.13" stop-color="#F7F7F7"/>
<stop offset="0.34" stop-color="#E0E0E1"/>
<stop offset="0.54" stop-color="#C4C5C6"/>
<stop offset="0.57" stop-color="#C1C2C3"/>
<stop offset="0.69" stop-color="#BEBFC0"/>
<stop offset="0.91" stop-color="white"/>
</linearGradient>
<linearGradient id="paint2_linear_4409_28548" x1="72.2636" y1="26.4362" x2="0.519341" y2="26.4362" gradientUnits="userSpaceOnUse">
<stop stop-color="white"/>
<stop offset="0.13" stop-color="#F7F7F7"/>
<stop offset="0.34" stop-color="#E0E0E1"/>
<stop offset="0.54" stop-color="#C4C5C6"/>
<stop offset="0.57" stop-color="#C1C2C3"/>
<stop offset="0.69" stop-color="#BEBFC0"/>
<stop offset="0.91" stop-color="white"/>
</linearGradient>
<linearGradient id="paint3_linear_4409_28548" x1="72.2636" y1="26.4362" x2="0.519341" y2="26.4362" gradientUnits="userSpaceOnUse">
<stop stop-color="white"/>
<stop offset="0.13" stop-color="#F7F7F7"/>
<stop offset="0.34" stop-color="#E0E0E1"/>
<stop offset="0.54" stop-color="#C4C5C6"/>
<stop offset="0.57" stop-color="#C1C2C3"/>
<stop offset="0.69" stop-color="#BEBFC0"/>
<stop offset="0.91" stop-color="white"/>
</linearGradient>
</defs>
</svg>
