<svg width="144" height="53" viewBox="0 0 144 53" fill="none" xmlns="http://www.w3.org/2000/svg">
<path d="M0.506325 49.0178C24.2933 35.4808 48.0802 62.5548 71.8672 49.0178V4.01716C48.0802 17.5541 24.2933 -9.5198 0.506325 4.01716V49.0178Z" fill="#43AF50"/>
<path d="M0.505795 49.0179C11.9381 42.5306 23.3704 45.385 34.8242 48.6287V3.5199C23.3704 0.276216 11.9381 -2.5998 0.505795 3.90919V49.0179Z" fill="#FFA92C"/>
<path d="M24.0358 45.7741C32.0578 47.2662 40.1011 50.3368 48.1445 51.8506V7.00129C40.1011 5.48758 32.0578 2.4169 24.0358 0.924805V45.7741Z" fill="white"/>
<path style="mix-blend-mode:multiply" d="M0.50618 18.8089V33.946V49.0832C24.2717 35.6111 48.0372 62.6202 71.7812 49.0832V4.01769C48.0372 17.5546 24.2717 -9.47602 0.50618 4.01769V18.8521V18.8089Z" fill="url(#paint0_linear_4409_28528)"/>
<path style="mix-blend-mode:overlay" opacity="0.25" d="M0.50618 18.8089V33.946V49.0832C24.2717 35.6111 48.0372 62.6202 71.7812 49.0832V4.01769C48.0372 17.5546 24.2717 -9.47602 0.50618 4.01769V18.8521V18.8089Z" fill="url(#paint1_linear_4409_28528)"/>
<path d="M143.517 3.97704V49.0858C119.557 35.5921 95.5754 62.6228 71.5938 49.0858V4.04191C95.5537 17.514 119.535 -9.51667 143.517 3.97704Z" fill="#2E4593"/>
<path d="M143.517 44.3934V49.0859C141.175 47.7469 138.656 46.7424 136.035 46.1017C129.539 40.5348 122.037 36.2627 113.935 33.5162L111.772 32.7161C110.907 32.3918 110.042 32.089 109.156 31.8079L108.312 31.57L105.653 30.6618L104.658 30.3158L103.836 30.0347L102.171 29.4292L101.631 29.2346L100.809 28.9318C98.1922 27.9587 95.5756 26.8775 92.9807 25.6233C91.7913 25.0394 90.6236 24.4339 89.4343 23.7852C82.5878 19.9258 76.5226 14.8214 71.5508 8.73454V4.04199L71.6805 4.21503C73.9749 5.4853 76.4245 6.45206 78.968 7.09106C85.5894 12.7354 93.2308 17.059 101.479 19.8279L103.642 20.6064L104.225 20.8226L107.772 22.0336L108.118 22.1634L109.459 22.6391L111.621 23.3743L111.989 23.5041L113.827 24.1961L115.622 24.8664C117.243 25.4935 118.865 26.1639 120.465 26.8991C121.655 27.4397 122.823 28.002 124.012 28.6075C131.507 32.5081 138.14 37.8766 143.517 44.3934Z" fill="#FCF5FF"/>
<path d="M143.517 48.8694V49.0423C141.972 48.1897 140.359 47.4664 138.695 46.8799C131.668 40.0476 123.2 34.8754 113.913 31.7427C113.221 31.4616 112.508 31.2237 111.751 30.9643L109.588 30.229L108.312 29.7749L105.955 28.9532L103.793 28.1963H103.49L102.128 27.6989L101.587 27.526C99.5978 26.7907 97.6083 26.0122 95.6405 25.1473C94.4512 24.6283 93.2834 24.0876 92.1157 23.5038C84.1774 19.5293 77.1691 13.9213 71.5508 7.04753V3.93359L71.6805 4.10656C78.4378 12.2795 87.1471 18.6163 97.0028 22.5307C98.1706 23.0281 99.3383 23.4821 100.506 23.9146L101.479 24.2823L103.642 25.0824L104.463 25.3635L105.826 25.8393L108.312 26.7042L111.599 27.8503L111.967 27.9801L113.156 28.4126L113.805 28.6504C114.757 28.9964 115.73 29.364 116.681 29.7533C127.15 33.6573 136.406 40.2506 143.517 48.8694Z" fill="#F42525"/>
<path d="M143.517 4.885V9.57749C137.577 10.2848 131.922 12.5199 127.104 16.0648C125.936 16.8433 124.769 17.6651 123.579 18.5301C120.963 20.4763 118.346 22.6171 115.73 24.8877L113.935 26.4663L112.097 28.1097L111.729 28.4341L110.886 29.1694L109.588 30.3587L108.312 31.5697L107.426 32.3698L103.836 35.6351L101.674 37.6029C94.6242 43.8524 87.5962 49.4964 80.5682 52.5238C77.3989 51.8974 74.353 50.758 71.5508 49.1504V45.3228C78.4923 44.8903 85.4337 40.998 92.3536 35.7648C93.5429 34.8782 94.7107 33.9483 95.8784 32.9752C97.5002 31.6561 99.1004 30.2722 100.722 28.8449L101.544 28.1314L102.085 27.634L103.75 26.1635L104.571 25.4067L108.226 22.0981L108.572 21.7738L111.708 18.9409L112.097 18.5949L113.913 16.9731C121.741 10.0749 129.569 3.9984 137.419 1.38184C139.325 1.95152 141.166 2.71979 142.912 3.67403L143.517 4.885Z" fill="#FCF5FF"/>
<path d="M143.324 4.99294C135.496 5.57681 127.647 10.4424 119.819 16.8C118.651 17.7515 117.461 18.7462 116.294 19.7409L113.937 21.9033L112.099 23.5468C111.966 23.6508 111.843 23.7666 111.731 23.8928L108.444 26.8554L105.957 29.0178L104.595 30.2504L103.773 31.0072L103.6 31.1586L101.567 32.9751L100.075 34.2726C91.1228 42.1223 82.1486 48.761 73.1961 50.0152L71.5742 49.1719V47.0095C79.4023 46.5121 87.252 41.6682 95.1017 35.3106C96.2694 34.3591 97.4371 33.386 98.6265 32.3696L101.567 29.7963L102.108 29.3205L103.47 28.1096L103.773 27.8284L105.936 25.8606L109.569 22.5521L111.277 20.9951L111.709 20.6275L113.872 18.6597L114.758 17.8596C123.192 10.4856 131.626 4.12798 140.059 2.31152C140.902 2.65752 141.724 3.04678 142.568 3.47927L143.454 3.95501V4.94972L143.324 4.99294Z" fill="#F42525"/>
<path d="M143.539 32.2407C119.536 18.6821 95.511 45.8209 71.5078 32.2407V19.8714C95.511 33.4516 119.536 6.29123 143.539 19.8714V32.2407Z" fill="white"/>
<path d="M143.539 30.0347C119.536 16.4761 95.511 43.6149 71.5078 30.0347V22.0768C95.511 35.657 119.536 8.5182 143.539 22.0768V30.0347Z" fill="#F42525"/>
<path d="M111.727 2.83105V47.9399C109.068 48.6535 106.429 49.432 103.77 50.1023V5.05838C106.429 4.32314 109.068 3.45817 111.727 2.83105Z" fill="#CD002A"/>
<path d="M111.707 31.0727L113.869 30.4889V47.356C109.761 48.4156 105.63 49.6914 101.5 50.751V33.8839L103.662 33.3V20.9308L101.5 21.5147V5.62065C105.63 4.56105 109.761 3.28519 113.869 2.22559V18.098L111.707 18.6819V31.0727Z" fill="white"/>
<path d="M111.751 2.83105V47.9399C109.07 48.6535 106.388 49.4536 103.707 50.1023V5.08002C106.388 4.34479 109.07 3.45817 111.751 2.83105Z" fill="#F42525"/>
<path style="mix-blend-mode:multiply" d="M143.433 18.7251V33.8623V48.9995C119.473 35.5274 95.5126 62.5364 71.5742 48.9995V3.89073C95.5126 17.4277 119.473 -9.60297 143.433 3.89073V18.7251Z" fill="url(#paint2_linear_4409_28528)"/>
<path style="mix-blend-mode:overlay" opacity="0.25" d="M143.433 18.7251V33.8623V48.9995C119.473 35.5274 95.5126 62.5364 71.5742 48.9995V3.89073C95.5126 17.4277 119.473 -9.60297 143.433 3.89073V18.7251Z" fill="url(#paint3_linear_4409_28528)"/>
<defs>
<linearGradient id="paint0_linear_4409_28528" x1="71.7813" y1="26.5288" x2="0.50618" y2="26.5288" gradientUnits="userSpaceOnUse">
<stop stop-color="white"/>
<stop offset="0.13" stop-color="#F7F7F7"/>
<stop offset="0.34" stop-color="#E0E0E1"/>
<stop offset="0.54" stop-color="#C4C5C6"/>
<stop offset="0.57" stop-color="#C1C2C3"/>
<stop offset="0.69" stop-color="#BEBFC0"/>
<stop offset="0.91" stop-color="white"/>
</linearGradient>
<linearGradient id="paint1_linear_4409_28528" x1="71.7813" y1="26.5288" x2="0.50618" y2="26.5288" gradientUnits="userSpaceOnUse">
<stop stop-color="white"/>
<stop offset="0.13" stop-color="#F7F7F7"/>
<stop offset="0.34" stop-color="#E0E0E1"/>
<stop offset="0.54" stop-color="#C4C5C6"/>
<stop offset="0.57" stop-color="#C1C2C3"/>
<stop offset="0.69" stop-color="#BEBFC0"/>
<stop offset="0.91" stop-color="white"/>
</linearGradient>
<linearGradient id="paint2_linear_4409_28528" x1="71.5526" y1="26.4451" x2="143.433" y2="26.4451" gradientUnits="userSpaceOnUse">
<stop stop-color="white"/>
<stop offset="0.13" stop-color="#F7F7F7"/>
<stop offset="0.34" stop-color="#E0E0E1"/>
<stop offset="0.54" stop-color="#C4C5C6"/>
<stop offset="0.57" stop-color="#C1C2C3"/>
<stop offset="0.69" stop-color="#BEBFC0"/>
<stop offset="0.91" stop-color="white"/>
</linearGradient>
<linearGradient id="paint3_linear_4409_28528" x1="71.5526" y1="26.4451" x2="143.433" y2="26.4451" gradientUnits="userSpaceOnUse">
<stop stop-color="white"/>
<stop offset="0.13" stop-color="#F7F7F7"/>
<stop offset="0.34" stop-color="#E0E0E1"/>
<stop offset="0.54" stop-color="#C4C5C6"/>
<stop offset="0.57" stop-color="#C1C2C3"/>
<stop offset="0.69" stop-color="#BEBFC0"/>
<stop offset="0.91" stop-color="white"/>
</linearGradient>
</defs>
</svg>
