<svg width="399" height="373" viewBox="0 0 399 373" fill="none" xmlns="http://www.w3.org/2000/svg">
<g clip-path="url(#clip0_4628_12169)">
<path d="M373.351 310.137H0.40625V310.323H373.351V310.137Z" fill="#EBEBEB"/>
<path d="M335.985 322.141H311.281V322.327H335.985V322.141Z" fill="#EBEBEB"/>
<path d="M247.458 324.17H240.977V324.356H247.458V324.17Z" fill="#EBEBEB"/>
<path d="M310.532 315.217H296.219V315.403H310.532V315.217Z" fill="#EBEBEB"/>
<path d="M71.754 316.471H39.5391V316.657H71.754V316.471Z" fill="#EBEBEB"/>
<path d="M83.1199 316.471H78.3984V316.657H83.1199V316.471Z" fill="#EBEBEB"/>
<path d="M168.344 319.619H98.4688V319.806H168.344V319.619Z" fill="#EBEBEB"/>
<path d="M177.182 276.865H33.1578C32.0295 276.863 30.9482 276.414 30.1511 275.615C29.3539 274.816 28.9062 273.734 28.9063 272.606V70.1188C28.9161 68.9969 29.3681 67.9241 30.1641 67.1335C30.9602 66.3429 32.036 65.8984 33.1578 65.8965H177.182C178.311 65.8965 179.394 66.3453 180.193 67.1441C180.992 67.943 181.441 69.0264 181.441 70.1561V272.606C181.441 273.735 180.992 274.819 180.193 275.618C179.394 276.417 178.311 276.865 177.182 276.865ZM33.1578 66.0457C32.079 66.0477 31.045 66.4777 30.2829 67.2413C29.5208 68.005 29.0927 69.0399 29.0927 70.1188V272.606C29.0927 273.685 29.5208 274.719 30.2829 275.483C31.045 276.247 32.079 276.677 33.1578 276.679H177.182C178.261 276.677 179.296 276.247 180.059 275.484C180.822 274.72 181.252 273.685 181.254 272.606V70.1188C181.252 69.0392 180.822 68.0043 180.059 67.2409C179.296 66.4774 178.261 66.0477 177.182 66.0457H33.1578Z" fill="#EBEBEB"/>
<path d="M338.525 276.865H194.493C193.364 276.863 192.282 276.414 191.484 275.615C190.686 274.817 190.236 273.735 190.234 272.606V70.1188C190.246 68.9962 190.7 67.9234 191.497 67.133C192.294 66.3427 193.371 65.8984 194.493 65.8965H338.525C339.645 65.9004 340.719 66.3458 341.513 67.1361C342.308 67.9265 342.759 68.9982 342.769 70.1188V272.606C342.769 273.733 342.322 274.814 341.527 275.612C340.731 276.411 339.652 276.861 338.525 276.865ZM194.493 66.0457C193.414 66.0477 192.379 66.4774 191.616 67.2409C190.853 68.0043 190.423 69.0392 190.421 70.1188V272.606C190.423 273.685 190.853 274.72 191.616 275.484C192.379 276.247 193.414 276.677 194.493 276.679H338.525C339.604 276.677 340.639 276.247 341.402 275.484C342.165 274.72 342.595 273.685 342.597 272.606V70.1188C342.595 69.0392 342.165 68.0043 341.402 67.2409C340.639 66.4774 339.604 66.0477 338.525 66.0457H194.493Z" fill="#EBEBEB"/>
<path d="M249.052 275.038C249.095 276.89 249.487 278.718 250.208 280.424L248.045 282.237L251.17 286.773L253.661 285.378C255 286.653 256.566 287.665 258.278 288.362L258.025 291.197L263.44 292.196L264.186 289.458C266.037 289.414 267.864 289.021 269.571 288.302L271.399 290.488L275.934 287.37L274.546 284.878C275.823 283.54 276.835 281.974 277.53 280.26L280.364 280.514L281.364 275.098L278.626 274.352C278.587 272.499 278.194 270.671 277.47 268.966L279.663 267.138L276.545 262.602L274.046 263.99C272.713 262.712 271.149 261.699 269.437 261.006L269.683 258.164L264.275 257.164L263.529 259.909C261.678 259.95 259.851 260.34 258.144 261.058L256.309 258.872L251.774 261.991L253.169 264.482C251.895 265.822 250.883 267.388 250.185 269.1L247.351 268.846L246.352 274.262L249.052 275.038ZM256.511 273.352C256.776 271.9 257.467 270.559 258.495 269.499C259.524 268.44 260.843 267.709 262.287 267.4C263.731 267.091 265.234 267.218 266.606 267.764C267.977 268.31 269.156 269.251 269.993 270.467C270.83 271.684 271.287 273.121 271.306 274.598C271.325 276.074 270.906 277.523 270.101 278.761C269.296 279.999 268.142 280.971 266.785 281.552C265.428 282.134 263.929 282.299 262.478 282.028C260.539 281.664 258.824 280.547 257.707 278.921C256.59 277.295 256.163 275.293 256.518 273.352H256.511Z" fill="#F0F0F0"/>
<path d="M113.863 176.088C114.541 179.445 110.476 183.108 104.785 184.257C99.094 185.406 93.9325 183.608 93.2537 180.251C92.575 176.894 96.64 173.223 102.331 172.045C108.022 170.866 113.184 172.724 113.863 176.088Z" fill="#E0E0E0"/>
<path d="M116.061 164.025C116.514 163.387 116.699 162.597 116.576 161.824C115.912 158.519 108.371 157.266 99.6887 159.012C91.0065 160.757 84.5471 164.86 85.211 168.158C85.4052 168.916 85.8832 169.57 86.5461 169.985C86.4437 170.345 86.4258 170.722 86.4939 171.09C86.6864 171.841 87.1693 172.485 87.8365 172.88C87.722 173.249 87.699 173.641 87.7694 174.021C87.8674 174.393 88.0394 174.742 88.2753 175.045C88.5111 175.349 88.8058 175.602 89.1418 175.789C89.0133 176.161 88.9824 176.559 89.0523 176.946C89.1519 177.318 89.3271 177.666 89.5671 177.968C89.8071 178.269 90.1067 178.518 90.4471 178.699C90.3006 179.074 90.2618 179.482 90.3352 179.877C90.8872 182.623 97.175 183.667 104.373 182.212C111.571 180.758 116.963 177.356 116.412 174.611C116.32 174.218 116.124 173.857 115.845 173.566C116.09 173.27 116.27 172.926 116.374 172.556C116.478 172.186 116.504 171.798 116.449 171.418C116.367 171.031 116.184 170.674 115.919 170.381C116.155 170.077 116.327 169.729 116.425 169.357C116.524 168.986 116.547 168.598 116.494 168.217C116.412 167.841 116.241 167.491 115.994 167.195C116.455 166.572 116.651 165.792 116.538 165.025C116.457 164.66 116.294 164.318 116.061 164.025Z" fill="#EBEBEB"/>
<path d="M123.139 132.081C122.209 127.385 120.104 123.002 117.022 119.339C113.94 115.676 109.981 112.854 105.514 111.135C101.046 109.416 96.2167 108.856 91.4748 109.508C86.733 110.161 82.2334 112.003 78.3959 114.864C74.5583 117.725 71.5078 121.512 69.5286 125.871C67.5495 130.23 66.7063 135.019 67.0776 139.791C67.449 144.564 69.0228 149.165 71.6522 153.165C74.2817 157.165 77.8813 160.434 82.1152 162.667C82.7936 163.017 83.3752 163.529 83.8085 164.158C84.2418 164.786 84.5133 165.512 84.599 166.271C84.599 166.345 84.599 166.42 84.599 166.494C85.2777 169.851 92.9604 171.127 101.754 169.352C110.548 167.576 117.127 163.384 116.448 160.064C116.448 159.989 116.448 159.922 116.396 159.847C116.182 159.108 116.154 158.326 116.314 157.573C116.474 156.82 116.818 156.117 117.314 155.528C119.955 152.292 121.847 148.512 122.854 144.458C123.861 140.404 123.959 136.177 123.139 132.081Z" fill="#F5F5F5"/>
<path d="M105.719 163.868H105.652C105.562 163.872 105.474 163.841 105.407 163.781C105.34 163.721 105.299 163.637 105.294 163.547C105.294 162.995 104.6 150.522 109.97 144.547L105.853 145.375C105.788 145.391 105.72 145.386 105.658 145.36C105.596 145.335 105.544 145.29 105.51 145.233L103.466 142.249L101.661 149.448C101.644 149.51 101.611 149.566 101.565 149.61C101.519 149.655 101.462 149.687 101.4 149.702C101.337 149.715 101.271 149.71 101.21 149.688C101.149 149.665 101.096 149.626 101.057 149.575L96.5816 143.607L94.6124 150.015C94.5986 150.076 94.566 150.131 94.5192 150.173C94.4723 150.214 94.4136 150.24 94.3513 150.246C94.2917 150.256 94.2304 150.251 94.1731 150.232C94.1159 150.212 94.0643 150.179 94.0232 150.134L89.7268 144.972L88.9809 148.553C88.9707 148.618 88.9399 148.679 88.893 148.726C88.846 148.773 88.7854 148.804 88.7199 148.814L84.2446 149.709C86.4822 151.313 93.6502 156.99 95.3807 165.569C95.3895 165.613 95.3896 165.658 95.3811 165.701C95.3726 165.745 95.3555 165.786 95.3309 165.823C95.3063 165.861 95.2747 165.892 95.2378 165.917C95.2009 165.942 95.1595 165.959 95.1159 165.968C95.0723 165.977 95.0274 165.977 94.9838 165.969C94.9401 165.96 94.8986 165.943 94.8615 165.918C94.8245 165.894 94.7926 165.862 94.7678 165.825C94.743 165.788 94.7257 165.747 94.7168 165.703C92.7179 155.826 83.3047 149.881 83.2078 149.828C83.1498 149.792 83.104 149.739 83.0763 149.677C83.0486 149.614 83.0402 149.545 83.0522 149.477C83.0642 149.41 83.0961 149.348 83.1438 149.299C83.1914 149.25 83.2527 149.216 83.3197 149.202L88.3246 148.195L89.16 144.151C89.1712 144.089 89.2005 144.031 89.2442 143.984C89.2879 143.938 89.3442 143.905 89.4061 143.89C89.4679 143.872 89.5337 143.873 89.5949 143.893C89.6561 143.913 89.7099 143.951 89.7492 144.002L94.0754 149.172L96.1042 142.734C96.1212 142.673 96.1552 142.618 96.2022 142.575C96.2491 142.533 96.3072 142.505 96.3696 142.494C96.432 142.483 96.4963 142.49 96.5549 142.514C96.6135 142.538 96.6642 142.578 96.7009 142.63L101.176 148.598L102.996 141.384C103.013 141.321 103.047 141.265 103.094 141.221C103.142 141.177 103.201 141.148 103.265 141.138C103.328 141.124 103.395 141.131 103.455 141.156C103.515 141.181 103.565 141.224 103.6 141.279L105.942 144.681L110.94 143.674C111.013 143.656 111.09 143.665 111.158 143.697C111.226 143.73 111.281 143.785 111.313 143.853C111.345 143.919 111.356 143.994 111.342 144.067C111.329 144.139 111.292 144.206 111.238 144.256C105.234 149.605 105.965 163.383 105.972 163.525C105.975 163.602 105.951 163.678 105.905 163.741C105.859 163.803 105.794 163.848 105.719 163.868Z" fill="#E0E0E0"/>
<path d="M186.878 343.827C266.75 343.827 331.499 340.046 331.499 335.382C331.499 330.718 266.75 326.938 186.878 326.938C107.007 326.938 42.2578 330.718 42.2578 335.382C42.2578 340.046 107.007 343.827 186.878 343.827Z" fill="#F5F5F5"/>
<path d="M389.609 89.8975C389.609 79.3153 384.074 69.746 375.14 62.8721C375.436 61.4744 375.587 60.0499 375.592 58.6211C375.592 44.5114 361.249 33.0429 343.398 32.7172C337.972 19.0598 321.838 9.20117 302.703 9.20117C287.474 9.20117 274.108 15.4962 266.53 24.9569C264.617 24.6953 262.69 24.5623 260.76 24.559C242.565 24.559 227.806 36.1723 227.806 50.499C227.805 52.9249 228.233 55.3319 229.072 57.6081C217.479 63.7042 209.828 74.0874 209.828 85.8817C209.828 97.2417 216.918 107.281 227.806 113.45V113.812C227.806 127.722 241.697 139.137 259.168 139.715C268.79 149.122 283.549 155.146 300.098 155.146C310.965 155.239 321.666 152.483 331.135 147.15C332.624 147.317 334.122 147.402 335.62 147.403C353.816 147.403 368.574 135.79 368.574 121.463V121.21C381.307 114.336 389.609 102.886 389.609 89.8975Z" fill="#0F75BB"/>
<path d="M208.396 166.072C208.396 168.442 205.646 170.359 202.264 170.359C198.882 170.359 196.133 168.442 196.133 166.072C196.133 163.703 198.882 161.785 202.264 161.785C205.646 161.785 208.396 163.703 208.396 166.072Z" fill="#0F75BB"/>
<path d="M250.865 155.833C250.865 162.689 242.889 168.242 233.05 168.242C223.211 168.242 215.289 162.725 215.289 155.833C215.289 148.941 223.265 143.424 233.104 143.424C242.943 143.424 250.865 149.032 250.865 155.833Z" fill="#0F75BB"/>
<path opacity="0.7" d="M389.609 89.8975C389.609 79.3153 384.074 69.746 375.14 62.8721C375.436 61.4744 375.587 60.0499 375.592 58.6211C375.592 44.5114 361.249 33.0429 343.398 32.7172C337.972 19.0598 321.838 9.20117 302.703 9.20117C287.474 9.20117 274.108 15.4962 266.53 24.9569C264.617 24.6953 262.69 24.5623 260.76 24.559C242.565 24.559 227.806 36.1723 227.806 50.499C227.805 52.9249 228.233 55.3319 229.072 57.6081C217.479 63.7042 209.828 74.0874 209.828 85.8817C209.828 97.2417 216.918 107.281 227.806 113.45V113.812C227.806 127.722 241.697 139.137 259.168 139.715C268.79 149.122 283.549 155.146 300.098 155.146C310.965 155.239 321.666 152.483 331.135 147.15C332.624 147.317 334.122 147.402 335.62 147.403C353.816 147.403 368.574 135.79 368.574 121.463V121.21C381.307 114.336 389.609 102.886 389.609 89.8975Z" fill="white"/>
<path d="M232.026 79.335V89.9668H230.025V79.335H232.026ZM233.355 86.2983V86.1529C233.355 85.6038 233.433 85.0985 233.59 84.637C233.747 84.171 233.975 83.7672 234.275 83.4257C234.575 83.0843 234.944 82.8189 235.383 82.6297C235.821 82.4359 236.324 82.339 236.892 82.339C237.459 82.339 237.965 82.4359 238.408 82.6297C238.851 82.8189 239.222 83.0843 239.522 83.4257C239.827 83.7672 240.057 84.171 240.214 84.637C240.371 85.0985 240.449 85.6038 240.449 86.1529V86.2983C240.449 86.8428 240.371 87.3481 240.214 87.8141C240.057 88.2756 239.827 88.6793 239.522 89.0254C239.222 89.3669 238.853 89.6322 238.414 89.8214C237.976 90.0106 237.473 90.1052 236.906 90.1052C236.338 90.1052 235.833 90.0106 235.39 89.8214C234.951 89.6322 234.58 89.3669 234.275 89.0254C233.975 88.6793 233.747 88.2756 233.59 87.8141C233.433 87.3481 233.355 86.8428 233.355 86.2983ZM235.348 86.1529V86.2983C235.348 86.612 235.376 86.9051 235.431 87.1773C235.487 87.4496 235.574 87.6895 235.694 87.8972C235.819 88.1002 235.98 88.2594 236.179 88.3748C236.377 88.4902 236.619 88.5478 236.906 88.5478C237.182 88.5478 237.42 88.4902 237.618 88.3748C237.817 88.2594 237.976 88.1002 238.096 87.8972C238.216 87.6895 238.304 87.4496 238.359 87.1773C238.419 86.9051 238.449 86.612 238.449 86.2983V86.1529C238.449 85.8483 238.419 85.5622 238.359 85.2946C238.304 85.0224 238.214 84.7824 238.089 84.5747C237.969 84.3625 237.81 84.1964 237.612 84.0764C237.413 83.9564 237.173 83.8964 236.892 83.8964C236.61 83.8964 236.37 83.9564 236.172 84.0764C235.978 84.1964 235.819 84.3625 235.694 84.5747C235.574 84.7824 235.487 85.0224 235.431 85.2946C235.376 85.5622 235.348 85.8483 235.348 86.1529ZM243.668 84.111V89.9668H241.675V82.4774H243.55L243.668 84.111ZM245.925 82.429L245.89 84.2771C245.793 84.2633 245.675 84.2517 245.537 84.2425C245.403 84.2287 245.281 84.2217 245.17 84.2217C244.889 84.2217 244.644 84.2586 244.436 84.3325C244.233 84.4017 244.063 84.5055 243.924 84.644C243.79 84.7824 243.689 84.9508 243.62 85.1492C243.555 85.3477 243.518 85.5738 243.509 85.8276L243.107 85.703C243.107 85.2185 243.156 84.7732 243.253 84.3671C243.35 83.9564 243.49 83.5988 243.675 83.2942C243.864 82.9897 244.095 82.7543 244.367 82.5882C244.639 82.4221 244.951 82.339 245.302 82.339C245.412 82.339 245.525 82.3482 245.641 82.3667C245.756 82.3805 245.851 82.4013 245.925 82.429ZM250.175 90.1052C249.593 90.1052 249.072 90.0129 248.61 89.8284C248.149 89.6392 247.757 89.3784 247.434 89.0462C247.115 88.714 246.871 88.3286 246.7 87.8903C246.529 87.4473 246.444 86.9766 246.444 86.4782V86.2014C246.444 85.6338 246.524 85.1146 246.686 84.644C246.848 84.1733 247.078 83.7649 247.378 83.4188C247.683 83.0727 248.052 82.8074 248.486 82.6228C248.919 82.4336 249.409 82.339 249.953 82.339C250.484 82.339 250.954 82.4267 251.365 82.602C251.776 82.7774 252.12 83.0266 252.396 83.3496C252.678 83.6726 252.89 84.0602 253.033 84.5124C253.176 84.9601 253.248 85.4584 253.248 86.0075V86.8382H247.295V85.5092H251.289V85.3569C251.289 85.08 251.238 84.8332 251.137 84.6163C251.04 84.3948 250.892 84.2194 250.694 84.0902C250.495 83.961 250.241 83.8964 249.932 83.8964C249.669 83.8964 249.443 83.9541 249.254 84.0695C249.065 84.1848 248.91 84.3463 248.79 84.554C248.675 84.7616 248.587 85.0062 248.527 85.2877C248.472 85.5646 248.444 85.8691 248.444 86.2014V86.4782C248.444 86.7782 248.486 87.055 248.569 87.3088C248.656 87.5626 248.779 87.7818 248.936 87.9664C249.097 88.151 249.291 88.294 249.517 88.3956C249.748 88.4971 250.008 88.5478 250.299 88.5478C250.659 88.5478 250.994 88.4786 251.303 88.3402C251.617 88.1971 251.887 87.9826 252.113 87.6965L253.082 88.7486C252.925 88.9747 252.71 89.1916 252.438 89.3992C252.17 89.6069 251.847 89.7776 251.469 89.9114C251.091 90.0406 250.659 90.1052 250.175 90.1052ZM256.376 84.0279V89.9668H254.376V82.4774H256.252L256.376 84.0279ZM256.1 85.9591H255.546C255.546 85.4377 255.608 84.9577 255.733 84.5194C255.862 84.0764 256.049 83.6934 256.293 83.3704C256.543 83.0427 256.849 82.7889 257.214 82.609C257.579 82.429 258.001 82.339 258.481 82.339C258.813 82.339 259.117 82.3898 259.394 82.4913C259.671 82.5882 259.909 82.7428 260.107 82.955C260.31 83.1627 260.467 83.435 260.578 83.7718C260.689 84.1041 260.744 84.5032 260.744 84.9693V89.9668H258.751V85.1908C258.751 84.8493 258.704 84.5863 258.612 84.4017C258.52 84.2171 258.388 84.0879 258.218 84.0141C258.052 83.9402 257.851 83.9033 257.615 83.9033C257.357 83.9033 257.131 83.9564 256.937 84.0625C256.748 84.1687 256.591 84.3163 256.466 84.5055C256.342 84.6901 256.25 84.907 256.19 85.1562C256.13 85.4054 256.1 85.673 256.1 85.9591ZM260.557 85.7307L259.844 85.8207C259.844 85.3315 259.904 84.877 260.024 84.4571C260.149 84.0372 260.331 83.668 260.571 83.3496C260.816 83.0312 261.118 82.7843 261.478 82.609C261.838 82.429 262.253 82.339 262.724 82.339C263.084 82.339 263.411 82.3921 263.707 82.4982C264.002 82.5997 264.253 82.7635 264.461 82.9897C264.673 83.2112 264.835 83.5019 264.946 83.8618C265.061 84.2217 265.119 84.6624 265.119 85.1839V89.9668H263.118V85.1839C263.118 84.8378 263.072 84.5747 262.98 84.3948C262.892 84.2102 262.763 84.0833 262.592 84.0141C262.426 83.9402 262.228 83.9033 261.997 83.9033C261.757 83.9033 261.547 83.9518 261.367 84.0487C261.187 84.141 261.037 84.2702 260.917 84.4363C260.797 84.6024 260.707 84.7962 260.647 85.0177C260.587 85.2346 260.557 85.4723 260.557 85.7307ZM272.525 79.8887V89.9668H270.455V79.8887H272.525ZM274.345 79.335H276.339V88.2502L276.138 89.9668H274.345V79.335ZM281.08 86.146V86.2913C281.08 86.8497 281.02 87.3619 280.9 87.828C280.785 88.294 280.605 88.6978 280.36 89.0393C280.116 89.3761 279.811 89.6392 279.447 89.8284C279.087 90.0129 278.662 90.1052 278.173 90.1052C277.716 90.1052 277.319 90.0129 276.983 89.8284C276.65 89.6438 276.371 89.3831 276.145 89.0462C275.919 88.7093 275.737 88.3148 275.598 87.8626C275.46 87.4104 275.356 86.9166 275.287 86.3813V86.0629C275.356 85.5276 275.46 85.0339 275.598 84.5817C275.737 84.1294 275.919 83.7349 276.145 83.398C276.371 83.0612 276.65 82.8005 276.983 82.6159C277.315 82.4313 277.707 82.339 278.159 82.339C278.653 82.339 279.082 82.4336 279.447 82.6228C279.816 82.8074 280.12 83.0704 280.36 83.4119C280.605 83.7487 280.785 84.1502 280.9 84.6163C281.02 85.0777 281.08 85.5876 281.08 86.146ZM279.087 86.2913V86.146C279.087 85.8414 279.064 85.5553 279.018 85.2877C278.976 85.0154 278.902 84.7778 278.796 84.5747C278.69 84.3671 278.545 84.2033 278.36 84.0833C278.18 83.9633 277.947 83.9033 277.661 83.9033C277.389 83.9033 277.158 83.9495 276.969 84.0418C276.78 84.1341 276.623 84.2633 276.498 84.4294C276.378 84.5955 276.288 84.7939 276.228 85.0247C276.168 85.2508 276.131 85.5 276.117 85.7722V86.679C276.131 87.0435 276.191 87.3665 276.297 87.648C276.408 87.9249 276.574 88.1441 276.796 88.3056C277.022 88.4625 277.315 88.5409 277.675 88.5409C277.956 88.5409 278.189 88.4855 278.374 88.3748C278.558 88.264 278.701 88.1071 278.803 87.9041C278.909 87.7011 278.983 87.4634 279.024 87.1912C279.066 86.9143 279.087 86.6144 279.087 86.2913ZM286.368 87.8972C286.368 87.7541 286.327 87.6249 286.244 87.5096C286.161 87.3942 286.006 87.2881 285.78 87.1912C285.559 87.0897 285.238 86.9974 284.818 86.9143C284.44 86.8312 284.087 86.7274 283.759 86.6028C283.436 86.4736 283.154 86.319 282.915 86.1391C282.679 85.9591 282.495 85.7468 282.361 85.5023C282.227 85.2531 282.16 84.9693 282.16 84.6509C282.16 84.3371 282.227 84.0418 282.361 83.7649C282.499 83.488 282.695 83.2435 282.949 83.0312C283.208 82.8143 283.521 82.6459 283.89 82.5259C284.264 82.4013 284.684 82.339 285.15 82.339C285.801 82.339 286.359 82.4428 286.825 82.6505C287.296 82.8581 287.656 83.1442 287.905 83.5088C288.159 83.8687 288.286 84.2794 288.286 84.7409H286.292C286.292 84.5471 286.251 84.374 286.168 84.2217C286.089 84.0648 285.965 83.9426 285.794 83.8549C285.628 83.7626 285.411 83.7164 285.143 83.7164C284.922 83.7164 284.73 83.7557 284.569 83.8341C284.407 83.9079 284.283 84.0095 284.195 84.1387C284.112 84.2633 284.07 84.4017 284.07 84.554C284.07 84.6693 284.094 84.7732 284.14 84.8655C284.19 84.9531 284.271 85.0339 284.382 85.1077C284.493 85.1816 284.636 85.2508 284.811 85.3154C284.991 85.3754 285.213 85.4307 285.476 85.4815C286.015 85.5922 286.498 85.7376 286.922 85.9176C287.347 86.0929 287.684 86.3329 287.933 86.6374C288.182 86.9374 288.307 87.3319 288.307 87.8211C288.307 88.1533 288.233 88.4579 288.085 88.7347C287.937 89.0116 287.725 89.2539 287.448 89.4615C287.171 89.6645 286.839 89.8237 286.452 89.9391C286.069 90.0499 285.637 90.1052 285.157 90.1052C284.46 90.1052 283.87 89.9806 283.385 89.7315C282.905 89.4823 282.541 89.1662 282.292 88.7832C282.047 88.3956 281.925 87.9987 281.925 87.5926H283.814C283.824 87.8649 283.893 88.0841 284.022 88.2502C284.156 88.4163 284.324 88.5363 284.527 88.6101C284.735 88.684 284.959 88.7209 285.199 88.7209C285.457 88.7209 285.672 88.6863 285.842 88.6171C286.013 88.5432 286.142 88.4463 286.23 88.3263C286.322 88.2017 286.368 88.0587 286.368 87.8972ZM294.031 88.1741V82.4774H296.024V89.9668H294.149L294.031 88.1741ZM294.252 86.6374L294.841 86.6236C294.841 87.122 294.783 87.5857 294.668 88.0149C294.552 88.4394 294.379 88.8086 294.149 89.1223C293.918 89.4315 293.627 89.6738 293.276 89.8491C292.926 90.0199 292.513 90.1052 292.037 90.1052C291.673 90.1052 291.336 90.0545 291.027 89.953C290.722 89.8468 290.459 89.683 290.238 89.4615C290.021 89.2354 289.85 88.947 289.726 88.5963C289.606 88.241 289.546 87.8141 289.546 87.3158V82.4774H291.539V87.3296C291.539 87.5511 291.564 87.738 291.615 87.8903C291.671 88.0425 291.747 88.1671 291.844 88.264C291.94 88.3609 292.054 88.4302 292.183 88.4717C292.317 88.5132 292.464 88.534 292.626 88.534C293.036 88.534 293.359 88.4509 293.595 88.2848C293.835 88.1187 294.003 87.8926 294.1 87.6065C294.202 87.3158 294.252 86.9927 294.252 86.6374ZM299.541 84.0279V89.9668H297.54V82.4774H299.416L299.541 84.0279ZM299.264 85.9591H298.71C298.71 85.4377 298.772 84.9577 298.897 84.5194C299.026 84.0764 299.213 83.6934 299.458 83.3704C299.707 83.0427 300.014 82.7889 300.378 82.609C300.743 82.429 301.165 82.339 301.645 82.339C301.977 82.339 302.282 82.3898 302.558 82.4913C302.835 82.5882 303.073 82.7428 303.271 82.955C303.474 83.1627 303.631 83.435 303.742 83.7718C303.853 84.1041 303.908 84.5032 303.908 84.9693V89.9668H301.915V85.1908C301.915 84.8493 301.869 84.5863 301.776 84.4017C301.684 84.2171 301.553 84.0879 301.382 84.0141C301.216 83.9402 301.015 83.9033 300.78 83.9033C300.521 83.9033 300.295 83.9564 300.101 84.0625C299.912 84.1687 299.755 84.3163 299.631 84.5055C299.506 84.6901 299.414 84.907 299.354 85.1562C299.294 85.4054 299.264 85.673 299.264 85.9591ZM303.721 85.7307L303.008 85.8207C303.008 85.3315 303.068 84.877 303.188 84.4571C303.313 84.0372 303.495 83.668 303.735 83.3496C303.98 83.0312 304.282 82.7843 304.642 82.609C305.002 82.429 305.417 82.339 305.888 82.339C306.248 82.339 306.575 82.3921 306.871 82.4982C307.166 82.5997 307.418 82.7635 307.625 82.9897C307.837 83.2112 307.999 83.5019 308.11 83.8618C308.225 84.2217 308.283 84.6624 308.283 85.1839V89.9668H306.282V85.1839C306.282 84.8378 306.236 84.5747 306.144 84.3948C306.056 84.2102 305.927 84.0833 305.756 84.0141C305.59 83.9402 305.392 83.9033 305.161 83.9033C304.921 83.9033 304.711 83.9518 304.531 84.0487C304.351 84.141 304.201 84.2702 304.081 84.4363C303.961 84.6024 303.871 84.7962 303.811 85.0177C303.751 85.2346 303.721 85.4723 303.721 85.7307ZM317.779 92.8463V84.0072L318.036 82.4774H319.787V92.8463H317.779ZM313.045 86.2983V86.1529C313.045 85.5807 313.107 85.0616 313.232 84.5955C313.361 84.1248 313.55 83.7234 313.799 83.3911C314.049 83.0543 314.353 82.7958 314.713 82.6159C315.078 82.4313 315.498 82.339 315.973 82.339C316.43 82.339 316.824 82.4313 317.156 82.6159C317.489 82.8005 317.768 83.0612 317.994 83.398C318.225 83.7349 318.409 84.1317 318.548 84.5886C318.686 85.0454 318.792 85.5461 318.866 86.0906V86.409C318.797 86.9304 318.691 87.415 318.548 87.8626C318.409 88.3102 318.225 88.7024 317.994 89.0393C317.768 89.3761 317.486 89.6392 317.15 89.8284C316.817 90.0129 316.42 90.1052 315.959 90.1052C315.493 90.1052 315.078 90.0106 314.713 89.8214C314.353 89.6276 314.049 89.36 313.799 89.0185C313.55 88.677 313.361 88.2756 313.232 87.8141C313.107 87.3481 313.045 86.8428 313.045 86.2983ZM315.038 86.1529V86.2983C315.038 86.6074 315.064 86.8981 315.115 87.1704C315.165 87.438 315.246 87.6757 315.357 87.8833C315.472 88.091 315.62 88.2548 315.8 88.3748C315.98 88.4902 316.201 88.5478 316.464 88.5478C316.829 88.5478 317.122 88.4694 317.343 88.3125C317.569 88.151 317.736 87.9318 317.842 87.6549C317.952 87.3781 318.017 87.062 318.036 86.7066V85.7999C318.022 85.5092 317.982 85.2485 317.918 85.0177C317.858 84.7824 317.766 84.5817 317.641 84.4155C317.521 84.2494 317.364 84.1225 317.17 84.0348C316.981 83.9426 316.75 83.8964 316.478 83.8964C316.22 83.8964 315.998 83.9541 315.814 84.0695C315.629 84.1848 315.479 84.3463 315.364 84.554C315.253 84.757 315.17 84.9947 315.115 85.2669C315.064 85.5392 315.038 85.8345 315.038 86.1529ZM325.788 88.1741V82.4774H327.781V89.9668H325.906L325.788 88.1741ZM326.009 86.6374L326.598 86.6236C326.598 87.122 326.54 87.5857 326.425 88.0149C326.309 88.4394 326.136 88.8086 325.906 89.1223C325.675 89.4315 325.384 89.6738 325.033 89.8491C324.683 90.0199 324.27 90.1052 323.794 90.1052C323.43 90.1052 323.093 90.0545 322.784 89.953C322.479 89.8468 322.216 89.683 321.995 89.4615C321.778 89.2354 321.607 88.947 321.483 88.5963C321.363 88.241 321.303 87.8141 321.303 87.3158V82.4774H323.296V87.3296C323.296 87.5511 323.321 87.738 323.372 87.8903C323.428 88.0425 323.504 88.1671 323.601 88.264C323.698 88.3609 323.811 88.4302 323.94 88.4717C324.074 88.5132 324.221 88.534 324.383 88.534C324.793 88.534 325.117 88.4509 325.352 88.2848C325.592 88.1187 325.76 87.8926 325.857 87.6065C325.959 87.3158 326.009 86.9927 326.009 86.6374ZM332.751 90.1052C332.17 90.1052 331.648 90.0129 331.187 89.8284C330.725 89.6392 330.333 89.3784 330.01 89.0462C329.692 88.714 329.447 88.3286 329.276 87.8903C329.106 87.4473 329.02 86.9766 329.02 86.4782V86.2014C329.02 85.6338 329.101 85.1146 329.263 84.644C329.424 84.1733 329.655 83.7649 329.955 83.4188C330.259 83.0727 330.629 82.8074 331.062 82.6228C331.496 82.4336 331.985 82.339 332.53 82.339C333.06 82.339 333.531 82.4267 333.942 82.602C334.352 82.7774 334.696 83.0266 334.973 83.3496C335.255 83.6726 335.467 84.0602 335.61 84.5124C335.753 84.9601 335.824 85.4584 335.824 86.0075V86.8382H329.872V85.5092H333.866V85.3569C333.866 85.08 333.815 84.8332 333.713 84.6163C333.616 84.3948 333.469 84.2194 333.27 84.0902C333.072 83.961 332.818 83.8964 332.509 83.8964C332.246 83.8964 332.02 83.9541 331.831 84.0695C331.641 84.1848 331.487 84.3463 331.367 84.554C331.251 84.7616 331.164 85.0062 331.104 85.2877C331.048 85.5646 331.021 85.8691 331.021 86.2014V86.4782C331.021 86.7782 331.062 87.055 331.145 87.3088C331.233 87.5626 331.355 87.7818 331.512 87.9664C331.674 88.151 331.868 88.294 332.094 88.3956C332.324 88.4971 332.585 88.5478 332.876 88.5478C333.236 88.5478 333.57 88.4786 333.879 88.3402C334.193 88.1971 334.463 87.9826 334.689 87.6965L335.658 88.7486C335.501 88.9747 335.287 89.1916 335.015 89.3992C334.747 89.6069 334.424 89.7776 334.046 89.9114C333.667 90.0406 333.236 90.1052 332.751 90.1052ZM341.009 87.8972C341.009 87.7541 340.967 87.6249 340.884 87.5096C340.801 87.3942 340.647 87.2881 340.421 87.1912C340.199 87.0897 339.878 86.9974 339.458 86.9143C339.08 86.8312 338.727 86.7274 338.399 86.6028C338.076 86.4736 337.795 86.319 337.555 86.1391C337.32 85.9591 337.135 85.7468 337.001 85.5023C336.867 85.2531 336.8 84.9693 336.8 84.6509C336.8 84.3371 336.867 84.0418 337.001 83.7649C337.14 83.488 337.336 83.2435 337.59 83.0312C337.848 82.8143 338.162 82.6459 338.531 82.5259C338.905 82.4013 339.325 82.339 339.791 82.339C340.441 82.339 341 82.4428 341.466 82.6505C341.936 82.8581 342.296 83.1442 342.546 83.5088C342.799 83.8687 342.926 84.2794 342.926 84.7409H340.933C340.933 84.5471 340.891 84.374 340.808 84.2217C340.73 84.0648 340.605 83.9426 340.434 83.8549C340.268 83.7626 340.051 83.7164 339.784 83.7164C339.562 83.7164 339.371 83.7557 339.209 83.8341C339.048 83.9079 338.923 84.0095 338.835 84.1387C338.752 84.2633 338.711 84.4017 338.711 84.554C338.711 84.6693 338.734 84.7732 338.78 84.8655C338.831 84.9531 338.912 85.0339 339.022 85.1077C339.133 85.1816 339.276 85.2508 339.451 85.3154C339.631 85.3754 339.853 85.4307 340.116 85.4815C340.656 85.5922 341.138 85.7376 341.563 85.9176C341.987 86.0929 342.324 86.3329 342.573 86.6374C342.822 86.9374 342.947 87.3319 342.947 87.8211C342.947 88.1533 342.873 88.4579 342.725 88.7347C342.578 89.0116 342.366 89.2539 342.089 89.4615C341.812 89.6645 341.48 89.8237 341.092 89.9391C340.709 90.0499 340.277 90.1052 339.798 90.1052C339.101 90.1052 338.51 89.9806 338.026 89.7315C337.546 89.4823 337.181 89.1662 336.932 88.7832C336.687 88.3956 336.565 87.9987 336.565 87.5926H338.455C338.464 87.8649 338.533 88.0841 338.662 88.2502C338.796 88.4163 338.965 88.5363 339.168 88.6101C339.375 88.684 339.599 88.7209 339.839 88.7209C340.098 88.7209 340.312 88.6863 340.483 88.6171C340.654 88.5432 340.783 88.4463 340.87 88.3263C340.963 88.2017 341.009 88.0587 341.009 87.8972ZM347.91 82.4774V83.8895H343.549V82.4774H347.91ZM344.629 80.6293H346.622V87.7103C346.622 87.9272 346.65 88.0933 346.705 88.2087C346.765 88.324 346.853 88.4048 346.969 88.4509C347.084 88.4925 347.229 88.5132 347.405 88.5132C347.529 88.5132 347.64 88.5086 347.737 88.4994C347.838 88.4855 347.924 88.4717 347.993 88.4579L348 89.9253C347.829 89.9806 347.645 90.0245 347.446 90.0568C347.248 90.0891 347.028 90.1052 346.789 90.1052C346.35 90.1052 345.967 90.0337 345.64 89.8907C345.317 89.743 345.067 89.5077 344.892 89.1846C344.717 88.8616 344.629 88.4371 344.629 87.911V80.6293ZM351.149 82.4774V89.9668H349.149V82.4774H351.149ZM349.024 80.5255C349.024 80.2348 349.126 79.9948 349.329 79.8056C349.532 79.6165 349.804 79.5219 350.146 79.5219C350.482 79.5219 350.752 79.6165 350.955 79.8056C351.163 79.9948 351.267 80.2348 351.267 80.5255C351.267 80.8162 351.163 81.0562 350.955 81.2454C350.752 81.4346 350.482 81.5292 350.146 81.5292C349.804 81.5292 349.532 81.4346 349.329 81.2454C349.126 81.0562 349.024 80.8162 349.024 80.5255ZM352.478 86.2983V86.1529C352.478 85.6038 352.557 85.0985 352.714 84.637C352.87 84.171 353.099 83.7672 353.399 83.4257C353.699 83.0843 354.068 82.8189 354.506 82.6297C354.945 82.4359 355.448 82.339 356.015 82.339C356.583 82.339 357.088 82.4359 357.531 82.6297C357.974 82.8189 358.346 83.0843 358.646 83.4257C358.95 83.7672 359.181 84.171 359.338 84.637C359.495 85.0985 359.573 85.6038 359.573 86.1529V86.2983C359.573 86.8428 359.495 87.3481 359.338 87.8141C359.181 88.2756 358.95 88.6793 358.646 89.0254C358.346 89.3669 357.976 89.6322 357.538 89.8214C357.1 90.0106 356.597 90.1052 356.029 90.1052C355.462 90.1052 354.956 90.0106 354.513 89.8214C354.075 89.6322 353.703 89.3669 353.399 89.0254C353.099 88.6793 352.87 88.2756 352.714 87.8141C352.557 87.3481 352.478 86.8428 352.478 86.2983ZM354.472 86.1529V86.2983C354.472 86.612 354.499 86.9051 354.555 87.1773C354.61 87.4496 354.698 87.6895 354.818 87.8972C354.942 88.1002 355.104 88.2594 355.302 88.3748C355.501 88.4902 355.743 88.5478 356.029 88.5478C356.306 88.5478 356.544 88.4902 356.742 88.3748C356.94 88.2594 357.1 88.1002 357.22 87.8972C357.34 87.6895 357.427 87.4496 357.483 87.1773C357.543 86.9051 357.573 86.612 357.573 86.2983V86.1529C357.573 85.8483 357.543 85.5622 357.483 85.2946C357.427 85.0224 357.337 84.7824 357.213 84.5747C357.093 84.3625 356.934 84.1964 356.735 84.0764C356.537 83.9564 356.297 83.8964 356.015 83.8964C355.734 83.8964 355.494 83.9564 355.295 84.0764C355.102 84.1964 354.942 84.3625 354.818 84.5747C354.698 84.7824 354.61 85.0224 354.555 85.2946C354.499 85.5622 354.472 85.8483 354.472 86.1529ZM362.75 84.0764V89.9668H360.757V82.4774H362.626L362.75 84.0764ZM362.459 85.9591H361.92C361.92 85.4054 361.991 84.907 362.134 84.464C362.277 84.0164 362.478 83.6357 362.736 83.3219C362.995 83.0035 363.302 82.7612 363.657 82.5951C364.017 82.4244 364.418 82.339 364.861 82.339C365.212 82.339 365.533 82.3898 365.823 82.4913C366.114 82.5928 366.363 82.7543 366.571 82.9758C366.783 83.1973 366.945 83.4903 367.055 83.8549C367.171 84.2194 367.229 84.6647 367.229 85.1908V89.9668H365.221V85.1839C365.221 84.8516 365.175 84.5932 365.083 84.4086C364.99 84.224 364.854 84.0948 364.674 84.021C364.499 83.9426 364.282 83.9033 364.024 83.9033C363.756 83.9033 363.523 83.9564 363.325 84.0625C363.131 84.1687 362.969 84.3163 362.84 84.5055C362.716 84.6901 362.621 84.907 362.556 85.1562C362.492 85.4054 362.459 85.673 362.459 85.9591ZM375.673 86.8866H373.908C373.913 86.4713 373.945 86.1137 374.005 85.8137C374.07 85.5092 374.178 85.2346 374.33 84.99C374.487 84.7455 374.695 84.5032 374.953 84.2633C375.17 84.0695 375.359 83.8849 375.521 83.7095C375.682 83.5342 375.809 83.3542 375.901 83.1696C375.994 82.9804 376.04 82.7705 376.04 82.5397C376.04 82.2721 375.998 82.0506 375.915 81.8753C375.837 81.6953 375.717 81.5592 375.555 81.4669C375.398 81.3746 375.2 81.3284 374.96 81.3284C374.762 81.3284 374.577 81.3723 374.406 81.4599C374.236 81.543 374.095 81.6722 373.984 81.8476C373.878 82.0229 373.823 82.2536 373.818 82.5397H371.811C371.825 81.9076 371.97 81.3861 372.247 80.9754C372.528 80.5601 372.904 80.2533 373.375 80.0548C373.846 79.8518 374.374 79.7503 374.96 79.7503C375.606 79.7503 376.16 79.8564 376.621 80.0687C377.083 80.2763 377.436 80.5832 377.68 80.9893C377.925 81.3907 378.047 81.8799 378.047 82.4567C378.047 82.8581 377.969 83.2158 377.812 83.5296C377.655 83.8387 377.45 84.1271 377.196 84.3948C376.942 84.6624 376.663 84.9393 376.358 85.2254C376.095 85.4607 375.915 85.7076 375.818 85.966C375.726 86.2244 375.678 86.5313 375.673 86.8866ZM373.7 89.0254C373.7 88.7301 373.802 88.4855 374.005 88.2917C374.208 88.0933 374.48 87.9941 374.822 87.9941C375.159 87.9941 375.428 88.0933 375.632 88.2917C375.839 88.4855 375.943 88.7301 375.943 89.0254C375.943 89.3115 375.839 89.5538 375.632 89.7522C375.428 89.9506 375.159 90.0499 374.822 90.0499C374.48 90.0499 374.208 89.9506 374.005 89.7522C373.802 89.5538 373.7 89.3115 373.7 89.0254Z" fill="black"/>
<path opacity="0.7" d="M208.396 166.072C208.396 168.442 205.646 170.359 202.264 170.359C198.882 170.359 196.133 168.442 196.133 166.072C196.133 163.703 198.882 161.785 202.264 161.785C205.646 161.785 208.396 163.703 208.396 166.072Z" fill="white"/>
<path opacity="0.7" d="M250.865 155.833C250.865 162.689 242.889 168.242 233.05 168.242C223.211 168.242 215.289 162.725 215.289 155.833C215.289 148.941 223.265 143.424 233.104 143.424C242.943 143.424 250.865 149.032 250.865 155.833Z" fill="white"/>
<path d="M76.6001 288.637C76.6001 288.637 71.7294 282.841 68.619 285.549C65.5087 288.257 67.0751 293.986 70.6702 294.173C72.8117 294.299 74.9278 293.656 76.6374 292.36L76.6001 288.637Z" fill="#0F75BB"/>
<path opacity="0.2" d="M76.6001 288.637C76.6001 288.637 71.7294 282.841 68.619 285.549C65.5087 288.257 67.0751 293.986 70.6702 294.173C72.8117 294.299 74.9278 293.656 76.6374 292.36L76.6001 288.637Z" fill="white"/>
<path d="M96.4688 273.941C96.4688 273.941 100.556 269.652 103.092 270.383C105.628 271.114 105.33 281.341 97.5055 277.201L96.4688 273.941Z" fill="#0F75BB"/>
<path opacity="0.3" d="M96.4688 273.941C96.4688 273.941 100.556 269.652 103.092 270.383C105.628 271.114 105.33 281.341 97.5055 277.201L96.4688 273.941Z" fill="white"/>
<path d="M81.8558 305.907C81.8558 305.907 68.4298 287.518 79.3272 283.795C90.2247 280.073 92.1789 298.589 89.0238 303.743C85.8687 308.898 81.8558 305.907 81.8558 305.907Z" fill="#0F75BB"/>
<path d="M88.0934 268.256C88.0934 268.256 96.4324 248.897 84.0805 248.315C71.7286 247.733 70.386 267.51 84.5952 270.382L88.0934 268.256Z" fill="#0F75BB"/>
<path opacity="0.3" d="M81.8558 305.907C81.8558 305.907 68.4298 287.518 79.3272 283.795C90.2247 280.073 92.1789 298.589 89.0238 303.743C85.8687 308.898 81.8558 305.907 81.8558 305.907Z" fill="white"/>
<path opacity="0.3" d="M88.0934 268.256C88.0934 268.256 96.4324 248.897 84.0805 248.315C71.7286 247.733 70.386 267.51 84.5952 270.382L88.0934 268.256Z" fill="white"/>
<path d="M85.132 284.109C85.132 284.109 81.0818 267.018 88.8614 265.653C96.6411 264.288 104.346 279.73 88.2274 287.496C88.2349 287.496 85.4751 285.78 85.132 284.109Z" fill="#0F75BB"/>
<path opacity="0.2" d="M85.132 284.109C85.132 284.109 81.0818 267.018 88.8614 265.653C96.6411 264.288 104.346 279.73 88.2274 287.496C88.2349 287.496 85.4751 285.78 85.132 284.109Z" fill="white"/>
<path d="M83.952 266.875C79.2977 263.473 76.0829 256.908 78.8203 251.373C78.7084 251.888 78.5742 252.447 78.4474 252.962C77.5299 258.184 80.4016 263.212 83.952 266.875Z" fill="#0F75BB"/>
<path d="M80.9677 250.262C86.2859 251.299 88.7175 257.081 88.0686 262.042C87.9492 262.743 87.8448 263.452 87.7105 264.138C87.7789 262.736 87.7615 261.331 87.6583 259.93C87.3227 255.805 85.0552 251.777 80.9453 250.232L80.9677 250.262Z" fill="#0F75BB"/>
<path d="M90.4067 266.875C93.6737 268.032 95.5534 271.754 95.2774 275.081C95.0089 277.528 93.6364 279.729 92.1148 281.564C90.8879 283.042 89.488 284.366 87.9453 285.51C88.6315 284.839 89.3028 284.167 89.9219 283.451C91.7717 281.363 93.5992 279.065 94.3973 276.364C94.898 274.56 94.7775 272.639 94.0551 270.911C93.3327 269.183 92.0504 267.749 90.4142 266.838L90.4067 266.875Z" fill="#0F75BB"/>
<path d="M88.0939 268.256C88.8994 270.755 89.5856 273.754 88.3027 276.216C87.2137 277.812 87.1018 279.901 87.072 281.803C87.072 282.467 87.072 283.124 87.1168 283.795C86.7971 282.49 86.6517 281.148 86.6841 279.804C86.6611 278.418 87.0393 277.056 87.7731 275.88C88.974 273.575 88.3997 270.755 88.0939 268.256Z" fill="#0F75BB"/>
<path d="M82.6094 285.549C85.757 287.25 87.0027 297.925 86.8908 301.416C86.7938 300.722 86.6894 300.036 86.5551 299.35C85.9584 295.933 85.3393 292.502 84.4368 289.159C84.0117 287.899 83.7431 286.369 82.6094 285.549Z" fill="#0F75BB"/>
<path d="M78.7971 286.137C78.0394 288.598 77.9233 291.212 78.4598 293.73C78.9964 296.249 80.1678 298.589 81.8627 300.527C81.3656 300.101 80.8949 299.645 80.453 299.162C78.9341 297.39 77.9677 295.212 77.6734 292.897C77.3791 290.582 77.7698 288.232 78.7971 286.137Z" fill="#0F75BB"/>
<path d="M99.6094 276.021C100.997 275.794 102.291 275.175 103.339 274.238C103.085 275.842 101.049 276.596 99.6094 276.021Z" fill="#0F75BB"/>
<path d="M98.8047 273.201C99.476 271.829 101.788 270.963 102.75 272.455C101.378 271.851 100.035 272.605 98.8047 273.201Z" fill="#0F75BB"/>
<path d="M74.3775 289.502C72.8111 288.398 71.1851 286.518 69.1562 287.495C70.8121 285.533 73.6316 287.741 74.3775 289.502Z" fill="#0F75BB"/>
<path d="M74.3759 292.352C72.3098 293.098 68.2596 293.173 67.9688 290.293C69.1473 292.635 72.1457 292.121 74.3759 292.352Z" fill="#0F75BB"/>
<path d="M65.2266 298.32H106.974L103.483 325.035H68.7099L65.2266 298.32Z" fill="#263238"/>
<g opacity="0.2">
<path d="M106.974 298.32L105.751 307.66L105.676 308.25L104.982 313.561L104.803 314.941L104.289 318.873L103.879 322.021L103.483 325.035H68.7099L68.3145 322.021L67.9043 318.873L67.3971 314.941L67.2106 313.561L66.5244 308.25L66.4424 307.66L65.2266 298.32H106.974Z" fill="#FAFAFA"/>
</g>
<path opacity="0.2" d="M104.291 318.871L103.88 322.019H68.3165L67.9062 318.871H104.291Z" fill="#FAFAFA"/>
<path opacity="0.2" d="M104.983 313.561L104.804 314.941H67.3974L67.2109 313.561H104.983Z" fill="#FAFAFA"/>
<path opacity="0.2" d="M105.754 307.66L105.679 308.25H66.5274L66.4453 307.66H105.754Z" fill="#FAFAFA"/>
<path d="M286.158 285.125H277.453V302.977H286.158V285.125Z" fill="#263238"/>
<path d="M306.424 313.57C306.424 307.363 301.672 301.932 294.564 298.933V295.166H269.04V298.933C261.931 301.917 257.188 307.363 257.188 313.57C257.227 316.472 258.226 319.279 260.029 321.552V324.715H303.582V321.552C305.385 319.279 306.384 316.472 306.424 313.57Z" fill="#263238"/>
<path opacity="0.6" d="M306.424 313.57C306.424 307.363 301.672 301.932 294.564 298.933V295.166H269.04V298.933C261.931 301.917 257.188 307.363 257.188 313.57C257.227 316.472 258.226 319.279 260.029 321.552V324.715H303.582V321.552C305.385 319.279 306.384 316.472 306.424 313.57Z" fill="#FAFAFA"/>
<path d="M295.204 298.776H268.396C267.991 298.776 267.602 298.615 267.315 298.328C267.028 298.041 266.867 297.652 266.867 297.247V255.762H267.613V297.247C267.608 297.351 267.624 297.455 267.662 297.553C267.699 297.65 267.757 297.739 267.831 297.813C267.904 297.886 267.993 297.944 268.09 297.981C268.188 298.019 268.292 298.035 268.396 298.03H295.204C295.305 298.03 295.405 298.01 295.498 297.97C295.591 297.93 295.675 297.872 295.745 297.799C295.814 297.725 295.869 297.639 295.904 297.544C295.939 297.449 295.954 297.348 295.949 297.247V255.762H296.695V297.247C296.695 297.646 296.539 298.029 296.261 298.315C295.982 298.601 295.603 298.766 295.204 298.776Z" fill="#263238"/>
<path d="M307.901 290.294H255.711L267.16 245.967H296.451L307.901 290.294Z" fill="#0F75BB"/>
<path opacity="0.2" d="M303.584 321.545H260.031V324.708H303.584V321.545Z" fill="black"/>
<path opacity="0.2" d="M294.563 295.158H269.039V298.925H294.563V295.158Z" fill="black"/>
<path opacity="0.6" d="M307.901 290.294H255.711L267.16 245.967H296.451L307.901 290.294Z" fill="#FAFAFA"/>
<path d="M201.011 226.137C207.619 234.724 214.668 243.743 223.201 250.271C224.717 251.458 226.425 252.379 228.25 252.993C228.377 253.031 228.25 253.098 228.101 253.202C227.952 253.307 228.012 253.292 228.012 253.352C228.012 253.411 227.781 253.56 227.721 253.613C226.953 254.332 226.478 255.31 226.386 256.358C226.386 256.567 226.431 256.552 226.431 256.418C225.976 252.986 223.894 249.607 222.134 246.406C215.011 234.373 206.053 223.131 197.453 211.941L204.166 205.361C211.723 211.789 218.849 218.707 225.498 226.07C230.63 231.814 235.642 237.842 239.536 244.773C243.407 251.404 245.719 260.812 238.827 266.653C235.776 269.208 231.924 270.61 227.945 270.614C214.892 270.435 202.957 258.126 194.954 249.278C191.542 245.389 188.357 241.307 185.414 237.051L200.988 226.137H201.011Z" fill="#DC897C"/>
<path d="M182.034 197.476L189.903 197.096C190.778 197.057 191.644 197.292 192.379 197.767L204.567 205.667L202.546 214.164C194.953 218.954 188.471 214.552 186.487 212.919C186.028 212.537 185.491 212.262 184.913 212.113L180.602 210.957C179.639 210.699 178.8 210.107 178.234 209.287C177.668 208.467 177.413 207.472 177.514 206.481L178.051 201.259C178.149 200.254 178.605 199.319 179.337 198.624C180.068 197.929 181.026 197.522 182.034 197.476Z" fill="#E4897B"/>
<path d="M224.118 250.256L216.226 275.403C216.226 275.403 215.339 274.933 213.892 274.12C210.08 271.979 202.368 267.488 196.669 263.035C193.357 260.454 190.702 257.887 189.956 255.798C187.308 248.786 203.069 223.922 203.069 223.922C208.022 225.16 214.033 234.142 214.033 234.142C214.033 234.142 222.216 245.683 224.118 250.256Z" fill="#0F75BB"/>
<path opacity="0.2" d="M213.886 274.119C210.074 271.978 202.362 267.487 196.663 263.033C196.517 259.488 196.79 255.937 197.476 252.455C197.476 252.455 210.141 259.632 213.886 274.119Z" fill="black"/>
<path d="M203.057 223.928C203.057 223.928 218.332 263.287 203.556 336.492L133.92 336.32C133.465 325.63 138.306 275.573 128.117 225.166C128.117 225.166 130.974 221.675 153.44 220.19C162.331 219.601 175.228 219.534 183.044 220.265C189.801 220.961 196.492 222.186 203.057 223.928Z" fill="#263238"/>
<path opacity="0.6" d="M209.844 284.922C209.747 287.585 209.612 290.323 209.433 293.128C209.277 295.418 209.105 297.768 208.896 300.17C208.635 303.034 208.337 305.981 207.964 309.002C207.68 311.489 207.357 314.006 206.994 316.552C206.552 319.65 206.054 322.818 205.502 326.056C204.921 329.443 204.279 332.919 203.556 336.5L133.92 336.328C133.815 334.001 133.964 329.808 134.158 324.161C134.24 321.923 134.322 319.402 134.404 316.701C134.457 314.739 134.509 312.65 134.554 310.48C134.598 308.062 134.643 305.519 134.658 302.855C134.658 300.791 134.658 298.658 134.658 296.455C134.658 293.911 134.621 291.285 134.561 288.592C134.561 286.593 134.471 284.563 134.404 282.497C134.158 275.149 133.718 267.368 132.987 259.319C131.978 247.855 130.347 236.454 128.102 225.167C128.102 225.167 130.966 221.676 153.462 220.191C162.353 219.602 175.242 219.527 183.074 220.266C189.829 220.967 196.52 222.192 203.086 223.929C203.086 223.929 211.231 244.973 209.844 284.922Z" fill="#FAFAFA"/>
<path opacity="0.2" d="M141.667 256.125C141.667 256.125 141.048 272.746 134.409 282.511C134.163 275.163 133.723 267.382 132.992 259.333C135.715 257.252 138.676 256.021 141.667 256.125Z" fill="black"/>
<g opacity="0.6">
<path d="M209.845 284.921C209.748 287.585 209.614 290.322 209.435 293.127L202.126 301.736L191.623 289.383L181.136 301.759L170.642 289.405L160.147 301.759L149.652 289.405L139.143 301.759L134.667 296.455C134.667 293.911 134.63 291.285 134.57 288.592L139.172 294.008L149.66 281.646L160.154 294.008L170.649 281.646L181.144 294.008L191.631 281.646L202.133 294.008L209.845 284.921Z" fill="#FAFAFA"/>
</g>
<g opacity="0.6">
<path d="M208.896 300.193C208.635 303.058 208.337 306.004 207.964 309.026L202.123 315.919L191.621 303.558L181.134 315.919L170.639 303.558L160.145 315.919L149.65 303.558L139.14 315.919L134.523 310.48C134.568 308.063 134.613 305.52 134.628 302.856L139.14 308.16L149.628 295.807L160.122 308.16L170.617 295.807L181.112 308.16L191.599 295.807L202.101 308.16L208.896 300.193Z" fill="#FAFAFA"/>
</g>
<g opacity="0.6">
<path d="M207.021 316.552C206.579 319.65 206.081 322.818 205.529 326.056L202.15 330.039L191.648 317.693L181.139 330.062L170.644 317.715L160.149 330.062L149.655 317.715L139.145 330.062L134.133 324.161C134.215 321.923 134.297 319.401 134.379 316.701L139.145 322.318L149.632 309.957L160.127 322.318L170.622 309.957L181.116 322.318L191.604 309.957L202.106 322.318L207.021 316.552Z" fill="#FAFAFA"/>
</g>
<path d="M152.57 189.463C155.315 198.78 158.798 215.983 152.757 222.936C162.207 225.92 169.01 227.934 177.371 234.126C179.564 228.046 182.242 220.161 182.242 220.161C171.426 218.624 170.964 210.754 172.12 203.212L152.57 189.463Z" fill="#E4897B"/>
<path opacity="0.2" d="M160.505 195.08L172.073 203.219C171.773 204.973 171.634 206.751 171.656 208.53C167.561 208.329 161.594 204.413 160.766 200.22C160.367 198.537 160.279 196.795 160.505 195.08Z" fill="black"/>
<path d="M144.625 220.901L151.301 214.627L169.187 220.767L177.004 232.785L179.92 220.602L183.963 216.954L191.042 221.289L189.945 229.01L184.828 226.503L178.645 236.626L164.824 228.51L160.967 232.21L144.625 220.901Z" fill="#0F75BB"/>
<path opacity="0.2" d="M178.648 236.625L182.259 223.973L189.949 229.008L184.832 226.502L178.648 236.625Z" fill="black"/>
<path opacity="0.2" d="M178.646 236.625L166.466 224.689L160.969 232.209L164.825 228.509L178.646 236.625Z" fill="black"/>
<path d="M149.186 245.309C153.661 250.702 159.778 258.192 164.313 263.339C169.72 269.352 175.098 275.738 181.64 280.348C181.893 280.505 181.602 280.348 181.475 280.348C181.406 280.323 181.333 280.308 181.259 280.303C181.199 280.303 181.259 280.303 181.259 280.341C184.198 280.99 187.502 280.303 190.642 279.878C200.212 278.267 209.625 275.559 219.21 273.09L222.977 281.721C219.344 283.959 215.727 285.861 211.967 287.689C202.547 292.105 185.391 300.08 174.994 296.171C171.152 294.387 167.571 292.088 164.35 289.338C159.397 285.216 154.713 280.78 150.327 276.059C146.023 271.486 141.951 266.808 138.027 261.929C136.707 260.303 135.469 258.707 134.156 256.961L149.186 245.309Z" fill="#DC897C"/>
<path d="M121.944 233.791C114.313 257.977 148.595 281.655 148.595 281.655L166.914 260.826C166.914 260.826 158.843 245.906 149.698 232.642C140.129 218.767 125.964 221.064 121.944 233.791Z" fill="#0F75BB"/>
<path d="M217.711 274.209L230.6 260.826L240.341 273.822C240.341 273.822 232.651 284.474 222.186 281.699L217.711 274.209Z" fill="#E4897B"/>
<path d="M243.162 256.723L248.107 268.151L240.335 273.821L230.594 260.826L243.162 256.723Z" fill="#E4897B"/>
<path d="M177.444 154.856C184.075 157.459 188.632 175.542 180.569 179.899C172.506 184.256 164.876 149.932 177.444 154.856Z" fill="#263238"/>
<path d="M148.841 176.139C152.272 188.821 153.645 196.349 161.521 201.802C173.336 210.008 188 201.429 188.425 188.143C188.813 176.207 183.13 157.489 169.48 154.573C156.039 151.686 145.425 163.487 148.841 176.139Z" fill="#E4897B"/>
<path d="M160.163 159.831L158.761 148.701C156.017 150.195 152.872 150.785 149.773 150.387C136.347 148.082 126.762 157.176 133.363 164.218C127.292 167.299 131.26 175.639 135.765 180.831C142.023 188.06 148.445 191.275 152.473 187.545C156.203 185.449 155.994 172.2 154.435 167.403C152.078 160.137 160.163 159.831 160.163 159.831Z" fill="#263238"/>
<path d="M146.604 189.642C148.8 192.037 151.757 193.598 154.973 194.059C159.038 194.544 159.754 190.754 157.524 187.248C155.51 184.092 150.968 180.041 147.417 181.175C143.867 182.309 143.822 186.636 146.604 189.642Z" fill="#E4897B"/>
<path d="M168.269 176.378C168.485 177.415 169.216 178.169 169.902 178.049C170.589 177.93 170.969 176.99 170.753 175.953C170.536 174.916 169.805 174.163 169.119 174.275C168.433 174.387 168.06 175.334 168.269 176.378Z" fill="#263238"/>
<path d="M180.115 174.349C180.331 175.393 181.055 176.139 181.741 176.02C182.427 175.901 182.807 174.968 182.591 173.924C182.375 172.879 181.644 172.133 180.965 172.253C180.286 172.372 179.898 173.32 180.115 174.349Z" fill="#263238"/>
<path d="M177.297 175.514C177.297 175.514 180.922 181.109 184.144 183.563C182.652 185.6 179.333 185.353 179.333 185.353L177.297 175.514Z" fill="#DE5753"/>
<path d="M172.065 170.918C172.164 170.956 172.252 171.021 172.318 171.104C172.369 171.169 172.406 171.244 172.428 171.323C172.449 171.403 172.455 171.486 172.445 171.568C172.434 171.649 172.408 171.728 172.367 171.8C172.326 171.871 172.272 171.934 172.206 171.985C171.445 172.606 170.543 173.03 169.578 173.219C168.614 173.407 167.618 173.355 166.679 173.066C166.601 173.04 166.53 172.998 166.469 172.943C166.407 172.888 166.358 172.821 166.323 172.746C166.288 172.672 166.269 172.591 166.266 172.509C166.263 172.427 166.277 172.345 166.306 172.268C166.364 172.113 166.479 171.987 166.629 171.918C166.778 171.848 166.949 171.84 167.104 171.895C167.845 172.111 168.627 172.142 169.382 171.986C170.138 171.83 170.843 171.491 171.438 171C171.525 170.93 171.629 170.885 171.74 170.87C171.85 170.856 171.963 170.872 172.065 170.918Z" fill="#263238"/>
<path d="M183.536 168.672C183.438 168.699 183.334 168.7 183.235 168.677C183.136 168.653 183.045 168.606 182.969 168.538C182.385 167.993 181.684 167.589 180.92 167.355C180.157 167.121 179.35 167.064 178.561 167.188C178.478 167.218 178.391 167.23 178.303 167.224C178.216 167.218 178.13 167.194 178.053 167.153C177.975 167.112 177.907 167.055 177.853 166.986C177.799 166.918 177.759 166.838 177.738 166.753C177.716 166.668 177.713 166.579 177.728 166.493C177.743 166.406 177.776 166.324 177.824 166.251C177.873 166.178 177.937 166.116 178.011 166.069C178.085 166.022 178.168 165.992 178.255 165.979C179.239 165.802 180.251 165.856 181.211 166.138C182.17 166.421 183.051 166.923 183.782 167.605C183.906 167.715 183.982 167.868 183.993 168.033C184.004 168.198 183.95 168.361 183.842 168.486C183.759 168.575 183.653 168.64 183.536 168.672Z" fill="#263238"/>
<path d="M149.062 151.843C149.062 151.843 158.326 133.939 175.571 137.602C175.571 137.602 172.275 138.348 170.872 139.593C170.872 139.593 185.924 138.28 190.616 148.859L187.737 147.165C187.737 147.165 191.571 155.931 187.08 161.705L186.238 158.803C186.238 158.803 180.077 166.449 170.88 164.278L174.057 162.667C174.057 162.667 158.215 162.182 154.291 158.139C150.368 154.096 149.062 151.843 149.062 151.843Z" fill="#263238"/>
<path d="M180.913 190.822C180.844 190.822 180.775 190.808 180.711 190.781C180.647 190.754 180.589 190.715 180.54 190.665C178.206 188.136 174.111 189.106 174.074 189.114C173.95 189.13 173.825 189.1 173.722 189.03C173.619 188.96 173.546 188.855 173.515 188.735C173.485 188.614 173.5 188.486 173.558 188.376C173.615 188.266 173.711 188.18 173.827 188.136C174.021 188.091 178.534 187.017 181.286 189.979C181.379 190.074 181.431 190.201 181.431 190.333C181.431 190.466 181.379 190.593 181.286 190.688C181.236 190.733 181.177 190.769 181.113 190.792C181.049 190.815 180.981 190.825 180.913 190.822Z" fill="#263238"/>
<path d="M310.529 324.707H57.6875V336.494H310.529V324.707Z" fill="#0F75BB"/>
<path opacity="0.2" d="M310.529 324.707H57.6875V336.494H310.529V324.707Z" fill="#FAFAFA"/>
<path d="M314.313 324.707H54.632C53.8471 324.707 53.0938 325.016 52.5354 325.568C51.9769 326.119 51.6582 326.869 51.6484 327.654C51.6582 328.439 51.9769 329.188 52.5354 329.74C53.0938 330.291 53.8471 330.6 54.632 330.6H314.313C315.092 330.591 315.836 330.277 316.386 329.727C316.936 329.176 317.25 328.432 317.26 327.654C317.25 326.875 316.936 326.131 316.386 325.581C315.836 325.03 315.092 324.717 314.313 324.707Z" fill="#0F75BB"/>
<path opacity="0.4" d="M314.313 324.707H54.632C53.8471 324.707 53.0938 325.016 52.5354 325.568C51.9769 326.119 51.6582 326.869 51.6484 327.654C51.6582 328.439 51.9769 329.188 52.5354 329.74C53.0938 330.291 53.8471 330.6 54.632 330.6H314.313C315.092 330.591 315.836 330.277 316.386 329.727C316.936 329.176 317.25 328.432 317.26 327.654C317.25 326.875 316.936 326.131 316.386 325.581C315.836 325.03 315.092 324.717 314.313 324.707Z" fill="#FAFAFA"/>
</g>
<defs>
<clipPath id="clip0_4628_12169">
<rect width="397.808" height="373" fill="white" transform="translate(0.40625)"/>
</clipPath>
</defs>
</svg>
