<svg width="377" height="284" viewBox="0 0 377 284" fill="none" xmlns="http://www.w3.org/2000/svg">
<path d="M341.443 178.881C341.443 178.881 370.462 146.267 361.237 89.5176C352.013 32.7688 304.625 11.8607 273.197 22.7833C241.77 33.706 234.681 52.7169 209.013 63.5884C183.346 74.4599 134.571 66.9964 110.181 103.513C85.7916 140.03 116.929 200.539 156.57 238.481C196.211 276.424 297.366 252.67 341.443 178.881Z" fill="#0F75BB"/>
<path opacity="0.7" d="M341.443 178.881C341.443 178.881 370.462 146.267 361.237 89.5176C352.013 32.7688 304.625 11.8607 273.197 22.7833C241.77 33.706 234.681 52.7169 209.013 63.5884C183.346 74.4599 134.571 66.9964 110.181 103.513C85.7916 140.03 116.929 200.539 156.57 238.481C196.211 276.424 297.366 252.67 341.443 178.881Z" fill="white"/>
<path d="M127.977 270.51H355.262" stroke="#263238" stroke-miterlimit="10"/>
<path d="M320.792 270.51L317.509 232.664H239.778L235.484 270.51H320.792Z" fill="#263238" stroke="#263238" stroke-miterlimit="10"/>
<path d="M273.181 117.956C273.181 117.956 250.461 124.204 240.521 131.724C230.581 139.245 223.708 146.935 225.31 161.505C226.912 176.074 237.317 215.936 237.317 215.936C237.317 215.936 235.875 232.107 235.875 233.067C235.875 234.027 235.716 236.748 239.237 236.907C242.759 237.066 285.024 238.832 294.47 238.991C303.915 239.15 316.406 238.19 317.843 237.071C318.554 236.48 319.135 235.748 319.549 234.921C319.962 234.094 320.199 233.19 320.245 232.266C320.405 230.346 322.006 206.808 322.006 206.808L322.165 196.244C322.165 196.244 332.577 161.664 333.213 150.457C333.849 139.25 329.691 135.57 325.051 132.048C320.41 128.527 305.96 122.563 298.156 120.2C290.352 117.837 273.181 117.956 273.181 117.956Z" fill="#0F75BB" stroke="#263238" stroke-miterlimit="10"/>
<path d="M278.789 171.689C277.653 187.281 275.575 215.993 275.756 220.941C276.012 227.757 273.234 229.773 273.234 232.301" stroke="#263238" stroke-miterlimit="10"/>
<path d="M279.54 161.631C279.54 161.631 279.336 164.283 279.023 168.481" stroke="#263238" stroke-miterlimit="10"/>
<path d="M289.688 181.658L291.142 198.812L299.281 198.232L289.688 181.658Z" fill="#263238" stroke="#263238" stroke-miterlimit="10"/>
<path d="M281.977 211.568C281.977 211.568 301.857 208.444 303.35 208.774C304.844 209.103 315.023 214.034 316.505 214.363C317.47 214.591 318.406 214.923 319.3 215.351L321.532 217.22L320.771 211.568C320.771 211.568 317.812 207.95 311.234 205.32C304.657 202.691 301.368 204.184 299.874 204.667C298.38 205.15 281.977 211.568 281.977 211.568Z" fill="#263238" stroke="#263238" stroke-miterlimit="10"/>
<path d="M251.406 196.567L303.094 196.402C303.094 196.402 319.748 194.806 320.384 194.642C321.02 194.477 327.592 196.243 328.234 196.726C328.875 197.209 328.87 198.646 328.552 200.089L328.234 201.526C328.468 202.744 328.627 203.975 328.711 205.212C328.711 206.348 327.433 206.649 327.268 207.132C327.103 207.615 328.234 209.37 326.95 210.495L325.672 211.631C325.672 211.631 325.507 214.675 324.871 215.476C324.235 216.277 322.309 217.714 321.508 217.237C320.708 216.76 321.026 215.476 321.026 214.675C321.026 213.874 320.708 213.073 319.748 213.073C318.788 213.073 318.612 213.874 313.664 212.59C308.717 211.307 303.259 206.99 302.776 206.825C302.293 206.661 258.909 218.356 246.101 219.957C233.292 221.559 232.173 219.798 231.691 217.685C231.208 215.572 230.413 210.642 230.413 210.642L228.141 200.878L251.406 196.567Z" fill="white" stroke="#263238" stroke-miterlimit="10"/>
<path d="M285.018 136.723C285.018 136.723 287.693 133.883 289.38 135.173C291.067 136.462 292.612 143.187 294.719 142.625C296.826 142.062 301.047 128.993 301.047 123.79C301.047 118.587 297.389 115.497 296.548 115.213C295.707 114.929 274.197 114.645 271.664 115.639C269.131 116.633 268.154 125.477 267.171 130.816C266.188 136.155 268.432 137.422 269.841 136.723C271.249 136.025 276.725 133.77 277.991 133.77C279.258 133.77 285.018 136.723 285.018 136.723Z" fill="#0F75BB" stroke="#263238" stroke-miterlimit="10"/>
<path d="M299.416 107.092C299.416 107.092 297.4 117.055 296.616 119.514C295.832 121.973 290.124 129.477 288.664 131.044C287.204 132.612 282.956 140.331 281.848 140.558C280.74 140.786 277.605 130.261 277.605 130.261C277.605 130.261 273.572 123.32 272.788 121.53C272.005 119.741 270.789 114.481 270.789 114.481C270.789 114.481 277.389 120.161 284.421 118.957C291.453 117.753 295.048 110.676 295.048 110.676L299.416 107.092Z" fill="white" stroke="#263238" stroke-miterlimit="10"/>
<path d="M272.089 87.2457C272.089 87.2457 270.118 85.1327 268.993 88.3817C267.869 91.6306 270.129 97.3731 270.129 97.3731L272.089 87.2457Z" fill="white" stroke="#263238" stroke-miterlimit="10"/>
<path d="M272.435 80.6564C272.435 80.6564 269.191 103.712 269.191 105.08C269.191 106.449 268.294 110.897 269.64 113.811C270.986 116.724 275.008 120.297 278.257 120.746C281.506 121.195 287.879 120.524 291.463 117.724C295.047 114.924 299.182 108.886 299.182 108.886C299.182 108.886 303.663 108.21 306.566 106.983C309.468 105.756 311.712 102.95 311.604 100.042C311.475 98.1802 310.815 96.3943 309.701 94.8962L307.997 91.7608L312.473 83.3658C312.473 83.3658 309.9 78.5548 301.619 73.9654C293.337 69.376 285.947 67.9219 282.483 67.9219C279.018 67.9219 274.644 69.376 273.395 72.1762C272.145 74.9764 272.435 80.6564 272.435 80.6564Z" fill="white" stroke="#263238" stroke-miterlimit="10"/>
<path d="M283.07 69.3758C283.07 69.3758 289.448 79.8952 294.265 79.4521C299.082 79.0091 300.513 76.7655 300.513 76.7655L303.756 81.1277C303.756 81.1277 300.291 82.5818 300.962 84.3767C301.632 86.1716 304.654 90.193 304.654 90.193L302.188 100.712C302.188 100.712 304.091 101.048 304.432 100.377C304.773 99.707 306.443 95.5663 306.443 95.5663C306.894 95.2768 307.384 95.0512 307.897 94.8961C308.488 94.7689 309.1 94.7689 309.692 94.8961C309.692 94.8961 310.919 90.7553 311.396 90.6417C311.873 90.5281 316.32 89.2956 318.002 84.9333C319.683 80.5711 317.104 73.6301 311.282 68.1489C305.46 62.6677 293.152 61.208 292.481 60.1969C291.811 59.1859 295.617 60.64 294.833 58.4021C294.049 56.1641 289.124 53.256 282.859 56.3913C276.594 59.5267 277.486 62.9915 278.156 64.1105L278.827 65.2465C278.827 65.2465 273.567 63.4573 269.875 65.6952C266.183 67.9331 264.394 72.4089 266.069 72.8577C267.745 73.3064 269.875 72.2897 269.875 72.2897C269.875 72.2897 267.637 75.9817 268.307 76.7655C268.978 77.5493 272.448 80.679 272.448 80.679C272.448 80.679 273.794 72.8463 276.589 71.7273C279.383 70.6084 283.07 69.3758 283.07 69.3758Z" fill="#263238" stroke="#263238" stroke-miterlimit="10"/>
<path d="M281.057 84.4844L282.068 87.7333L276.359 98.4742L282.403 100.826" stroke="#263238" stroke-miterlimit="10"/>
<path d="M279.938 83.2525C279.938 83.2525 277.257 81.1281 275.014 81.6905C272.77 82.2528 274.122 82.5822 275.69 83.1445C277.257 83.7068 280.387 85.1553 279.938 83.2525Z" fill="#263238" stroke="#263238" stroke-miterlimit="10"/>
<path d="M288.227 82.8088C288.227 82.8088 285.648 83.479 286.881 84.0357C288.113 84.5923 291.805 83.4677 293.259 84.0357C294.713 84.6037 296.616 86.5008 296.508 85.6034C296.343 84.8315 295.979 84.1161 295.454 83.5275C294.928 82.9388 294.258 82.4973 293.509 82.2465C291.47 81.5762 288.227 82.8088 288.227 82.8088Z" fill="#263238" stroke="#263238" stroke-miterlimit="10"/>
<path d="M278.461 88.2213C278.262 89.0335 277.717 89.5958 277.234 89.4765C276.751 89.3573 276.524 88.6132 276.717 87.8009C276.91 86.9887 277.467 86.4264 277.944 86.54C278.421 86.6536 278.654 87.409 278.461 88.2213Z" fill="#263238"/>
<path d="M290.663 91.4138C290.464 92.2204 289.914 92.7827 289.436 92.6691C288.959 92.5555 288.726 91.8001 288.92 90.9651C289.113 90.1302 289.664 89.5906 290.146 89.7098C290.629 89.8291 290.851 90.6016 290.663 91.4138Z" fill="#263238"/>
<path d="M272.891 102.166L277.48 105.188" stroke="#263238" stroke-miterlimit="10"/>
<path d="M320.086 129.322C320.086 129.322 335.934 135.411 338.978 144.533C342.022 153.655 338.177 165.186 336.575 169.991C334.974 174.796 325.051 193.523 323.449 198.005C321.847 202.486 319.445 207.933 319.445 207.933C319.445 207.933 317.207 194.483 311.112 186.162C305.017 177.841 303.586 170.309 303.586 170.309C303.586 170.309 314.634 150.776 317.513 144.692" fill="#0F75BB"/>
<path d="M320.086 129.322C320.086 129.322 335.934 135.411 338.978 144.533C342.022 153.655 338.177 165.186 336.575 169.991C334.974 174.796 325.051 193.523 323.449 198.005C321.847 202.486 319.445 207.933 319.445 207.933C319.445 207.933 317.207 194.483 311.112 186.162C305.017 177.841 303.586 170.309 303.586 170.309C303.586 170.309 314.634 150.776 317.513 144.692" stroke="#263238" stroke-miterlimit="10"/>
<path d="M305.279 166.924C305.279 166.924 308.522 165.305 309.601 165.844C310.681 166.384 324.557 173.796 326.357 182.243C327.658 188.596 326.769 195.203 323.835 200.987C322.211 204.054 319.149 209.995 316.809 210.716C314.469 211.438 312.481 192.16 307.619 182.072C302.757 171.985 305.279 166.924 305.279 166.924Z" fill="#0F75BB" stroke="#263238" stroke-miterlimit="10"/>
<path d="M310.641 157.66C310.641 157.66 313.52 147.896 314.645 144.057" stroke="#263238" stroke-miterlimit="10"/>
<path d="M281.729 122.983C281.729 122.983 277.253 116.735 273.777 112.577C270.3 108.42 266.722 105.972 265.495 106.329C264.268 106.687 263.791 107.897 264.598 109.351C265.404 110.805 269.074 114.054 269.744 114.952C270.414 115.849 271.448 119.092 271.448 119.092C271.448 119.092 268.205 119.314 267.642 119.984C267.119 120.762 266.671 121.587 266.302 122.449C265.626 122.791 265.042 123.29 264.598 123.903C264.264 124.371 264.035 124.906 263.928 125.471C263.814 125.92 262.224 126.704 262.36 128.714C262.496 130.725 264.376 133.639 265.046 134.962C265.717 136.286 270.641 142.233 271.539 143.244C272.436 144.255 277.582 153.201 278.923 156.223C280.263 159.244 293.248 194.279 297.053 199.538C300.859 204.798 307.908 209.83 311.713 211.625C315.519 213.42 318.206 210.393 319.995 206.587C321.784 202.782 323.352 195.17 319.887 186.44C316.422 177.71 309.589 170.212 304.329 165.737C299.07 161.261 289.221 150.071 288.102 148.055C286.983 146.038 285.551 141.562 285.551 141.562C285.551 141.562 288.459 133.042 288.681 131.043C288.902 129.044 287.789 125.448 288.113 123.881C288.437 122.313 289.789 119.178 290.351 117.837C290.913 116.497 292.81 114.253 291.805 113.248C290.8 112.242 286.659 113.469 285.205 115.821C283.908 118.139 282.747 120.53 281.729 122.983Z" fill="white" stroke="#263238" stroke-miterlimit="10"/>
<path d="M247.141 147.22C247.476 145.442 247.709 144.215 247.709 144.215L247.141 147.22Z" fill="#0F75BB"/>
<path d="M247.141 147.22C247.476 145.442 247.709 144.215 247.709 144.215" stroke="#263238" stroke-miterlimit="10"/>
<path d="M246.123 128.846C246.123 128.846 237.637 129.982 228.833 139.411C220.029 148.839 223.869 171.27 224.67 175.916C225.47 180.562 226.754 194.825 226.754 194.825L249.326 187.299C249.326 187.299 245.646 162.165 245.322 159.921C245.163 158.785 245.776 154.809 246.424 151.117" fill="#0F75BB"/>
<path d="M246.123 128.846C246.123 128.846 237.637 129.982 228.833 139.411C220.029 148.839 223.869 171.27 224.67 175.916C225.47 180.562 226.754 194.825 226.754 194.825L249.326 187.299C249.326 187.299 245.646 162.165 245.322 159.921C245.163 158.785 245.776 154.809 246.424 151.117" stroke="#263238" stroke-miterlimit="10"/>
<path d="M224.511 189.844C224.511 189.844 226.755 201.851 227.874 202.487C228.993 203.123 246.442 198.33 248.367 198.006C250.293 197.682 251.406 198.165 251.406 196.569C251.406 194.973 249.804 187.441 248.844 186.163C247.884 184.885 227.073 187.6 225.312 188.083C223.551 188.566 224.511 189.844 224.511 189.844Z" fill="#0F75BB" stroke="#263238" stroke-miterlimit="10"/>
<path d="M237.273 180.563C241.25 182.155 245.109 184.027 248.821 186.163C248.821 186.163 243.379 175.939 241.136 173.832" stroke="#263238" stroke-miterlimit="10"/>
<path d="M234.273 179.438C234.915 179.659 235.551 179.892 236.176 180.125" stroke="#263238" stroke-miterlimit="10"/>
<path d="M286.781 231.848C290.922 230.371 294.733 228.746 297.005 227.145" stroke="#263238" stroke-miterlimit="10"/>
<path d="M267.258 237.55C267.258 237.55 276.102 235.454 284.497 232.637" stroke="#263238" stroke-miterlimit="10"/>
<path d="M304.456 226.479C300.105 228.648 293.215 231.818 287.586 233.226" stroke="#263238" stroke-miterlimit="10"/>
<path d="M308.726 224.264C308.726 224.264 307.834 224.758 306.352 225.519" stroke="#263238" stroke-miterlimit="10"/>
<path d="M71.0197 21.0914C-0.55675 39.5115 -14.1314 93.5917 31.2669 126.099C40.7542 132.895 53.1549 138.641 67.8501 141.954C118.008 153.316 158.209 130.723 182.658 109.959C221.696 76.8192 226.573 68.6268 225.88 74.2081C225.186 79.7894 243.307 85.7527 253.765 56.3581C267.137 18.7311 168.572 10.1795 118.68 13.737C102.168 14.8325 86.0826 17.3146 71.0197 21.0914Z" fill="#263238" stroke="#263238" stroke-miterlimit="10"/>
<path d="M252.998 89.2457C255.232 85.2117 255.081 80.8548 252.661 79.5143C250.24 78.1737 246.467 80.3572 244.233 84.3912C241.999 88.4251 242.15 92.782 244.57 94.1226C246.99 95.4631 250.764 93.2796 252.998 89.2457Z" fill="#263238" stroke="#263238" stroke-miterlimit="10"/>
<path d="M256.979 90.0734C255.661 92.4533 255.752 95.032 257.178 95.8216C258.604 96.6111 260.842 95.3217 262.159 92.9418C263.477 90.5619 263.392 87.9832 261.96 87.1936C260.529 86.4041 258.291 87.6878 256.979 90.0734Z" fill="#263238" stroke="#263238" stroke-miterlimit="10"/>
<path d="M75.0401 18.0739C3.44199 36.3287 -10.1327 89.99 35.2658 122.246C44.7531 128.989 57.1646 134.691 71.8492 137.977C122.007 149.252 162.209 126.833 186.658 106.231C225.696 73.3474 230.584 65.2184 229.879 70.7565C229.175 76.2946 247.307 82.2117 257.765 53.0222C271.137 15.6867 172.571 7.20138 122.68 10.7313C106.17 11.8338 90.0915 14.3119 75.0401 18.0739Z" fill="white" stroke="#263238" stroke-miterlimit="10"/>
<path d="M246.428 80.883C244.19 84.9158 244.343 89.2723 246.763 90.6128C249.182 91.9533 252.954 89.7665 255.192 85.7337C257.43 81.7009 257.271 77.3443 254.851 76.0038C252.431 74.6634 248.66 76.8502 246.428 80.883Z" fill="white" stroke="#263238" stroke-miterlimit="10"/>
<path d="M259.171 86.5636C257.847 88.9492 257.938 91.5223 259.37 92.3118C260.801 93.1013 263.028 91.8176 264.345 89.432C265.663 87.0464 265.578 84.4734 264.147 83.6839C262.715 82.8944 260.489 84.178 259.171 86.5636Z" fill="white" stroke="#263238" stroke-miterlimit="10"/>
<path d="M29.2959 57.5V71H26.7559V57.5H29.2959ZM30.9834 66.3418V66.1572C30.9834 65.46 31.083 64.8184 31.2822 64.2324C31.4814 63.6406 31.7715 63.1279 32.1523 62.6943C32.5332 62.2607 33.002 61.9238 33.5586 61.6836C34.1152 61.4375 34.7539 61.3145 35.4746 61.3145C36.1953 61.3145 36.8369 61.4375 37.3994 61.6836C37.9619 61.9238 38.4336 62.2607 38.8145 62.6943C39.2012 63.1279 39.4941 63.6406 39.6934 64.2324C39.8926 64.8184 39.9922 65.46 39.9922 66.1572V66.3418C39.9922 67.0332 39.8926 67.6748 39.6934 68.2666C39.4941 68.8525 39.2012 69.3652 38.8145 69.8047C38.4336 70.2383 37.9648 70.5752 37.4082 70.8154C36.8516 71.0557 36.2129 71.1758 35.4922 71.1758C34.7715 71.1758 34.1299 71.0557 33.5674 70.8154C33.0107 70.5752 32.5391 70.2383 32.1523 69.8047C31.7715 69.3652 31.4814 68.8525 31.2822 68.2666C31.083 67.6748 30.9834 67.0332 30.9834 66.3418ZM33.5146 66.1572V66.3418C33.5146 66.7402 33.5498 67.1123 33.6201 67.458C33.6904 67.8037 33.8018 68.1084 33.9541 68.3721C34.1123 68.6299 34.3174 68.832 34.5693 68.9785C34.8213 69.125 35.1289 69.1982 35.4922 69.1982C35.8438 69.1982 36.1455 69.125 36.3975 68.9785C36.6494 68.832 36.8516 68.6299 37.0039 68.3721C37.1562 68.1084 37.2676 67.8037 37.3379 67.458C37.4141 67.1123 37.4521 66.7402 37.4521 66.3418V66.1572C37.4521 65.7705 37.4141 65.4072 37.3379 65.0674C37.2676 64.7217 37.1533 64.417 36.9951 64.1533C36.8428 63.8838 36.6406 63.6729 36.3887 63.5205C36.1367 63.3682 35.832 63.292 35.4746 63.292C35.1172 63.292 34.8125 63.3682 34.5605 63.5205C34.3145 63.6729 34.1123 63.8838 33.9541 64.1533C33.8018 64.417 33.6904 64.7217 33.6201 65.0674C33.5498 65.4072 33.5146 65.7705 33.5146 66.1572ZM44.0791 63.5645V71H41.5479V61.4902H43.9297L44.0791 63.5645ZM46.9443 61.4287L46.9004 63.7754C46.7773 63.7578 46.6279 63.7432 46.4521 63.7314C46.2822 63.7139 46.127 63.7051 45.9863 63.7051C45.6289 63.7051 45.3184 63.752 45.0547 63.8457C44.7969 63.9336 44.5801 64.0654 44.4043 64.2412C44.2344 64.417 44.1055 64.6309 44.0176 64.8828C43.9355 65.1348 43.8887 65.4219 43.877 65.7441L43.3672 65.5859C43.3672 64.9707 43.4287 64.4053 43.5518 63.8896C43.6748 63.3682 43.8535 62.9141 44.0879 62.5273C44.3281 62.1406 44.6211 61.8418 44.9668 61.6309C45.3125 61.4199 45.708 61.3145 46.1533 61.3145C46.2939 61.3145 46.4375 61.3262 46.584 61.3496C46.7305 61.3672 46.8506 61.3936 46.9443 61.4287ZM52.3408 71.1758C51.6025 71.1758 50.9404 71.0586 50.3545 70.8242C49.7686 70.584 49.2705 70.2529 48.8604 69.8311C48.4561 69.4092 48.1455 68.9199 47.9287 68.3633C47.7119 67.8008 47.6035 67.2031 47.6035 66.5703V66.2188C47.6035 65.498 47.7061 64.8389 47.9111 64.2412C48.1162 63.6436 48.4092 63.125 48.79 62.6855C49.1768 62.2461 49.6455 61.9092 50.1963 61.6748C50.7471 61.4346 51.3682 61.3145 52.0596 61.3145C52.7334 61.3145 53.3311 61.4258 53.8525 61.6484C54.374 61.8711 54.8105 62.1875 55.1621 62.5977C55.5195 63.0078 55.7891 63.5 55.9707 64.0742C56.1523 64.6426 56.2432 65.2754 56.2432 65.9727V67.0273H48.6846V65.3398H53.7559V65.1465C53.7559 64.7949 53.6914 64.4814 53.5625 64.2061C53.4395 63.9248 53.252 63.7021 53 63.5381C52.748 63.374 52.4258 63.292 52.0332 63.292C51.6992 63.292 51.4121 63.3652 51.1719 63.5117C50.9316 63.6582 50.7354 63.8633 50.583 64.127C50.4365 64.3906 50.3252 64.7012 50.249 65.0586C50.1787 65.4102 50.1436 65.7969 50.1436 66.2188V66.5703C50.1436 66.9512 50.1963 67.3027 50.3018 67.625C50.4131 67.9473 50.5684 68.2256 50.7676 68.46C50.9727 68.6943 51.2188 68.876 51.5059 69.0049C51.7988 69.1338 52.1299 69.1982 52.499 69.1982C52.9561 69.1982 53.3809 69.1104 53.7734 68.9346C54.1719 68.7529 54.5146 68.4805 54.8018 68.1172L56.0322 69.4531C55.833 69.7402 55.5605 70.0156 55.2148 70.2793C54.875 70.543 54.4648 70.7598 53.9844 70.9297C53.5039 71.0938 52.9561 71.1758 52.3408 71.1758ZM60.2158 63.459V71H57.6758V61.4902H60.0576L60.2158 63.459ZM59.8643 65.9111H59.1611C59.1611 65.249 59.2402 64.6396 59.3984 64.083C59.5625 63.5205 59.7998 63.0342 60.1104 62.624C60.4268 62.208 60.8164 61.8857 61.2793 61.6572C61.7422 61.4287 62.2783 61.3145 62.8877 61.3145C63.3096 61.3145 63.6963 61.3789 64.0479 61.5078C64.3994 61.6309 64.7012 61.8271 64.9531 62.0967C65.2109 62.3604 65.4102 62.7061 65.5508 63.1338C65.6914 63.5557 65.7617 64.0625 65.7617 64.6543V71H63.2305V64.9355C63.2305 64.502 63.1719 64.168 63.0547 63.9336C62.9375 63.6992 62.7705 63.5352 62.5537 63.4414C62.3428 63.3477 62.0879 63.3008 61.7891 63.3008C61.4609 63.3008 61.1738 63.3682 60.9277 63.5029C60.6875 63.6377 60.4883 63.8252 60.3301 64.0654C60.1719 64.2998 60.0547 64.5752 59.9785 64.8916C59.9023 65.208 59.8643 65.5479 59.8643 65.9111ZM65.5244 65.6211L64.6191 65.7354C64.6191 65.1143 64.6953 64.5371 64.8477 64.0039C65.0059 63.4707 65.2373 63.002 65.542 62.5977C65.8525 62.1934 66.2363 61.8799 66.6934 61.6572C67.1504 61.4287 67.6777 61.3145 68.2754 61.3145C68.7324 61.3145 69.1484 61.3818 69.5234 61.5166C69.8984 61.6455 70.2178 61.8535 70.4814 62.1406C70.751 62.4219 70.9561 62.791 71.0967 63.248C71.2432 63.7051 71.3164 64.2646 71.3164 64.9268V71H68.7764V64.9268C68.7764 64.4873 68.7178 64.1533 68.6006 63.9248C68.4893 63.6904 68.3252 63.5293 68.1084 63.4414C67.8975 63.3477 67.6455 63.3008 67.3525 63.3008C67.0479 63.3008 66.7812 63.3623 66.5527 63.4854C66.3242 63.6025 66.1338 63.7666 65.9814 63.9775C65.8291 64.1885 65.7148 64.4346 65.6387 64.7158C65.5625 64.9912 65.5244 65.293 65.5244 65.6211ZM80.7207 58.2031V71H78.0928V58.2031H80.7207ZM83.0322 57.5H85.5635V68.8203L85.3086 71H83.0322V57.5ZM91.584 66.1484V66.333C91.584 67.042 91.5078 67.6924 91.3555 68.2842C91.209 68.876 90.9805 69.3887 90.6699 69.8223C90.3594 70.25 89.9727 70.584 89.5098 70.8242C89.0527 71.0586 88.5137 71.1758 87.8926 71.1758C87.3125 71.1758 86.8086 71.0586 86.3809 70.8242C85.959 70.5898 85.6045 70.2588 85.3174 69.8311C85.0303 69.4033 84.7988 68.9023 84.623 68.3281C84.4473 67.7539 84.3154 67.127 84.2275 66.4473V66.043C84.3154 65.3633 84.4473 64.7363 84.623 64.1621C84.7988 63.5879 85.0303 63.0869 85.3174 62.6592C85.6045 62.2314 85.959 61.9004 86.3809 61.666C86.8027 61.4316 87.3008 61.3145 87.875 61.3145C88.502 61.3145 89.0469 61.4346 89.5098 61.6748C89.9785 61.9092 90.3652 62.2432 90.6699 62.6768C90.9805 63.1045 91.209 63.6143 91.3555 64.2061C91.5078 64.792 91.584 65.4395 91.584 66.1484ZM89.0527 66.333V66.1484C89.0527 65.7617 89.0234 65.3984 88.9648 65.0586C88.9121 64.7129 88.8184 64.4111 88.6836 64.1533C88.5488 63.8896 88.3643 63.6816 88.1299 63.5293C87.9014 63.377 87.6055 63.3008 87.2422 63.3008C86.8965 63.3008 86.6035 63.3594 86.3633 63.4766C86.123 63.5938 85.9238 63.7578 85.7656 63.9688C85.6133 64.1797 85.499 64.4316 85.4229 64.7246C85.3467 65.0117 85.2998 65.3281 85.2822 65.6738V66.8252C85.2998 67.2881 85.376 67.6982 85.5107 68.0557C85.6514 68.4072 85.8623 68.6855 86.1436 68.8906C86.4307 69.0898 86.8027 69.1895 87.2598 69.1895C87.6172 69.1895 87.9131 69.1191 88.1475 68.9785C88.3818 68.8379 88.5635 68.6387 88.6924 68.3809C88.8271 68.123 88.9209 67.8213 88.9736 67.4756C89.0264 67.124 89.0527 66.7432 89.0527 66.333ZM98.2988 68.3721C98.2988 68.1904 98.2461 68.0264 98.1406 67.8799C98.0352 67.7334 97.8389 67.5986 97.5518 67.4756C97.2705 67.3467 96.8633 67.2295 96.3301 67.124C95.8496 67.0186 95.4014 66.8867 94.9854 66.7285C94.5752 66.5645 94.2178 66.3682 93.9131 66.1396C93.6143 65.9111 93.3799 65.6416 93.21 65.3311C93.04 65.0146 92.9551 64.6543 92.9551 64.25C92.9551 63.8516 93.04 63.4766 93.21 63.125C93.3857 62.7734 93.6348 62.4629 93.957 62.1934C94.2852 61.918 94.6836 61.7041 95.1523 61.5518C95.627 61.3936 96.1602 61.3145 96.752 61.3145C97.5781 61.3145 98.2871 61.4463 98.8789 61.71C99.4766 61.9736 99.9336 62.3369 100.25 62.7998C100.572 63.2568 100.733 63.7783 100.733 64.3643H98.2021C98.2021 64.1182 98.1494 63.8984 98.0439 63.7051C97.9443 63.5059 97.7861 63.3506 97.5693 63.2393C97.3584 63.1221 97.083 63.0635 96.7432 63.0635C96.4619 63.0635 96.2188 63.1133 96.0137 63.2129C95.8086 63.3066 95.6504 63.4355 95.5391 63.5996C95.4336 63.7578 95.3809 63.9336 95.3809 64.127C95.3809 64.2734 95.4102 64.4053 95.4688 64.5225C95.5332 64.6338 95.6357 64.7363 95.7764 64.8301C95.917 64.9238 96.0986 65.0117 96.3213 65.0938C96.5498 65.1699 96.8311 65.2402 97.165 65.3047C97.8506 65.4453 98.4629 65.6299 99.002 65.8584C99.541 66.0811 99.9688 66.3857 100.285 66.7725C100.602 67.1533 100.76 67.6543 100.76 68.2754C100.76 68.6973 100.666 69.084 100.479 69.4355C100.291 69.7871 100.021 70.0947 99.6699 70.3584C99.3184 70.6162 98.8965 70.8184 98.4043 70.9648C97.918 71.1055 97.3701 71.1758 96.7607 71.1758C95.876 71.1758 95.126 71.0176 94.5107 70.7012C93.9014 70.3848 93.4385 69.9834 93.1221 69.4971C92.8115 69.0049 92.6562 68.501 92.6562 67.9854H95.0557C95.0674 68.3311 95.1553 68.6094 95.3193 68.8203C95.4893 69.0312 95.7031 69.1836 95.9609 69.2773C96.2246 69.3711 96.5088 69.418 96.8135 69.418C97.1416 69.418 97.4141 69.374 97.6309 69.2861C97.8477 69.1924 98.0117 69.0693 98.123 68.917C98.2402 68.7588 98.2988 68.5771 98.2988 68.3721ZM108.028 68.7236V61.4902H110.56V71H108.178L108.028 68.7236ZM108.31 66.7725L109.057 66.7549C109.057 67.3877 108.983 67.9766 108.837 68.5215C108.69 69.0605 108.471 69.5293 108.178 69.9277C107.885 70.3203 107.516 70.6279 107.07 70.8506C106.625 71.0674 106.101 71.1758 105.497 71.1758C105.034 71.1758 104.606 71.1113 104.214 70.9824C103.827 70.8477 103.493 70.6396 103.212 70.3584C102.937 70.0713 102.72 69.7051 102.562 69.2598C102.409 68.8086 102.333 68.2666 102.333 67.6338V61.4902H104.864V67.6514C104.864 67.9326 104.896 68.1699 104.961 68.3633C105.031 68.5566 105.128 68.7148 105.251 68.8379C105.374 68.9609 105.518 69.0488 105.682 69.1016C105.852 69.1543 106.039 69.1807 106.244 69.1807C106.766 69.1807 107.176 69.0752 107.475 68.8643C107.779 68.6533 107.993 68.3662 108.116 68.0029C108.245 67.6338 108.31 67.2236 108.31 66.7725ZM115.024 63.459V71H112.484V61.4902H114.866L115.024 63.459ZM114.673 65.9111H113.97C113.97 65.249 114.049 64.6396 114.207 64.083C114.371 63.5205 114.608 63.0342 114.919 62.624C115.235 62.208 115.625 61.8857 116.088 61.6572C116.551 61.4287 117.087 61.3145 117.696 61.3145C118.118 61.3145 118.505 61.3789 118.856 61.5078C119.208 61.6309 119.51 61.8271 119.762 62.0967C120.02 62.3604 120.219 62.7061 120.359 63.1338C120.5 63.5557 120.57 64.0625 120.57 64.6543V71H118.039V64.9355C118.039 64.502 117.98 64.168 117.863 63.9336C117.746 63.6992 117.579 63.5352 117.362 63.4414C117.151 63.3477 116.896 63.3008 116.598 63.3008C116.27 63.3008 115.982 63.3682 115.736 63.5029C115.496 63.6377 115.297 63.8252 115.139 64.0654C114.98 64.2998 114.863 64.5752 114.787 64.8916C114.711 65.208 114.673 65.5479 114.673 65.9111ZM120.333 65.6211L119.428 65.7354C119.428 65.1143 119.504 64.5371 119.656 64.0039C119.814 63.4707 120.046 63.002 120.351 62.5977C120.661 62.1934 121.045 61.8799 121.502 61.6572C121.959 61.4287 122.486 61.3145 123.084 61.3145C123.541 61.3145 123.957 61.3818 124.332 61.5166C124.707 61.6455 125.026 61.8535 125.29 62.1406C125.56 62.4219 125.765 62.791 125.905 63.248C126.052 63.7051 126.125 64.2646 126.125 64.9268V71H123.585V64.9268C123.585 64.4873 123.526 64.1533 123.409 63.9248C123.298 63.6904 123.134 63.5293 122.917 63.4414C122.706 63.3477 122.454 63.3008 122.161 63.3008C121.856 63.3008 121.59 63.3623 121.361 63.4854C121.133 63.6025 120.942 63.7666 120.79 63.9775C120.638 64.1885 120.523 64.4346 120.447 64.7158C120.371 64.9912 120.333 65.293 120.333 65.6211ZM138.184 74.6562V63.4326L138.509 61.4902H140.732V74.6562H138.184ZM132.172 66.3418V66.1572C132.172 65.4307 132.251 64.7715 132.409 64.1797C132.573 63.582 132.813 63.0723 133.13 62.6504C133.446 62.2227 133.833 61.8945 134.29 61.666C134.753 61.4316 135.286 61.3145 135.89 61.3145C136.47 61.3145 136.971 61.4316 137.393 61.666C137.814 61.9004 138.169 62.2314 138.456 62.6592C138.749 63.0869 138.983 63.5908 139.159 64.1709C139.335 64.751 139.47 65.3867 139.563 66.0781V66.4824C139.476 67.1445 139.341 67.7598 139.159 68.3281C138.983 68.8965 138.749 69.3945 138.456 69.8223C138.169 70.25 137.812 70.584 137.384 70.8242C136.962 71.0586 136.458 71.1758 135.872 71.1758C135.28 71.1758 134.753 71.0557 134.29 70.8154C133.833 70.5693 133.446 70.2295 133.13 69.7959C132.813 69.3623 132.573 68.8525 132.409 68.2666C132.251 67.6748 132.172 67.0332 132.172 66.3418ZM134.703 66.1572V66.3418C134.703 66.7344 134.735 67.1035 134.8 67.4492C134.864 67.7891 134.967 68.0908 135.107 68.3545C135.254 68.6182 135.441 68.8262 135.67 68.9785C135.898 69.125 136.18 69.1982 136.514 69.1982C136.977 69.1982 137.349 69.0986 137.63 68.8994C137.917 68.6943 138.128 68.416 138.263 68.0645C138.403 67.7129 138.485 67.3115 138.509 66.8604V65.709C138.491 65.3398 138.441 65.0088 138.359 64.7158C138.283 64.417 138.166 64.1621 138.008 63.9512C137.855 63.7402 137.656 63.5791 137.41 63.4678C137.17 63.3506 136.877 63.292 136.531 63.292C136.203 63.292 135.922 63.3652 135.688 63.5117C135.453 63.6582 135.263 63.8633 135.116 64.127C134.976 64.3848 134.87 64.6865 134.8 65.0322C134.735 65.3779 134.703 65.7529 134.703 66.1572ZM148.353 68.7236V61.4902H150.884V71H148.502L148.353 68.7236ZM148.634 66.7725L149.381 66.7549C149.381 67.3877 149.308 67.9766 149.161 68.5215C149.015 69.0605 148.795 69.5293 148.502 69.9277C148.209 70.3203 147.84 70.6279 147.395 70.8506C146.949 71.0674 146.425 71.1758 145.821 71.1758C145.358 71.1758 144.931 71.1113 144.538 70.9824C144.151 70.8477 143.817 70.6396 143.536 70.3584C143.261 70.0713 143.044 69.7051 142.886 69.2598C142.733 68.8086 142.657 68.2666 142.657 67.6338V61.4902H145.188V67.6514C145.188 67.9326 145.221 68.1699 145.285 68.3633C145.355 68.5566 145.452 68.7148 145.575 68.8379C145.698 68.9609 145.842 69.0488 146.006 69.1016C146.176 69.1543 146.363 69.1807 146.568 69.1807C147.09 69.1807 147.5 69.0752 147.799 68.8643C148.104 68.6533 148.317 68.3662 148.44 68.0029C148.569 67.6338 148.634 67.2236 148.634 66.7725ZM157.194 71.1758C156.456 71.1758 155.794 71.0586 155.208 70.8242C154.622 70.584 154.124 70.2529 153.714 69.8311C153.31 69.4092 152.999 68.9199 152.782 68.3633C152.565 67.8008 152.457 67.2031 152.457 66.5703V66.2188C152.457 65.498 152.56 64.8389 152.765 64.2412C152.97 63.6436 153.263 63.125 153.644 62.6855C154.03 62.2461 154.499 61.9092 155.05 61.6748C155.601 61.4346 156.222 61.3145 156.913 61.3145C157.587 61.3145 158.185 61.4258 158.706 61.6484C159.228 61.8711 159.664 62.1875 160.016 62.5977C160.373 63.0078 160.643 63.5 160.824 64.0742C161.006 64.6426 161.097 65.2754 161.097 65.9727V67.0273H153.538V65.3398H158.609V65.1465C158.609 64.7949 158.545 64.4814 158.416 64.2061C158.293 63.9248 158.105 63.7021 157.854 63.5381C157.602 63.374 157.279 63.292 156.887 63.292C156.553 63.292 156.266 63.3652 156.025 63.5117C155.785 63.6582 155.589 63.8633 155.437 64.127C155.29 64.3906 155.179 64.7012 155.103 65.0586C155.032 65.4102 154.997 65.7969 154.997 66.2188V66.5703C154.997 66.9512 155.05 67.3027 155.155 67.625C155.267 67.9473 155.422 68.2256 155.621 68.46C155.826 68.6943 156.072 68.876 156.359 69.0049C156.652 69.1338 156.983 69.1982 157.353 69.1982C157.81 69.1982 158.234 69.1104 158.627 68.9346C159.025 68.7529 159.368 68.4805 159.655 68.1172L160.886 69.4531C160.687 69.7402 160.414 70.0156 160.068 70.2793C159.729 70.543 159.318 70.7598 158.838 70.9297C158.357 71.0938 157.81 71.1758 157.194 71.1758ZM167.68 68.3721C167.68 68.1904 167.627 68.0264 167.521 67.8799C167.416 67.7334 167.22 67.5986 166.933 67.4756C166.651 67.3467 166.244 67.2295 165.711 67.124C165.23 67.0186 164.782 66.8867 164.366 66.7285C163.956 66.5645 163.599 66.3682 163.294 66.1396C162.995 65.9111 162.761 65.6416 162.591 65.3311C162.421 65.0146 162.336 64.6543 162.336 64.25C162.336 63.8516 162.421 63.4766 162.591 63.125C162.767 62.7734 163.016 62.4629 163.338 62.1934C163.666 61.918 164.064 61.7041 164.533 61.5518C165.008 61.3936 165.541 61.3145 166.133 61.3145C166.959 61.3145 167.668 61.4463 168.26 61.71C168.857 61.9736 169.314 62.3369 169.631 62.7998C169.953 63.2568 170.114 63.7783 170.114 64.3643H167.583C167.583 64.1182 167.53 63.8984 167.425 63.7051C167.325 63.5059 167.167 63.3506 166.95 63.2393C166.739 63.1221 166.464 63.0635 166.124 63.0635C165.843 63.0635 165.6 63.1133 165.395 63.2129C165.189 63.3066 165.031 63.4355 164.92 63.5996C164.814 63.7578 164.762 63.9336 164.762 64.127C164.762 64.2734 164.791 64.4053 164.85 64.5225C164.914 64.6338 165.017 64.7363 165.157 64.8301C165.298 64.9238 165.479 65.0117 165.702 65.0938C165.931 65.1699 166.212 65.2402 166.546 65.3047C167.231 65.4453 167.844 65.6299 168.383 65.8584C168.922 66.0811 169.35 66.3857 169.666 66.7725C169.982 67.1533 170.141 67.6543 170.141 68.2754C170.141 68.6973 170.047 69.084 169.859 69.4355C169.672 69.7871 169.402 70.0947 169.051 70.3584C168.699 70.6162 168.277 70.8184 167.785 70.9648C167.299 71.1055 166.751 71.1758 166.142 71.1758C165.257 71.1758 164.507 71.0176 163.892 70.7012C163.282 70.3848 162.819 69.9834 162.503 69.4971C162.192 69.0049 162.037 68.501 162.037 67.9854H164.437C164.448 68.3311 164.536 68.6094 164.7 68.8203C164.87 69.0312 165.084 69.1836 165.342 69.2773C165.605 69.3711 165.89 69.418 166.194 69.418C166.522 69.418 166.795 69.374 167.012 69.2861C167.229 69.1924 167.393 69.0693 167.504 68.917C167.621 68.7588 167.68 68.5771 167.68 68.3721ZM176.442 61.4902V63.2832H170.905V61.4902H176.442ZM172.276 59.1436H174.808V68.1348C174.808 68.4102 174.843 68.6211 174.913 68.7676C174.989 68.9141 175.101 69.0166 175.247 69.0752C175.394 69.1279 175.578 69.1543 175.801 69.1543C175.959 69.1543 176.1 69.1484 176.223 69.1367C176.352 69.1191 176.46 69.1016 176.548 69.084L176.557 70.9473C176.34 71.0176 176.105 71.0732 175.854 71.1143C175.602 71.1553 175.323 71.1758 175.019 71.1758C174.462 71.1758 173.976 71.085 173.56 70.9033C173.149 70.7158 172.833 70.417 172.61 70.0068C172.388 69.5967 172.276 69.0576 172.276 68.3896V59.1436ZM180.556 61.4902V71H178.016V61.4902H180.556ZM177.857 59.0117C177.857 58.6426 177.986 58.3379 178.244 58.0977C178.502 57.8574 178.848 57.7373 179.281 57.7373C179.709 57.7373 180.052 57.8574 180.31 58.0977C180.573 58.3379 180.705 58.6426 180.705 59.0117C180.705 59.3809 180.573 59.6855 180.31 59.9258C180.052 60.166 179.709 60.2861 179.281 60.2861C178.848 60.2861 178.502 60.166 178.244 59.9258C177.986 59.6855 177.857 59.3809 177.857 59.0117ZM182.243 66.3418V66.1572C182.243 65.46 182.343 64.8184 182.542 64.2324C182.741 63.6406 183.031 63.1279 183.412 62.6943C183.793 62.2607 184.262 61.9238 184.818 61.6836C185.375 61.4375 186.014 61.3145 186.734 61.3145C187.455 61.3145 188.097 61.4375 188.659 61.6836C189.222 61.9238 189.693 62.2607 190.074 62.6943C190.461 63.1279 190.754 63.6406 190.953 64.2324C191.152 64.8184 191.252 65.46 191.252 66.1572V66.3418C191.252 67.0332 191.152 67.6748 190.953 68.2666C190.754 68.8525 190.461 69.3652 190.074 69.8047C189.693 70.2383 189.225 70.5752 188.668 70.8154C188.111 71.0557 187.473 71.1758 186.752 71.1758C186.031 71.1758 185.39 71.0557 184.827 70.8154C184.271 70.5752 183.799 70.2383 183.412 69.8047C183.031 69.3652 182.741 68.8525 182.542 68.2666C182.343 67.6748 182.243 67.0332 182.243 66.3418ZM184.774 66.1572V66.3418C184.774 66.7402 184.81 67.1123 184.88 67.458C184.95 67.8037 185.062 68.1084 185.214 68.3721C185.372 68.6299 185.577 68.832 185.829 68.9785C186.081 69.125 186.389 69.1982 186.752 69.1982C187.104 69.1982 187.405 69.125 187.657 68.9785C187.909 68.832 188.111 68.6299 188.264 68.3721C188.416 68.1084 188.527 67.8037 188.598 67.458C188.674 67.1123 188.712 66.7402 188.712 66.3418V66.1572C188.712 65.7705 188.674 65.4072 188.598 65.0674C188.527 64.7217 188.413 64.417 188.255 64.1533C188.103 63.8838 187.9 63.6729 187.648 63.5205C187.396 63.3682 187.092 63.292 186.734 63.292C186.377 63.292 186.072 63.3682 185.82 63.5205C185.574 63.6729 185.372 63.8838 185.214 64.1533C185.062 64.417 184.95 64.7217 184.88 65.0674C184.81 65.4072 184.774 65.7705 184.774 66.1572ZM195.286 63.5205V71H192.755V61.4902H195.128L195.286 63.5205ZM194.917 65.9111H194.231C194.231 65.208 194.322 64.5752 194.504 64.0127C194.686 63.4443 194.94 62.9609 195.269 62.5625C195.597 62.1582 195.986 61.8506 196.438 61.6396C196.895 61.4229 197.404 61.3145 197.967 61.3145C198.412 61.3145 198.819 61.3789 199.188 61.5078C199.558 61.6367 199.874 61.8418 200.138 62.123C200.407 62.4043 200.612 62.7764 200.753 63.2393C200.899 63.7021 200.973 64.2676 200.973 64.9355V71H198.424V64.9268C198.424 64.5049 198.365 64.1768 198.248 63.9424C198.131 63.708 197.958 63.5439 197.729 63.4502C197.507 63.3506 197.231 63.3008 196.903 63.3008C196.563 63.3008 196.268 63.3682 196.016 63.5029C195.77 63.6377 195.564 63.8252 195.4 64.0654C195.242 64.2998 195.122 64.5752 195.04 64.8916C194.958 65.208 194.917 65.5479 194.917 65.9111ZM211.695 67.0889H209.454C209.46 66.5615 209.501 66.1074 209.577 65.7266C209.659 65.3398 209.797 64.9912 209.99 64.6807C210.189 64.3701 210.453 64.0625 210.781 63.7578C211.057 63.5117 211.297 63.2773 211.502 63.0547C211.707 62.832 211.868 62.6035 211.985 62.3691C212.103 62.1289 212.161 61.8623 212.161 61.5693C212.161 61.2295 212.108 60.9482 212.003 60.7256C211.903 60.4971 211.751 60.3242 211.546 60.207C211.347 60.0898 211.095 60.0312 210.79 60.0312C210.538 60.0312 210.304 60.0869 210.087 60.1982C209.87 60.3037 209.691 60.4678 209.551 60.6904C209.416 60.9131 209.346 61.2061 209.34 61.5693H206.791C206.809 60.7666 206.993 60.1045 207.345 59.583C207.702 59.0557 208.18 58.666 208.777 58.4141C209.375 58.1562 210.046 58.0273 210.79 58.0273C211.61 58.0273 212.313 58.1621 212.899 58.4316C213.485 58.6953 213.934 59.085 214.244 59.6006C214.555 60.1104 214.71 60.7314 214.71 61.4639C214.71 61.9736 214.61 62.4277 214.411 62.8262C214.212 63.2188 213.951 63.585 213.629 63.9248C213.307 64.2646 212.952 64.6162 212.565 64.9795C212.231 65.2783 212.003 65.5918 211.88 65.9199C211.763 66.248 211.701 66.6377 211.695 67.0889ZM209.19 69.8047C209.19 69.4297 209.319 69.1191 209.577 68.873C209.835 68.6211 210.181 68.4951 210.614 68.4951C211.042 68.4951 211.385 68.6211 211.643 68.873C211.906 69.1191 212.038 69.4297 212.038 69.8047C212.038 70.168 211.906 70.4756 211.643 70.7275C211.385 70.9795 211.042 71.1055 210.614 71.1055C210.181 71.1055 209.835 70.9795 209.577 70.7275C209.319 70.4756 209.19 70.168 209.19 69.8047Z" fill="black"/>
</svg>
