<svg width="320" height="236" viewBox="0 0 320 236" fill="none" xmlns="http://www.w3.org/2000/svg">
<path d="M205.082 226.634C205.082 226.701 162.73 226.749 110.494 226.749C58.2587 226.749 15.9062 226.718 15.9062 226.634C15.9062 226.55 58.2499 226.52 110.494 226.52C162.739 226.52 205.082 226.573 205.082 226.634Z" fill="#263238"/>
<path d="M165.523 120.77H37.25V124.876H165.523V120.77Z" fill="#E0E0E0"/>
<path d="M48.8824 226.845L44.7188 226.827V124.336H48.8824V226.845Z" fill="#E0E0E0"/>
<path d="M159.422 226.836H155.219L155.259 124.336H159.422V226.836Z" fill="#E0E0E0"/>
<path d="M86.9531 83.0059C86.9531 83.0059 109.849 106.993 109.447 112.319C109.044 117.645 103.917 118.795 102.246 118.587C100.576 118.379 87.983 104.363 87.983 104.363L86.9531 83.0059Z" fill="#377DFF"/>
<g opacity="0.4">
<path d="M86.9531 83.0059C86.9531 83.0059 109.849 106.993 109.447 112.319C109.044 117.645 103.917 118.795 102.246 118.587C100.576 118.379 87.983 104.363 87.983 104.363L86.9531 83.0059Z" fill="black"/>
</g>
<path d="M99.1562 201.514L105.366 222.283L112.341 218.495L108.376 199.48L99.1562 201.514Z" fill="#FFBE9D"/>
<path d="M111.488 209.355L113.623 219.203C113.623 219.203 124.337 220.335 124.907 222.112L105.994 226.925L102.016 211.742L111.488 209.355Z" fill="#377DFF"/>
<path d="M107.571 219.863C107.403 219.964 107.279 220.124 107.222 220.312C107.165 220.499 107.179 220.701 107.262 220.879C107.356 221.051 107.514 221.179 107.701 221.238C107.887 221.296 108.09 221.28 108.265 221.193C108.443 221.085 108.574 220.915 108.634 220.716C108.694 220.517 108.677 220.302 108.588 220.115C108.47 219.946 108.291 219.83 108.089 219.79C107.887 219.751 107.678 219.791 107.505 219.902" fill="#E0E0E0"/>
<g opacity="0.4">
<path d="M105.994 226.925L105.641 225.391L123.904 221.338C123.904 221.338 124.837 221.493 124.894 222.107L105.994 226.925Z" fill="black"/>
</g>
<path d="M113.909 219.013C113.931 219.105 113.467 219.265 113.1 219.68C112.734 220.096 112.579 220.542 112.486 220.524C112.393 220.507 112.393 219.941 112.857 219.45C113.321 218.96 113.909 218.924 113.909 219.013Z" fill="#263238"/>
<path d="M116.096 219.328C116.14 219.412 115.782 219.673 115.566 220.141C115.349 220.61 115.367 221.047 115.274 221.069C115.181 221.091 114.991 220.579 115.274 220C115.557 219.421 116.074 219.239 116.096 219.328Z" fill="#263238"/>
<path d="M117.837 221.413C117.757 221.453 117.514 221.024 117.62 220.458C117.726 219.893 118.111 219.574 118.168 219.65C118.226 219.725 118.027 220.056 117.947 220.534C117.868 221.011 117.93 221.382 117.837 221.413Z" fill="#263238"/>
<path d="M113.155 216.825C113.155 216.923 112.677 216.901 112.165 217.069C111.652 217.237 111.281 217.511 111.219 217.44C111.157 217.369 111.458 216.945 112.068 216.755C112.677 216.565 113.199 216.742 113.155 216.825Z" fill="#263238"/>
<path d="M112.716 214.849C112.427 215.014 112.098 215.097 111.765 215.088C111.408 215.114 111.049 215.096 110.696 215.035C110.487 215.003 110.281 214.952 110.081 214.885C109.959 214.855 109.843 214.806 109.737 214.739C109.659 214.688 109.6 214.614 109.57 214.527C109.54 214.439 109.539 214.344 109.569 214.257C109.598 214.181 109.645 214.113 109.706 214.058C109.766 214.004 109.839 213.964 109.918 213.943C110.039 213.911 110.164 213.896 110.289 213.899C110.502 213.898 110.715 213.916 110.926 213.952C111.283 214.013 111.627 214.131 111.947 214.301C112.49 214.597 112.729 214.902 112.702 214.929C112.676 214.955 112.38 214.734 111.849 214.513C111.539 214.386 111.214 214.299 110.881 214.252C110.687 214.228 110.49 214.219 110.294 214.226C110.081 214.226 109.909 214.266 109.883 214.367C109.856 214.469 109.883 214.42 109.931 214.469C110.009 214.518 110.094 214.556 110.183 214.58C110.37 214.642 110.56 214.694 110.753 214.734C111.085 214.804 111.422 214.844 111.761 214.854C112.079 214.832 112.398 214.83 112.716 214.849Z" fill="#263238"/>
<path d="M112.614 215.013C112.588 215.035 112.318 214.752 112.132 214.165C112.025 213.819 111.979 213.457 111.995 213.095C112.006 212.879 112.037 212.664 112.088 212.454C112.109 212.316 112.164 212.186 112.25 212.075C112.335 211.965 112.446 211.877 112.574 211.822C112.656 211.805 112.741 211.811 112.819 211.84C112.897 211.869 112.966 211.919 113.016 211.986C113.093 212.084 113.156 212.192 113.202 212.308C113.291 212.511 113.347 212.728 113.366 212.949C113.405 213.316 113.352 213.687 113.211 214.028C112.968 214.615 112.61 214.823 112.596 214.792C112.744 214.52 112.875 214.24 112.99 213.952C113.084 213.639 113.11 213.309 113.065 212.984C113.037 212.797 112.984 212.614 112.906 212.441C112.826 212.246 112.707 212.105 112.641 212.145C112.574 212.184 112.424 212.361 112.389 212.538C112.335 212.726 112.3 212.918 112.283 213.113C112.255 213.444 112.274 213.777 112.34 214.103C112.473 214.668 112.663 214.987 112.614 215.013Z" fill="#263238"/>
<path d="M82.3047 142.294C82.5345 143.214 98.7471 209.368 98.7471 209.368L113.47 204.921L99.5692 137.914L82.3047 142.294Z" fill="#263238"/>
<path d="M80.1372 57.762L77.5647 77.5282C77.4616 78.3247 77.5213 79.1337 77.7401 79.9064C77.9589 80.6791 78.3324 81.3993 78.8379 82.0233C79.3433 82.6474 79.9702 83.1623 80.6806 83.5369C81.3909 83.9114 82.1699 84.1379 82.9704 84.2024C84.489 84.3239 85.9961 83.8565 87.1793 82.897C88.3626 81.9376 89.1314 80.5596 89.3264 79.0487C89.5164 77.5592 89.68 76.3216 89.7109 76.1669C89.7109 76.1669 94.8072 76.3525 95.8149 71.4198C96.3055 69.033 96.9111 64.0428 97.4105 59.5212C97.6671 57.1779 97.0318 54.8239 95.6313 52.9278C94.2307 51.0317 92.1675 49.7325 89.8523 49.2889L89.375 49.196C84.1726 48.5065 80.6853 52.542 80.1372 57.762Z" fill="#FFBE9D"/>
<path d="M89.728 76.1018C87.4343 75.6979 85.3127 74.6209 83.6328 73.0078C83.6328 73.0078 84.4726 76.8576 89.4937 77.3615L89.728 76.1018Z" fill="#EB996E"/>
<path d="M95.9937 62.3162C95.9592 62.5 95.8546 62.6631 95.702 62.7712C95.5494 62.8792 95.3608 62.9237 95.176 62.8952C94.9957 62.869 94.8332 62.7724 94.7238 62.6266C94.6145 62.4809 94.5673 62.2978 94.5926 62.1173C94.6261 61.933 94.7305 61.7692 94.8833 61.661C95.0362 61.5527 95.2254 61.5087 95.4103 61.5383C95.5906 61.5646 95.7532 61.6611 95.8625 61.8069C95.9718 61.9527 96.019 62.1358 95.9937 62.3162Z" fill="#263238"/>
<path d="M96.0284 61.4617C95.9267 61.5368 95.467 61.0196 94.7024 60.8959C93.9377 60.7721 93.3101 61.0241 93.2482 60.8959C93.1863 60.7677 93.3366 60.697 93.6106 60.5688C93.9847 60.406 94.3995 60.3612 94.7996 60.4406C95.195 60.513 95.5563 60.7115 95.8295 61.0064C96.0328 61.2495 96.0814 61.4307 96.0284 61.4617Z" fill="#263238"/>
<path d="M88.348 61.2272C88.3135 61.4121 88.2084 61.5764 88.055 61.6852C87.9016 61.7941 87.7118 61.8391 87.5259 61.8106C87.4346 61.8003 87.3464 61.7718 87.2663 61.7269C87.1862 61.682 87.1159 61.6215 87.0595 61.5491C87.0031 61.4766 86.9617 61.3936 86.9378 61.3049C86.9139 61.2163 86.908 61.1237 86.9203 61.0327C86.9549 60.849 87.0595 60.6858 87.2121 60.5778C87.3646 60.4698 87.5532 60.4253 87.738 60.4537C87.8292 60.4635 87.9176 60.4915 87.9979 60.5359C88.0781 60.5803 88.1487 60.6403 88.2055 60.7123C88.2623 60.7843 88.3042 60.867 88.3287 60.9554C88.3531 61.0438 88.3597 61.1362 88.348 61.2272Z" fill="#263238"/>
<path d="M88.4327 60.2684C88.3266 60.3436 87.8669 59.8264 87.1067 59.7027C86.3464 59.5789 85.7144 59.8308 85.6481 59.7027C85.5818 59.5745 85.7365 59.5082 86.0149 59.3756C86.3873 59.2125 86.8008 59.1678 87.1995 59.2474C87.5954 59.3219 87.9575 59.52 88.2338 59.8132C88.4371 60.0563 88.4857 60.2375 88.4327 60.2684Z" fill="#263238"/>
<path d="M90.0547 66.6166C90.4788 66.563 90.908 66.563 91.3321 66.6166C91.5265 66.6166 91.721 66.6166 91.7741 66.5017C91.8332 66.3072 91.8332 66.0995 91.7741 65.905L91.4823 64.3138C91.089 62.0596 90.8459 60.2165 90.9343 60.2032C91.0227 60.1899 91.4205 62.0066 91.8183 64.2608C91.9067 64.8177 91.9951 65.3481 92.079 65.8564C92.1565 66.1128 92.1408 66.3883 92.0348 66.6343C91.9932 66.6977 91.9378 66.7509 91.8728 66.79C91.8077 66.829 91.7347 66.8529 91.6591 66.8597C91.5475 66.8716 91.4349 66.8716 91.3232 66.8597C90.8923 66.8284 90.4666 66.7468 90.0547 66.6166Z" fill="#263238"/>
<path d="M88.9559 58.7223C88.841 58.9168 88.1029 58.6737 87.1879 58.6074C86.273 58.5411 85.5083 58.6471 85.4199 58.4394C85.3802 58.3422 85.5437 58.1698 85.8619 58.0283C86.2957 57.8514 86.7657 57.7816 87.2321 57.825C87.7009 57.8559 88.1556 57.9983 88.5581 58.2405C88.872 58.4394 89.009 58.6295 88.9559 58.7223Z" fill="#263238"/>
<path d="M96.3857 58.6995C96.2178 58.8454 95.7271 58.5625 95.0995 58.4343C94.4719 58.3061 93.915 58.3282 93.8266 58.1249C93.7912 58.0277 93.9061 57.8685 94.1713 57.7492C94.52 57.6121 94.9015 57.581 95.2678 57.6596C95.6342 57.7382 95.9692 57.9231 96.231 58.1912C96.4211 58.4343 96.4609 58.6244 96.3857 58.6995Z" fill="#263238"/>
<path d="M79.8364 61.5024C79.7568 61.4494 76.6319 59.8449 76.0882 63.2439C75.5445 66.6429 79.0717 66.4882 79.0938 66.3909C79.1159 66.2937 79.8364 61.5024 79.8364 61.5024Z" fill="#FFBE9D"/>
<path d="M78.2632 64.9443C78.2632 64.9443 78.2013 64.9753 78.0908 65.0062C78.0168 65.0259 77.9395 65.0306 77.8636 65.02C77.7877 65.0093 77.7147 64.9836 77.6488 64.9443C77.3085 64.7587 77.0963 64.1399 77.1803 63.5211C77.2176 63.228 77.3204 62.947 77.4809 62.699C77.5292 62.598 77.6016 62.5105 77.6918 62.4441C77.782 62.3778 77.8872 62.3348 77.998 62.3189C78.0686 62.3118 78.1394 62.3296 78.1983 62.3691C78.2572 62.4086 78.3005 62.4675 78.3207 62.5354C78.3516 62.6371 78.3207 62.7034 78.3207 62.7122C78.3207 62.7211 78.4002 62.6636 78.3958 62.5222C78.3896 62.4335 78.3538 62.3495 78.2942 62.2835C78.2099 62.2009 78.0982 62.1522 77.9803 62.1465C77.8352 62.1538 77.6943 62.1983 77.5712 62.2757C77.4482 62.3531 77.347 62.4608 77.2776 62.5885C77.0866 62.86 76.9652 63.1741 76.924 63.5034C76.8356 64.1929 77.0831 64.8913 77.5516 65.1123C77.6389 65.1527 77.7339 65.1736 77.8301 65.1736C77.9262 65.1736 78.0213 65.1527 78.1085 65.1123C78.2411 65.0195 78.2765 64.9443 78.2632 64.9443Z" fill="#EB996E"/>
<path d="M77.9775 61.0246C78.3033 61.0653 78.6119 61.1937 78.8703 61.3961C79.1288 61.5985 79.3274 61.8673 79.445 62.1738C79.5731 62.6954 79.5157 63.2523 79.6394 63.7783C79.7632 64.3043 80.1787 64.8347 80.7179 64.8126C80.9034 64.7906 81.0799 64.7202 81.2296 64.6085C81.3794 64.4968 81.4971 64.3477 81.571 64.1761C81.7132 63.831 81.7882 63.462 81.792 63.0888C81.8936 61.471 81.8627 59.8401 82.1058 58.2268C82.283 56.5998 82.9382 55.0617 83.9887 53.8068C85.0849 52.6134 86.8087 51.915 88.3689 52.3482C89.4032 52.631 90.2607 53.3648 91.2773 53.7139C91.8828 53.9154 92.5263 53.9762 93.1588 53.892C93.7914 53.8078 94.3965 53.5806 94.9282 53.2277C94.987 53.1897 95.0491 53.1571 95.1139 53.1305C95.2988 53.0458 95.4506 52.9024 95.5457 52.7226C95.6408 52.5427 95.6739 52.3366 95.6398 52.136C95.6227 52.0062 95.5758 51.8822 95.5028 51.7736C93.8011 49.4752 90.1723 48.2376 87.3081 48.4011C84.444 48.5646 81.5047 50.0011 79.8339 52.3393C78.1632 54.6775 77.8272 58.3063 77.9775 61.0246Z" fill="#263238"/>
<path d="M91.5852 68.9229C90.8471 68.8151 90.1396 68.5547 89.5078 68.1582C89.8825 68.1734 90.2498 68.2668 90.5863 68.4322C90.9495 68.5253 91.2896 68.6923 91.5852 68.9229Z" fill="#263238"/>
<path d="M95.2801 72.733C95.2148 73.0684 95.0709 73.3834 94.8602 73.6524C94.3804 74.3228 93.7468 74.8685 93.0127 75.2436C92.2857 75.6124 91.5105 75.8772 90.7099 76.0304C90.3848 76.121 90.0483 76.1641 89.7109 76.1585C90.0221 76.0362 90.3429 75.9401 90.6701 75.8713C91.4429 75.6741 92.1925 75.3955 92.9066 75.0403C93.6109 74.6782 94.2312 74.1722 94.7276 73.5552C95.1033 73.0734 95.2448 72.7154 95.2801 72.733Z" fill="#EB996E"/>
<path d="M92.8856 75.2578C91.6878 75.8545 90.8082 77.4678 90.0479 78.5375C89.7896 78.8436 89.6051 79.205 89.5087 79.5938C89.473 80.0167 89.5476 80.4416 89.7253 80.827C89.9419 81.4149 90.1673 81.9939 90.4325 82.5685C90.5032 82.7364 90.596 82.9177 90.7728 82.9575C90.9496 82.9972 91.1795 82.7895 91.2723 82.5817C91.4414 82.0433 91.5351 81.484 91.5507 80.9198C91.5655 80.6383 91.649 80.3646 91.7938 80.1227C91.9386 79.8808 92.1405 79.678 92.3817 79.532" fill="#EB996E"/>
<path d="M94.7818 79.6684L93.6193 78.7844C93.5491 78.7262 93.459 78.6979 93.3681 78.7053C93.2773 78.7127 93.1929 78.7554 93.1331 78.8242L92.5143 79.5402L92.8414 81.348C93.2215 83.6685 91.5154 83.306 91.5154 83.306L91.3784 82.864L90.6225 80.0352C90.4723 78.6827 90.5783 78.5236 91.2369 77.5468L92.6778 75.4871C92.8226 75.2705 93.0362 75.1091 93.284 75.0289C93.5318 74.9487 93.7994 74.9544 94.0436 75.0451C96.1122 75.8097 100.572 77.1888 101.076 78.9435C101.991 82.1347 102.729 90.2808 102.742 90.4355L96.426 91.0234L96.4569 85.5912C95.9014 85.245 95.4828 84.7171 95.2724 84.0972C95.0072 83.1381 94.7818 79.6772 94.7818 79.6772" fill="#FFBE9D"/>
<path d="M99.1406 80.7324C99.1406 80.7324 99.0743 80.8429 98.9019 80.9888C98.656 81.2032 98.3618 81.3549 98.0444 81.4308C97.8189 81.4815 97.5849 81.4815 97.3593 81.4308C97.092 81.3633 96.8553 81.2076 96.6875 80.9888C96.3162 80.5468 96.2455 79.9192 95.9361 79.4639C95.7461 79.2556 95.5273 79.0755 95.2864 78.9291C95.0593 78.7829 94.8231 78.6515 94.5792 78.5357C94.3841 78.4187 94.1613 78.3561 93.9338 78.3545C93.742 78.4159 93.5667 78.5202 93.4211 78.6594C92.851 79.1854 92.5371 79.5832 92.5062 79.5434C92.4753 79.5037 92.5637 79.4329 92.6963 79.2517C92.8829 78.9967 93.0882 78.7558 93.3106 78.5313C93.4725 78.3635 93.6727 78.2375 93.8941 78.1644C93.9641 78.1509 94.0362 78.1509 94.1062 78.1644C94.1721 78.1759 94.2371 78.1922 94.3007 78.213C94.4268 78.2497 94.5495 78.297 94.6676 78.3545C94.9238 78.4655 95.1706 78.5971 95.4057 78.7478C95.674 78.9046 95.9158 79.103 96.1218 79.3357C96.493 79.8749 96.5372 80.4893 96.8511 80.865C96.9914 81.0294 97.1734 81.153 97.3779 81.223C97.5824 81.2929 97.8019 81.3067 98.0135 81.2628C98.3127 81.2067 98.5972 81.0893 98.8489 80.9181C99.0124 80.7943 99.1273 80.7192 99.1406 80.7324Z" fill="#EB996E"/>
<path d="M98.4432 82.6508C97.2357 82.5797 96.0594 82.2399 95 81.6562C95.5897 81.7634 96.1693 81.9201 96.7326 82.1248C97.3163 82.2528 97.8884 82.4287 98.4432 82.6508Z" fill="#EB996E"/>
<path d="M96.203 79.6947C94.55 79.6947 94.3555 79.6196 92.4858 79.7212C92.2066 79.7229 91.9293 79.7676 91.6637 79.8538C91.5306 79.8979 91.4099 79.973 91.3115 80.0729C91.2131 80.1728 91.1399 80.2946 91.0979 80.4284C90.9698 80.9411 91.4869 81.4052 91.9819 81.5246C92.477 81.6439 93.0427 81.5511 93.5554 81.6704C94.3696 81.8146 95.1051 82.2459 95.6284 82.8859C96.7069 84.4108 97.8384 83.6771 98.5722 84.2119L100.499 82.992L99.8186 80.1455L96.1854 79.7035" fill="#FFBE9D"/>
<path d="M98.7544 84.2245C98.587 84.1471 98.4102 84.0921 98.2284 84.0609C97.7074 84.0544 97.1909 83.9634 96.6991 83.7913C96.371 83.6255 96.084 83.3884 95.8593 83.0974C95.6338 82.7706 95.3435 82.4937 95.0063 82.2841C94.6294 82.062 94.2211 81.8981 93.7952 81.7979C93.3226 81.7247 92.8456 81.6833 92.3675 81.6741C92.1027 81.6585 91.848 81.5667 91.6339 81.4099C91.4199 81.2531 91.2556 81.0379 91.1609 80.7901C91.1252 80.6609 91.1235 80.5245 91.156 80.3944C91.1886 80.2643 91.2542 80.1448 91.3465 80.0476C91.5112 79.8699 91.7251 79.7452 91.9609 79.6895C92.3701 79.6232 92.7839 79.5892 93.1985 79.5879C93.5786 79.5879 93.9366 79.5879 94.2637 79.5879C94.9179 79.5879 95.4394 79.6321 95.8019 79.6498C95.9914 79.6462 96.1809 79.661 96.3676 79.694C96.1817 79.7325 95.9916 79.7474 95.8019 79.7382C95.4394 79.7382 94.9179 79.7382 94.2637 79.7382C93.941 79.7382 93.5874 79.7382 93.2073 79.7779C92.8071 79.784 92.408 79.8224 92.0139 79.8929C91.6382 79.9724 91.2537 80.3349 91.3774 80.7238C91.4633 80.9262 91.6049 81.1 91.7856 81.2252C91.9663 81.3504 92.1788 81.4218 92.3985 81.431C92.8843 81.4405 93.3688 81.4848 93.8482 81.5636C94.2977 81.6727 94.7272 81.8517 95.1212 82.094C95.4752 82.3226 95.7766 82.624 96.0052 82.978C96.208 83.2539 96.4691 83.4818 96.7698 83.6454C97.243 83.8218 97.7383 83.9319 98.2417 83.9725C98.3843 83.9983 98.5208 84.0508 98.6439 84.1272C98.7235 84.1847 98.7588 84.2156 98.7544 84.2245Z" fill="#EB996E"/>
<path d="M96.0158 78.4038C96.0158 78.3773 96.1351 78.3552 96.3075 78.4303C96.4191 78.4843 96.5157 78.5648 96.5888 78.6649C96.6619 78.765 96.7092 78.8815 96.7267 79.0042C96.7442 79.1269 96.7312 79.252 96.6889 79.3686C96.6467 79.4851 96.5764 79.5894 96.4843 79.6723C96.3428 79.7961 96.2235 79.8049 96.2103 79.7784C96.197 79.7519 96.281 79.69 96.3649 79.5662C96.472 79.4112 96.5205 79.2233 96.502 79.0359C96.465 78.86 96.3662 78.7031 96.2235 78.5939C96.1086 78.4745 96.0114 78.4391 96.0158 78.4038Z" fill="#EB996E"/>
<path d="M99.7183 152.496L91.6562 172.62L99.4796 173.995L108.205 156.638L99.7183 152.496Z" fill="#FFBE9D"/>
<path d="M104.49 166.305L100.07 175.335C100.07 175.335 107.752 182.88 107.094 184.617L89.2812 176.631L95.624 162.283L104.49 166.305Z" fill="#377DFF"/>
<path d="M94.8886 172.094C94.6928 172.066 94.4934 172.112 94.3297 172.223C94.1661 172.334 94.0501 172.503 94.0046 172.695C93.9691 172.89 94.0105 173.091 94.1201 173.256C94.2298 173.421 94.3991 173.537 94.5925 173.579C94.799 173.605 95.008 173.554 95.1787 173.435C95.3494 173.315 95.4697 173.137 95.5162 172.934C95.5298 172.728 95.4626 172.525 95.3288 172.369C95.1951 172.212 95.0054 172.113 94.8002 172.094" fill="#E0E0E0"/>
<g opacity="0.4">
<path d="M89.2656 176.643L89.9065 175.197L106.782 183.401C106.782 183.401 107.419 184.099 107.078 184.621L89.2656 176.643Z" fill="black"/>
</g>
<path d="M100.375 175.37C100.335 175.458 99.8798 175.304 99.3273 175.392C98.7748 175.48 98.3814 175.741 98.3195 175.67C98.2576 175.6 98.6068 175.158 99.2787 175.06C99.9505 174.963 100.428 175.299 100.375 175.37Z" fill="#263238"/>
<path d="M101.901 176.982C101.901 177.075 101.459 177.053 100.981 177.287C100.504 177.522 100.261 177.875 100.177 177.831C100.093 177.787 100.256 177.274 100.835 176.991C101.414 176.708 101.936 176.899 101.901 176.982Z" fill="#263238"/>
<path d="M101.96 179.692C101.872 179.692 101.96 179.188 102.402 178.808C102.844 178.428 103.335 178.424 103.34 178.512C103.344 178.6 102.977 178.742 102.623 179.056C102.27 179.369 102.049 179.723 101.96 179.692Z" fill="#263238"/>
<path d="M101.157 173.204C101.087 173.266 100.742 172.965 100.234 172.762C99.7254 172.558 99.2746 172.558 99.2657 172.461C99.2569 172.364 99.7608 172.223 100.353 172.461C100.945 172.7 101.219 173.151 101.157 173.204Z" fill="#263238"/>
<path d="M102.027 171.366C101.701 171.311 101.396 171.17 101.143 170.959C100.846 170.759 100.576 170.523 100.338 170.256C100.196 170.098 100.066 169.93 99.9492 169.752C99.8717 169.653 99.812 169.541 99.7724 169.421C99.7423 169.334 99.7425 169.239 99.773 169.153C99.8036 169.066 99.8625 168.992 99.9403 168.943C100.011 168.902 100.09 168.878 100.171 168.872C100.252 168.867 100.334 168.881 100.409 168.912C100.522 168.964 100.628 169.031 100.723 169.111C100.893 169.245 101.051 169.393 101.196 169.553C101.435 169.825 101.631 170.132 101.775 170.464C101.94 170.755 102.01 171.09 101.974 171.423C101.92 171.423 101.841 171.069 101.562 170.566C101.402 170.272 101.203 170.001 100.97 169.761C100.832 169.621 100.684 169.491 100.528 169.372C100.36 169.24 100.201 169.164 100.117 169.231C100.033 169.297 100.077 169.266 100.091 169.337C100.121 169.424 100.164 169.506 100.219 169.58C100.327 169.746 100.444 169.907 100.568 170.062C100.785 170.321 101.025 170.561 101.284 170.778C101.722 171.145 102.049 171.317 102.027 171.366Z" fill="#263238"/>
<path d="M101.849 171.437C101.794 171.108 101.847 170.77 101.999 170.473C102.132 170.135 102.322 169.823 102.561 169.549C102.702 169.387 102.859 169.239 103.029 169.107C103.131 169.012 103.255 168.943 103.391 168.909C103.526 168.875 103.668 168.877 103.803 168.913C103.88 168.952 103.945 169.011 103.991 169.084C104.037 169.157 104.062 169.242 104.064 169.328C104.062 169.454 104.043 169.579 104.006 169.7C103.949 169.912 103.859 170.115 103.741 170.301C103.539 170.611 103.266 170.868 102.945 171.052C102.808 171.15 102.652 171.218 102.487 171.255C102.322 171.291 102.152 171.295 101.986 171.264C102.272 171.143 102.551 171.005 102.822 170.853C103.089 170.664 103.314 170.42 103.48 170.137C103.574 169.974 103.645 169.798 103.692 169.616C103.75 169.417 103.745 169.231 103.666 169.218C103.586 169.211 103.505 169.221 103.429 169.247C103.353 169.272 103.283 169.314 103.224 169.368C103.066 169.483 102.918 169.612 102.782 169.753C102.555 169.996 102.363 170.27 102.212 170.566C101.955 171.079 101.902 171.468 101.849 171.437Z" fill="#263238"/>
<path d="M84.2865 128.364L109.109 116.218C111.237 115.175 113.644 114.848 115.972 115.283C118.301 115.719 120.427 116.895 122.033 118.635C123.534 120.262 124.509 122.304 124.832 124.493C125.154 126.683 124.809 128.919 123.841 130.91L107.372 164.776L93.5951 160.418L105.71 134.605L92.079 144.992C88.3981 147.794 83.909 149.329 79.2831 149.368L75.7117 149.399C72.7712 149.276 69.9118 148.399 67.4089 146.85C64.9061 145.302 62.8442 143.135 61.4219 140.559L84.2865 128.364Z" fill="#263238"/>
<path d="M107.368 164.766C107.368 164.766 107.28 164.766 107.112 164.7L106.382 164.483L103.602 163.635L93.5599 160.51L93.4626 160.479L93.5068 160.382C95.9378 155.184 98.97 148.708 102.245 141.703C103.408 139.236 104.535 136.841 105.604 134.56L105.772 134.697C99.5225 139.356 93.9267 143.223 89.7985 145.769C88.1953 146.788 86.5269 147.701 84.8039 148.501C84.3378 148.711 83.8523 148.876 83.3541 148.991C83.2249 149.021 83.0932 149.039 82.9607 149.044H82.8281C82.8281 149.044 83.0093 149.044 83.3453 148.947C83.8354 148.815 84.3131 148.64 84.7729 148.425C86.4784 147.599 88.1317 146.669 89.7233 145.641C93.8251 143.064 99.3987 139.174 105.635 134.516L105.998 134.246L105.808 134.653C104.738 136.929 103.598 139.329 102.457 141.795C99.1644 148.797 96.1191 155.263 93.6748 160.457L93.6173 160.329L103.633 163.529L106.4 164.413L107.12 164.656L107.368 164.766Z" fill="#455A64"/>
<path d="M110.376 129C109.32 129.693 108.359 130.52 107.516 131.462C106.735 132.455 106.088 133.548 105.594 134.711C105.647 134.338 105.757 133.976 105.921 133.637C106.635 131.949 107.837 130.513 109.373 129.513C109.678 129.29 110.017 129.117 110.376 129Z" fill="#455A64"/>
<path d="M57.7509 176.922H93.4556C93.6938 176.921 93.9231 177.012 94.0947 177.177C94.2664 177.342 94.3669 177.568 94.375 177.806C94.3779 177.929 94.3564 178.051 94.3115 178.165C94.2667 178.28 94.1995 178.384 94.1139 178.472C94.0283 178.56 93.926 178.63 93.813 178.678C93.6999 178.726 93.5785 178.751 93.4556 178.752H57.7509C57.5078 178.751 57.2751 178.653 57.1036 178.481C56.9322 178.309 56.8359 178.075 56.8359 177.832C56.8371 177.591 56.934 177.359 57.1055 177.188C57.2769 177.018 57.509 176.922 57.7509 176.922Z" fill="#E0E0E0"/>
<path d="M88.7581 154.189H60.8281C60.8281 153.479 60.9681 152.775 61.2399 152.119C61.5118 151.463 61.9103 150.866 62.4127 150.364C62.9151 149.861 63.5115 149.463 64.1679 149.191C64.8242 148.919 65.5277 148.779 66.2382 148.779H83.3436C84.0544 148.779 84.7584 148.918 85.4153 149.19C86.0722 149.461 86.6691 149.86 87.172 150.362C87.6748 150.865 88.0737 151.461 88.3459 152.118C88.618 152.775 88.7581 153.479 88.7581 154.189Z" fill="#455A64"/>
<path d="M89.6356 154.189H60.1719V155.829H89.6356V154.189Z" fill="#E0E0E0"/>
<path d="M62.7983 155.834L55.5938 226.846H57.291L66.0824 155.834H62.7983Z" fill="#E0E0E0"/>
<path d="M86.7953 155.834L93.9954 226.81L92.3026 226.819L83.5156 155.861L86.7953 155.834Z" fill="#E0E0E0"/>
<path d="M76.7597 155.206L75.5442 226.841H73.8071L73.0469 155.012L76.7597 155.206Z" fill="#E0E0E0"/>
<path d="M76.1953 77.3519L77.9456 72.0391L89.4951 77.3828L88.9647 83.0051L83.2099 84.6405L77.5611 81.1796L76.1953 77.3519Z" fill="#377DFF"/>
<path d="M61.4391 140.572C60.9261 140.209 60.5103 139.725 60.2282 139.163C59.9461 138.601 59.8064 137.979 59.8214 137.35C59.8214 135.22 61.722 135.043 61.7839 133.863C62.4159 121.686 63.795 96.4606 64.7055 88.5002C65.8503 78.4668 77.6075 76.3496 77.6075 76.3496L87.3094 78.732V79.4657C90.6686 83.7841 92.1228 90.2947 92.1272 95.7667L91.6852 124.753L61.4391 140.572Z" fill="#377DFF"/>
<path d="M72.3263 124.336C72.2211 124.512 72.0998 124.678 71.9639 124.831C71.7252 125.14 71.3583 125.578 70.8986 126.108C69.9793 127.174 68.6577 128.601 67.1019 130.086C65.546 131.571 64.0609 132.827 62.9559 133.693C62.399 134.135 61.9481 134.471 61.6299 134.701C61.4715 134.831 61.2996 134.943 61.1172 135.037C61.2505 134.887 61.3986 134.751 61.5592 134.63L62.8366 133.569C63.915 132.685 65.3825 131.399 66.9295 129.918C68.4765 128.438 69.8157 127.037 70.766 126.002L71.8843 124.769C72.016 124.61 72.1642 124.464 72.3263 124.336Z" fill="#263238"/>
<g opacity="0.2">
<path d="M62.7656 133.823C62.801 131.988 64.1756 130.477 65.537 129.244C67.1278 127.798 68.8206 126.468 70.6023 125.266C70.6907 126.15 70.0807 126.958 69.4884 127.639C67.4975 129.913 65.2953 131.992 62.9115 133.849" fill="black"/>
</g>
<path d="M79.75 76.4734C79.7928 75.9444 79.9135 75.4246 80.108 74.9308C80.2273 74.415 80.4209 73.9192 80.6826 73.459C80.6398 73.988 80.5191 74.5078 80.3246 75.0016C80.203 75.5167 80.0095 76.0122 79.75 76.4734Z" fill="#263238"/>
<path d="M84.2544 74.9648C84.2539 75.485 84.1749 76.002 84.0201 76.4986C83.9454 77.011 83.7965 77.5098 83.5781 77.9793C83.5789 77.4592 83.6579 76.9422 83.8124 76.4455C83.8871 75.9332 84.036 75.4344 84.2544 74.9648Z" fill="#263238"/>
<path d="M87.6165 76.6406C87.6307 77.1078 87.5907 77.575 87.4972 78.0329C87.4822 78.5018 87.414 78.9674 87.2938 79.4208C87.1937 78.9546 87.1937 78.4726 87.2938 78.0064C87.306 77.5338 87.4158 77.0687 87.6165 76.6406Z" fill="#263238"/>
<path d="M75.9532 105.009C75.7933 105.041 75.6299 105.053 75.467 105.044C75.1488 105.044 74.6935 105.044 74.141 105.044C73.0139 105.044 71.4581 105.044 69.721 104.995C67.9839 104.947 66.4414 104.92 65.301 104.876C64.7352 104.876 64.28 104.836 63.975 104.814C63.8098 104.818 63.6449 104.8 63.4844 104.761C63.6462 104.732 63.8107 104.721 63.975 104.726C64.2932 104.726 64.7485 104.726 65.301 104.726C66.4281 104.726 67.9839 104.726 69.721 104.774C71.4581 104.823 73.0006 104.845 74.141 104.889L75.467 104.951C75.6309 104.948 75.7945 104.968 75.9532 105.009Z" fill="#FAFAFA"/>
<path d="M73.4857 101.3C73.4857 101.366 71.2757 101.366 68.5353 101.3C65.7949 101.234 63.5938 101.145 63.5938 101.079C63.5938 101.013 65.8038 101.013 68.5397 101.079C71.2757 101.145 73.4857 101.238 73.4857 101.3Z" fill="#FAFAFA"/>
<g opacity="0.2">
<path d="M69.2812 95.584C72.8172 103.284 77.14 110.197 82.1655 117.012C83.4606 118.78 84.8485 120.548 86.7181 121.649C88.5878 122.749 89.8121 122.458 91.6995 121.33C89.6088 120.663 89.0475 120.446 87.2795 119.169C85.5556 117.823 84.0511 116.217 82.8197 114.409C78.3997 108.327 74.0858 102.064 69.657 95.9818" fill="black"/>
</g>
<path d="M106.047 106.533C106.095 106.022 106.234 105.523 106.458 105.061C106.571 104.83 106.744 104.633 106.958 104.49C107.173 104.347 107.421 104.264 107.678 104.248C107.805 104.247 107.93 104.273 108.046 104.325C108.162 104.376 108.265 104.452 108.349 104.548C108.433 104.643 108.495 104.755 108.532 104.876C108.569 104.998 108.579 105.126 108.562 105.251C108.451 105.533 108.284 105.789 108.071 106.003C107.51 106.772 107.563 107.811 107.567 108.761C107.572 109.711 107.452 110.799 106.683 111.369" fill="#FFBE9D"/>
<path d="M70.9761 84.3441C70.0901 84.9632 69.3382 85.7549 68.7656 86.6717C68.193 87.5884 67.8115 88.6114 67.6439 89.6792C67.4764 90.7471 67.5262 91.8377 67.7904 92.8858C68.0546 93.9339 68.5278 94.9179 69.1816 95.7786L85.3323 117.048C87.0341 119.261 89.4489 120.819 92.1676 121.456C94.8862 122.093 97.7415 121.771 100.25 120.544C102.383 119.498 104.161 117.848 105.364 115.799C106.566 113.75 107.14 111.393 107.012 109.021L103.454 86.6558L94.7645 87.195L95.5867 105.41L82.141 86.3022C80.9174 84.5654 79.0555 83.3842 76.963 83.0172C74.8704 82.6503 72.7177 83.1274 70.9761 84.3441Z" fill="#377DFF"/>
<path d="M105.792 115.363C103.653 114.864 103.291 114.479 101.156 113.997C100.519 113.847 99.7017 113.436 99.9846 112.76C100.063 112.588 100.193 112.445 100.356 112.35C100.519 112.255 100.707 112.213 100.895 112.229C101.726 112.3 103.065 112.795 103.87 112.87C104.069 112.87 104.064 112.689 103.976 112.552C102.675 112.16 101.345 111.873 99.9979 111.695C99.8082 111.669 99.63 111.589 99.4854 111.464C99.3407 111.338 99.2359 111.173 99.1837 110.989C99.1316 110.805 99.1344 110.61 99.1919 110.427C99.2494 110.245 99.359 110.083 99.5073 109.962C99.6849 109.871 99.8785 109.815 100.077 109.798C100.935 109.922 100.935 109.922 101.845 110.081C104.405 110.523 104.055 110.019 104.055 110.019C104.055 109.825 101.143 109.542 99.6354 109.361C99.309 109.364 98.9935 109.244 98.7514 109.025C98.6435 108.863 98.5947 108.668 98.6132 108.474C98.6317 108.28 98.7164 108.099 98.8531 107.96C98.982 107.81 99.1394 107.687 99.3162 107.598C99.4929 107.509 99.6856 107.456 99.883 107.443C101.549 107.412 107.021 108.022 107.021 108.022C107.021 108.022 107.737 108.994 107.516 110.987C107.291 113.171 105.792 115.363 105.792 115.363Z" fill="#FFBE9D"/>
<path d="M98.0459 121.331C98.0459 121.331 97.9664 121.331 97.8161 121.366L97.1354 121.437C96.5343 121.49 95.6503 121.574 94.4834 121.587C93.0883 121.623 91.6968 121.431 90.364 121.017C88.622 120.365 87.0621 119.304 85.8158 117.923C84.3001 116.288 82.8762 114.571 81.5505 112.778C80.0963 110.864 78.5758 108.8 76.9935 106.612C75.4111 104.424 73.7757 102.113 72.0917 99.7039L69.5413 96.022C69.3248 95.7082 69.0993 95.3944 68.896 95.0762L68.5866 94.5855C68.4826 94.421 68.3896 94.2497 68.3082 94.0728C67.9556 93.3695 67.7112 92.617 67.5833 91.8407C67.4472 91.0654 67.4323 90.2736 67.5391 89.4937C67.5884 89.1078 67.6622 88.7254 67.7601 88.3489C67.8687 87.9787 68.0001 87.6156 68.1535 87.2616C68.3072 86.9112 68.4844 86.5716 68.6839 86.245C68.8877 85.9232 69.1136 85.616 69.3601 85.3256C69.8412 84.748 70.4023 84.2419 71.0265 83.8228C71.6413 83.4126 72.3069 83.0842 73.0066 82.846C73.6967 82.6244 74.4131 82.4951 75.1371 82.4615C76.5449 82.3974 77.9451 82.7022 79.199 83.3455C80.385 83.9645 81.4028 84.8625 82.1649 85.9621C82.8956 87.0111 83.6014 88.0307 84.282 89.0208L88.0832 94.5104L93.5729 102.466L95.058 104.637C95.2215 104.88 95.3453 105.079 95.4381 105.202L95.5619 105.401C95.51 105.342 95.4613 105.28 95.416 105.216L95.0182 104.663L93.5243 102.515L87.9551 94.6076L84.1318 89.1313L82.0013 86.0815C81.2557 85.0129 80.2623 84.1409 79.1062 83.54C77.2357 82.6012 75.0693 82.4422 73.0818 83.098C72.4022 83.3316 71.7559 83.6526 71.1591 84.0527C70.5499 84.4569 70.0033 84.9483 69.5369 85.5113C69.2991 85.7908 69.0806 86.0862 68.8828 86.3953C68.6884 86.7126 68.517 87.0435 68.37 87.3854C68.2177 87.7282 68.0892 88.0812 67.9855 88.4417C67.8887 88.8078 67.8164 89.1799 67.7689 89.5556C67.5823 91.0707 67.8435 92.6073 68.5203 93.9756C68.8783 94.6441 69.283 95.2866 69.7314 95.8983L72.2817 99.5846C73.9613 101.993 75.5967 104.305 77.1703 106.493C78.7438 108.681 80.2643 110.754 81.7052 112.681C83.0226 114.473 84.4361 116.192 85.9395 117.83C87.1624 119.202 88.6942 120.262 90.4082 120.924C91.7269 121.343 93.1045 121.546 94.4878 121.525C95.6282 121.525 96.5122 121.455 97.1133 121.415L97.794 121.371C97.9664 121.331 98.0459 121.331 98.0459 121.331Z" fill="#263238"/>
<path d="M96.5123 112.084C97.0679 109.697 96.6681 107.188 95.3984 105.092C95.655 105.349 95.8658 105.648 96.0217 105.976C96.4446 106.744 96.7303 107.58 96.8659 108.447C97.0039 109.311 96.992 110.194 96.8305 111.054C96.7834 111.413 96.6758 111.761 96.5123 112.084Z" fill="#263238"/>
<path d="M96.7283 89.5686C96.5219 89.205 96.4152 88.7934 96.4189 88.3752C96.3467 87.9634 96.3832 87.5398 96.525 87.1465C96.6111 87.5443 96.6526 87.9505 96.6488 88.3576C96.7209 88.757 96.7476 89.1632 96.7283 89.5686Z" fill="#263238"/>
<path d="M99.1229 89.3482C98.7512 88.6157 98.642 87.7779 98.8135 86.9746C98.9181 87.3613 98.9774 87.7588 98.9903 88.1592C99.079 88.5493 99.1234 88.9481 99.1229 89.3482Z" fill="#263238"/>
<path d="M101.495 88.8135C101.362 88.5073 101.305 88.174 101.327 87.8411C101.272 87.5122 101.293 87.175 101.389 86.8555C101.518 87.1624 101.576 87.4951 101.557 87.8279C101.609 88.157 101.588 88.4936 101.495 88.8135Z" fill="#263238"/>
<path d="M86.8608 93.7589C86.8962 93.8075 84.1558 95.77 80.7391 98.1391C77.3224 100.508 74.5246 102.387 74.4848 102.334C74.445 102.281 77.1898 100.318 80.6065 97.9491C84.0232 95.5799 86.8254 93.7059 86.8608 93.7589Z" fill="#FAFAFA"/>
<path d="M84.7265 90.5508C84.5789 90.6905 84.4175 90.8149 84.2448 90.9221L82.8967 91.8679C81.7519 92.6635 80.1828 93.7774 78.4767 95.0371C76.7705 96.2968 75.2501 97.4813 74.1539 98.3388C73.6323 98.7499 73.1992 99.0902 72.8544 99.3554C72.7022 99.4903 72.5363 99.6088 72.3594 99.709C72.4904 99.5462 72.6386 99.398 72.8014 99.267C73.0931 99.0062 73.5218 98.6394 74.0567 98.193C75.1263 97.309 76.6335 96.0979 78.3441 94.8338C80.0546 93.5696 81.6414 92.4735 82.8083 91.7088C83.3917 91.3287 83.8646 91.0237 84.2006 90.8248C84.3664 90.7163 84.5426 90.6245 84.7265 90.5508Z" fill="#FAFAFA"/>
<path d="M190.855 201.369H160.781V205.502H190.855V201.369Z" fill="#263238"/>
<path d="M190.91 205.551H160.734V201.316H190.91V205.551ZM160.854 205.449H190.826V201.418H160.836L160.854 205.449Z" fill="#263238"/>
<path d="M163.57 204.123L167.902 225.48H183.92L188.101 205.502L163.57 204.123Z" fill="#263238"/>
<path d="M163.57 223.459L165.882 226.633H185.352L188.101 223.459H163.57Z" fill="#455A64"/>
<path d="M174.698 204.751C174.641 204.751 174.565 194.854 174.53 182.651C174.495 170.447 174.53 160.551 174.574 160.551C174.618 160.551 174.711 170.443 174.742 182.651C174.773 194.859 174.76 204.746 174.698 204.751Z" fill="#263238"/>
<path d="M181.395 179.988C181.375 180.067 181.348 180.144 181.315 180.218L181.046 180.859C180.984 181 180.917 181.151 180.847 181.301L180.648 181.862C180.577 182.066 180.497 182.282 180.418 182.508C180.338 182.733 180.272 182.985 180.192 183.241C179.836 184.45 179.556 185.68 179.353 186.923C179.126 188.45 178.978 189.987 178.911 191.529C178.802 194.33 178.88 197.136 179.145 199.927C179.242 201.001 179.339 201.867 179.415 202.468C179.445 202.747 179.468 202.977 179.49 203.158C179.5 203.239 179.5 203.32 179.49 203.401C179.467 203.324 179.449 203.246 179.437 203.167C179.406 202.986 179.37 202.756 179.322 202.477C179.224 201.881 179.105 201.014 178.986 199.94C178.673 197.141 178.573 194.321 178.685 191.507C178.763 189.956 178.925 188.412 179.171 186.879C179.382 185.629 179.678 184.394 180.055 183.184C180.139 182.928 180.206 182.68 180.294 182.45C180.383 182.22 180.462 182.008 180.542 181.809L180.758 181.248C180.833 181.08 180.909 180.93 180.975 180.806L181.28 180.183C181.31 180.113 181.348 180.048 181.395 179.988Z" fill="#263238"/>
<path d="M180.624 171.984C180.6 172.096 180.567 172.205 180.527 172.311L180.213 173.231C180.147 173.434 180.067 173.673 179.983 173.894C179.899 174.115 179.829 174.407 179.745 174.694C179.568 175.268 179.364 175.918 179.183 176.647L178.878 177.792C178.79 178.194 178.697 178.61 178.6 179.043C178.388 179.905 178.237 180.842 178.043 181.819C177.711 183.781 177.42 185.956 177.216 188.246C177.013 190.535 176.947 192.732 176.916 194.725C176.885 196.719 176.916 198.513 177.017 200.029C177.044 200.785 177.093 201.466 177.132 202.062C177.172 202.659 177.203 203.176 177.243 203.596C177.283 204.016 177.296 204.321 177.314 204.564C177.325 204.677 177.325 204.791 177.314 204.905C177.285 204.795 177.267 204.682 177.261 204.569C177.23 204.33 177.194 204.007 177.146 203.605C177.097 203.203 177.044 202.668 177 202.071C176.956 201.475 176.889 200.794 176.854 200.038C176.752 198.531 176.712 196.732 176.704 194.734C176.695 192.736 176.801 190.535 176.991 188.237C177.181 185.938 177.49 183.759 177.835 181.792C178.034 180.811 178.193 179.874 178.41 179.012C178.511 178.57 178.613 178.164 178.706 177.761L179.024 176.617C179.214 175.887 179.426 175.237 179.616 174.667C179.709 174.384 179.793 174.119 179.873 173.872L180.125 173.213L180.474 172.307C180.515 172.195 180.565 172.087 180.624 171.984Z" fill="#263238"/>
<path d="M172.79 206.5C172.785 206.46 172.785 206.42 172.79 206.38C172.79 206.292 172.79 206.182 172.759 206.04C172.759 205.726 172.71 205.289 172.67 204.714C172.6 203.561 172.498 201.916 172.37 199.896C172.109 195.826 171.733 190.203 171.044 184.024C170.695 180.93 170.288 178 169.868 175.339C169.643 174.013 169.426 172.744 169.21 171.569C168.993 170.393 168.768 169.297 168.56 168.302C168.352 167.308 168.14 166.406 167.963 165.615C167.786 164.824 167.618 164.147 167.481 163.595L167.168 162.322C167.137 162.185 167.11 162.074 167.092 161.99C167.082 161.951 167.075 161.911 167.07 161.871C167.088 161.906 167.103 161.943 167.115 161.982C167.137 162.07 167.168 162.176 167.207 162.309L167.561 163.577C167.716 164.125 167.892 164.802 168.078 165.588C168.264 166.375 168.498 167.268 168.706 168.267C168.913 169.266 169.148 170.357 169.382 171.538C169.616 172.718 169.824 173.977 170.063 175.308C170.505 177.96 170.907 180.908 171.256 184.002C171.941 190.19 172.295 195.812 172.516 199.888C172.626 201.921 172.706 203.569 172.75 204.71C172.772 205.267 172.79 205.704 172.799 206.036V206.376C172.801 206.418 172.798 206.459 172.79 206.5Z" fill="#263238"/>
<path d="M174.446 165.311C174.314 163.91 172.899 162.849 171.489 162.836C170.784 162.868 170.095 163.059 169.475 163.396C168.855 163.733 168.319 164.207 167.909 164.781C167.098 165.937 166.513 167.235 166.185 168.608C165.235 171.91 164.718 175.38 165.124 178.774C165.531 182.169 166.914 185.541 169.363 187.955C169.761 188.344 170.274 188.737 170.822 188.622C171.115 188.533 171.38 188.368 171.591 188.145C173.99 185.955 175.893 183.277 177.173 180.291C178.452 177.305 179.078 174.08 179.008 170.832C178.972 169.537 178.8 168.18 178.084 167.106C177.368 166.032 175.688 164.896 174.468 165.311" fill="#377DFF"/>
<path d="M163.93 154.083L161.95 157.672C161.901 157.756 161.844 157.849 161.746 157.857C161.649 157.866 161.565 157.769 161.508 157.681L156.266 149.636L157.472 148.951L163.93 154.083Z" fill="#377DFF"/>
<g opacity="0.2">
<path d="M163.93 154.083L161.95 157.672C161.901 157.756 161.844 157.849 161.746 157.857C161.649 157.866 161.565 157.769 161.508 157.681L156.266 149.636L157.472 148.951L163.93 154.083Z" fill="black"/>
</g>
<path d="M174.592 160.554L156.691 150.004C156.493 149.918 156.335 149.76 156.249 149.562C156.178 149.297 156.377 149.045 156.567 148.846C157.797 147.57 159.287 146.574 160.936 145.927C162.585 145.279 164.354 144.995 166.123 145.093C167.891 145.22 169.601 145.775 171.105 146.711C172.61 147.647 173.865 148.935 174.76 150.464C176.488 153.558 176.528 157.624 174.565 160.554" fill="#377DFF"/>
<path d="M159.266 146.636C159.342 146.615 159.421 146.605 159.5 146.605C159.655 146.605 159.88 146.57 160.176 146.574C161.007 146.56 161.837 146.626 162.656 146.769C165.383 147.228 167.921 148.458 169.971 150.314C172.022 152.169 173.498 154.572 174.227 157.239C174.452 158.041 174.6 158.863 174.669 159.693C174.689 159.864 174.699 160.037 174.7 160.21C174.684 160.35 174.636 160.485 174.559 160.603C174.614 160.312 174.625 160.014 174.59 159.719C174.486 158.901 174.316 158.092 174.081 157.301C173.334 154.675 171.865 152.311 169.84 150.479C167.815 148.646 165.317 147.419 162.629 146.936C161.818 146.783 160.997 146.694 160.172 146.671C159.588 146.645 159.266 146.654 159.266 146.636Z" fill="#263238"/>
<path d="M172.152 153.27C171.874 153.44 171.578 153.578 171.268 153.681C170.698 153.906 169.902 154.193 169.01 154.476C168.117 154.759 167.303 154.985 166.711 155.13C166.393 155.226 166.066 155.289 165.734 155.316C166.034 155.172 166.348 155.059 166.671 154.98L168.948 154.273L171.215 153.539C171.518 153.419 171.832 153.328 172.152 153.27Z" fill="#263238"/>
<path d="M169.334 145.707C169.581 147.019 169.615 148.362 169.436 149.685C169.35 149.023 169.316 148.355 169.334 147.687C169.284 147.028 169.284 146.366 169.334 145.707Z" fill="#263238"/>
<path d="M156.531 149.81C156.952 149.627 157.386 149.48 157.831 149.368C158.644 149.116 159.776 148.802 161.035 148.484C162.295 148.166 163.449 147.945 164.288 147.799C164.736 147.7 165.192 147.638 165.65 147.613C165.217 147.759 164.774 147.871 164.324 147.949C163.497 148.13 162.352 148.391 161.097 148.692C159.842 148.992 158.701 149.288 157.884 149.501C157.441 149.638 156.989 149.741 156.531 149.81Z" fill="#263238"/>
<path d="M167.028 162.269C165.49 161.102 163.863 160.873 161.932 160.943C160.002 161.073 158.113 161.561 156.363 162.384C153.344 163.71 150.511 165.651 148.712 168.404C146.913 171.158 146.303 174.809 147.629 177.814C147.734 178.129 147.953 178.392 148.243 178.553C148.577 178.649 148.935 178.622 149.251 178.477C152.681 177.359 156.133 176.228 159.284 174.477C162.436 172.727 165.309 170.292 167.002 167.105C167.438 166.353 167.715 165.52 167.815 164.656C167.862 164.225 167.816 163.789 167.68 163.377C167.544 162.966 167.322 162.588 167.028 162.269Z" fill="#377DFF"/>
<path d="M167.071 161.906C166.995 161.95 166.913 161.984 166.828 162.008L166.108 162.251L165.586 162.428C165.4 162.494 165.197 162.578 164.981 162.662C164.539 162.839 164.043 163.016 163.513 163.272L162.669 163.657C162.382 163.789 162.09 163.953 161.785 164.099C161.162 164.404 160.534 164.793 159.867 165.19C156.99 166.97 154.432 169.22 152.3 171.847C151.822 172.461 151.354 173.031 150.974 173.615C150.779 173.902 150.576 174.167 150.408 174.441C150.24 174.715 150.076 174.976 149.917 175.224C149.594 175.719 149.356 176.196 149.13 176.603C149.015 176.81 148.909 177.001 148.817 177.177L148.578 177.672L148.242 178.353C148.208 178.435 148.164 178.513 148.109 178.583C148.134 178.498 148.165 178.415 148.202 178.335L148.503 177.637L148.724 177.133C148.812 176.952 148.914 176.757 149.024 176.55C149.241 176.134 149.466 175.666 149.789 175.149C149.939 174.892 150.103 174.627 150.266 174.353C150.43 174.079 150.633 173.805 150.828 173.513C151.203 172.93 151.667 172.346 152.154 171.745C153.233 170.428 154.416 169.198 155.69 168.068C156.972 166.953 158.342 165.943 159.787 165.049C160.463 164.655 161.113 164.267 161.727 163.966C162.041 163.811 162.337 163.652 162.611 163.524L163.464 163.153C164.004 162.901 164.512 162.733 164.95 162.569C165.171 162.49 165.392 162.41 165.568 162.348L166.094 162.194L166.828 161.981C166.906 161.947 166.988 161.922 167.071 161.906Z" fill="#263238"/>
<path d="M155.041 168.414C153.817 168.884 152.569 169.285 151.301 169.616C150.053 170.017 148.784 170.352 147.5 170.62C148.723 170.149 149.972 169.747 151.239 169.413C152.487 169.011 153.756 168.677 155.041 168.414Z" fill="#263238"/>
<path d="M154.89 176.664C154.82 176.281 154.792 175.891 154.806 175.502C154.784 174.782 154.784 173.783 154.806 172.682C154.828 171.581 154.894 170.591 154.956 169.871C154.964 169.481 155.013 169.093 155.102 168.713C155.137 169.101 155.137 169.492 155.102 169.88C155.075 170.671 155.049 171.648 155.013 172.691C154.978 173.734 154.965 174.711 154.943 175.502C154.956 175.89 154.939 176.279 154.89 176.664Z" fill="#263238"/>
<path d="M161.955 173.062C161.897 173.062 161.707 171.043 161.535 168.545C161.363 166.048 161.27 164.01 161.332 164.006C161.394 164.001 161.579 166.026 161.752 168.528C161.924 171.029 162.017 173.058 161.955 173.062Z" fill="#263238"/>
<path d="M153.156 163.811C153.554 163.763 153.955 163.752 154.354 163.776C155.092 163.776 156.122 163.803 157.24 163.838C158.359 163.873 159.388 163.922 160.127 163.966C160.527 163.968 160.927 164.006 161.32 164.081C160.923 164.129 160.522 164.141 160.122 164.116C159.384 164.116 158.354 164.09 157.236 164.054C156.118 164.019 155.088 163.97 154.35 163.926C153.949 163.924 153.55 163.886 153.156 163.811Z" fill="#263238"/>
<path d="M170.126 188.441C170.108 188.362 170.1 188.282 170.099 188.202C170.099 188.021 170.099 187.795 170.068 187.512C170.042 186.916 170.038 186.049 170.068 184.98C170.099 183.91 170.161 182.642 170.289 181.232C170.418 179.822 170.63 178.279 170.917 176.67C171.204 175.061 171.571 173.545 171.934 172.179C172.296 170.814 172.694 169.594 173.052 168.582C173.41 167.569 173.719 166.761 173.936 166.212L174.21 165.576C174.238 165.5 174.273 165.428 174.316 165.359C174.304 165.44 174.282 165.519 174.25 165.594C174.188 165.762 174.108 165.974 174.016 166.239C173.803 166.8 173.516 167.618 173.176 168.63C172.835 169.642 172.473 170.862 172.11 172.228C171.748 173.594 171.408 175.105 171.112 176.71C170.815 178.314 170.608 179.866 170.475 181.249C170.343 182.633 170.25 183.901 170.21 184.989C170.17 186.076 170.166 186.938 170.166 187.512C170.166 187.791 170.166 188.021 170.166 188.202C170.163 188.283 170.15 188.363 170.126 188.441Z" fill="#263238"/>
<path d="M171.077 176.732C170.867 177.019 170.627 177.283 170.361 177.519C169.897 177.961 169.243 178.598 168.492 179.256C167.74 179.915 167.042 180.481 166.525 180.883C166.254 181.117 165.958 181.319 165.641 181.484C165.877 181.222 166.136 180.98 166.414 180.763L168.337 179.093L170.246 177.409C170.502 177.158 170.78 176.932 171.077 176.732Z" fill="#263238"/>
<path d="M176.74 181.293C176.458 180.964 176.204 180.612 175.979 180.241C175.493 179.525 174.883 178.641 174.211 177.66L172.408 175.11C172.139 174.77 171.898 174.409 171.688 174.031C171.998 174.334 172.28 174.664 172.532 175.017C173.027 175.649 173.69 176.537 174.388 177.541C175.086 178.544 175.688 179.477 176.108 180.157C176.354 180.515 176.566 180.895 176.74 181.293Z" fill="#263238"/>
<path d="M173.763 166.955C173.794 167.003 171.916 168.281 169.564 169.783C167.213 171.286 165.281 172.48 165.25 172.435C165.219 172.391 167.098 171.109 169.449 169.611C171.801 168.113 173.732 166.906 173.763 166.955Z" fill="#263238"/>
<path d="M179.07 172.678C177.124 170.979 175.275 169.172 173.531 167.268C175.476 168.967 177.325 170.773 179.07 172.678Z" fill="#263238"/>
<path d="M180.406 172.563L182.02 172.426C183.166 172.333 184.278 171.993 185.282 171.432C185.77 171.144 186.276 170.889 186.798 170.667C188.795 169.867 191.019 170.008 193.167 169.902C196.692 169.727 200.145 168.846 203.324 167.312C203.509 167.227 203.664 167.086 203.766 166.91C204.102 166.305 203.483 165.77 202.953 165.443C200.234 163.767 197.467 162.07 194.382 161.239C191.297 160.408 187.801 160.545 185.171 162.357C182.077 164.483 180.954 168.85 180.433 172.563" fill="#377DFF"/>
<path d="M203.759 166.711C203.663 166.68 203.571 166.637 203.485 166.583L202.721 166.185C202.058 165.836 201.103 165.301 199.896 164.74C198.489 164.053 197.025 163.489 195.521 163.056C193.68 162.535 191.754 162.384 189.854 162.614C187.95 162.825 186.151 163.594 184.683 164.824C183.539 165.888 182.625 167.174 181.995 168.603C181.554 169.563 181.163 170.546 180.824 171.547L180.537 172.36C180.51 172.457 180.472 172.551 180.422 172.638C180.439 172.539 180.464 172.442 180.497 172.347C180.559 172.139 180.643 171.865 180.745 171.52C181.056 170.506 181.428 169.511 181.858 168.541C182.477 167.079 183.395 165.763 184.555 164.678C186.043 163.407 187.878 162.612 189.823 162.393C191.751 162.165 193.706 162.329 195.569 162.875C197.083 163.318 198.552 163.901 199.958 164.616C201.161 165.213 202.102 165.748 202.756 166.119L203.503 166.561C203.592 166.604 203.678 166.654 203.759 166.711Z" fill="#263238"/>
<path d="M199.903 168.815C199.867 168.863 197.759 167.489 195.187 165.765C192.614 164.041 190.559 162.587 190.594 162.538C190.63 162.49 192.738 163.864 195.306 165.588C197.874 167.312 199.934 168.744 199.903 168.815Z" fill="#263238"/>
<path d="M197.65 162.407C197.156 162.579 196.639 162.673 196.116 162.685C195.595 162.757 195.066 162.75 194.547 162.663C195.059 162.569 195.578 162.515 196.098 162.504C196.612 162.434 197.131 162.402 197.65 162.407Z" fill="#263238"/>
<path d="M188.406 161.205C188.232 161.598 187.998 161.962 187.712 162.284C187.465 162.656 187.168 162.992 186.828 163.282C186.999 162.886 187.234 162.521 187.522 162.2C187.765 161.825 188.063 161.49 188.406 161.205Z" fill="#263238"/>
<path d="M190.302 170.04C189.945 169.89 189.605 169.705 189.285 169.487C188.675 169.116 187.853 168.577 186.969 167.936C186.085 167.295 185.316 166.689 184.759 166.247C184.441 166.026 184.144 165.775 183.875 165.496C184.216 165.677 184.54 165.888 184.843 166.128L187.093 167.764C187.977 168.4 188.777 168.957 189.365 169.359C189.695 169.561 190.008 169.788 190.302 170.04Z" fill="#263238"/>
<path d="M182.778 179.424C181.24 179.017 179.401 180.515 179.088 182.076C178.774 183.636 179.353 185.231 180.038 186.668C181.503 189.889 183.679 192.736 186.403 194.995C189.147 197.253 192.574 198.516 196.127 198.58C195.473 195.557 196.299 192.392 195.932 189.329C195.612 186.623 194.384 184.106 192.448 182.189C190.513 180.272 187.984 179.068 185.276 178.774C184.294 178.668 183.158 178.517 182.765 179.424" fill="#377DFF"/>
<path d="M196.143 198.575C196.066 198.548 195.992 198.514 195.922 198.474C195.719 198.361 195.527 198.231 195.347 198.085C194.701 197.525 194.183 196.833 193.827 196.056C193.579 195.579 193.305 195.061 193.04 194.487L192.209 192.657C191.912 191.983 191.573 191.329 191.193 190.699C190.775 190.029 190.307 189.392 189.791 188.794C188.739 187.556 187.608 186.487 186.627 185.461C185.739 184.568 184.932 183.6 184.213 182.566C183.73 181.864 183.334 181.105 183.033 180.307C182.936 180.02 182.865 179.799 182.83 179.644C182.803 179.569 182.786 179.49 182.781 179.41C182.781 179.41 182.887 179.724 183.113 180.294C183.439 181.073 183.85 181.814 184.337 182.504C185.069 183.516 185.882 184.467 186.768 185.346C187.754 186.358 188.89 187.428 189.955 188.679C190.477 189.285 190.951 189.931 191.374 190.61C191.752 191.251 192.092 191.914 192.39 192.595C192.673 193.245 192.947 193.859 193.199 194.434C193.451 195.008 193.725 195.525 193.959 196.007C194.297 196.777 194.787 197.47 195.4 198.045C195.851 198.429 196.152 198.553 196.143 198.575Z" fill="#263238"/>
<path d="M188.188 196.065C188.191 195.715 188.239 195.366 188.329 195.027C188.448 194.395 188.647 193.524 188.912 192.574C189.178 191.623 189.465 190.783 189.695 190.178C189.797 189.843 189.938 189.521 190.115 189.219C190.052 189.562 189.958 189.899 189.836 190.227C189.646 190.841 189.394 191.69 189.12 192.635C188.846 193.581 188.634 194.439 188.475 195.062C188.407 195.404 188.311 195.739 188.188 196.065Z" fill="#263238"/>
<path d="M195.848 188.644C195.479 188.595 195.115 188.512 194.76 188.397C194.097 188.22 193.183 187.986 192.162 187.756C191.14 187.526 190.217 187.345 189.54 187.221C189.171 187.173 188.808 187.091 188.453 186.978C188.827 186.969 189.2 187 189.567 187.071C190.248 187.159 191.185 187.314 192.219 187.544C193.253 187.774 194.159 188.039 194.814 188.251C195.172 188.344 195.518 188.476 195.848 188.644Z" fill="#263238"/>
<path d="M182.469 190.8C182.486 190.395 182.543 189.992 182.637 189.598C182.774 188.864 182.986 187.856 183.273 186.751C183.56 185.646 183.87 184.66 184.109 183.953C184.22 183.565 184.368 183.187 184.551 182.826C184.485 183.224 184.386 183.616 184.254 183.997C184.051 184.714 183.768 185.704 183.481 186.804C183.194 187.905 182.959 188.904 182.783 189.629C182.711 190.027 182.606 190.419 182.469 190.8Z" fill="#263238"/>
<path d="M192.319 182.178C192.319 182.235 190.388 182.08 188.028 181.828C185.667 181.576 183.749 181.329 183.758 181.271C185.193 181.315 186.626 181.43 188.05 181.616C190.414 181.868 192.324 182.12 192.319 182.178Z" fill="#263238"/>
<path d="M190.91 205.501C190.91 205.559 184.156 205.607 175.824 205.607C167.493 205.607 160.734 205.559 160.734 205.501C160.734 205.444 167.488 205.391 175.824 205.391C184.16 205.391 190.91 205.422 190.91 205.501Z" fill="#455A64"/>
<path d="M186.207 214.172C186.207 214.234 181.654 214.283 176.041 214.283C170.428 214.283 165.875 214.234 165.875 214.172C165.875 214.111 170.428 214.066 176.041 214.066C181.654 214.066 186.207 214.115 186.207 214.172Z" fill="#455A64"/>
<path d="M186.033 215.419C186.033 215.477 181.56 215.525 176.044 215.525C170.528 215.525 166.055 215.477 166.055 215.419C166.055 215.362 170.528 215.309 176.044 215.309C181.56 215.309 186.033 215.357 186.033 215.419Z" fill="#455A64"/>
<path d="M186.39 213.152C186.39 213.209 181.682 213.258 175.875 213.258C170.067 213.258 165.359 213.209 165.359 213.152C165.359 213.094 170.067 213.041 175.875 213.041C181.682 213.041 186.39 213.09 186.39 213.152Z" fill="#455A64"/>
<path d="M174.671 27.7488C157.626 25.8131 135.747 31.8139 129.861 39.886C123.976 47.958 130.358 57.9465 143.237 63.5892C133.224 70.1126 132.804 79.8107 141.326 86.8762C149.849 93.9416 166.167 98.1809 182.505 98.1325C190.681 98.0201 198.716 97.0322 206.084 95.2339C213.451 93.4356 219.984 90.8676 225.251 87.6989C232.205 89.4341 239.974 90.1556 247.69 89.7826C255.407 89.4096 262.767 87.9569 268.947 85.5868C275.127 83.2168 279.884 80.0228 282.685 76.362C285.487 72.7011 286.224 68.7177 284.812 64.8571C304.074 61.2856 314.698 48.771 306.52 39.1697C298.341 29.5684 273.042 24.971 254.678 29.6749C255.08 19.2509 237.137 9.52379 216.576 9.0205C196.015 8.5172 176.295 17.3539 174.671 27.7488Z" fill="#FAFAFA"/>
<path d="M149.563 43.5V54H147.588V43.5H149.563ZM150.876 50.377V50.2334C150.876 49.6911 150.953 49.1921 151.108 48.7363C151.263 48.276 151.489 47.8773 151.785 47.54C152.081 47.2028 152.446 46.9408 152.879 46.7539C153.312 46.5625 153.809 46.4668 154.369 46.4668C154.93 46.4668 155.429 46.5625 155.866 46.7539C156.304 46.9408 156.671 47.2028 156.967 47.54C157.268 47.8773 157.495 48.276 157.65 48.7363C157.805 49.1921 157.883 49.6911 157.883 50.2334V50.377C157.883 50.9147 157.805 51.4137 157.65 51.874C157.495 52.3298 157.268 52.7285 156.967 53.0703C156.671 53.4076 156.306 53.6696 155.873 53.8564C155.44 54.0433 154.943 54.1367 154.383 54.1367C153.822 54.1367 153.323 54.0433 152.886 53.8564C152.453 53.6696 152.086 53.4076 151.785 53.0703C151.489 52.7285 151.263 52.3298 151.108 51.874C150.953 51.4137 150.876 50.9147 150.876 50.377ZM152.845 50.2334V50.377C152.845 50.6868 152.872 50.9762 152.927 51.2451C152.981 51.514 153.068 51.751 153.187 51.9561C153.31 52.1566 153.469 52.3138 153.665 52.4277C153.861 52.5417 154.1 52.5986 154.383 52.5986C154.656 52.5986 154.891 52.5417 155.087 52.4277C155.283 52.3138 155.44 52.1566 155.559 51.9561C155.677 51.751 155.764 51.514 155.818 51.2451C155.878 50.9762 155.907 50.6868 155.907 50.377V50.2334C155.907 49.9326 155.878 49.6501 155.818 49.3857C155.764 49.1169 155.675 48.8799 155.552 48.6748C155.433 48.4652 155.276 48.3011 155.08 48.1826C154.884 48.0641 154.647 48.0049 154.369 48.0049C154.091 48.0049 153.854 48.0641 153.658 48.1826C153.467 48.3011 153.31 48.4652 153.187 48.6748C153.068 48.8799 152.981 49.1169 152.927 49.3857C152.872 49.6501 152.845 49.9326 152.845 50.2334ZM161.062 48.2168V54H159.093V46.6035H160.945L161.062 48.2168ZM163.29 46.5557L163.256 48.3809C163.16 48.3672 163.044 48.3558 162.907 48.3467C162.775 48.333 162.654 48.3262 162.545 48.3262C162.267 48.3262 162.025 48.3626 161.82 48.4355C161.62 48.5039 161.451 48.6064 161.314 48.7432C161.182 48.8799 161.082 49.0462 161.014 49.2422C160.95 49.4382 160.913 49.6615 160.904 49.9121L160.508 49.7891C160.508 49.3105 160.556 48.8708 160.651 48.4697C160.747 48.0641 160.886 47.7109 161.068 47.4102C161.255 47.1094 161.483 46.877 161.752 46.7129C162.021 46.5488 162.328 46.4668 162.675 46.4668C162.784 46.4668 162.896 46.4759 163.01 46.4941C163.124 46.5078 163.217 46.5283 163.29 46.5557ZM167.487 54.1367C166.913 54.1367 166.398 54.0456 165.942 53.8633C165.487 53.6764 165.099 53.4189 164.78 53.0908C164.466 52.7627 164.224 52.3822 164.056 51.9492C163.887 51.5117 163.803 51.0469 163.803 50.5547V50.2812C163.803 49.7207 163.882 49.208 164.042 48.7432C164.201 48.2783 164.429 47.875 164.726 47.5332C165.026 47.1914 165.391 46.9294 165.819 46.7471C166.248 46.5602 166.731 46.4668 167.269 46.4668C167.793 46.4668 168.257 46.5534 168.663 46.7266C169.069 46.8997 169.408 47.1458 169.682 47.4648C169.96 47.7839 170.169 48.1667 170.311 48.6133C170.452 49.0553 170.522 49.5475 170.522 50.0898V50.9102H164.644V49.5977H168.588V49.4473C168.588 49.1738 168.538 48.93 168.438 48.7158C168.342 48.4971 168.196 48.3239 168 48.1963C167.804 48.0687 167.553 48.0049 167.248 48.0049C166.988 48.0049 166.765 48.0618 166.578 48.1758C166.391 48.2897 166.239 48.4492 166.12 48.6543C166.006 48.8594 165.92 49.1009 165.86 49.3789C165.806 49.6523 165.778 49.9531 165.778 50.2812V50.5547C165.778 50.8509 165.819 51.1243 165.901 51.375C165.988 51.6257 166.109 51.8421 166.264 52.0244C166.423 52.2067 166.615 52.348 166.838 52.4482C167.066 52.5485 167.323 52.5986 167.61 52.5986C167.966 52.5986 168.296 52.5303 168.602 52.3936C168.911 52.2523 169.178 52.0404 169.401 51.7578L170.358 52.7969C170.203 53.0202 169.992 53.2344 169.723 53.4395C169.458 53.6445 169.139 53.8132 168.766 53.9453C168.392 54.0729 167.966 54.1367 167.487 54.1367ZM173.612 48.1348V54H171.637V46.6035H173.489L173.612 48.1348ZM173.339 50.042H172.792C172.792 49.527 172.854 49.0531 172.977 48.6201C173.104 48.1826 173.289 47.8044 173.53 47.4854C173.776 47.1618 174.079 46.9111 174.439 46.7334C174.799 46.5557 175.216 46.4668 175.69 46.4668C176.019 46.4668 176.319 46.5169 176.593 46.6172C176.866 46.7129 177.101 46.8656 177.297 47.0752C177.497 47.2803 177.652 47.5492 177.762 47.8818C177.871 48.21 177.926 48.6042 177.926 49.0645V54H175.957V49.2832C175.957 48.946 175.911 48.6862 175.82 48.5039C175.729 48.3216 175.599 48.194 175.431 48.1211C175.267 48.0482 175.068 48.0117 174.836 48.0117C174.581 48.0117 174.357 48.0641 174.166 48.1689C173.979 48.2738 173.824 48.4196 173.701 48.6064C173.578 48.7887 173.487 49.0029 173.428 49.249C173.368 49.4951 173.339 49.7594 173.339 50.042ZM177.741 49.8164L177.037 49.9053C177.037 49.4222 177.096 48.9733 177.215 48.5586C177.338 48.1439 177.518 47.7793 177.755 47.4648C177.996 47.1504 178.295 46.9066 178.65 46.7334C179.006 46.5557 179.416 46.4668 179.881 46.4668C180.236 46.4668 180.56 46.5192 180.852 46.624C181.143 46.7243 181.392 46.8861 181.597 47.1094C181.806 47.3281 181.966 47.6152 182.075 47.9707C182.189 48.3262 182.246 48.7614 182.246 49.2764V54H180.271V49.2764C180.271 48.9346 180.225 48.6748 180.134 48.4971C180.047 48.3148 179.92 48.1895 179.751 48.1211C179.587 48.0482 179.391 48.0117 179.163 48.0117C178.926 48.0117 178.719 48.0596 178.541 48.1553C178.363 48.2464 178.215 48.374 178.097 48.5381C177.978 48.7021 177.889 48.8936 177.83 49.1123C177.771 49.3265 177.741 49.5612 177.741 49.8164ZM189.561 44.0469V54H187.517V44.0469H189.561ZM191.358 43.5H193.327V52.3047L193.129 54H191.358V43.5ZM198.01 50.2266V50.3701C198.01 50.9215 197.951 51.4274 197.832 51.8877C197.718 52.348 197.54 52.7467 197.299 53.084C197.057 53.4167 196.757 53.6764 196.396 53.8633C196.041 54.0456 195.622 54.1367 195.139 54.1367C194.688 54.1367 194.296 54.0456 193.963 53.8633C193.635 53.681 193.359 53.4235 193.136 53.0908C192.912 52.7581 192.732 52.3685 192.596 51.9219C192.459 51.4753 192.356 50.9876 192.288 50.459V50.1445C192.356 49.6159 192.459 49.1283 192.596 48.6816C192.732 48.235 192.912 47.8454 193.136 47.5127C193.359 47.18 193.635 46.9225 193.963 46.7402C194.291 46.5579 194.678 46.4668 195.125 46.4668C195.613 46.4668 196.036 46.5602 196.396 46.7471C196.761 46.9294 197.062 47.1891 197.299 47.5264C197.54 47.859 197.718 48.2555 197.832 48.7158C197.951 49.1715 198.01 49.6751 198.01 50.2266ZM196.041 50.3701V50.2266C196.041 49.9258 196.018 49.6432 195.973 49.3789C195.932 49.11 195.859 48.8753 195.754 48.6748C195.649 48.4697 195.506 48.3079 195.323 48.1895C195.146 48.071 194.915 48.0117 194.633 48.0117C194.364 48.0117 194.136 48.0573 193.949 48.1484C193.762 48.2396 193.607 48.3672 193.484 48.5312C193.366 48.6953 193.277 48.8913 193.218 49.1191C193.159 49.3424 193.122 49.5885 193.108 49.8574V50.7529C193.122 51.113 193.181 51.432 193.286 51.71C193.396 51.9834 193.56 52.1999 193.778 52.3594C194.002 52.5143 194.291 52.5918 194.646 52.5918C194.924 52.5918 195.155 52.5371 195.337 52.4277C195.519 52.3184 195.66 52.1634 195.761 51.9629C195.866 51.7624 195.938 51.5277 195.979 51.2588C196.021 50.9854 196.041 50.6891 196.041 50.3701ZM203.232 51.9561C203.232 51.8148 203.191 51.6872 203.109 51.5732C203.027 51.4593 202.875 51.3545 202.651 51.2588C202.433 51.1585 202.116 51.0674 201.701 50.9854C201.327 50.9033 200.979 50.8008 200.655 50.6777C200.336 50.5501 200.058 50.3975 199.821 50.2197C199.589 50.042 199.407 49.8324 199.274 49.5908C199.142 49.3447 199.076 49.0645 199.076 48.75C199.076 48.4401 199.142 48.1484 199.274 47.875C199.411 47.6016 199.605 47.36 199.855 47.1504C200.111 46.9362 200.421 46.7699 200.785 46.6514C201.154 46.5283 201.569 46.4668 202.029 46.4668C202.672 46.4668 203.223 46.5693 203.684 46.7744C204.148 46.9795 204.504 47.262 204.75 47.6221C205.001 47.9775 205.126 48.3831 205.126 48.8389H203.157C203.157 48.6475 203.116 48.4766 203.034 48.3262C202.957 48.1712 202.834 48.0505 202.665 47.9639C202.501 47.8727 202.287 47.8271 202.022 47.8271C201.804 47.8271 201.615 47.8659 201.455 47.9434C201.296 48.0163 201.173 48.1165 201.086 48.2441C201.004 48.3672 200.963 48.5039 200.963 48.6543C200.963 48.7682 200.986 48.8708 201.031 48.9619C201.081 49.0485 201.161 49.1283 201.271 49.2012C201.38 49.2741 201.521 49.3424 201.694 49.4062C201.872 49.4655 202.091 49.5202 202.351 49.5703C202.884 49.6797 203.36 49.8232 203.779 50.001C204.199 50.1742 204.531 50.4111 204.777 50.7119C205.023 51.0081 205.146 51.3978 205.146 51.8809C205.146 52.209 205.074 52.5098 204.928 52.7832C204.782 53.0566 204.572 53.2959 204.299 53.501C204.025 53.7015 203.697 53.8587 203.314 53.9727C202.936 54.082 202.51 54.1367 202.036 54.1367C201.348 54.1367 200.765 54.0137 200.286 53.7676C199.812 53.5215 199.452 53.2093 199.206 52.8311C198.965 52.4482 198.844 52.0563 198.844 51.6553H200.71C200.719 51.9242 200.787 52.1406 200.915 52.3047C201.047 52.4688 201.214 52.5872 201.414 52.6602C201.619 52.7331 201.84 52.7695 202.077 52.7695C202.332 52.7695 202.544 52.7354 202.713 52.667C202.882 52.5941 203.009 52.4984 203.096 52.3799C203.187 52.2568 203.232 52.1156 203.232 51.9561ZM210.8 52.2295V46.6035H212.769V54H210.916L210.8 52.2295ZM211.019 50.7119L211.6 50.6982C211.6 51.1904 211.543 51.6484 211.429 52.0723C211.315 52.4915 211.144 52.8561 210.916 53.166C210.688 53.4714 210.401 53.7106 210.055 53.8838C209.708 54.0524 209.3 54.1367 208.831 54.1367C208.471 54.1367 208.138 54.0866 207.833 53.9863C207.532 53.8815 207.272 53.7197 207.054 53.501C206.84 53.2777 206.671 52.9928 206.548 52.6465C206.429 52.2956 206.37 51.874 206.37 51.3818V46.6035H208.339V51.3955C208.339 51.6143 208.364 51.7988 208.414 51.9492C208.469 52.0996 208.544 52.2227 208.64 52.3184C208.735 52.4141 208.847 52.4824 208.975 52.5234C209.107 52.5645 209.253 52.585 209.412 52.585C209.818 52.585 210.137 52.5029 210.369 52.3389C210.606 52.1748 210.772 51.9515 210.868 51.6689C210.968 51.3818 211.019 51.0628 211.019 50.7119ZM216.241 48.1348V54H214.266V46.6035H216.118L216.241 48.1348ZM215.968 50.042H215.421C215.421 49.527 215.482 49.0531 215.605 48.6201C215.733 48.1826 215.918 47.8044 216.159 47.4854C216.405 47.1618 216.708 46.9111 217.068 46.7334C217.428 46.5557 217.845 46.4668 218.319 46.4668C218.647 46.4668 218.948 46.5169 219.222 46.6172C219.495 46.7129 219.73 46.8656 219.926 47.0752C220.126 47.2803 220.281 47.5492 220.391 47.8818C220.5 48.21 220.555 48.6042 220.555 49.0645V54H218.586V49.2832C218.586 48.946 218.54 48.6862 218.449 48.5039C218.358 48.3216 218.228 48.194 218.06 48.1211C217.896 48.0482 217.697 48.0117 217.465 48.0117C217.21 48.0117 216.986 48.0641 216.795 48.1689C216.608 48.2738 216.453 48.4196 216.33 48.6064C216.207 48.7887 216.116 49.0029 216.057 49.249C215.997 49.4951 215.968 49.7594 215.968 50.042ZM220.37 49.8164L219.666 49.9053C219.666 49.4222 219.725 48.9733 219.844 48.5586C219.967 48.1439 220.147 47.7793 220.384 47.4648C220.625 47.1504 220.924 46.9066 221.279 46.7334C221.635 46.5557 222.045 46.4668 222.51 46.4668C222.865 46.4668 223.189 46.5192 223.48 46.624C223.772 46.7243 224.021 46.8861 224.226 47.1094C224.435 47.3281 224.595 47.6152 224.704 47.9707C224.818 48.3262 224.875 48.7614 224.875 49.2764V54H222.899V49.2764C222.899 48.9346 222.854 48.6748 222.763 48.4971C222.676 48.3148 222.549 48.1895 222.38 48.1211C222.216 48.0482 222.02 48.0117 221.792 48.0117C221.555 48.0117 221.348 48.0596 221.17 48.1553C220.992 48.2464 220.844 48.374 220.726 48.5381C220.607 48.7021 220.518 48.8936 220.459 49.1123C220.4 49.3265 220.37 49.5612 220.37 49.8164ZM234.254 56.8438V48.1143L234.507 46.6035H236.236V56.8438H234.254ZM229.578 50.377V50.2334C229.578 49.6683 229.64 49.1556 229.763 48.6953C229.89 48.2305 230.077 47.834 230.323 47.5059C230.569 47.1732 230.87 46.918 231.226 46.7402C231.586 46.5579 232 46.4668 232.47 46.4668C232.921 46.4668 233.311 46.5579 233.639 46.7402C233.967 46.9225 234.243 47.18 234.466 47.5127C234.694 47.8454 234.876 48.2373 235.013 48.6885C235.149 49.1396 235.254 49.6341 235.327 50.1719V50.4863C235.259 51.0013 235.154 51.4798 235.013 51.9219C234.876 52.3639 234.694 52.7513 234.466 53.084C234.243 53.4167 233.965 53.6764 233.632 53.8633C233.304 54.0456 232.912 54.1367 232.456 54.1367C231.996 54.1367 231.586 54.0433 231.226 53.8564C230.87 53.665 230.569 53.4007 230.323 53.0635C230.077 52.7262 229.89 52.3298 229.763 51.874C229.64 51.4137 229.578 50.9147 229.578 50.377ZM231.547 50.2334V50.377C231.547 50.6823 231.572 50.9694 231.622 51.2383C231.672 51.5026 231.752 51.7373 231.861 51.9424C231.975 52.1475 232.121 52.3092 232.299 52.4277C232.477 52.5417 232.695 52.5986 232.955 52.5986C233.315 52.5986 233.604 52.5212 233.823 52.3662C234.047 52.2067 234.211 51.9902 234.315 51.7168C234.425 51.4434 234.489 51.1312 234.507 50.7803V49.8848C234.493 49.5977 234.454 49.3402 234.391 49.1123C234.331 48.8799 234.24 48.6816 234.117 48.5176C233.999 48.3535 233.844 48.2282 233.652 48.1416C233.465 48.0505 233.238 48.0049 232.969 48.0049C232.714 48.0049 232.495 48.0618 232.312 48.1758C232.13 48.2897 231.982 48.4492 231.868 48.6543C231.759 48.8548 231.677 49.0895 231.622 49.3584C231.572 49.6273 231.547 49.9189 231.547 50.2334ZM242.163 52.2295V46.6035H244.132V54H242.279L242.163 52.2295ZM242.382 50.7119L242.963 50.6982C242.963 51.1904 242.906 51.6484 242.792 52.0723C242.678 52.4915 242.507 52.8561 242.279 53.166C242.051 53.4714 241.764 53.7106 241.418 53.8838C241.072 54.0524 240.664 54.1367 240.194 54.1367C239.834 54.1367 239.502 54.0866 239.196 53.9863C238.896 53.8815 238.636 53.7197 238.417 53.501C238.203 53.2777 238.034 52.9928 237.911 52.6465C237.793 52.2956 237.733 51.874 237.733 51.3818V46.6035H239.702V51.3955C239.702 51.6143 239.727 51.7988 239.777 51.9492C239.832 52.0996 239.907 52.2227 240.003 52.3184C240.099 52.4141 240.21 52.4824 240.338 52.5234C240.47 52.5645 240.616 52.585 240.775 52.585C241.181 52.585 241.5 52.5029 241.732 52.3389C241.969 52.1748 242.136 51.9515 242.231 51.6689C242.332 51.3818 242.382 51.0628 242.382 50.7119ZM249.04 54.1367C248.466 54.1367 247.951 54.0456 247.495 53.8633C247.039 53.6764 246.652 53.4189 246.333 53.0908C246.019 52.7627 245.777 52.3822 245.608 51.9492C245.44 51.5117 245.355 51.0469 245.355 50.5547V50.2812C245.355 49.7207 245.435 49.208 245.595 48.7432C245.754 48.2783 245.982 47.875 246.278 47.5332C246.579 47.1914 246.944 46.9294 247.372 46.7471C247.8 46.5602 248.284 46.4668 248.821 46.4668C249.345 46.4668 249.81 46.5534 250.216 46.7266C250.621 46.8997 250.961 47.1458 251.234 47.4648C251.512 47.7839 251.722 48.1667 251.863 48.6133C252.005 49.0553 252.075 49.5475 252.075 50.0898V50.9102H246.196V49.5977H250.141V49.4473C250.141 49.1738 250.09 48.93 249.99 48.7158C249.895 48.4971 249.749 48.3239 249.553 48.1963C249.357 48.0687 249.106 48.0049 248.801 48.0049C248.541 48.0049 248.318 48.0618 248.131 48.1758C247.944 48.2897 247.791 48.4492 247.673 48.6543C247.559 48.8594 247.472 49.1009 247.413 49.3789C247.358 49.6523 247.331 49.9531 247.331 50.2812V50.5547C247.331 50.8509 247.372 51.1243 247.454 51.375C247.541 51.6257 247.661 51.8421 247.816 52.0244C247.976 52.2067 248.167 52.348 248.391 52.4482C248.618 52.5485 248.876 52.5986 249.163 52.5986C249.519 52.5986 249.849 52.5303 250.154 52.3936C250.464 52.2523 250.731 52.0404 250.954 51.7578L251.911 52.7969C251.756 53.0202 251.544 53.2344 251.275 53.4395C251.011 53.6445 250.692 53.8132 250.318 53.9453C249.945 54.0729 249.519 54.1367 249.04 54.1367ZM257.195 51.9561C257.195 51.8148 257.154 51.6872 257.072 51.5732C256.99 51.4593 256.838 51.3545 256.614 51.2588C256.396 51.1585 256.079 51.0674 255.664 50.9854C255.29 50.9033 254.942 50.8008 254.618 50.6777C254.299 50.5501 254.021 50.3975 253.784 50.2197C253.552 50.042 253.369 49.8324 253.237 49.5908C253.105 49.3447 253.039 49.0645 253.039 48.75C253.039 48.4401 253.105 48.1484 253.237 47.875C253.374 47.6016 253.568 47.36 253.818 47.1504C254.074 46.9362 254.383 46.7699 254.748 46.6514C255.117 46.5283 255.532 46.4668 255.992 46.4668C256.635 46.4668 257.186 46.5693 257.646 46.7744C258.111 46.9795 258.467 47.262 258.713 47.6221C258.964 47.9775 259.089 48.3831 259.089 48.8389H257.12C257.12 48.6475 257.079 48.4766 256.997 48.3262C256.92 48.1712 256.797 48.0505 256.628 47.9639C256.464 47.8727 256.25 47.8271 255.985 47.8271C255.767 47.8271 255.577 47.8659 255.418 47.9434C255.258 48.0163 255.135 48.1165 255.049 48.2441C254.967 48.3672 254.926 48.5039 254.926 48.6543C254.926 48.7682 254.949 48.8708 254.994 48.9619C255.044 49.0485 255.124 49.1283 255.233 49.2012C255.343 49.2741 255.484 49.3424 255.657 49.4062C255.835 49.4655 256.054 49.5202 256.313 49.5703C256.847 49.6797 257.323 49.8232 257.742 50.001C258.161 50.1742 258.494 50.4111 258.74 50.7119C258.986 51.0081 259.109 51.3978 259.109 51.8809C259.109 52.209 259.036 52.5098 258.891 52.7832C258.745 53.0566 258.535 53.2959 258.262 53.501C257.988 53.7015 257.66 53.8587 257.277 53.9727C256.899 54.082 256.473 54.1367 255.999 54.1367C255.311 54.1367 254.728 54.0137 254.249 53.7676C253.775 53.5215 253.415 53.2093 253.169 52.8311C252.927 52.4482 252.807 52.0563 252.807 51.6553H254.673C254.682 51.9242 254.75 52.1406 254.878 52.3047C255.01 52.4688 255.176 52.5872 255.377 52.6602C255.582 52.7331 255.803 52.7695 256.04 52.7695C256.295 52.7695 256.507 52.7354 256.676 52.667C256.844 52.5941 256.972 52.4984 257.059 52.3799C257.15 52.2568 257.195 52.1156 257.195 51.9561ZM264.011 46.6035V47.998H259.704V46.6035H264.011ZM260.771 44.7783H262.739V51.7715C262.739 51.9857 262.767 52.1497 262.821 52.2637C262.881 52.3776 262.967 52.4574 263.081 52.5029C263.195 52.5439 263.339 52.5645 263.512 52.5645C263.635 52.5645 263.744 52.5599 263.84 52.5508C263.94 52.5371 264.024 52.5234 264.093 52.5098L264.1 53.959C263.931 54.0137 263.749 54.057 263.553 54.0889C263.357 54.1208 263.14 54.1367 262.903 54.1367C262.47 54.1367 262.092 54.0661 261.769 53.9248C261.45 53.779 261.203 53.5465 261.03 53.2275C260.857 52.9085 260.771 52.4893 260.771 51.9697V44.7783ZM267.21 46.6035V54H265.234V46.6035H267.21ZM265.111 44.6758C265.111 44.3887 265.212 44.1517 265.412 43.9648C265.613 43.778 265.882 43.6846 266.219 43.6846C266.551 43.6846 266.818 43.778 267.019 43.9648C267.224 44.1517 267.326 44.3887 267.326 44.6758C267.326 44.9629 267.224 45.1999 267.019 45.3867C266.818 45.5736 266.551 45.667 266.219 45.667C265.882 45.667 265.613 45.5736 265.412 45.3867C265.212 45.1999 265.111 44.9629 265.111 44.6758ZM268.522 50.377V50.2334C268.522 49.6911 268.6 49.1921 268.755 48.7363C268.91 48.276 269.135 47.8773 269.432 47.54C269.728 47.2028 270.092 46.9408 270.525 46.7539C270.958 46.5625 271.455 46.4668 272.016 46.4668C272.576 46.4668 273.075 46.5625 273.513 46.7539C273.95 46.9408 274.317 47.2028 274.613 47.54C274.914 47.8773 275.142 48.276 275.297 48.7363C275.452 49.1921 275.529 49.6911 275.529 50.2334V50.377C275.529 50.9147 275.452 51.4137 275.297 51.874C275.142 52.3298 274.914 52.7285 274.613 53.0703C274.317 53.4076 273.952 53.6696 273.52 53.8564C273.087 54.0433 272.59 54.1367 272.029 54.1367C271.469 54.1367 270.97 54.0433 270.532 53.8564C270.099 53.6696 269.732 53.4076 269.432 53.0703C269.135 52.7285 268.91 52.3298 268.755 51.874C268.6 51.4137 268.522 50.9147 268.522 50.377ZM270.491 50.2334V50.377C270.491 50.6868 270.519 50.9762 270.573 51.2451C270.628 51.514 270.715 51.751 270.833 51.9561C270.956 52.1566 271.116 52.3138 271.312 52.4277C271.507 52.5417 271.747 52.5986 272.029 52.5986C272.303 52.5986 272.537 52.5417 272.733 52.4277C272.929 52.3138 273.087 52.1566 273.205 51.9561C273.324 51.751 273.41 51.514 273.465 51.2451C273.524 50.9762 273.554 50.6868 273.554 50.377V50.2334C273.554 49.9326 273.524 49.6501 273.465 49.3857C273.41 49.1169 273.321 48.8799 273.198 48.6748C273.08 48.4652 272.923 48.3011 272.727 48.1826C272.531 48.0641 272.294 48.0049 272.016 48.0049C271.738 48.0049 271.501 48.0641 271.305 48.1826C271.113 48.3011 270.956 48.4652 270.833 48.6748C270.715 48.8799 270.628 49.1169 270.573 49.3857C270.519 49.6501 270.491 49.9326 270.491 50.2334ZM278.667 48.1826V54H276.698V46.6035H278.544L278.667 48.1826ZM278.38 50.042H277.847C277.847 49.4951 277.917 49.0029 278.059 48.5654C278.2 48.1234 278.398 47.7474 278.653 47.4375C278.909 47.123 279.212 46.8838 279.562 46.7197C279.918 46.5511 280.314 46.4668 280.752 46.4668C281.098 46.4668 281.415 46.5169 281.702 46.6172C281.989 46.7174 282.235 46.877 282.44 47.0957C282.65 47.3145 282.81 47.6038 282.919 47.9639C283.033 48.3239 283.09 48.7637 283.09 49.2832V54H281.107V49.2764C281.107 48.9482 281.062 48.693 280.971 48.5107C280.88 48.3285 280.745 48.2008 280.567 48.1279C280.394 48.0505 280.18 48.0117 279.925 48.0117C279.66 48.0117 279.43 48.0641 279.234 48.1689C279.043 48.2738 278.883 48.4196 278.756 48.6064C278.633 48.7887 278.539 49.0029 278.476 49.249C278.412 49.4951 278.38 49.7594 278.38 50.042ZM291.43 50.958H289.687C289.691 50.5479 289.723 50.1947 289.782 49.8984C289.846 49.5977 289.953 49.3265 290.104 49.085C290.258 48.8434 290.464 48.6042 290.719 48.3672C290.933 48.1758 291.12 47.9935 291.279 47.8203C291.439 47.6471 291.564 47.4694 291.655 47.2871C291.746 47.1003 291.792 46.8929 291.792 46.665C291.792 46.4007 291.751 46.182 291.669 46.0088C291.591 45.8311 291.473 45.6966 291.313 45.6055C291.159 45.5143 290.963 45.4688 290.726 45.4688C290.53 45.4688 290.347 45.512 290.179 45.5986C290.01 45.6807 289.871 45.8083 289.762 45.9814C289.657 46.1546 289.602 46.3825 289.598 46.665H287.615C287.629 46.0407 287.772 45.5257 288.046 45.1201C288.324 44.71 288.695 44.4069 289.16 44.2109C289.625 44.0104 290.147 43.9102 290.726 43.9102C291.364 43.9102 291.91 44.015 292.366 44.2246C292.822 44.4297 293.171 44.7327 293.412 45.1338C293.654 45.5303 293.774 46.0133 293.774 46.583C293.774 46.9795 293.697 47.3327 293.542 47.6426C293.387 47.9479 293.184 48.2327 292.934 48.4971C292.683 48.7614 292.407 49.0348 292.106 49.3174C291.847 49.5498 291.669 49.7936 291.573 50.0488C291.482 50.304 291.434 50.6071 291.43 50.958ZM289.481 53.0703C289.481 52.7786 289.582 52.5371 289.782 52.3457C289.983 52.1497 290.252 52.0518 290.589 52.0518C290.922 52.0518 291.188 52.1497 291.389 52.3457C291.594 52.5371 291.696 52.7786 291.696 53.0703C291.696 53.3529 291.594 53.5921 291.389 53.7881C291.188 53.984 290.922 54.082 290.589 54.082C290.252 54.082 289.983 53.984 289.782 53.7881C289.582 53.5921 289.481 53.3529 289.481 53.0703Z" fill="black"/>
<path d="M174.79 27.7444H174.504H174.619H174.885H175.189C175.189 27.8216 174.98 27.7443 174.866 27.8119C175.136 25.7283 176.094 23.6825 177.701 21.7601C179.207 20.0264 181.165 18.4033 183.522 16.934C186.535 15.0325 190.155 13.4012 194.233 12.108C199.126 10.5252 204.648 9.51009 210.404 9.13513L212.744 9H215.16C216.809 9.00449 218.455 9.06576 220.088 9.18339C223.493 9.43627 226.815 9.92335 229.961 10.6312C230.796 10.7993 231.603 10.9994 232.378 11.2296C233.158 11.4516 233.976 11.664 234.756 11.9053C236.323 12.4119 237.829 12.9663 239.264 13.5654C240.739 14.1706 242.148 14.815 243.488 15.4959C244.799 16.2338 246.031 17.0071 247.179 17.8124C252.135 21.2487 254.8 25.3975 254.789 29.6555L254.218 29.4721C262.696 27.4458 272.349 27.078 281.328 28.4393C291.101 29.7609 299.49 32.9455 304.747 37.3289C307.319 39.7056 308.842 42.3371 309.214 45.0418C309.585 47.7464 308.794 50.4596 306.897 52.9942C305.045 55.6449 302.174 58.0826 298.45 60.1657C294.643 62.3115 289.882 63.9659 284.562 64.9917L284.886 64.7118C286.289 68.8128 285.331 73.032 282.127 76.8638C278.895 80.8245 273.36 84.1914 266.26 86.5159C260.115 88.4604 253.105 89.59 245.875 89.8008C238.644 90.0117 231.426 89.297 224.882 87.7224L225.472 87.6645C216.542 92.9753 204.258 96.5503 190.713 97.7799C177.902 98.8759 164.753 97.3976 154.053 93.6584C149.033 91.9135 144.762 89.671 141.497 87.0661C138.43 84.5529 136.434 81.7417 135.637 78.8135C134.838 76.0304 135.109 73.1952 136.436 70.4645C137.715 67.8829 140.013 65.4596 143.19 63.3412V63.6018C137.344 60.9501 132.908 57.5941 130.291 53.8436C129.067 52.131 128.268 50.3477 127.913 48.5349C127.521 46.8303 127.578 45.1066 128.084 43.4097C128.885 40.3312 131.444 37.4389 135.447 35.0896C138.791 33.1261 142.79 31.4762 147.261 30.2153C150.82 29.1995 154.626 28.424 158.581 27.9084C161.481 27.5376 164.456 27.3369 167.446 27.31C169.289 27.2952 171.13 27.3695 172.944 27.532C174.162 27.6382 174.847 27.7154 174.847 27.7154L172.944 27.5899C171.131 27.4528 169.298 27.3978 167.465 27.4258C164.497 27.4723 161.548 27.6893 158.676 28.0725C154.766 28.6154 151.013 29.4136 147.508 30.4469C143.11 31.7006 139.177 33.3337 135.884 35.273C131.976 37.5922 129.489 40.4406 128.731 43.4676C128.241 45.1362 128.19 46.8305 128.579 48.506C128.975 50.3002 129.799 52.0633 131.033 53.7567C133.625 57.4447 138.009 60.7413 143.78 63.3412L144.046 63.4571L143.837 63.6018C140.734 65.6817 138.495 68.0589 137.254 70.59C135.969 73.2716 135.71 76.0535 136.493 78.7846C137.271 81.6491 139.215 84.4003 142.2 86.8634C145.412 89.412 149.605 91.6051 154.528 93.311C165.044 96.9702 177.95 98.4134 190.523 97.3359C203.869 96.1238 215.972 92.5999 224.768 87.3653L225.015 87.2205L225.357 87.3074C231.751 88.84 238.8 89.5344 245.86 89.3269C252.919 89.1195 259.764 88.017 265.766 86.1202C272.706 83.8363 278.108 80.5332 281.252 76.6515C284.4 72.9138 285.339 68.7925 283.953 64.7891V64.5864L284.353 64.5188C289.415 63.4795 293.975 61.8979 297.721 59.8823C301.467 57.8666 304.312 55.4644 306.06 52.8398C307.925 50.3721 308.709 47.728 308.357 45.0912C308.005 42.4544 306.527 39.888 304.025 37.5702C298.897 33.2939 290.722 30.1832 281.195 28.8833C272.422 27.544 262.983 27.8981 254.693 29.8775L254.104 30.0222V29.6941C254.108 25.5322 251.51 21.477 246.684 18.1116C245.556 17.316 244.343 16.5524 243.05 15.824C241.749 15.1408 240.37 14.4962 238.922 13.8936C237.512 13.301 236.032 12.753 234.489 12.2528C233.709 12.0114 232.929 11.7991 232.149 11.5771C231.386 11.3489 230.591 11.1489 229.771 10.9787C226.678 10.2603 223.408 9.7571 220.05 9.4826C218.448 9.36981 216.834 9.30855 215.217 9.29921H212.839L210.518 9.42469C204.841 9.77858 199.389 10.7676 194.556 12.3203C187.299 14.5595 181.523 17.8462 177.967 21.7601C176.291 23.6571 175.219 25.6769 174.79 27.7444C174.923 27.7444 175.094 27.6768 175.151 27.7444H174.828H174.581H174.447H174.79Z" fill="#263238"/>
<path d="M120.707 76.3304C119.709 76.1477 118.7 76.4576 117.808 77.2211C116.916 77.9847 116.181 79.1675 115.695 80.6203C115.21 82.0732 114.996 83.7309 115.081 85.3844C115.165 87.0378 115.544 88.6128 116.17 89.9106C116.796 91.2084 117.641 92.1709 118.598 92.6765C119.555 93.182 120.581 93.2081 121.547 92.7514C122.513 92.2947 123.375 91.3756 124.025 90.1102C124.675 88.8448 125.083 87.2898 125.199 85.6414C125.302 83.4391 124.896 81.2541 124.062 79.5264C123.229 77.7987 122.03 76.6567 120.707 76.3304Z" fill="#FAFAFA"/>
<path d="M120.735 76.3388C121.155 76.3627 121.568 76.5091 121.957 76.7712C122.864 77.3795 123.656 78.379 124.25 79.6653C124.843 80.9516 125.217 82.4775 125.332 84.0837C125.415 85.6095 125.227 87.1423 124.79 88.4942C124.558 89.2224 124.264 89.8922 123.918 90.4832C123.561 91.1096 123.152 91.647 122.702 92.0783C121.766 93.0573 120.655 93.4777 119.554 93.2697C118.454 93.0616 117.429 92.2377 116.651 90.9348C116.269 90.3516 115.943 89.6741 115.685 88.9266C115.424 88.2266 115.227 87.4653 115.104 86.6685C114.859 85.1901 114.885 83.6251 115.179 82.1715C115.508 80.6479 116.079 79.2986 116.832 78.2655C117.586 77.2324 118.494 76.5536 119.461 76.3004C119.873 76.1759 120.295 76.1759 120.706 76.3004C120.706 76.3677 120.258 76.2427 119.479 76.4637C118.378 76.8139 117.371 77.7245 116.599 79.0678C116.071 79.9769 115.673 81.0705 115.435 82.2676C115.169 83.6453 115.152 85.1219 115.389 86.5147C115.651 88.0586 116.164 89.4544 116.872 90.5505C117.606 91.7724 118.57 92.5448 119.606 92.7404C120.641 92.936 121.686 92.5432 122.568 91.6267C122.999 91.2228 123.392 90.7143 123.732 90.1181C124.062 89.5634 124.343 88.9322 124.564 88.2443C124.988 86.9793 125.176 85.5349 125.105 84.0933C125.027 82.8327 124.783 81.6157 124.389 80.5283C123.818 78.9372 122.962 77.678 121.94 76.925C121.546 76.6891 121.144 76.4933 120.735 76.3388Z" fill="#263238"/>
<path d="M110.794 94.606C110.363 94.5272 109.928 94.6609 109.544 94.9902C109.159 95.3196 108.842 95.8298 108.632 96.4564C108.423 97.0831 108.331 97.7982 108.367 98.5114C108.404 99.2246 108.567 99.904 108.837 100.464C109.107 101.024 109.472 101.439 109.884 101.657C110.297 101.875 110.74 101.886 111.156 101.689C111.573 101.492 111.945 101.096 112.225 100.55C112.506 100.004 112.682 99.3336 112.732 98.6226C112.776 97.6725 112.601 96.7298 112.242 95.9845C111.882 95.2392 111.365 94.7466 110.794 94.606Z" fill="#FAFAFA"/>
<path d="M110.813 94.619C110.997 94.5756 111.185 94.6224 111.354 94.7535C111.758 95.0073 112.113 95.4386 112.379 96.0008C112.646 96.563 112.814 97.2348 112.867 97.9437C112.907 98.6279 112.824 99.3163 112.628 99.9231C112.411 100.616 112.072 101.183 111.656 101.55C111.239 101.917 110.765 102.066 110.296 101.977C109.827 101.889 109.386 101.567 109.03 101.054C108.674 100.541 108.422 99.8619 108.305 99.1064C108.198 98.4417 108.213 97.7399 108.346 97.0885C108.472 96.5361 108.67 96.0371 108.928 95.6279C109.29 95.0334 109.76 94.6519 110.266 94.5421C110.449 94.4853 110.637 94.5085 110.813 94.6094C110.813 94.6574 110.615 94.6094 110.289 94.7343C109.828 94.9086 109.408 95.3068 109.085 95.8777C108.844 96.2768 108.671 96.7742 108.584 97.3194C108.497 97.8646 108.499 98.4381 108.59 98.9814C108.684 99.658 108.902 100.27 109.216 100.733C109.529 101.196 109.921 101.487 110.338 101.566C110.756 101.645 111.178 101.508 111.546 101.174C111.915 100.84 112.211 100.326 112.395 99.7021C112.558 99.2064 112.639 98.6482 112.628 98.0844C112.618 97.5207 112.518 96.9714 112.337 96.4927C112.105 95.8102 111.749 95.2656 111.319 94.9361C111.005 94.6958 110.807 94.6574 110.813 94.619Z" fill="#263238"/>
</svg>
