<svg width="340" height="253" viewBox="0 0 340 253" fill="none" xmlns="http://www.w3.org/2000/svg">
<g clip-path="url(#clip0_4628_12456)">
<path d="M43.8081 141.715C3.93663 164.734 3.94127 202.035 43.8081 225.072C83.675 248.11 148.32 248.091 188.191 225.072C228.063 202.053 228.058 164.752 188.191 141.715C148.324 118.677 83.6797 118.696 43.8081 141.715Z" fill="#FAFAFA"/>
<path d="M87.2736 213.485C87.2408 213.473 87.2107 213.455 87.1852 213.431C87.1597 213.407 87.1393 213.378 87.1252 213.346C83.3482 204.066 73.1263 199.607 68.76 197.709C68.0548 197.403 67.4979 197.157 67.1314 196.967C65.4795 196.109 64.4355 194.647 64.3474 193.051C64.3166 192.315 64.4812 191.584 64.8242 190.932C65.1673 190.28 65.6767 189.73 66.3008 189.339C69.5488 187.061 76.6156 189.831 82.346 195.645C90.3732 203.792 90.1504 211.662 90.1458 211.741C90.145 211.782 90.134 211.822 90.1137 211.858C90.0935 211.893 90.0646 211.923 90.0298 211.945L87.4964 213.481C87.4682 213.498 87.4365 213.509 87.4036 213.513C87.3583 213.519 87.3125 213.509 87.2736 213.485ZM81.9794 195.974C76.4114 190.327 69.6463 187.58 66.57 189.724C66.0145 190.07 65.5605 190.558 65.2541 191.136C64.9477 191.715 64.7998 192.364 64.8253 193.018C64.9095 193.772 65.187 194.491 65.6309 195.105C66.0748 195.72 66.67 196.209 67.3588 196.526C67.7114 196.712 68.2868 196.948 68.9596 197.255C73.3397 199.162 83.5384 203.598 87.4732 212.891L89.64 211.574C89.6308 210.53 89.2827 203.389 81.9794 195.974Z" fill="#377DFF"/>
<path d="M88.832 212.632H88.8644C88.9271 212.615 88.9804 212.574 89.0125 212.517C89.0447 212.46 89.0532 212.394 89.0361 212.331C85.8438 201.093 74.8748 192.68 69.0052 192.045C68.9732 192.041 68.9406 192.043 68.9096 192.052C68.8786 192.061 68.8496 192.076 68.8245 192.097C68.7994 192.117 68.7787 192.142 68.7635 192.171C68.7483 192.199 68.739 192.231 68.7361 192.263C68.7322 192.295 68.7348 192.328 68.7437 192.359C68.7526 192.391 68.7677 192.42 68.7879 192.445C68.8082 192.471 68.8334 192.492 68.8619 192.508C68.8905 192.523 68.9218 192.533 68.9542 192.537C74.7542 193.168 85.5422 201.817 88.5582 212.447C88.5726 212.506 88.6086 212.558 88.6592 212.592C88.7098 212.627 88.7714 212.641 88.832 212.632Z" fill="#377DFF"/>
<path d="M89.9251 211.959C89.9598 211.953 89.993 211.941 90.0225 211.922L91.7161 210.794C91.7498 210.772 91.7775 210.741 91.7969 210.706C91.8163 210.67 91.8268 210.63 91.8275 210.59C91.8275 210.474 91.8785 198.818 85.1088 185.191C81.6612 178.231 75.2348 172.407 69.8292 171.298C67.2308 170.765 64.9897 171.275 63.1708 172.825C62.1408 173.697 61.6304 174.681 61.6489 175.748C61.7046 178.699 65.7507 181.887 70.038 185.265C73.0355 187.631 76.135 190.072 77.9492 192.508C77.9681 192.534 77.992 192.556 78.0197 192.573C78.0473 192.59 78.0781 192.601 78.1101 192.606C78.1421 192.611 78.1748 192.609 78.2062 192.601C78.2375 192.593 78.2669 192.579 78.2926 192.559C78.3191 192.54 78.3415 192.515 78.3585 192.487C78.3754 192.459 78.3866 192.428 78.3914 192.396C78.3961 192.363 78.3943 192.33 78.3862 192.298C78.378 192.267 78.3635 192.237 78.3436 192.211C76.4876 189.724 73.3649 187.26 70.3443 184.875C66.1683 181.576 62.1964 178.453 62.1454 175.739C62.1454 174.811 62.5676 173.985 63.491 173.201C65.1892 171.758 67.2865 171.28 69.7272 171.781C74.9982 172.862 81.2761 178.597 84.6633 185.413C91.0016 198.159 91.3171 209.147 91.331 210.469L89.7488 211.523C89.6946 211.559 89.657 211.616 89.644 211.68C89.631 211.744 89.6436 211.811 89.6792 211.866C89.7082 211.902 89.7463 211.929 89.7895 211.946C89.8328 211.962 89.8795 211.966 89.9251 211.959Z" fill="#377DFF"/>
<path d="M88.3228 205.032C88.3873 205.017 88.4434 204.978 88.479 204.922C88.5147 204.867 88.5269 204.799 88.5131 204.735C84.6851 187.052 70.8811 176.148 67.299 174.64C67.2685 174.627 67.2359 174.621 67.203 174.621C67.17 174.621 67.1375 174.628 67.1071 174.641C67.0767 174.653 67.0491 174.672 67.0259 174.695C67.0027 174.719 66.9844 174.746 66.9719 174.777C66.9594 174.807 66.953 174.84 66.9531 174.873C66.9532 174.906 66.9598 174.938 66.9726 174.969C66.9853 174.999 67.0038 175.027 67.0272 175.05C67.0506 175.073 67.0783 175.091 67.1087 175.104C70.6259 176.593 84.2443 187.358 88.0305 204.851C88.047 204.913 88.0864 204.966 88.1407 204.999C88.1951 205.033 88.2602 205.045 88.3228 205.032Z" fill="#377DFF"/>
<path d="M117.974 233.122C138.265 233.122 154.713 223.624 154.713 211.907C154.713 200.191 138.265 190.693 117.974 190.693C97.6832 190.693 81.2344 200.191 81.2344 211.907C81.2344 223.624 97.6832 233.122 117.974 233.122Z" fill="#E0E0E0"/>
<path d="M215.902 126.779C218.594 135.723 229.116 139.62 236.468 136.808C239.817 135.523 244.393 132.298 244.502 127.105C255.07 140.709 285.661 129.134 277.358 109.646C292.402 112.039 303.934 86.5567 285.476 79.2378C303.073 71.4178 296.362 41.8278 274.208 45.2823C277.034 38.9727 272.636 33.2369 267.633 30.9373C261.96 28.3243 254.195 28.7895 251.86 32.5944C247.852 16.2662 226.107 12.6 215.744 25.8387C209.407 17.3072 193.298 17.1026 191.887 29.287C181.292 18.8444 154.742 28.3049 160.828 46.0245C143.524 42.7661 139.663 65.9251 153.02 71.1514C145.472 73.1208 140.946 83.0762 141.818 90.6844C142.694 98.372 149.503 104.472 157.854 104.398C153.658 115.912 168.24 125.511 177.157 117.109C177.005 135.538 205.867 144.117 215.902 126.779Z" fill="#377DFF"/>
<path opacity="0.8" d="M215.901 126.779C218.594 135.723 229.116 139.62 236.468 136.808C239.817 135.523 244.393 132.298 244.502 127.105C255.07 140.709 285.661 129.134 277.358 109.646C292.402 112.039 303.934 86.5567 285.476 79.2378C303.073 71.4178 296.362 41.8278 274.208 45.2823C277.034 38.9727 272.636 33.2369 267.633 30.9373C261.96 28.3243 254.195 28.7895 251.86 32.5944C247.852 16.2662 226.107 12.6 215.744 25.8387C209.407 17.3072 193.298 17.1026 191.887 29.287C181.292 18.8444 154.742 28.3049 160.827 46.0245C143.524 42.7661 139.663 65.9251 153.02 71.1514C145.472 73.1208 140.946 83.0762 141.818 90.6844C142.694 98.3719 149.503 104.472 157.854 104.398C153.658 115.912 168.24 125.511 177.157 117.109C177.005 135.538 205.867 144.117 215.901 126.779Z" fill="white"/>
<path d="M192.249 148.828C191.134 147.115 187.949 146.143 186.18 146.95C186.771 141.537 180.221 140.517 177.251 144.29C171.95 139.745 165.709 147.565 171.362 151.615C167.353 155.406 170.669 162.611 176.159 162.031C177.01 166.75 183.221 169.749 185.904 164.852C192.789 170.367 198.261 160.918 191.98 155.714C192.818 154.776 193.303 153.576 193.351 152.319C193.4 151.063 193.01 149.828 192.249 148.828Z" fill="#377DFF"/>
<path d="M162.179 153.278L162.005 153.29C162.046 152.836 161.955 152.38 161.742 151.977C161.529 151.574 161.204 151.242 160.805 151.02C159.949 150.574 158.696 150.925 158.419 151.863C158.127 151.609 157.773 151.436 157.392 151.363C157.012 151.291 156.619 151.321 156.254 151.45C155.897 151.56 155.59 151.793 155.387 152.106C155.184 152.42 155.097 152.794 155.142 153.165C155.156 153.467 155.235 153.763 155.373 154.032C155.51 154.302 155.704 154.539 155.941 154.727C155.717 155.143 155.594 155.606 155.582 156.078C155.57 156.551 155.669 157.019 155.872 157.446C156.074 157.873 156.375 158.246 156.748 158.535C157.122 158.825 157.558 159.022 158.022 159.112C158.007 159.386 158.055 159.66 158.162 159.913C158.27 160.165 158.434 160.39 158.642 160.569C158.85 160.748 159.096 160.877 159.362 160.946C159.628 161.015 159.906 161.021 160.175 160.965C160.462 160.906 160.73 160.78 160.959 160.598C161.188 160.415 161.37 160.181 161.491 159.914C161.751 160.144 162.085 160.271 162.432 160.272C162.779 160.273 163.114 160.147 163.375 159.918C163.742 159.588 163.975 159.135 164.031 158.645C164.1 158.177 163.986 157.701 163.715 157.313C164.166 157.058 164.506 156.643 164.665 156.15C164.825 155.657 164.794 155.122 164.579 154.651C164.353 154.216 164.006 153.855 163.581 153.612C163.155 153.368 162.669 153.252 162.179 153.278Z" fill="#377DFF"/>
<path d="M148.757 147.265C148.449 147.362 148.181 147.557 147.995 147.821C147.897 147.614 147.727 147.449 147.518 147.357C147.308 147.265 147.072 147.251 146.853 147.317C146.733 147.378 146.629 147.466 146.55 147.576C146.471 147.685 146.419 147.812 146.4 147.945C146.364 148.213 146.402 148.485 146.509 148.733C146.535 148.784 146.549 148.841 146.548 148.899C146.526 148.969 146.485 149.032 146.43 149.081C146.271 149.252 146.168 149.468 146.136 149.7C146.103 149.931 146.143 150.168 146.249 150.376C146.355 150.584 146.523 150.755 146.729 150.865C146.936 150.975 147.171 151.019 147.404 150.991C147.418 151.318 147.525 151.635 147.712 151.903C147.839 152.096 148.026 152.241 148.244 152.317C148.461 152.393 148.698 152.396 148.917 152.324C149.036 152.291 149.145 152.231 149.238 152.15C149.331 152.068 149.404 151.967 149.452 151.853C149.5 151.74 149.523 151.617 149.517 151.494C149.512 151.371 149.479 151.25 149.421 151.141C149.585 151.217 149.767 151.244 149.946 151.217C150.125 151.191 150.292 151.113 150.427 150.993C150.557 150.868 150.653 150.711 150.705 150.537C150.758 150.364 150.764 150.18 150.725 150.003C150.683 149.828 150.603 149.664 150.491 149.522C150.38 149.38 150.239 149.264 150.079 149.182C150.261 148.958 150.359 148.679 150.356 148.391C150.354 148.103 150.252 147.825 150.067 147.604C149.91 147.419 149.7 147.287 149.466 147.226C149.231 147.165 148.984 147.179 148.757 147.265Z" fill="#377DFF"/>
<path opacity="0.8" d="M192.249 148.828C191.134 147.115 187.949 146.143 186.18 146.95C186.771 141.537 180.221 140.517 177.251 144.29C171.95 139.745 165.709 147.565 171.362 151.615C167.353 155.406 170.669 162.611 176.159 162.031C177.01 166.75 183.221 169.749 185.904 164.852C192.789 170.367 198.261 160.918 191.98 155.714C192.818 154.776 193.303 153.576 193.351 152.319C193.4 151.063 193.01 149.828 192.249 148.828Z" fill="white"/>
<path opacity="0.8" d="M162.179 153.278L162.005 153.29C162.046 152.836 161.955 152.38 161.742 151.977C161.529 151.574 161.204 151.242 160.805 151.02C159.949 150.574 158.696 150.925 158.419 151.863C158.127 151.609 157.773 151.436 157.392 151.363C157.012 151.291 156.619 151.321 156.254 151.45C155.897 151.56 155.59 151.793 155.387 152.106C155.184 152.42 155.097 152.794 155.142 153.165C155.156 153.467 155.235 153.763 155.373 154.032C155.51 154.302 155.704 154.539 155.941 154.727C155.717 155.143 155.594 155.606 155.582 156.078C155.57 156.551 155.669 157.019 155.872 157.446C156.074 157.873 156.375 158.246 156.748 158.535C157.122 158.825 157.558 159.022 158.022 159.112C158.007 159.386 158.055 159.66 158.162 159.913C158.27 160.165 158.434 160.39 158.642 160.569C158.85 160.748 159.096 160.877 159.362 160.946C159.628 161.015 159.906 161.021 160.175 160.965C160.462 160.906 160.73 160.78 160.959 160.598C161.188 160.415 161.37 160.181 161.491 159.914C161.751 160.144 162.085 160.271 162.432 160.272C162.779 160.273 163.114 160.147 163.375 159.918C163.742 159.588 163.975 159.135 164.031 158.645C164.1 158.177 163.986 157.701 163.715 157.313C164.166 157.058 164.506 156.643 164.665 156.15C164.825 155.657 164.794 155.122 164.579 154.651C164.353 154.216 164.006 153.855 163.581 153.612C163.155 153.368 162.669 153.252 162.179 153.278Z" fill="white"/>
<path opacity="0.8" d="M148.757 147.265C148.449 147.362 148.181 147.557 147.995 147.821C147.897 147.614 147.727 147.449 147.518 147.357C147.308 147.265 147.072 147.251 146.853 147.317C146.733 147.378 146.629 147.466 146.55 147.576C146.471 147.685 146.419 147.812 146.4 147.945C146.364 148.213 146.402 148.485 146.509 148.733C146.535 148.784 146.549 148.841 146.548 148.899C146.526 148.969 146.485 149.032 146.43 149.081C146.271 149.252 146.168 149.468 146.136 149.7C146.103 149.931 146.143 150.168 146.249 150.376C146.355 150.584 146.523 150.755 146.729 150.865C146.936 150.975 147.171 151.019 147.404 150.991C147.418 151.318 147.525 151.635 147.712 151.903C147.839 152.096 148.026 152.241 148.244 152.317C148.461 152.393 148.698 152.396 148.917 152.324C149.036 152.291 149.145 152.231 149.238 152.15C149.331 152.068 149.404 151.967 149.452 151.853C149.5 151.74 149.523 151.617 149.517 151.494C149.512 151.371 149.479 151.25 149.421 151.141C149.585 151.217 149.767 151.244 149.946 151.217C150.125 151.191 150.292 151.113 150.427 150.993C150.557 150.868 150.653 150.711 150.705 150.537C150.758 150.364 150.764 150.18 150.725 150.003C150.683 149.828 150.603 149.664 150.491 149.522C150.38 149.38 150.239 149.264 150.079 149.182C150.261 148.958 150.359 148.679 150.356 148.391C150.354 148.103 150.252 147.825 150.067 147.604C149.91 147.419 149.7 147.287 149.466 147.226C149.231 147.165 148.984 147.179 148.757 147.265Z" fill="white"/>
<path d="M95.4895 198.565C96.1112 191.233 95.5312 188.148 96.2783 176.701C96.3664 173.764 96.5103 170.618 96.7423 167.825C97.5218 158.429 99.0159 155.227 99.1736 153.418C99.1736 153.418 99.1736 142.142 100.023 121.569C100.426 111.894 103.271 108.994 105.591 103.881L134.011 104.196C135.514 117.007 135.426 140.769 135.185 153.844C135.059 160.503 132.002 193.591 131.937 194.412C131.714 197.317 131.937 198.467 133.083 199.702C135.454 202.291 138.901 204.768 141.899 207.033C141.435 208.174 137.834 208.091 136.052 207.2C133.722 205.958 131.503 204.515 129.422 202.889C126.972 201.033 123.831 199.548 123.826 196.778C123.814 196.611 123.787 196.445 123.747 196.282C123.719 194.662 120.146 173.305 119.896 167.769C119.682 163.008 120.36 154.944 120.36 154.944L117.822 138.542C117.822 138.542 116.212 147.075 114.193 155.185C112.546 161.788 109.651 170.497 107.795 178.627C105.99 187.99 103.424 194.644 102.937 199.335C102.793 200.458 101.387 211.45 100.83 213.965C100.273 216.48 94.7517 216.484 94.4455 212.146C94.246 209.251 95.3735 199.943 95.4895 198.565Z" fill="#C8856A"/>
<path d="M146.975 210.008C147.123 210.008 147.355 211.683 146.511 212.397C145.551 213.219 142.734 214.569 139.017 214.086C135.301 213.604 133.287 212.462 131.802 211.224C130.317 209.985 128.229 208.235 126.55 207.864C124.986 207.521 123.302 206.816 122.791 206.333C122.281 205.85 122.364 203.721 122.364 203.721L146.975 210.008Z" fill="#263238"/>
<path d="M123.678 195.492C123.678 195.492 123.4 195.492 123.302 195.998C123.186 196.587 123.061 198.318 122.815 199.246C122.472 200.587 122.24 203.338 122.444 204.433C122.648 205.529 125.195 206.289 126.819 206.907C128.733 207.741 130.51 208.859 132.09 210.224C133.835 211.658 137.51 213.096 139.932 213.133C143.644 213.189 146.029 212.205 146.771 210.869C147.699 209.231 146.971 208.285 142.72 206.322C141.918 205.951 139.092 204.285 138.127 203.682C137.107 203.047 136.14 202.33 135.236 201.538C134.783 201.134 134.351 200.706 133.942 200.257C133.517 199.859 133.154 199.399 132.865 198.893C132.819 198.777 132.786 198.647 132.744 198.531C132.624 198.21 132.531 197.88 132.466 197.543C132.396 197.19 132.355 196.675 132.002 196.467C131.521 196.269 130.994 196.207 130.48 196.286C129.929 196.324 129.382 196.401 128.842 196.518C128.216 196.657 127.492 196.713 127.121 197.297C126.874 197.769 126.752 198.296 126.768 198.828C126.768 199.074 126.768 199.325 126.768 199.571C126.768 199.677 126.815 199.868 126.666 199.821C126.518 199.775 126.364 199.408 126.313 199.283C126.197 199.009 126.119 198.712 125.993 198.439C125.851 198.121 125.673 197.821 125.464 197.543C125.265 197.292 125.04 197.064 124.792 196.861C124.539 196.723 124.295 196.568 124.063 196.397C123.848 196.14 123.714 195.825 123.678 195.492Z" fill="#37474F"/>
<path d="M143.408 206.666C138.049 207.028 136.36 210.318 136.133 212.355C137.351 212.813 138.633 213.083 139.933 213.153C143.645 213.208 146.183 212.225 146.921 210.888C147.788 209.348 147.204 208.1 143.408 206.666Z" fill="#FAFAFA"/>
<path d="M135.376 206.718C135.316 206.718 135.258 206.697 135.213 206.658C135.187 206.636 135.165 206.609 135.148 206.579C135.132 206.549 135.122 206.516 135.119 206.482C135.115 206.448 135.118 206.414 135.128 206.381C135.138 206.348 135.154 206.317 135.176 206.291C135.802 205.648 136.558 205.147 137.393 204.819C138.229 204.492 139.124 204.347 140.02 204.393C140.055 204.397 140.088 204.407 140.118 204.423C140.148 204.44 140.175 204.462 140.196 204.489C140.218 204.515 140.234 204.546 140.244 204.579C140.253 204.612 140.256 204.647 140.252 204.681C140.249 204.715 140.239 204.748 140.222 204.779C140.206 204.809 140.184 204.835 140.157 204.857C140.13 204.879 140.099 204.895 140.066 204.904C140.033 204.914 139.999 204.917 139.965 204.913C139.157 204.876 138.35 205.007 137.595 205.298C136.841 205.589 136.154 206.033 135.58 206.602C135.558 206.636 135.527 206.665 135.492 206.685C135.456 206.705 135.417 206.716 135.376 206.718Z" fill="#F0F0F0"/>
<path d="M133.076 205.376C133.015 205.376 132.956 205.357 132.909 205.32C132.882 205.298 132.86 205.272 132.844 205.242C132.827 205.212 132.817 205.178 132.814 205.144C132.81 205.11 132.814 205.076 132.824 205.043C132.833 205.01 132.85 204.98 132.871 204.953C133.497 204.31 134.253 203.808 135.088 203.48C135.924 203.153 136.82 203.008 137.716 203.056C137.751 203.057 137.787 203.065 137.819 203.08C137.852 203.096 137.88 203.118 137.904 203.145C137.928 203.172 137.945 203.203 137.956 203.237C137.967 203.272 137.97 203.308 137.967 203.343C137.963 203.379 137.952 203.413 137.934 203.445C137.916 203.476 137.892 203.503 137.863 203.524C137.834 203.545 137.801 203.561 137.766 203.569C137.731 203.577 137.695 203.577 137.66 203.571C136.85 203.536 136.042 203.67 135.287 203.965C134.532 204.26 133.847 204.708 133.275 205.283C133.25 205.312 133.22 205.335 133.185 205.351C133.151 205.367 133.114 205.375 133.076 205.376Z" fill="#F0F0F0"/>
<path d="M130.938 203.85C130.879 203.851 130.821 203.829 130.776 203.79C130.749 203.769 130.727 203.742 130.711 203.712C130.695 203.682 130.684 203.649 130.681 203.615C130.678 203.581 130.681 203.546 130.691 203.513C130.701 203.481 130.717 203.45 130.739 203.424C131.365 202.781 132.121 202.28 132.956 201.953C133.791 201.625 134.687 201.48 135.583 201.526C135.651 201.534 135.714 201.569 135.757 201.622C135.801 201.676 135.821 201.745 135.815 201.814C135.811 201.848 135.801 201.881 135.785 201.911C135.768 201.941 135.746 201.968 135.719 201.99C135.693 202.011 135.662 202.027 135.629 202.037C135.596 202.046 135.561 202.049 135.527 202.046C134.718 202.011 133.91 202.146 133.156 202.439C132.401 202.733 131.715 203.181 131.142 203.753C131.118 203.784 131.087 203.809 131.052 203.826C131.016 203.843 130.977 203.851 130.938 203.85Z" fill="#F0F0F0"/>
<path d="M128.845 202.324C128.785 202.324 128.728 202.302 128.683 202.264C128.63 202.221 128.595 202.159 128.588 202.091C128.58 202.024 128.599 201.956 128.641 201.902C129.671 200.612 131.991 199.763 133.935 199.976C133.969 199.98 134.002 199.99 134.032 200.006C134.062 200.023 134.088 200.045 134.11 200.072C134.131 200.099 134.146 200.13 134.156 200.162C134.165 200.195 134.167 200.23 134.162 200.264C134.159 200.298 134.149 200.331 134.132 200.361C134.116 200.392 134.094 200.418 134.067 200.44C134.04 200.461 134.01 200.478 133.976 200.487C133.943 200.497 133.909 200.5 133.875 200.496C132.125 200.306 129.963 201.08 129.054 202.222C129.029 202.253 128.997 202.279 128.961 202.297C128.925 202.314 128.885 202.324 128.845 202.324Z" fill="#F0F0F0"/>
<path d="M102.545 215.946C102.369 218.456 101.956 220.122 101.042 221.583C100.128 223.045 98.4341 223.49 96.7266 223.04C95.0191 222.59 92.8383 221.412 92.3743 219.236C91.9103 217.059 91.6412 215.575 92.0588 213.25L102.545 215.946Z" fill="#263238"/>
<path d="M95.5842 197.67C94.8789 197.716 94.6562 201.09 94.1922 204.463C93.7282 208.077 92.6099 209.567 92.183 212.527C91.719 215.914 92.248 217.436 93.4173 219.487C94.5866 221.538 98.7904 223.612 100.911 220.698C102.637 218.323 102.739 215.668 102.628 212.277C102.573 209.413 102.681 206.549 102.952 203.697C103.124 201.159 103.718 198.593 103.106 198.315C103.055 198.686 103.004 199.159 102.952 199.526C102.922 199.984 102.84 200.437 102.707 200.876C102.632 201.066 102.475 201.261 102.414 200.955C102.382 200.744 102.382 200.53 102.414 200.319C102.53 199.391 102.057 199.308 101.802 199.229C100.728 199.007 99.6443 198.841 98.5538 198.732C98.0155 198.691 96.1549 198.589 95.909 198.89C95.7501 199.192 95.6657 199.528 95.663 199.869C95.5934 200.38 95.4728 200.751 95.4589 200.593C95.431 200.227 95.5099 199.275 95.5238 199.048C95.5378 198.821 95.5749 198.528 95.5795 198.306C95.5842 198.083 95.5424 197.883 95.5842 197.67Z" fill="#37474F"/>
<path d="M91.9344 214.49C91.7861 216.303 92.2271 218.116 93.1918 219.659C94.3657 221.723 98.9083 223.793 101.029 220.879C102.082 219.431 102.384 217.705 102.546 215.947C101.321 213.668 93.9296 212.587 91.9344 214.49Z" fill="#FAFAFA"/>
<path d="M101.048 212.239H100.96C100.932 212.239 97.6844 210.847 94.4968 211.539C94.4292 211.552 94.3588 211.539 94.3007 211.502C94.2426 211.465 94.2014 211.406 94.1859 211.339C94.1784 211.306 94.1777 211.271 94.1837 211.238C94.1898 211.204 94.2025 211.172 94.2211 211.144C94.2397 211.115 94.2638 211.091 94.292 211.072C94.3202 211.053 94.352 211.039 94.3854 211.033C97.754 210.295 101.067 211.71 101.192 211.771C101.254 211.802 101.301 211.855 101.323 211.92C101.346 211.985 101.342 212.056 101.313 212.119C101.285 212.162 101.246 212.197 101.199 212.219C101.152 212.24 101.099 212.247 101.048 212.239Z" fill="#F0F0F0"/>
<path d="M94.688 208.991C94.6381 208.986 94.5908 208.966 94.5514 208.935C94.5121 208.904 94.4822 208.862 94.4652 208.815C94.4446 208.749 94.4505 208.678 94.4817 208.616C94.5129 208.555 94.567 208.508 94.6323 208.486C97.8107 207.456 101.3 209.094 101.43 209.163C101.461 209.179 101.488 209.2 101.51 209.227C101.532 209.253 101.548 209.284 101.558 209.317C101.568 209.35 101.572 209.384 101.568 209.418C101.564 209.453 101.553 209.486 101.537 209.516C101.503 209.576 101.448 209.621 101.382 209.641C101.316 209.661 101.245 209.654 101.184 209.623C101.156 209.623 97.7504 208.017 94.7947 208.978C94.7608 208.991 94.7241 208.996 94.688 208.991Z" fill="#F0F0F0"/>
<path d="M94.8301 206.601C94.7724 206.594 94.7187 206.568 94.6776 206.527C94.6365 206.486 94.6104 206.432 94.6034 206.374C94.5965 206.317 94.6091 206.258 94.6393 206.208C94.6694 206.159 94.7154 206.121 94.7698 206.1C98.2637 204.898 101.577 206.685 101.697 206.759C101.728 206.776 101.756 206.799 101.777 206.827C101.799 206.855 101.815 206.887 101.824 206.921C101.833 206.955 101.835 206.991 101.83 207.025C101.824 207.06 101.812 207.094 101.793 207.124C101.775 207.154 101.75 207.18 101.721 207.2C101.692 207.22 101.659 207.234 101.625 207.241C101.59 207.248 101.554 207.248 101.52 207.241C101.485 207.234 101.453 207.22 101.424 207.2C101.396 207.2 98.1756 205.474 94.9276 206.592C94.8958 206.6 94.8629 206.603 94.8301 206.601Z" fill="#F0F0F0"/>
<path d="M95.0294 204.281C94.9805 204.276 94.9341 204.257 94.8955 204.226C94.8569 204.196 94.8277 204.155 94.8113 204.109C94.7888 204.044 94.7927 203.972 94.8222 203.91C94.8517 203.847 94.9044 203.799 94.9691 203.775C98.2449 202.601 101.808 204.429 101.929 204.513C101.988 204.547 102.03 204.604 102.048 204.67C102.065 204.736 102.056 204.806 102.022 204.865C101.986 204.926 101.928 204.969 101.86 204.987C101.792 205.004 101.72 204.994 101.66 204.958C101.632 204.958 98.1753 203.172 95.1315 204.267C95.0988 204.278 95.064 204.283 95.0294 204.281Z" fill="#EBEBEB"/>
<path d="M102.618 103.945C99.37 109.666 99.2308 114.357 98.7065 131.465C98.1821 148.573 98.609 150.025 98.5209 152.081C98.4327 154.136 97.1753 157.816 95.9967 167.968C95.294 174.522 95.2101 181.128 95.7461 187.697C95.7461 187.697 96.4607 189.34 100.386 189.734C103.987 190.096 105.787 188.769 105.787 188.769C105.787 188.769 111.142 171.601 112.58 165.472C114.018 159.342 117.795 142.634 117.795 142.634L119.651 155.203C119.651 155.203 118.487 160.804 119.48 169.731C120.041 174.918 120.908 180.066 122.078 185.15C123.94 185.849 125.908 186.221 127.897 186.25C129.668 186.27 131.412 185.803 132.936 184.899C132.936 184.899 136.077 161.073 136.184 150.967C136.29 140.861 135.511 116.538 134.676 104.4L102.618 103.945Z" fill="#37474F"/>
<path d="M113.647 155.148C113.647 155.148 112.12 152.903 108.32 152.402C104.52 151.9 102.511 153.937 102.511 153.937C102.511 153.937 109.587 153.274 113.647 155.148ZM102.047 155.427C106.947 156.448 109.188 156.276 111.438 155.858C111.457 155.858 104.399 154.889 102.079 155.427H102.047Z" fill="#C8856A"/>
<path d="M136.085 153.603L136.131 152.508C132.855 152.044 127.621 153.032 126.211 153.821C129.486 153.412 132.795 153.339 136.085 153.603ZM128.526 155.097C130.716 155.709 135.95 156.025 135.95 156.025L136.015 154.999C136.015 154.999 132.271 154.869 128.526 155.097Z" fill="#C8856A"/>
<path d="M96.4176 188.436C96.5849 188.565 96.7617 188.681 96.9466 188.784C96.1392 172.799 98.4221 166.201 99.828 160.099C99.9626 159.514 100.092 158.958 100.208 158.429C101.271 153.659 100.9 150.805 100.979 142.95C100.979 140.583 101.025 138.138 101.076 135.526C101.141 132.486 101.271 129.345 101.54 126.246C107.145 125.642 108.426 120.158 110.041 113.23C110.259 112.302 110.505 111.305 110.737 110.298L110.24 110.177C109.99 111.184 109.776 112.168 109.544 113.114C107.925 120.074 106.76 125.1 101.591 125.721C102.283 118.659 103.828 111.829 107.373 106.92L106.96 106.623C101.689 113.926 100.765 125.332 100.552 135.526C100.501 138.124 100.478 140.569 100.454 142.95C100.376 150.777 100.747 153.622 99.6981 158.322C99.5774 158.851 99.4522 159.408 99.3176 159.992C97.9302 166.066 95.6566 172.613 96.4176 188.436ZM121.232 124.807L117.776 142.634L119.632 155.204L119.817 143.14L122.137 131.118C122.207 132.315 122.276 133.544 122.346 134.797C122.935 145.135 123.274 153.069 122.717 155.529C121.149 162.266 121.539 166.53 122.253 174.279C122.327 175.063 122.402 175.884 122.476 176.747C122.861 181.123 123.362 182.895 123.654 185.712C123.817 185.754 123.993 185.8 124.183 185.842C123.891 183.03 123.376 181.169 122.986 176.701C122.907 175.838 122.833 175.017 122.764 174.232C122.063 166.539 121.678 162.303 123.228 155.645C123.817 153.111 123.487 145.645 122.87 134.765C122.759 132.793 122.648 130.881 122.55 129.057L123.042 126.891C125.496 126.334 129.445 124.515 130.201 121.16C126.369 125.03 121.232 124.807 121.232 124.807Z" fill="#263238"/>
<path d="M127.047 70.8066C132.04 71.7625 134.438 73.3633 137.037 77.7666C139.635 82.17 143.533 93.2735 143.482 95.7698H133.097L127.047 70.8066Z" fill="#C8856A"/>
<path d="M133.715 91.8117C135.928 91.2178 137.561 90.7955 138.721 90.8234C137.793 90.2063 133.617 90.9208 133.617 90.9208L133.715 91.8117Z" fill="#AF6152"/>
<path d="M126.805 70.4863C130.34 70.7647 132.911 71.7484 135.268 74.6345C137.625 77.5206 137.829 78.6388 139.077 81.794C140.326 84.9492 141.175 87.0511 141.175 87.0511C141.175 87.0511 138.799 91.306 131.083 90.6657L128.336 82.4343L126.805 70.4863Z" fill="#37474F"/>
<path d="M108.395 69.5215C108.395 69.5215 103.922 70.7 99.4583 72.3055C99.4583 72.3055 94.5631 74.2868 97.2357 88.6754C97.9132 92.3039 99.2866 97.5842 99.6625 102.071C99.8759 104.618 99.7089 110.762 99.3702 115.991C99.3702 115.991 107.305 121.225 121.874 119.601C133.312 118.32 135.168 113.291 135.168 113.291C135.168 113.291 134.704 100.41 133.753 91.9002C132.384 79.6831 129.938 72.8484 126.793 70.4541L120.297 69.7581L108.395 69.5215Z" fill="#455A64"/>
<path d="M103.272 60.2645C104.358 62.3409 105.748 64.2428 107.397 65.9067C107.889 66.4511 108.573 66.7838 109.304 66.8347L108.195 62.501L107.346 59.5128C107.346 59.5128 109.263 56.7288 108.97 54.5063C108.868 53.6734 108.648 52.8594 108.316 52.0888L123.02 49.7688C123.02 49.7688 123.512 45.7877 120.942 43.3239C118.482 40.9621 115.374 39.8021 110.571 41.1663C104.711 42.8367 102.303 46.4605 102.442 49.0079C101.545 49.6345 100.918 50.5779 100.688 51.648C100.396 52.8637 100.447 54.9378 103.272 60.2645Z" fill="#263238"/>
<path d="M104.727 64.2733C104.878 64.3397 105.033 64.394 105.191 64.4357C105.612 64.5659 106.055 64.6023 106.491 64.5425C106.856 64.4394 107.191 64.2482 107.465 63.9857C107.787 63.7268 108.061 63.4125 108.272 63.0577L108.43 71.2658C112.393 76.1007 125.821 74.7737 120.285 69.9388L120.448 66.9738C121.094 66.8116 121.727 66.6006 122.341 66.3428C123.321 65.9802 124.172 65.3363 124.788 64.4919C125.404 63.6475 125.757 62.6402 125.802 61.5961C125.942 58.1949 123.71 51.3556 122.327 47.6761C122.114 47.1216 121.782 46.6209 121.354 46.2095C120.925 45.7981 120.412 45.4861 119.849 45.2957C117.2 44.6508 115.395 46.8594 112.383 48.9149C111.14 49.7687 107.869 50.7709 106.899 50.5436C107.668 51.2009 108.188 52.1015 108.374 53.0956C108.524 53.8225 108.545 54.5702 108.435 55.3042C108.272 55.9537 108.171 56.6171 108.133 57.2855C108.177 57.5917 108.127 57.9039 107.989 58.181C107.857 58.3255 107.68 58.4214 107.486 58.4533C107.293 58.4853 107.094 58.4515 106.922 58.3573C106.584 58.1631 106.272 57.9261 105.994 57.6521C105.602 57.3088 105.118 57.0878 104.602 57.0164C104.111 57.0009 103.626 57.1344 103.212 57.3994C102.798 57.6644 102.474 58.0485 102.282 58.5012C101.916 59.4266 101.906 60.455 102.254 61.3873C102.443 62.0138 102.761 62.594 103.187 63.0909C103.613 63.5878 104.137 63.9905 104.727 64.2733Z" fill="#C8856A"/>
<path d="M120.454 66.9647C117.855 67.54 115.475 67.7395 113.795 67.4287C112.116 67.1178 110.278 65.336 109.359 63.3594C109.74 65.0344 111.141 67.8323 113.749 68.5376C116.356 69.2429 118.667 68.7186 120.375 68.3706L120.454 66.9647Z" fill="#AF6152"/>
<path d="M113.68 51.2808L112.024 53.0765C111.786 52.8442 111.646 52.5289 111.634 52.1963C111.622 51.8636 111.738 51.5391 111.959 51.2901C112.069 51.1722 112.202 51.0781 112.35 51.0134C112.497 50.9487 112.657 50.9149 112.818 50.9141C112.979 50.9132 113.139 50.9453 113.287 51.0083C113.435 51.0714 113.569 51.1641 113.68 51.2808Z" fill="#263238"/>
<path d="M122.333 50.6969L119.874 50.8036C119.857 50.6439 119.872 50.4823 119.92 50.3288C119.968 50.1754 120.047 50.0333 120.151 49.9115C120.256 49.7897 120.385 49.6908 120.53 49.6207C120.674 49.5507 120.832 49.5111 120.992 49.5044C121.326 49.4949 121.65 49.613 121.899 49.8346C122.149 50.0562 122.304 50.3647 122.333 50.6969Z" fill="#263238"/>
<path d="M113.398 54.9976C113.458 55.1841 113.571 55.3487 113.725 55.4707C113.878 55.5928 114.064 55.6668 114.259 55.6835C114.454 55.7002 114.65 55.6588 114.821 55.5645C114.993 55.4703 115.133 55.3274 115.223 55.1538C115.314 54.9802 115.351 54.7837 115.331 54.5889C115.31 54.3942 115.232 54.2099 115.107 54.0593C114.982 53.9087 114.815 53.7985 114.627 53.7426C114.439 53.6866 114.239 53.6874 114.052 53.7448C113.927 53.7839 113.81 53.8474 113.71 53.9316C113.609 54.0158 113.526 54.119 113.465 54.2354C113.404 54.3518 113.367 54.479 113.355 54.6098C113.344 54.7406 113.358 54.8724 113.398 54.9976Z" fill="#263238"/>
<path d="M120.485 52.8456C120.546 53.0316 120.66 53.1955 120.813 53.3168C120.967 53.4381 121.153 53.5114 121.348 53.5275C121.543 53.5436 121.738 53.5017 121.909 53.4072C122.08 53.3127 122.22 53.1697 122.31 52.9962C122.4 52.8227 122.437 52.6264 122.417 52.4319C122.396 52.2374 122.318 52.0535 122.193 51.9031C122.068 51.7527 121.901 51.6425 121.714 51.5865C121.526 51.5305 121.326 51.5311 121.139 51.5882C121.014 51.6272 120.897 51.6909 120.795 51.7754C120.694 51.8599 120.611 51.9636 120.55 52.0805C120.489 52.1974 120.452 52.3252 120.441 52.4565C120.43 52.5879 120.445 52.7201 120.485 52.8456Z" fill="#263238"/>
<path d="M117.117 52.623L119.289 58.655L122.495 56.5206C121.017 54.8348 119.179 53.5027 117.117 52.623Z" fill="#AF6152"/>
<path d="M119.304 61.2118L119.276 61.184C119.234 61.1596 119.185 61.1483 119.137 61.1515C118.751 61.1788 118.363 61.1788 117.977 61.1515C117.642 61.1105 117.315 61.0198 117.007 60.8824C116.744 60.7072 116.468 60.5521 116.181 60.4184C116.163 60.4135 116.144 60.4127 116.126 60.4162C116.107 60.4197 116.09 60.4273 116.074 60.4384C116.059 60.4496 116.047 60.464 116.038 60.4806C116.029 60.4972 116.024 60.5156 116.023 60.5344C116.051 60.8267 116.487 61.0494 116.729 61.1747C117.019 61.3242 117.333 61.4216 117.657 61.4624C118.002 61.5064 118.351 61.5064 118.696 61.4624C118.871 61.4431 119.045 61.4121 119.216 61.3696C119.295 61.3185 119.341 61.2629 119.304 61.2118Z" fill="#AF6152"/>
<path d="M106.49 105.448C106.996 105.448 107.497 105.448 107.998 105.476C109.293 105.506 110.59 105.469 111.882 105.365C112.689 105.295 113.492 105.193 114.29 105.049C115.017 104.949 115.735 104.794 116.438 104.585C117.83 104.089 119.19 103.523 120.54 102.957C121.89 102.39 123.649 102.302 125.059 102.182C128.377 101.908 131.337 101.917 134.631 101.416C136.558 101.13 138.433 100.567 140.199 99.7457C141.337 99.1858 142.308 98.338 143.016 97.2865C143.898 95.8945 143.429 94.9665 142.199 94.1266C141.146 93.3982 138.079 91.8716 133.699 91.8066C131.606 92.3542 129.156 93.1754 126.836 93.9318C124.66 94.6463 123.008 95.231 120.804 95.7878C119.844 95.9897 118.856 96.018 117.886 95.8713C116.958 95.7414 116.164 95.4537 115.273 95.3098C114.142 95.0434 112.99 94.8711 111.831 94.7948C109.854 94.7948 107.831 95.4305 106.49 95.6114C105.149 95.7924 105.237 96.5394 106.249 97.0916C106.777 97.3074 107.351 97.3887 107.919 97.3282C108.555 97.3282 109.19 97.2818 109.826 97.3282C109.975 97.3282 110.267 97.3282 110.346 97.4721C110.425 97.6159 110.22 97.8154 110.081 97.8804C109.288 98.247 108.406 98.1449 107.557 98.1402H104.773C104.402 98.1402 104.026 98.1402 103.655 98.1402C103.131 98.1727 102.592 98.2516 102.3 98.7388C102.204 98.8825 102.157 99.0533 102.165 99.226C102.165 99.3698 102.249 99.4905 102.087 99.5972C101.953 99.6634 101.808 99.7013 101.66 99.7086C101.503 99.7421 101.357 99.8127 101.233 99.9145C101.109 100.016 101.012 100.146 100.948 100.293C100.885 100.441 100.858 100.601 100.87 100.761C100.881 100.921 100.931 101.075 101.015 101.212C101.153 101.407 101.336 101.566 101.548 101.676C101.656 101.725 101.754 101.794 101.836 101.88C101.893 101.961 101.937 102.05 101.966 102.145C102.068 102.386 102.227 102.6 102.43 102.766C102.809 103.045 103.253 103.22 103.72 103.277C104.11 103.346 104.504 103.393 104.898 103.434C105.432 103.495 105.966 103.578 106.504 103.648L107.195 103.727L107.543 103.764C107.655 103.764 107.766 103.782 107.873 103.815C107.808 103.88 107.539 103.852 107.441 103.857L106.945 103.889C106.629 103.912 106.314 103.945 106.017 103.996C105.8 104.027 105.59 104.093 105.395 104.191C105.224 104.264 105.085 104.395 105 104.56C104.915 104.725 104.891 104.914 104.931 105.096C104.966 105.163 105.017 105.22 105.079 105.263C105.141 105.306 105.213 105.333 105.288 105.342C105.426 105.371 105.565 105.391 105.706 105.402C105.928 105.448 106.211 105.448 106.49 105.448Z" fill="#C8856A"/>
<path d="M115.334 100.507C116.187 99.0178 116.846 97.4259 117.297 95.7701C116.61 95.6262 115.965 95.4267 115.269 95.3061C114.138 95.0396 112.986 94.8673 111.827 94.791C109.85 94.791 107.827 95.4267 106.486 95.6077C105.145 95.7886 105.233 96.5357 106.245 97.0878C106.773 97.3036 107.347 97.3849 107.915 97.3245C108.551 97.3245 109.186 97.2781 109.822 97.3245C109.971 97.3245 110.263 97.3245 110.342 97.4683C110.421 97.6121 110.216 97.8117 110.077 97.8766C109.284 98.2432 108.402 98.1411 107.553 98.1365H104.769C104.398 98.1365 104.022 98.1365 103.651 98.1365C103.127 98.1689 102.588 98.2478 102.296 98.735C102.2 98.8787 102.153 99.0496 102.161 99.2222C102.161 99.3429 102.217 99.4496 102.134 99.5424C102.336 99.6697 102.508 99.839 102.639 100.039L103.53 101.565C102.784 101.647 102.03 101.628 101.289 101.51C101.369 101.575 101.455 101.634 101.544 101.686C101.645 101.734 101.738 101.799 101.818 101.876C102.383 101.994 102.939 102.149 103.484 102.34C103.974 102.622 104.409 102.99 104.769 103.426H104.89C105.423 103.486 105.957 103.57 106.495 103.639L107.187 103.718L107.535 103.755C107.646 103.756 107.757 103.773 107.864 103.807C107.799 103.871 107.53 103.844 107.432 103.848L106.936 103.881C106.62 103.904 106.305 103.936 106.008 103.987C105.85 104.015 105.694 104.057 105.544 104.113C107.112 105.324 109.302 105.899 111.14 105.064C111.374 104.959 111.6 104.838 111.817 104.702C113.376 103.718 114.43 102.094 115.334 100.507Z" fill="#AF6152"/>
<path d="M109.276 104.924C107.42 104.761 105.763 104.613 103.091 100.321C101.017 96.9987 99.9264 94.8132 97.8848 90.164C95.8432 85.5147 94.3259 82.276 94.5161 79.3156C94.6692 76.8982 95.2863 74.2766 99.5273 72.6387C102.079 74.2627 105.596 78.847 107.225 82.9905C108.854 87.134 111.735 94.8736 111.735 94.8736L109.276 104.924Z" fill="#C8856A"/>
<path d="M99.4593 72.4531C95.042 74.2581 93.4273 77.6035 94.6569 82.5683C96.0257 88.1363 99.7609 95.5603 99.7609 95.5603C99.7609 95.5603 102.257 95.6763 105.398 93.644C107.312 92.3757 108.814 90.5759 109.718 88.4658C109.718 88.4658 108.145 84.0485 107.292 81.696C105.607 77.0421 102.647 73.2094 99.4593 72.4531Z" fill="#37474F"/>
<path d="M104.797 95.784C104.927 90.782 107.205 87.7382 108.945 83.9937C110.685 80.2492 111.641 77.9942 112.281 75.7252C112.922 73.4563 113.251 70.1572 112.94 68.4775C112.679 67.1957 112.315 65.9372 111.85 64.7145C111.534 63.8793 111.873 63.7865 112.666 63.8236C113.46 63.8607 114.314 64.2366 115.051 65.6796C115.789 67.1227 115.979 67.9996 116.327 67.93C116.675 67.8604 118.401 65.8467 119.408 64.9001C120.415 63.9535 120.8 63.9257 122.359 63.7355C123.602 63.5508 124.866 63.579 126.099 63.819C126.739 64.0185 127.681 64.9233 128.066 65.211C128.605 65.6286 127.695 66.3942 126.674 66.0323L125.672 65.675C126.067 65.9812 126.039 66.4035 126.099 66.9278C126.12 67.2813 126.009 67.6299 125.788 67.9068C125.788 67.9068 126.159 68.0182 126.299 68.6817C126.382 69.08 126.366 69.4928 126.252 69.8835C126.367 69.8693 126.484 69.8905 126.587 69.9444C126.69 69.9983 126.774 70.0823 126.828 70.1851C127.055 70.5563 127.357 71.1548 126.02 72.3705C124.684 73.5862 123.7 74.4028 122.55 75.354C121.781 75.9399 121.11 76.6448 120.564 77.442C119.863 78.4628 119.636 80.1843 119.204 82.9543C118.211 89.0977 118.021 90.6243 116.968 94.378C116.17 97.2316 115.232 100.187 112.128 103.384C109.39 106.205 107.572 104.581 106.5 102.558C105.46 100.446 104.88 98.137 104.797 95.784Z" fill="#C8856A"/>
<path d="M104.802 95.7828C104.686 91.1428 107.354 87.1663 109.172 83.1016C110.127 81.067 110.979 78.9856 111.724 76.8655C112.631 74.2236 112.982 71.4227 112.754 68.6388C112.489 67.2664 112.102 65.9201 111.599 64.6159C111.135 63.2703 113.065 63.5301 113.761 63.9245C115.079 64.6809 115.455 66.2445 116.081 67.4973C116.132 67.604 116.248 67.8082 116.295 67.7804C117.645 66.7178 118.67 65.1959 120.118 64.1983C120.627 63.9168 121.194 63.758 121.775 63.7343C122.899 63.5805 124.036 63.5494 125.166 63.6415C126.373 63.6415 127.231 64.5184 128.066 65.2608C127.203 64.5648 126.34 63.725 125.157 63.7621C124.037 63.7033 122.914 63.7655 121.807 63.9477C121.261 63.9831 120.729 64.1417 120.253 64.4117C118.81 65.4418 117.854 67.0055 116.434 68.0959C115.863 68.3372 115.603 67.2421 115.395 66.8895C114.931 65.929 114.527 64.8015 113.566 64.2725C113.105 64.0418 112.58 63.967 112.072 64.0591C111.845 64.1148 111.952 64.3096 111.989 64.4952C112.662 66.3512 113.353 68.3 113.279 70.2999C113.279 74.8889 111.423 79.1855 109.479 83.2501C107.534 87.3148 104.88 91.1381 104.797 95.7781L104.802 95.7828Z" fill="#AF6152"/>
<path d="M121.656 66.2677C122.835 65.6135 124.44 64.7829 125.693 65.7109C125.042 65.4972 124.338 65.507 123.693 65.7388C123.095 65.9104 122.259 66.1332 121.656 66.2677Z" fill="#AF6152"/>
<path d="M122.75 68.7926C123.641 68.167 124.722 67.8687 125.808 67.9481C124.811 68.3057 123.789 68.588 122.75 68.7926Z" fill="#AF6152"/>
<path d="M123.609 71.2377C124.461 70.7285 125.351 70.2878 126.273 69.9199C125.577 70.6709 124.629 71.1398 123.609 71.2377Z" fill="#AF6152"/>
<path d="M201.09 101.307C201.723 101.01 202.376 100.756 203.043 100.546C203.751 100.325 204.478 100.17 205.215 100.082C206.006 99.9889 206.805 99.9749 207.6 100.041C208.491 100.113 209.373 100.278 210.23 100.532C211.387 100.855 212.484 101.363 213.478 102.036C214.354 102.626 215.104 103.384 215.682 104.268C216.227 105.109 216.578 106.059 216.713 107.052C216.847 108.127 216.752 109.218 216.434 110.253C216.179 111.223 215.741 112.134 215.144 112.94C214.642 113.605 214.042 114.188 213.362 114.671C212.743 115.108 212.073 115.469 211.367 115.747L209.414 116.494C208.857 116.705 208.314 116.953 207.79 117.236C207.35 117.467 206.995 117.833 206.778 118.28L205.386 121.273L201.758 120.225L202.407 116.615C202.485 115.981 202.767 115.39 203.21 114.93C203.653 114.489 204.168 114.127 204.732 113.859C205.349 113.557 205.986 113.298 206.639 113.084C207.32 112.859 207.984 112.584 208.625 112.262C209.252 111.947 209.829 111.541 210.337 111.056C210.87 110.523 211.251 109.859 211.442 109.13C211.587 108.656 211.625 108.155 211.553 107.664C211.479 107.205 211.308 106.767 211.052 106.379C210.776 105.97 210.423 105.618 210.012 105.344C209.556 105.036 209.053 104.805 208.523 104.657C207.828 104.439 207.103 104.326 206.375 104.323C205.831 104.33 205.29 104.392 204.76 104.509C204.296 104.616 203.911 104.722 203.586 104.82C203.328 104.918 203.047 104.937 202.779 104.875C202.546 104.824 202.334 104.705 202.169 104.533C202.004 104.361 201.893 104.145 201.851 103.91L201.09 101.307ZM198.501 125.435C198.625 124.999 198.835 124.592 199.118 124.238C199.383 123.897 199.714 123.613 200.092 123.403C200.888 122.978 201.819 122.88 202.686 123.129C203.126 123.254 203.535 123.469 203.888 123.76C204.223 124.034 204.505 124.367 204.718 124.744C205.153 125.53 205.258 126.456 205.01 127.319C204.887 127.747 204.68 128.146 204.402 128.494C204.123 128.841 203.778 129.129 203.386 129.342C202.594 129.76 201.67 129.852 200.811 129.597C200.37 129.471 199.957 129.26 199.596 128.976C199.256 128.708 198.973 128.377 198.76 128.001C198.555 127.625 198.426 127.212 198.38 126.786C198.33 126.33 198.371 125.87 198.501 125.431V125.435Z" fill="#F0F0F0"/>
<path d="M54.1825 182.008C53.8615 182.582 53.5018 183.134 53.106 183.659C52.2364 184.82 51.1489 185.801 49.9044 186.546C49.1839 186.979 48.4204 187.337 47.6262 187.613C46.5651 188.002 45.4478 188.217 44.3178 188.248C43.3247 188.277 42.3358 188.109 41.4086 187.752C40.5285 187.406 39.7361 186.868 39.0886 186.179C38.3937 185.433 37.8669 184.547 37.5434 183.581C37.2077 182.699 37.0408 181.763 37.0516 180.82C37.0752 180.038 37.2143 179.264 37.4646 178.523C37.6957 177.849 38.0073 177.206 38.3926 176.607L39.4737 174.964C39.7855 174.499 40.0631 174.012 40.3042 173.507C40.5173 173.091 40.589 172.617 40.5084 172.157L39.9377 169.099L43.2831 167.911L44.7679 171.025C45.0548 171.552 45.1638 172.157 45.0788 172.751C44.9803 173.331 44.7858 173.891 44.5034 174.407C44.1956 174.976 43.8499 175.523 43.4687 176.045C43.0738 176.591 42.7187 177.165 42.4062 177.762C42.0974 178.344 41.8784 178.97 41.7566 179.618C41.6451 180.318 41.7187 181.034 41.97 181.697C42.1181 182.139 42.3621 182.543 42.6846 182.88C42.9923 183.19 43.3624 183.43 43.7703 183.585C44.2049 183.747 44.6665 183.822 45.1298 183.808C45.6462 183.79 46.1566 183.691 46.6425 183.516C47.2954 183.301 47.9119 182.988 48.4706 182.588C48.881 182.286 49.2589 181.942 49.5982 181.562C49.8905 181.228 50.1318 180.936 50.3266 180.681C50.4706 180.465 50.6736 180.296 50.9113 180.193C51.1177 180.106 51.3453 180.082 51.5656 180.123C51.786 180.164 51.9892 180.269 52.1502 180.425L54.1825 182.008ZM42.9258 162.162C43.0716 162.563 43.1363 162.989 43.1161 163.415C43.0986 163.82 43.0008 164.218 42.8284 164.584C42.6419 164.966 42.3819 165.306 42.0634 165.586C41.7449 165.867 41.3741 166.081 40.9724 166.218C40.5685 166.364 40.139 166.425 39.7103 166.399C39.3045 166.37 38.9069 166.27 38.5364 166.102C38.1752 165.923 37.851 165.677 37.5806 165.378C37.2928 165.064 37.0718 164.694 36.931 164.292C36.7807 163.889 36.719 163.459 36.75 163.03C36.7736 162.624 36.8777 162.226 37.0562 161.861C37.2371 161.497 37.486 161.171 37.7894 160.9C38.1079 160.614 38.4801 160.393 38.8844 160.251C39.2915 160.104 39.7236 160.04 40.1558 160.06C40.5609 160.073 40.9592 160.169 41.3256 160.342C41.6921 160.515 42.0189 160.762 42.2855 161.067C42.5718 161.385 42.7898 161.757 42.9258 162.162Z" fill="#E0E0E0"/>
<path d="M187.82 192.169C187.445 192.123 187.084 192.002 186.758 191.812C186.432 191.622 186.147 191.368 185.922 191.065L180.498 183.747C180.285 183.459 180.131 183.131 180.046 182.783C179.961 182.435 179.946 182.073 180.002 181.719C180.058 181.364 180.184 181.025 180.373 180.72C180.562 180.415 180.809 180.151 181.101 179.943C181.696 179.515 182.435 179.339 183.159 179.453C183.882 179.567 184.532 179.961 184.967 180.55L188.479 185.306L199.522 174.583C200.048 174.073 200.753 173.791 201.485 173.797C202.217 173.803 202.917 174.097 203.434 174.616C203.691 174.867 203.895 175.167 204.034 175.498C204.173 175.829 204.245 176.185 204.245 176.544C204.245 176.903 204.173 177.259 204.034 177.59C203.895 177.921 203.691 178.221 203.434 178.472L190.103 191.408C189.818 191.684 189.477 191.896 189.103 192.03C188.73 192.164 188.332 192.216 187.936 192.183L187.82 192.169Z" fill="#E6E6E6"/>
<path d="M29.2768 68.7916C28.8892 68.8591 28.4919 68.8462 28.1095 68.7536C27.7272 68.661 27.368 68.4907 27.0542 68.2533L19.4493 62.5369C19.1351 62.3149 18.8687 62.0321 18.6659 61.7052C18.4631 61.3783 18.328 61.014 18.2687 60.634C18.2094 60.2539 18.227 59.8658 18.3206 59.4926C18.4141 59.1195 18.5817 58.769 18.8133 58.4618C19.0449 58.1547 19.3358 57.8972 19.6688 57.7046C20.0018 57.5121 20.3701 57.3884 20.7519 57.3409C21.1336 57.2934 21.521 57.323 21.891 57.4281C22.2611 57.5332 22.6063 57.7115 22.9061 57.9525L27.8477 61.6645L35.5269 47.4661C35.8936 46.7961 36.5115 46.2991 37.2446 46.0846C37.9777 45.8701 38.766 45.9557 39.4361 46.3224C40.1061 46.6891 40.6031 47.307 40.8176 48.0401C41.0321 48.7732 40.9466 49.5615 40.5798 50.2316L31.2998 67.3671C31.103 67.7309 30.8299 68.0478 30.4991 68.2961C30.1683 68.5443 29.7878 68.7181 29.3835 68.8055L29.2768 68.7916Z" fill="#F0F0F0"/>
<path d="M25.207 131.696C25.2282 131.757 25.262 131.813 25.3061 131.86C25.3502 131.907 25.4036 131.945 25.463 131.97C25.5224 131.995 25.5865 132.008 25.651 132.007C25.7156 132.006 25.7793 131.992 25.838 131.965L31.7911 129.548C31.9105 129.5 32.0059 129.406 32.0564 129.288C32.1068 129.17 32.1082 129.036 32.0602 128.917C32.0122 128.797 31.9188 128.702 31.8004 128.652C31.6821 128.601 31.5486 128.6 31.4292 128.648L25.4714 131.065C25.4109 131.087 25.3555 131.121 25.3088 131.165C25.2622 131.21 25.2252 131.263 25.2004 131.322C25.1755 131.382 25.1632 131.446 25.1644 131.51C25.1655 131.574 25.18 131.638 25.207 131.696ZM32.1066 130.304L26.1489 132.726C26.0889 132.748 26.0341 132.782 25.9878 132.826C25.9416 132.87 25.9049 132.923 25.8801 132.982C25.8553 133.041 25.8428 133.104 25.8436 133.168C25.8443 133.231 25.8582 133.294 25.8844 133.353C26.3063 134.181 27.0238 134.821 27.8951 135.146C28.7664 135.471 29.7279 135.458 30.5894 135.108C31.4509 134.758 32.1497 134.097 32.5475 133.256C32.9454 132.416 33.0132 131.457 32.7377 130.569C32.6858 130.453 32.5908 130.362 32.473 130.315C32.3552 130.269 32.2237 130.27 32.1066 130.318V130.304ZM23.9959 118.904V118.871C24.1356 118.302 24.0473 117.701 23.75 117.196C23.6934 117.125 23.6138 117.076 23.5248 117.057C23.4358 117.039 23.3432 117.052 23.2628 117.094C23.174 117.117 23.0967 117.172 23.0454 117.248C22.9941 117.324 22.9724 117.416 22.9844 117.507C23.0472 117.793 23.1666 118.063 23.3356 118.302C23.5045 118.541 23.7196 118.744 23.9681 118.899L23.9959 118.904ZM23.0215 122.3C23.3547 122.593 23.665 122.911 23.9495 123.251C25.3415 124.885 26.0607 126.801 26.7335 128.485C26.7938 128.634 26.8542 128.787 26.9098 128.949L27.0908 129.413L29.1463 128.583C29.021 128.281 28.905 127.989 28.7751 127.683C28.107 126.105 27.2718 124.151 27.114 122.008C27.0744 121.566 27.0744 121.122 27.114 120.681H27.0862C26.2115 120.698 25.3436 120.524 24.5434 120.17H24.5017V120.194C24.3845 120.476 24.2465 120.749 24.0887 121.01C23.7993 121.49 23.4396 121.923 23.0215 122.295V122.3ZM20.5762 109.16C19.3041 109.605 18.1356 110.304 17.1419 111.214C16.1481 112.125 15.3497 113.228 14.7951 114.456C14.2406 115.685 13.9414 117.013 13.9159 118.361C13.8903 119.708 14.1388 121.047 14.6463 122.295C15.3026 123.894 16.3624 125.295 17.7223 126.361C19.0821 127.427 20.6954 128.123 22.4044 128.379C22.8589 128.444 23.2886 128.626 23.6514 128.908C24.0142 129.189 24.2976 129.56 24.4738 129.984C24.5171 130.091 24.601 130.176 24.7071 130.221C24.8132 130.267 24.9328 130.268 25.0399 130.225L26.3066 129.71C26.1906 129.418 26.0654 129.116 25.9401 128.782C25.2766 127.079 24.5852 125.311 23.3185 123.794C23.0247 123.441 22.6985 123.117 22.3441 122.824C21.7176 123.273 20.9472 123.473 20.1818 123.386C19.973 123.35 19.7821 123.246 19.6392 123.09C19.4963 122.934 19.4097 122.734 19.393 122.523C19.3722 122.278 19.4327 122.033 19.5652 121.825C19.6978 121.618 19.8949 121.461 20.1262 121.377C20.7247 121.131 21.5182 121.284 22.3394 121.785C22.7512 121.432 23.0995 121.012 23.3695 120.542C23.5226 120.288 23.6531 120.02 23.7593 119.743C22.8313 119.154 22.2188 118.324 22.1724 117.572C22.1536 117.308 22.2182 117.044 22.3569 116.819C22.4957 116.593 22.7018 116.416 22.9461 116.314C23.1904 116.212 23.4607 116.188 23.719 116.247C23.9772 116.307 24.2104 116.445 24.3857 116.644C24.8822 117.219 25.0214 118.245 24.7662 119.321C25.0383 119.448 25.3208 119.55 25.6106 119.627C26.1311 119.773 26.6718 119.832 27.2114 119.804C27.2698 119.415 27.4175 119.045 27.6429 118.723C27.8683 118.401 28.1653 118.136 28.5106 117.948C28.7368 117.847 28.9901 117.823 29.2309 117.881C29.4718 117.939 29.6867 118.075 29.8423 118.268C29.9792 118.43 30.0567 118.633 30.0618 118.845C30.0668 119.057 29.9992 119.264 29.8702 119.433C29.3842 120.029 28.692 120.422 27.9306 120.532C27.877 120.994 27.8693 121.461 27.9074 121.924C28.0606 123.896 28.7983 125.636 29.5129 127.353L29.5546 127.446C29.6706 127.715 29.7774 127.979 29.8841 128.244L31.1508 127.729C31.2573 127.684 31.3433 127.602 31.3921 127.497C31.4314 127.387 31.4314 127.268 31.3921 127.158C31.22 126.731 31.1632 126.266 31.2276 125.81C31.2919 125.354 31.475 124.923 31.7586 124.56C32.8237 123.165 33.5007 121.514 33.7207 119.773C33.9408 118.032 33.6961 116.264 33.0114 114.649C31.9983 112.346 30.1604 110.506 27.8592 109.491C25.558 108.475 22.9601 108.357 20.5762 109.16ZM20.1911 122.472C20.1911 122.527 20.2329 122.555 20.3396 122.583C20.6796 122.618 21.0228 122.561 21.3326 122.416C21.3975 122.388 21.4578 122.365 21.5182 122.333C21.1873 122.136 20.7947 122.072 20.4185 122.152C20.3497 122.174 20.2901 122.218 20.249 122.278C20.2079 122.337 20.1876 122.409 20.1911 122.481V122.472ZM29.1974 118.992C29.253 118.89 29.2623 118.848 29.2252 118.802C29.1799 118.746 29.1169 118.708 29.0467 118.694C28.9765 118.679 28.9035 118.689 28.8401 118.723C28.5112 118.922 28.2681 119.236 28.158 119.604V119.641H28.1951L28.3993 119.567C28.7118 119.454 28.9877 119.259 29.1974 119.001V118.992Z" fill="#F0F0F0"/>
<path d="M180.887 62.5V73H178.911V62.5H180.887ZM182.199 69.377V69.2334C182.199 68.6911 182.277 68.1921 182.432 67.7363C182.587 67.276 182.812 66.8773 183.108 66.54C183.405 66.2028 183.769 65.9408 184.202 65.7539C184.635 65.5625 185.132 65.4668 185.692 65.4668C186.253 65.4668 186.752 65.5625 187.189 65.7539C187.627 65.9408 187.994 66.2028 188.29 66.54C188.591 66.8773 188.819 67.276 188.974 67.7363C189.129 68.1921 189.206 68.6911 189.206 69.2334V69.377C189.206 69.9147 189.129 70.4137 188.974 70.874C188.819 71.3298 188.591 71.7285 188.29 72.0703C187.994 72.4076 187.629 72.6696 187.196 72.8564C186.763 73.0433 186.267 73.1367 185.706 73.1367C185.146 73.1367 184.646 73.0433 184.209 72.8564C183.776 72.6696 183.409 72.4076 183.108 72.0703C182.812 71.7285 182.587 71.3298 182.432 70.874C182.277 70.4137 182.199 69.9147 182.199 69.377ZM184.168 69.2334V69.377C184.168 69.6868 184.195 69.9762 184.25 70.2451C184.305 70.514 184.391 70.751 184.51 70.9561C184.633 71.1566 184.792 71.3138 184.988 71.4277C185.184 71.5417 185.424 71.5986 185.706 71.5986C185.979 71.5986 186.214 71.5417 186.41 71.4277C186.606 71.3138 186.763 71.1566 186.882 70.9561C187 70.751 187.087 70.514 187.142 70.2451C187.201 69.9762 187.23 69.6868 187.23 69.377V69.2334C187.23 68.9326 187.201 68.6501 187.142 68.3857C187.087 68.1169 186.998 67.8799 186.875 67.6748C186.757 67.4652 186.599 67.3011 186.403 67.1826C186.207 67.0641 185.97 67.0049 185.692 67.0049C185.414 67.0049 185.177 67.0641 184.981 67.1826C184.79 67.3011 184.633 67.4652 184.51 67.6748C184.391 67.8799 184.305 68.1169 184.25 68.3857C184.195 68.6501 184.168 68.9326 184.168 69.2334ZM192.385 67.2168V73H190.416V65.6035H192.269L192.385 67.2168ZM194.613 65.5557L194.579 67.3809C194.483 67.3672 194.367 67.3558 194.23 67.3467C194.098 67.333 193.978 67.3262 193.868 67.3262C193.59 67.3262 193.349 67.3626 193.144 67.4355C192.943 67.5039 192.774 67.6064 192.638 67.7432C192.506 67.8799 192.405 68.0462 192.337 68.2422C192.273 68.4382 192.237 68.6615 192.228 68.9121L191.831 68.7891C191.831 68.3105 191.879 67.8708 191.975 67.4697C192.07 67.0641 192.209 66.7109 192.392 66.4102C192.578 66.1094 192.806 65.877 193.075 65.7129C193.344 65.5488 193.652 65.4668 193.998 65.4668C194.107 65.4668 194.219 65.4759 194.333 65.4941C194.447 65.5078 194.54 65.5283 194.613 65.5557ZM198.811 73.1367C198.236 73.1367 197.721 73.0456 197.266 72.8633C196.81 72.6764 196.423 72.4189 196.104 72.0908C195.789 71.7627 195.548 71.3822 195.379 70.9492C195.21 70.5117 195.126 70.0469 195.126 69.5547V69.2812C195.126 68.7207 195.206 68.208 195.365 67.7432C195.525 67.2783 195.753 66.875 196.049 66.5332C196.35 66.1914 196.714 65.9294 197.143 65.7471C197.571 65.5602 198.054 65.4668 198.592 65.4668C199.116 65.4668 199.581 65.5534 199.986 65.7266C200.392 65.8997 200.731 66.1458 201.005 66.4648C201.283 66.7839 201.493 67.1667 201.634 67.6133C201.775 68.0553 201.846 68.5475 201.846 69.0898V69.9102H195.967V68.5977H199.911V68.4473C199.911 68.1738 199.861 67.93 199.761 67.7158C199.665 67.4971 199.519 67.3239 199.323 67.1963C199.127 67.0687 198.877 67.0049 198.571 67.0049C198.312 67.0049 198.088 67.0618 197.901 67.1758C197.715 67.2897 197.562 67.4492 197.443 67.6543C197.329 67.8594 197.243 68.1009 197.184 68.3789C197.129 68.6523 197.102 68.9531 197.102 69.2812V69.5547C197.102 69.8509 197.143 70.1243 197.225 70.375C197.311 70.6257 197.432 70.8421 197.587 71.0244C197.746 71.2067 197.938 71.348 198.161 71.4482C198.389 71.5485 198.646 71.5986 198.934 71.5986C199.289 71.5986 199.619 71.5303 199.925 71.3936C200.235 71.2523 200.501 71.0404 200.725 70.7578L201.682 71.7969C201.527 72.0202 201.315 72.2344 201.046 72.4395C200.782 72.6445 200.463 72.8132 200.089 72.9453C199.715 73.0729 199.289 73.1367 198.811 73.1367ZM204.936 67.1348V73H202.96V65.6035H204.812L204.936 67.1348ZM204.662 69.042H204.115C204.115 68.527 204.177 68.0531 204.3 67.6201C204.427 67.1826 204.612 66.8044 204.854 66.4854C205.1 66.1618 205.403 65.9111 205.763 65.7334C206.123 65.5557 206.54 65.4668 207.014 65.4668C207.342 65.4668 207.643 65.5169 207.916 65.6172C208.189 65.7129 208.424 65.8656 208.62 66.0752C208.821 66.2803 208.976 66.5492 209.085 66.8818C209.194 67.21 209.249 67.6042 209.249 68.0645V73H207.28V68.2832C207.28 67.946 207.235 67.6862 207.144 67.5039C207.052 67.3216 206.923 67.194 206.754 67.1211C206.59 67.0482 206.392 67.0117 206.159 67.0117C205.904 67.0117 205.681 67.0641 205.489 67.1689C205.302 67.2738 205.147 67.4196 205.024 67.6064C204.901 67.7887 204.81 68.0029 204.751 68.249C204.692 68.4951 204.662 68.7594 204.662 69.042ZM209.064 68.8164L208.36 68.9053C208.36 68.4222 208.42 67.9733 208.538 67.5586C208.661 67.1439 208.841 66.7793 209.078 66.4648C209.32 66.1504 209.618 65.9066 209.974 65.7334C210.329 65.5557 210.739 65.4668 211.204 65.4668C211.56 65.4668 211.883 65.5192 212.175 65.624C212.466 65.7243 212.715 65.8861 212.92 66.1094C213.13 66.3281 213.289 66.6152 213.398 66.9707C213.512 67.3262 213.569 67.7614 213.569 68.2764V73H211.594V68.2764C211.594 67.9346 211.548 67.6748 211.457 67.4971C211.37 67.3148 211.243 67.1895 211.074 67.1211C210.91 67.0482 210.714 67.0117 210.486 67.0117C210.249 67.0117 210.042 67.0596 209.864 67.1553C209.687 67.2464 209.538 67.374 209.42 67.5381C209.301 67.7021 209.213 67.8936 209.153 68.1123C209.094 68.3265 209.064 68.5612 209.064 68.8164ZM220.884 63.0469V73H218.84V63.0469H220.884ZM222.682 62.5H224.65V71.3047L224.452 73H222.682V62.5ZM229.333 69.2266V69.3701C229.333 69.9215 229.274 70.4274 229.155 70.8877C229.041 71.348 228.864 71.7467 228.622 72.084C228.381 72.4167 228.08 72.6764 227.72 72.8633C227.364 73.0456 226.945 73.1367 226.462 73.1367C226.011 73.1367 225.619 73.0456 225.286 72.8633C224.958 72.681 224.682 72.4235 224.459 72.0908C224.236 71.7581 224.056 71.3685 223.919 70.9219C223.782 70.4753 223.68 69.9876 223.611 69.459V69.1445C223.68 68.6159 223.782 68.1283 223.919 67.6816C224.056 67.235 224.236 66.8454 224.459 66.5127C224.682 66.18 224.958 65.9225 225.286 65.7402C225.614 65.5579 226.002 65.4668 226.448 65.4668C226.936 65.4668 227.36 65.5602 227.72 65.7471C228.084 65.9294 228.385 66.1891 228.622 66.5264C228.864 66.859 229.041 67.2555 229.155 67.7158C229.274 68.1715 229.333 68.6751 229.333 69.2266ZM227.364 69.3701V69.2266C227.364 68.9258 227.341 68.6432 227.296 68.3789C227.255 68.11 227.182 67.8753 227.077 67.6748C226.972 67.4697 226.829 67.3079 226.646 67.1895C226.469 67.071 226.239 67.0117 225.956 67.0117C225.687 67.0117 225.459 67.0573 225.272 67.1484C225.086 67.2396 224.931 67.3672 224.808 67.5312C224.689 67.6953 224.6 67.8913 224.541 68.1191C224.482 68.3424 224.445 68.5885 224.432 68.8574V69.7529C224.445 70.113 224.505 70.432 224.609 70.71C224.719 70.9834 224.883 71.1999 225.102 71.3594C225.325 71.5143 225.614 71.5918 225.97 71.5918C226.248 71.5918 226.478 71.5371 226.66 71.4277C226.842 71.3184 226.984 71.1634 227.084 70.9629C227.189 70.7624 227.262 70.5277 227.303 70.2588C227.344 69.9854 227.364 69.6891 227.364 69.3701ZM234.556 70.9561C234.556 70.8148 234.515 70.6872 234.433 70.5732C234.351 70.4593 234.198 70.3545 233.975 70.2588C233.756 70.1585 233.439 70.0674 233.024 69.9854C232.651 69.9033 232.302 69.8008 231.979 69.6777C231.66 69.5501 231.382 69.3975 231.145 69.2197C230.912 69.042 230.73 68.8324 230.598 68.5908C230.465 68.3447 230.399 68.0645 230.399 67.75C230.399 67.4401 230.465 67.1484 230.598 66.875C230.734 66.6016 230.928 66.36 231.179 66.1504C231.434 65.9362 231.744 65.7699 232.108 65.6514C232.478 65.5283 232.892 65.4668 233.353 65.4668C233.995 65.4668 234.547 65.5693 235.007 65.7744C235.472 65.9795 235.827 66.262 236.073 66.6221C236.324 66.9775 236.449 67.3831 236.449 67.8389H234.48C234.48 67.6475 234.439 67.4766 234.357 67.3262C234.28 67.1712 234.157 67.0505 233.988 66.9639C233.824 66.8727 233.61 66.8271 233.346 66.8271C233.127 66.8271 232.938 66.8659 232.778 66.9434C232.619 67.0163 232.496 67.1165 232.409 67.2441C232.327 67.3672 232.286 67.5039 232.286 67.6543C232.286 67.7682 232.309 67.8708 232.354 67.9619C232.405 68.0485 232.484 68.1283 232.594 68.2012C232.703 68.2741 232.844 68.3424 233.018 68.4062C233.195 68.4655 233.414 68.5202 233.674 68.5703C234.207 68.6797 234.683 68.8232 235.103 69.001C235.522 69.1742 235.854 69.4111 236.101 69.7119C236.347 70.0081 236.47 70.3978 236.47 70.8809C236.47 71.209 236.397 71.5098 236.251 71.7832C236.105 72.0566 235.896 72.2959 235.622 72.501C235.349 72.7015 235.021 72.8587 234.638 72.9727C234.259 73.082 233.833 73.1367 233.359 73.1367C232.671 73.1367 232.088 73.0137 231.609 72.7676C231.135 72.5215 230.775 72.2093 230.529 71.8311C230.288 71.4482 230.167 71.0563 230.167 70.6553H232.033C232.042 70.9242 232.111 71.1406 232.238 71.3047C232.37 71.4688 232.537 71.5872 232.737 71.6602C232.942 71.7331 233.163 71.7695 233.4 71.7695C233.656 71.7695 233.868 71.7354 234.036 71.667C234.205 71.5941 234.332 71.4984 234.419 71.3799C234.51 71.2568 234.556 71.1156 234.556 70.9561ZM242.123 71.2295V65.6035H244.092V73H242.239L242.123 71.2295ZM242.342 69.7119L242.923 69.6982C242.923 70.1904 242.866 70.6484 242.752 71.0723C242.638 71.4915 242.467 71.8561 242.239 72.166C242.011 72.4714 241.724 72.7106 241.378 72.8838C241.032 73.0524 240.624 73.1367 240.154 73.1367C239.794 73.1367 239.462 73.0866 239.156 72.9863C238.855 72.8815 238.596 72.7197 238.377 72.501C238.163 72.2777 237.994 71.9928 237.871 71.6465C237.753 71.2956 237.693 70.874 237.693 70.3818V65.6035H239.662V70.3955C239.662 70.6143 239.687 70.7988 239.737 70.9492C239.792 71.0996 239.867 71.2227 239.963 71.3184C240.059 71.4141 240.17 71.4824 240.298 71.5234C240.43 71.5645 240.576 71.585 240.735 71.585C241.141 71.585 241.46 71.5029 241.692 71.3389C241.929 71.1748 242.096 70.9515 242.191 70.6689C242.292 70.3818 242.342 70.0628 242.342 69.7119ZM247.564 67.1348V73H245.589V65.6035H247.441L247.564 67.1348ZM247.291 69.042H246.744C246.744 68.527 246.806 68.0531 246.929 67.6201C247.056 67.1826 247.241 66.8044 247.482 66.4854C247.729 66.1618 248.032 65.9111 248.392 65.7334C248.752 65.5557 249.169 65.4668 249.643 65.4668C249.971 65.4668 250.271 65.5169 250.545 65.6172C250.818 65.7129 251.053 65.8656 251.249 66.0752C251.45 66.2803 251.604 66.5492 251.714 66.8818C251.823 67.21 251.878 67.6042 251.878 68.0645V73H249.909V68.2832C249.909 67.946 249.864 67.6862 249.772 67.5039C249.681 67.3216 249.551 67.194 249.383 67.1211C249.219 67.0482 249.021 67.0117 248.788 67.0117C248.533 67.0117 248.31 67.0641 248.118 67.1689C247.931 67.2738 247.776 67.4196 247.653 67.6064C247.53 67.7887 247.439 68.0029 247.38 68.249C247.321 68.4951 247.291 68.7594 247.291 69.042ZM251.693 68.8164L250.989 68.9053C250.989 68.4222 251.049 67.9733 251.167 67.5586C251.29 67.1439 251.47 66.7793 251.707 66.4648C251.949 66.1504 252.247 65.9066 252.603 65.7334C252.958 65.5557 253.368 65.4668 253.833 65.4668C254.188 65.4668 254.512 65.5192 254.804 65.624C255.095 65.7243 255.344 65.8861 255.549 66.1094C255.758 66.3281 255.918 66.6152 256.027 66.9707C256.141 67.3262 256.198 67.7614 256.198 68.2764V73H254.223V68.2764C254.223 67.9346 254.177 67.6748 254.086 67.4971C253.999 67.3148 253.872 67.1895 253.703 67.1211C253.539 67.0482 253.343 67.0117 253.115 67.0117C252.878 67.0117 252.671 67.0596 252.493 67.1553C252.315 67.2464 252.167 67.374 252.049 67.5381C251.93 67.7021 251.841 67.8936 251.782 68.1123C251.723 68.3265 251.693 68.5612 251.693 68.8164ZM190.054 91.8438V83.1143L190.307 81.6035H192.036V91.8438H190.054ZM185.378 85.377V85.2334C185.378 84.6683 185.439 84.1556 185.562 83.6953C185.69 83.2305 185.877 82.834 186.123 82.5059C186.369 82.1732 186.67 81.918 187.025 81.7402C187.385 81.5579 187.8 81.4668 188.27 81.4668C188.721 81.4668 189.11 81.5579 189.438 81.7402C189.767 81.9225 190.042 82.18 190.266 82.5127C190.493 82.8454 190.676 83.2373 190.812 83.6885C190.949 84.1396 191.054 84.6341 191.127 85.1719V85.4863C191.059 86.0013 190.954 86.4798 190.812 86.9219C190.676 87.3639 190.493 87.7513 190.266 88.084C190.042 88.4167 189.764 88.6764 189.432 88.8633C189.104 89.0456 188.712 89.1367 188.256 89.1367C187.796 89.1367 187.385 89.0433 187.025 88.8564C186.67 88.665 186.369 88.4007 186.123 88.0635C185.877 87.7262 185.69 87.3298 185.562 86.874C185.439 86.4137 185.378 85.9147 185.378 85.377ZM187.347 85.2334V85.377C187.347 85.6823 187.372 85.9694 187.422 86.2383C187.472 86.5026 187.552 86.7373 187.661 86.9424C187.775 87.1475 187.921 87.3092 188.099 87.4277C188.276 87.5417 188.495 87.5986 188.755 87.5986C189.115 87.5986 189.404 87.5212 189.623 87.3662C189.846 87.2067 190.01 86.9902 190.115 86.7168C190.225 86.4434 190.288 86.1312 190.307 85.7803V84.8848C190.293 84.5977 190.254 84.3402 190.19 84.1123C190.131 83.8799 190.04 83.6816 189.917 83.5176C189.799 83.3535 189.644 83.2282 189.452 83.1416C189.265 83.0505 189.037 83.0049 188.769 83.0049C188.513 83.0049 188.295 83.0618 188.112 83.1758C187.93 83.2897 187.782 83.4492 187.668 83.6543C187.559 83.8548 187.477 84.0895 187.422 84.3584C187.372 84.6273 187.347 84.9189 187.347 85.2334ZM197.963 87.2295V81.6035H199.932V89H198.079L197.963 87.2295ZM198.182 85.7119L198.763 85.6982C198.763 86.1904 198.706 86.6484 198.592 87.0723C198.478 87.4915 198.307 87.8561 198.079 88.166C197.851 88.4714 197.564 88.7106 197.218 88.8838C196.871 89.0524 196.464 89.1367 195.994 89.1367C195.634 89.1367 195.301 89.0866 194.996 88.9863C194.695 88.8815 194.436 88.7197 194.217 88.501C194.003 88.2777 193.834 87.9928 193.711 87.6465C193.592 87.2956 193.533 86.874 193.533 86.3818V81.6035H195.502V86.3955C195.502 86.6143 195.527 86.7988 195.577 86.9492C195.632 87.0996 195.707 87.2227 195.803 87.3184C195.898 87.4141 196.01 87.4824 196.138 87.5234C196.27 87.5645 196.416 87.585 196.575 87.585C196.981 87.585 197.3 87.5029 197.532 87.3389C197.769 87.1748 197.936 86.9515 198.031 86.6689C198.132 86.3818 198.182 86.0628 198.182 85.7119ZM204.84 89.1367C204.266 89.1367 203.751 89.0456 203.295 88.8633C202.839 88.6764 202.452 88.4189 202.133 88.0908C201.818 87.7627 201.577 87.3822 201.408 86.9492C201.24 86.5117 201.155 86.0469 201.155 85.5547V85.2812C201.155 84.7207 201.235 84.208 201.395 83.7432C201.554 83.2783 201.782 82.875 202.078 82.5332C202.379 82.1914 202.743 81.9294 203.172 81.7471C203.6 81.5602 204.083 81.4668 204.621 81.4668C205.145 81.4668 205.61 81.5534 206.016 81.7266C206.421 81.8997 206.761 82.1458 207.034 82.4648C207.312 82.7839 207.522 83.1667 207.663 83.6133C207.804 84.0553 207.875 84.5475 207.875 85.0898V85.9102H201.996V84.5977H205.94V84.4473C205.94 84.1738 205.89 83.93 205.79 83.7158C205.694 83.4971 205.549 83.3239 205.353 83.1963C205.157 83.0687 204.906 83.0049 204.601 83.0049C204.341 83.0049 204.118 83.0618 203.931 83.1758C203.744 83.2897 203.591 83.4492 203.473 83.6543C203.359 83.8594 203.272 84.1009 203.213 84.3789C203.158 84.6523 203.131 84.9531 203.131 85.2812V85.5547C203.131 85.8509 203.172 86.1243 203.254 86.375C203.34 86.6257 203.461 86.8421 203.616 87.0244C203.776 87.2067 203.967 87.348 204.19 87.4482C204.418 87.5485 204.676 87.5986 204.963 87.5986C205.318 87.5986 205.649 87.5303 205.954 87.3936C206.264 87.2523 206.531 87.0404 206.754 86.7578L207.711 87.7969C207.556 88.0202 207.344 88.2344 207.075 88.4395C206.811 88.6445 206.492 88.8132 206.118 88.9453C205.744 89.0729 205.318 89.1367 204.84 89.1367ZM212.995 86.9561C212.995 86.8148 212.954 86.6872 212.872 86.5732C212.79 86.4593 212.637 86.3545 212.414 86.2588C212.195 86.1585 211.879 86.0674 211.464 85.9854C211.09 85.9033 210.742 85.8008 210.418 85.6777C210.099 85.5501 209.821 85.3975 209.584 85.2197C209.352 85.042 209.169 84.8324 209.037 84.5908C208.905 84.3447 208.839 84.0645 208.839 83.75C208.839 83.4401 208.905 83.1484 209.037 82.875C209.174 82.6016 209.368 82.36 209.618 82.1504C209.873 81.9362 210.183 81.7699 210.548 81.6514C210.917 81.5283 211.332 81.4668 211.792 81.4668C212.435 81.4668 212.986 81.5693 213.446 81.7744C213.911 81.9795 214.267 82.262 214.513 82.6221C214.763 82.9775 214.889 83.3831 214.889 83.8389H212.92C212.92 83.6475 212.879 83.4766 212.797 83.3262C212.719 83.1712 212.596 83.0505 212.428 82.9639C212.264 82.8727 212.049 82.8271 211.785 82.8271C211.566 82.8271 211.377 82.8659 211.218 82.9434C211.058 83.0163 210.935 83.1165 210.849 83.2441C210.767 83.3672 210.726 83.5039 210.726 83.6543C210.726 83.7682 210.748 83.8708 210.794 83.9619C210.844 84.0485 210.924 84.1283 211.033 84.2012C211.143 84.2741 211.284 84.3424 211.457 84.4062C211.635 84.4655 211.854 84.5202 212.113 84.5703C212.646 84.6797 213.123 84.8232 213.542 85.001C213.961 85.1742 214.294 85.4111 214.54 85.7119C214.786 86.0081 214.909 86.3978 214.909 86.8809C214.909 87.209 214.836 87.5098 214.69 87.7832C214.545 88.0566 214.335 88.2959 214.062 88.501C213.788 88.7015 213.46 88.8587 213.077 88.9727C212.699 89.082 212.273 89.1367 211.799 89.1367C211.111 89.1367 210.527 89.0137 210.049 88.7676C209.575 88.5215 209.215 88.2093 208.969 87.8311C208.727 87.4482 208.606 87.0563 208.606 86.6553H210.473C210.482 86.9242 210.55 87.1406 210.678 87.3047C210.81 87.4688 210.976 87.5872 211.177 87.6602C211.382 87.7331 211.603 87.7695 211.84 87.7695C212.095 87.7695 212.307 87.7354 212.476 87.667C212.644 87.5941 212.772 87.4984 212.858 87.3799C212.95 87.2568 212.995 87.1156 212.995 86.9561ZM219.811 81.6035V82.998H215.504V81.6035H219.811ZM216.57 79.7783H218.539V86.7715C218.539 86.9857 218.566 87.1497 218.621 87.2637C218.68 87.3776 218.767 87.4574 218.881 87.5029C218.995 87.5439 219.138 87.5645 219.312 87.5645C219.435 87.5645 219.544 87.5599 219.64 87.5508C219.74 87.5371 219.824 87.5234 219.893 87.5098L219.899 88.959C219.731 89.0137 219.549 89.057 219.353 89.0889C219.157 89.1208 218.94 89.1367 218.703 89.1367C218.27 89.1367 217.892 89.0661 217.568 88.9248C217.249 88.779 217.003 88.5465 216.83 88.2275C216.657 87.9085 216.57 87.4893 216.57 86.9697V79.7783ZM223.01 81.6035V89H221.034V81.6035H223.01ZM220.911 79.6758C220.911 79.3887 221.011 79.1517 221.212 78.9648C221.412 78.778 221.681 78.6846 222.019 78.6846C222.351 78.6846 222.618 78.778 222.818 78.9648C223.023 79.1517 223.126 79.3887 223.126 79.6758C223.126 79.9629 223.023 80.1999 222.818 80.3867C222.618 80.5736 222.351 80.667 222.019 80.667C221.681 80.667 221.412 80.5736 221.212 80.3867C221.011 80.1999 220.911 79.9629 220.911 79.6758ZM224.322 85.377V85.2334C224.322 84.6911 224.4 84.1921 224.555 83.7363C224.71 83.276 224.935 82.8773 225.231 82.54C225.528 82.2028 225.892 81.9408 226.325 81.7539C226.758 81.5625 227.255 81.4668 227.815 81.4668C228.376 81.4668 228.875 81.5625 229.312 81.7539C229.75 81.9408 230.117 82.2028 230.413 82.54C230.714 82.8773 230.942 83.276 231.097 83.7363C231.252 84.1921 231.329 84.6911 231.329 85.2334V85.377C231.329 85.9147 231.252 86.4137 231.097 86.874C230.942 87.3298 230.714 87.7285 230.413 88.0703C230.117 88.4076 229.752 88.6696 229.319 88.8564C228.886 89.0433 228.39 89.1367 227.829 89.1367C227.269 89.1367 226.77 89.0433 226.332 88.8564C225.899 88.6696 225.532 88.4076 225.231 88.0703C224.935 87.7285 224.71 87.3298 224.555 86.874C224.4 86.4137 224.322 85.9147 224.322 85.377ZM226.291 85.2334V85.377C226.291 85.6868 226.318 85.9762 226.373 86.2451C226.428 86.514 226.514 86.751 226.633 86.9561C226.756 87.1566 226.915 87.3138 227.111 87.4277C227.307 87.5417 227.547 87.5986 227.829 87.5986C228.103 87.5986 228.337 87.5417 228.533 87.4277C228.729 87.3138 228.886 87.1566 229.005 86.9561C229.123 86.751 229.21 86.514 229.265 86.2451C229.324 85.9762 229.354 85.6868 229.354 85.377V85.2334C229.354 84.9326 229.324 84.6501 229.265 84.3857C229.21 84.1169 229.121 83.8799 228.998 83.6748C228.88 83.4652 228.722 83.3011 228.526 83.1826C228.33 83.0641 228.093 83.0049 227.815 83.0049C227.537 83.0049 227.3 83.0641 227.104 83.1826C226.913 83.3011 226.756 83.4652 226.633 83.6748C226.514 83.8799 226.428 84.1169 226.373 84.3857C226.318 84.6501 226.291 84.9326 226.291 85.2334ZM234.467 83.1826V89H232.498V81.6035H234.344L234.467 83.1826ZM234.18 85.042H233.646C233.646 84.4951 233.717 84.0029 233.858 83.5654C234 83.1234 234.198 82.7474 234.453 82.4375C234.708 82.123 235.011 81.8838 235.362 81.7197C235.718 81.5511 236.114 81.4668 236.552 81.4668C236.898 81.4668 237.215 81.5169 237.502 81.6172C237.789 81.7174 238.035 81.877 238.24 82.0957C238.45 82.3145 238.609 82.6038 238.719 82.9639C238.833 83.3239 238.89 83.7637 238.89 84.2832V89H236.907V84.2764C236.907 83.9482 236.862 83.693 236.771 83.5107C236.679 83.3285 236.545 83.2008 236.367 83.1279C236.194 83.0505 235.98 83.0117 235.725 83.0117C235.46 83.0117 235.23 83.0641 235.034 83.1689C234.843 83.2738 234.683 83.4196 234.556 83.6064C234.433 83.7887 234.339 84.0029 234.275 84.249C234.212 84.4951 234.18 84.7594 234.18 85.042ZM247.229 85.958H245.486C245.491 85.5479 245.523 85.1947 245.582 84.8984C245.646 84.5977 245.753 84.3265 245.903 84.085C246.058 83.8434 246.263 83.6042 246.519 83.3672C246.733 83.1758 246.92 82.9935 247.079 82.8203C247.239 82.6471 247.364 82.4694 247.455 82.2871C247.546 82.1003 247.592 81.8929 247.592 81.665C247.592 81.4007 247.551 81.182 247.469 81.0088C247.391 80.8311 247.273 80.6966 247.113 80.6055C246.958 80.5143 246.762 80.4688 246.525 80.4688C246.329 80.4688 246.147 80.512 245.979 80.5986C245.81 80.6807 245.671 80.8083 245.562 80.9814C245.457 81.1546 245.402 81.3825 245.397 81.665H243.415C243.429 81.0407 243.572 80.5257 243.846 80.1201C244.124 79.71 244.495 79.4069 244.96 79.2109C245.425 79.0104 245.947 78.9102 246.525 78.9102C247.163 78.9102 247.71 79.015 248.166 79.2246C248.622 79.4297 248.97 79.7327 249.212 80.1338C249.453 80.5303 249.574 81.0133 249.574 81.583C249.574 81.9795 249.497 82.3327 249.342 82.6426C249.187 82.9479 248.984 83.2327 248.733 83.4971C248.483 83.7614 248.207 84.0348 247.906 84.3174C247.646 84.5498 247.469 84.7936 247.373 85.0488C247.282 85.304 247.234 85.6071 247.229 85.958ZM245.281 88.0703C245.281 87.7786 245.382 87.5371 245.582 87.3457C245.783 87.1497 246.051 87.0518 246.389 87.0518C246.721 87.0518 246.988 87.1497 247.188 87.3457C247.394 87.5371 247.496 87.7786 247.496 88.0703C247.496 88.3529 247.394 88.5921 247.188 88.7881C246.988 88.984 246.721 89.082 246.389 89.082C246.051 89.082 245.783 88.984 245.582 88.7881C245.382 88.5921 245.281 88.3529 245.281 88.0703Z" fill="black"/>
</g>
<defs>
<clipPath id="clip0_4628_12456">
<rect width="340" height="253" fill="white"/>
</clipPath>
</defs>
</svg>
