<svg width="377" height="284" viewBox="0 0 377 284" fill="none" xmlns="http://www.w3.org/2000/svg">
<path d="M341.443 178.881C341.443 178.881 370.462 146.267 361.238 89.5176C352.014 32.7688 304.625 11.8607 273.198 22.7833C241.771 33.706 234.682 52.7169 209.014 63.5884C183.346 74.4599 134.572 66.9964 110.182 103.513C85.7921 140.03 116.93 200.539 156.571 238.481C196.211 276.424 297.366 252.67 341.443 178.881Z" fill="#0F75BB"/>
<path opacity="0.7" d="M341.443 178.881C341.443 178.881 370.462 146.267 361.238 89.5176C352.014 32.7688 304.625 11.8607 273.198 22.7833C241.771 33.706 234.682 52.7169 209.014 63.5884C183.346 74.4599 134.572 66.9964 110.182 103.513C85.7921 140.03 116.93 200.539 156.571 238.481C196.211 276.424 297.366 252.67 341.443 178.881Z" fill="white"/>
<path d="M127.978 270.51H355.263" stroke="#263238" stroke-miterlimit="10"/>
<path d="M320.791 270.51L317.508 232.664H239.777L235.483 270.51H320.791Z" fill="#263238" stroke="#263238" stroke-miterlimit="10"/>
<path d="M273.181 117.956C273.181 117.956 250.461 124.204 240.521 131.724C230.581 139.245 223.708 146.935 225.31 161.505C226.912 176.074 237.317 215.936 237.317 215.936C237.317 215.936 235.875 232.107 235.875 233.067C235.875 234.027 235.716 236.748 239.237 236.907C242.759 237.066 285.024 238.832 294.47 238.991C303.915 239.15 316.406 238.19 317.843 237.071C318.554 236.48 319.135 235.748 319.549 234.921C319.962 234.094 320.199 233.19 320.245 232.266C320.405 230.346 322.006 206.808 322.006 206.808L322.165 196.244C322.165 196.244 332.577 161.664 333.213 150.457C333.849 139.25 329.691 135.57 325.051 132.048C320.41 128.527 305.96 122.563 298.156 120.2C290.352 117.837 273.181 117.956 273.181 117.956Z" fill="#0F75BB" stroke="#263238" stroke-miterlimit="10"/>
<path d="M278.787 171.689C277.651 187.281 275.572 215.993 275.754 220.941C276.009 227.757 273.232 229.773 273.232 232.301" stroke="#263238" stroke-miterlimit="10"/>
<path d="M279.543 161.631C279.543 161.631 279.338 164.283 279.026 168.481" stroke="#263238" stroke-miterlimit="10"/>
<path d="M289.687 181.658L291.141 198.812L299.281 198.232L289.687 181.658Z" fill="#263238" stroke="#263238" stroke-miterlimit="10"/>
<path d="M281.974 211.568C281.974 211.568 301.854 208.444 303.347 208.774C304.841 209.103 315.02 214.034 316.502 214.363C317.467 214.591 318.403 214.923 319.297 215.351L321.529 217.22L320.768 211.568C320.768 211.568 317.809 207.95 311.231 205.32C304.654 202.691 301.365 204.184 299.871 204.667C298.377 205.15 281.974 211.568 281.974 211.568Z" fill="#263238" stroke="#263238" stroke-miterlimit="10"/>
<path d="M251.404 196.567L303.092 196.402C303.092 196.402 319.746 194.806 320.382 194.642C321.018 194.477 327.59 196.243 328.232 196.726C328.873 197.209 328.868 198.646 328.55 200.089L328.232 201.526C328.466 202.744 328.625 203.975 328.709 205.212C328.709 206.348 327.431 206.649 327.266 207.132C327.101 207.615 328.232 209.37 326.948 210.495L325.67 211.631C325.67 211.631 325.505 214.675 324.869 215.476C324.233 216.277 322.307 217.714 321.507 217.237C320.706 216.76 321.024 215.476 321.024 214.675C321.024 213.874 320.706 213.073 319.746 213.073C318.786 213.073 318.61 213.874 313.662 212.59C308.715 211.307 303.257 206.99 302.774 206.825C302.291 206.661 258.907 218.356 246.099 219.957C233.29 221.559 232.171 219.798 231.689 217.685C231.206 215.572 230.411 210.642 230.411 210.642L228.139 200.878L251.404 196.567Z" fill="white" stroke="#263238" stroke-miterlimit="10"/>
<path d="M285.012 136.723C285.012 136.723 287.688 133.883 289.375 135.173C291.061 136.462 292.606 143.187 294.714 142.625C296.821 142.062 301.041 128.993 301.041 123.79C301.041 118.587 297.383 115.497 296.543 115.213C295.702 114.929 274.192 114.645 271.659 115.639C269.125 116.633 268.148 125.477 267.166 130.816C266.183 136.155 268.427 137.422 269.835 136.723C271.244 136.025 276.719 133.77 277.986 133.77C279.253 133.77 285.012 136.723 285.012 136.723Z" fill="#0F75BB" stroke="#263238" stroke-miterlimit="10"/>
<path d="M299.411 107.092C299.411 107.092 297.395 117.055 296.611 119.514C295.827 121.973 290.119 129.477 288.659 131.044C287.199 132.612 282.951 140.331 281.843 140.558C280.736 140.786 277.6 130.261 277.6 130.261C277.6 130.261 273.567 123.32 272.784 121.53C272 119.741 270.784 114.481 270.784 114.481C270.784 114.481 277.384 120.161 284.416 118.957C291.448 117.753 295.043 110.676 295.043 110.676L299.411 107.092Z" fill="white" stroke="#263238" stroke-miterlimit="10"/>
<path d="M272.085 87.2457C272.085 87.2457 270.114 85.1327 268.989 88.3817C267.864 91.6306 270.125 97.3731 270.125 97.3731L272.085 87.2457Z" fill="white" stroke="#263238" stroke-miterlimit="10"/>
<path d="M272.437 80.6564C272.437 80.6564 269.193 103.712 269.193 105.08C269.193 106.449 268.296 110.897 269.642 113.811C270.988 116.724 275.01 120.297 278.259 120.746C281.508 121.195 287.881 120.524 291.465 117.724C295.049 114.924 299.184 108.886 299.184 108.886C299.184 108.886 303.665 108.21 306.568 106.983C309.47 105.756 311.714 102.95 311.606 100.042C311.477 98.1802 310.817 96.3943 309.703 94.8962L307.999 91.7608L312.475 83.3658C312.475 83.3658 309.902 78.5548 301.621 73.9654C293.339 69.376 285.949 67.9219 282.485 67.9219C279.02 67.9219 274.646 69.376 273.397 72.1762C272.147 74.9764 272.437 80.6564 272.437 80.6564Z" fill="white" stroke="#263238" stroke-miterlimit="10"/>
<path d="M283.07 69.3758C283.07 69.3758 289.449 79.8952 294.265 79.4521C299.082 79.0091 300.513 76.7655 300.513 76.7655L303.757 81.1277C303.757 81.1277 300.292 82.5818 300.962 84.3767C301.632 86.1716 304.654 90.193 304.654 90.193L302.189 100.712C302.189 100.712 304.092 101.048 304.433 100.377C304.773 99.707 306.443 95.5663 306.443 95.5663C306.895 95.2768 307.384 95.0512 307.897 94.8961C308.489 94.7689 309.101 94.7689 309.692 94.8961C309.692 94.8961 310.919 90.7553 311.396 90.6417C311.873 90.5281 316.321 89.2956 318.002 84.9333C319.683 80.5711 317.105 73.6301 311.283 68.1489C305.461 62.6677 293.152 61.208 292.482 60.1969C291.812 59.1859 295.617 60.64 294.833 58.4021C294.05 56.1641 289.125 53.256 282.86 56.3913C276.595 59.5267 277.487 62.9915 278.157 64.1105L278.827 65.2465C278.827 65.2465 273.567 63.4573 269.875 65.6952C266.183 67.9331 264.394 72.4089 266.07 72.8577C267.745 73.3064 269.875 72.2897 269.875 72.2897C269.875 72.2897 267.638 75.9817 268.308 76.7655C268.978 77.5493 272.448 80.679 272.448 80.679C272.448 80.679 273.795 72.8463 276.589 71.7273C279.384 70.6084 283.07 69.3758 283.07 69.3758Z" fill="#263238" stroke="#263238" stroke-miterlimit="10"/>
<path d="M281.053 84.4844L282.064 87.7333L276.356 98.4742L282.399 100.826" stroke="#263238" stroke-miterlimit="10"/>
<path d="M279.934 83.2525C279.934 83.2525 277.253 81.1281 275.01 81.6905C272.766 82.2528 274.118 82.5822 275.686 83.1445C277.253 83.7068 280.383 85.1553 279.934 83.2525Z" fill="#263238" stroke="#263238" stroke-miterlimit="10"/>
<path d="M288.222 82.8088C288.222 82.8088 285.643 83.479 286.876 84.0357C288.108 84.5923 291.8 83.4677 293.254 84.0357C294.708 84.6037 296.611 86.5008 296.503 85.6034C296.338 84.8315 295.975 84.1161 295.449 83.5275C294.923 82.9388 294.253 82.4973 293.504 82.2465C291.465 81.5762 288.222 82.8088 288.222 82.8088Z" fill="#263238" stroke="#263238" stroke-miterlimit="10"/>
<path d="M278.458 88.2213C278.259 89.0335 277.714 89.5958 277.231 89.4765C276.748 89.3573 276.521 88.6132 276.714 87.8009C276.907 86.9887 277.464 86.4264 277.941 86.54C278.418 86.6536 278.651 87.409 278.458 88.2213Z" fill="#263238"/>
<path d="M290.664 91.4138C290.465 92.2204 289.914 92.7827 289.437 92.6691C288.96 92.5555 288.727 91.8001 288.92 90.9651C289.114 90.1302 289.665 89.5906 290.147 89.7098C290.63 89.8291 290.852 90.6016 290.664 91.4138Z" fill="#263238"/>
<path d="M272.886 102.166L277.475 105.188" stroke="#263238" stroke-miterlimit="10"/>
<path d="M320.086 129.322C320.086 129.322 335.934 135.411 338.978 144.533C342.022 153.655 338.177 165.186 336.575 169.991C334.974 174.796 325.051 193.523 323.449 198.005C321.847 202.486 319.445 207.933 319.445 207.933C319.445 207.933 317.207 194.483 311.112 186.162C305.017 177.841 303.586 170.309 303.586 170.309C303.586 170.309 314.634 150.776 317.513 144.692" fill="#0F75BB"/>
<path d="M320.086 129.322C320.086 129.322 335.934 135.411 338.978 144.533C342.022 153.655 338.177 165.186 336.575 169.991C334.974 174.796 325.051 193.523 323.449 198.005C321.847 202.486 319.445 207.933 319.445 207.933C319.445 207.933 317.207 194.483 311.112 186.162C305.017 177.841 303.586 170.309 303.586 170.309C303.586 170.309 314.634 150.776 317.513 144.692" stroke="#263238" stroke-miterlimit="10"/>
<path d="M305.279 166.924C305.279 166.924 308.522 165.305 309.601 165.844C310.681 166.384 324.557 173.796 326.357 182.243C327.658 188.596 326.769 195.203 323.835 200.987C322.211 204.054 319.149 209.995 316.809 210.716C314.469 211.438 312.481 192.16 307.619 182.072C302.757 171.985 305.279 166.924 305.279 166.924Z" fill="#0F75BB" stroke="#263238" stroke-miterlimit="10"/>
<path d="M310.641 157.66C310.641 157.66 313.52 147.896 314.645 144.057" stroke="#263238" stroke-miterlimit="10"/>
<path d="M281.73 122.983C281.73 122.983 277.254 116.735 273.778 112.577C270.301 108.42 266.723 105.972 265.496 106.329C264.269 106.687 263.792 107.897 264.599 109.351C265.405 110.805 269.075 114.054 269.745 114.952C270.415 115.849 271.449 119.092 271.449 119.092C271.449 119.092 268.206 119.314 267.643 119.984C267.12 120.762 266.672 121.587 266.303 122.449C265.627 122.791 265.043 123.29 264.599 123.903C264.265 124.371 264.036 124.906 263.928 125.471C263.815 125.92 262.224 126.704 262.361 128.714C262.497 130.725 264.377 133.639 265.047 134.962C265.718 136.286 270.642 142.233 271.54 143.244C272.437 144.255 277.583 153.201 278.924 156.223C280.264 159.244 293.249 194.279 297.054 199.538C300.86 204.798 307.909 209.83 311.714 211.625C315.52 213.42 318.207 210.393 319.996 206.587C321.785 202.782 323.353 195.17 319.888 186.44C316.423 177.71 309.59 170.212 304.33 165.737C299.071 161.261 289.222 150.071 288.103 148.055C286.984 146.038 285.552 141.562 285.552 141.562C285.552 141.562 288.46 133.042 288.682 131.043C288.903 129.044 287.79 125.448 288.114 123.881C288.438 122.313 289.79 119.178 290.352 117.837C290.914 116.497 292.811 114.253 291.806 113.248C290.801 112.242 286.66 113.469 285.206 115.821C283.909 118.139 282.748 120.53 281.73 122.983Z" fill="white" stroke="#263238" stroke-miterlimit="10"/>
<path d="M247.138 147.22C247.473 145.442 247.706 144.215 247.706 144.215L247.138 147.22Z" fill="#0F75BB"/>
<path d="M247.138 147.22C247.473 145.442 247.706 144.215 247.706 144.215" stroke="#263238" stroke-miterlimit="10"/>
<path d="M246.121 128.846C246.121 128.846 237.636 129.982 228.832 139.411C220.028 148.839 223.867 171.27 224.668 175.916C225.469 180.562 226.753 194.825 226.753 194.825L249.325 187.299C249.325 187.299 245.644 162.165 245.321 159.921C245.162 158.785 245.775 154.809 246.423 151.117" fill="#0F75BB"/>
<path d="M246.121 128.846C246.121 128.846 237.636 129.982 228.832 139.411C220.028 148.839 223.867 171.27 224.668 175.916C225.469 180.562 226.753 194.825 226.753 194.825L249.325 187.299C249.325 187.299 245.644 162.165 245.321 159.921C245.162 158.785 245.775 154.809 246.423 151.117" stroke="#263238" stroke-miterlimit="10"/>
<path d="M224.509 189.844C224.509 189.844 226.753 201.851 227.872 202.487C228.991 203.123 246.44 198.33 248.365 198.006C250.291 197.682 251.404 198.165 251.404 196.569C251.404 194.973 249.802 187.441 248.842 186.163C247.882 184.885 227.071 187.6 225.31 188.083C223.549 188.566 224.509 189.844 224.509 189.844Z" fill="#0F75BB" stroke="#263238" stroke-miterlimit="10"/>
<path d="M237.272 180.563C241.248 182.155 245.107 184.027 248.819 186.163C248.819 186.163 243.378 175.939 241.134 173.832" stroke="#263238" stroke-miterlimit="10"/>
<path d="M234.273 179.438C234.915 179.659 235.551 179.892 236.176 180.125" stroke="#263238" stroke-miterlimit="10"/>
<path d="M286.779 231.848C290.92 230.371 294.731 228.746 297.003 227.145" stroke="#263238" stroke-miterlimit="10"/>
<path d="M267.257 237.55C267.257 237.55 276.101 235.454 284.496 232.637" stroke="#263238" stroke-miterlimit="10"/>
<path d="M304.455 226.479C300.104 228.648 293.214 231.818 287.585 233.226" stroke="#263238" stroke-miterlimit="10"/>
<path d="M308.721 224.264C308.721 224.264 307.829 224.758 306.347 225.519" stroke="#263238" stroke-miterlimit="10"/>
<path d="M71.0197 21.0914C-0.55675 39.5115 -14.1314 93.5917 31.2669 126.099C40.7542 132.895 53.1549 138.641 67.8501 141.954C118.008 153.316 158.209 130.723 182.658 109.959C221.696 76.8192 226.573 68.6268 225.88 74.2081C225.186 79.7894 243.307 85.7527 253.765 56.3581C267.137 18.7311 168.572 10.1795 118.68 13.737C102.168 14.8325 86.0826 17.3146 71.0197 21.0914Z" fill="#263238" stroke="#263238" stroke-miterlimit="10"/>
<path d="M252.998 89.2457C255.232 85.2117 255.081 80.8548 252.661 79.5143C250.24 78.1737 246.467 80.3572 244.233 84.3912C241.999 88.4251 242.15 92.782 244.57 94.1226C246.99 95.4631 250.764 93.2796 252.998 89.2457Z" fill="#263238" stroke="#263238" stroke-miterlimit="10"/>
<path d="M256.976 90.0734C255.658 92.4533 255.749 95.032 257.175 95.8216C258.6 96.6111 260.838 95.3217 262.156 92.9418C263.474 90.5619 263.388 87.9832 261.957 87.1936C260.526 86.4041 258.288 87.6878 256.976 90.0734Z" fill="#263238" stroke="#263238" stroke-miterlimit="10"/>
<path d="M75.0401 18.0739C3.44199 36.3287 -10.1327 89.99 35.2658 122.246C44.7531 128.989 57.1646 134.691 71.8492 137.977C122.007 149.252 162.209 126.833 186.658 106.231C225.696 73.3474 230.584 65.2184 229.879 70.7565C229.175 76.2946 247.307 82.2117 257.765 53.0222C271.137 15.6867 172.571 7.20138 122.68 10.7313C106.17 11.8338 90.0915 14.3119 75.0401 18.0739Z" fill="white" stroke="#263238" stroke-miterlimit="10"/>
<path d="M246.428 80.883C244.19 84.9158 244.344 89.2723 246.763 90.6128C249.183 91.9533 252.954 89.7665 255.192 85.7337C257.43 81.7009 257.271 77.3443 254.852 76.0038C252.432 74.6634 248.66 76.8502 246.428 80.883Z" fill="white" stroke="#263238" stroke-miterlimit="10"/>
<path d="M259.174 86.5636C257.851 88.9492 257.942 91.5223 259.373 92.3118C260.804 93.1013 263.031 91.8176 264.349 89.432C265.667 87.0464 265.581 84.4734 264.15 83.6839C262.719 82.8944 260.492 84.178 259.174 86.5636Z" fill="white" stroke="#263238" stroke-miterlimit="10"/>
<path d="M30.5615 66.7549H33.1895C33.1367 67.6162 32.8994 68.3809 32.4775 69.0488C32.0615 69.7168 31.4785 70.2383 30.7285 70.6133C29.9844 70.9883 29.0879 71.1758 28.0391 71.1758C27.2188 71.1758 26.4834 71.0352 25.833 70.7539C25.1826 70.4668 24.626 70.0566 24.1631 69.5234C23.7061 68.9902 23.3574 68.3457 23.1172 67.5898C22.877 66.834 22.7568 65.9873 22.7568 65.0498V64.1621C22.7568 63.2246 22.8799 62.3779 23.126 61.6221C23.3779 60.8604 23.7354 60.2129 24.1982 59.6797C24.667 59.1465 25.2266 58.7363 25.877 58.4492C26.5273 58.1621 27.2539 58.0186 28.0566 58.0186C29.123 58.0186 30.0225 58.2119 30.7549 58.5986C31.4932 58.9854 32.0645 59.5186 32.4688 60.1982C32.8789 60.8779 33.125 61.6514 33.207 62.5186H30.5703C30.541 62.0029 30.4385 61.5664 30.2627 61.209C30.0869 60.8457 29.8203 60.5732 29.4629 60.3916C29.1113 60.2041 28.6426 60.1104 28.0566 60.1104C27.6172 60.1104 27.2334 60.1924 26.9053 60.3564C26.5771 60.5205 26.3018 60.7695 26.0791 61.1035C25.8564 61.4375 25.6895 61.8594 25.5781 62.3691C25.4727 62.873 25.4199 63.4648 25.4199 64.1445V65.0498C25.4199 65.7119 25.4697 66.2949 25.5693 66.7988C25.6689 67.2969 25.8213 67.7188 26.0264 68.0645C26.2373 68.4043 26.5068 68.6621 26.835 68.8379C27.1689 69.0078 27.5703 69.0928 28.0391 69.0928C28.5898 69.0928 29.0439 69.0049 29.4014 68.8291C29.7588 68.6533 30.0312 68.3926 30.2188 68.0469C30.4121 67.7012 30.5264 67.2705 30.5615 66.7549ZM39.8955 68.8555V64.6191C39.8955 64.3145 39.8457 64.0537 39.7461 63.8369C39.6465 63.6143 39.4912 63.4414 39.2803 63.3184C39.0752 63.1953 38.8086 63.1338 38.4805 63.1338C38.1992 63.1338 37.9561 63.1836 37.751 63.2832C37.5459 63.377 37.3877 63.5146 37.2764 63.6963C37.165 63.8721 37.1094 64.0801 37.1094 64.3203H34.5781C34.5781 63.916 34.6719 63.5322 34.8594 63.1689C35.0469 62.8057 35.3193 62.4863 35.6768 62.2109C36.0342 61.9297 36.459 61.71 36.9512 61.5518C37.4492 61.3936 38.0059 61.3145 38.6211 61.3145C39.3594 61.3145 40.0156 61.4375 40.5898 61.6836C41.1641 61.9297 41.6152 62.2988 41.9434 62.791C42.2773 63.2832 42.4443 63.8984 42.4443 64.6367V68.7061C42.4443 69.2275 42.4766 69.6553 42.541 69.9893C42.6055 70.3174 42.6992 70.6045 42.8223 70.8506V71H40.2646C40.1416 70.7422 40.0479 70.4199 39.9834 70.0332C39.9248 69.6406 39.8955 69.248 39.8955 68.8555ZM40.2295 65.208L40.2471 66.6406H38.832C38.498 66.6406 38.208 66.6787 37.9619 66.7549C37.7158 66.8311 37.5137 66.9395 37.3555 67.0801C37.1973 67.2148 37.0801 67.373 37.0039 67.5547C36.9336 67.7363 36.8984 67.9355 36.8984 68.1523C36.8984 68.3691 36.9482 68.5654 37.0479 68.7412C37.1475 68.9111 37.291 69.0459 37.4785 69.1455C37.666 69.2393 37.8857 69.2861 38.1377 69.2861C38.5186 69.2861 38.8496 69.21 39.1309 69.0576C39.4121 68.9053 39.6289 68.7178 39.7812 68.4951C39.9395 68.2725 40.0215 68.0615 40.0273 67.8623L40.6953 68.9346C40.6016 69.1748 40.4727 69.4238 40.3086 69.6816C40.1504 69.9395 39.9482 70.1826 39.7021 70.4111C39.4561 70.6338 39.1602 70.8184 38.8145 70.9648C38.4688 71.1055 38.0586 71.1758 37.584 71.1758C36.9805 71.1758 36.4326 71.0557 35.9404 70.8154C35.4541 70.5693 35.0674 70.2324 34.7803 69.8047C34.499 69.3711 34.3584 68.8789 34.3584 68.3281C34.3584 67.8301 34.4521 67.3877 34.6396 67.001C34.8271 66.6143 35.1025 66.2891 35.4658 66.0254C35.835 65.7559 36.2949 65.5537 36.8457 65.4189C37.3965 65.2783 38.0352 65.208 38.7617 65.208H40.2295ZM46.874 63.5205V71H44.3428V61.4902H46.7158L46.874 63.5205ZM46.5049 65.9111H45.8193C45.8193 65.208 45.9102 64.5752 46.0918 64.0127C46.2734 63.4443 46.5283 62.9609 46.8564 62.5625C47.1846 62.1582 47.5742 61.8506 48.0254 61.6396C48.4824 61.4229 48.9922 61.3145 49.5547 61.3145C50 61.3145 50.4072 61.3789 50.7764 61.5078C51.1455 61.6367 51.4619 61.8418 51.7256 62.123C51.9951 62.4043 52.2002 62.7764 52.3408 63.2393C52.4873 63.7021 52.5605 64.2676 52.5605 64.9355V71H50.0117V64.9268C50.0117 64.5049 49.9531 64.1768 49.8359 63.9424C49.7188 63.708 49.5459 63.5439 49.3174 63.4502C49.0947 63.3506 48.8193 63.3008 48.4912 63.3008C48.1514 63.3008 47.8555 63.3682 47.6035 63.5029C47.3574 63.6377 47.1523 63.8252 46.9883 64.0654C46.8301 64.2998 46.71 64.5752 46.6279 64.8916C46.5459 65.208 46.5049 65.5479 46.5049 65.9111ZM61.7891 69.9277L64.3115 61.4902H67.0273L63.2041 72.4326C63.1221 72.6729 63.0107 72.9307 62.8701 73.2061C62.7354 73.4814 62.5508 73.7422 62.3164 73.9883C62.0879 74.2402 61.7979 74.4453 61.4463 74.6035C61.1006 74.7617 60.6758 74.8408 60.1719 74.8408C59.9316 74.8408 59.7354 74.8262 59.583 74.7969C59.4307 74.7676 59.249 74.7266 59.0381 74.6738V72.8193C59.1025 72.8193 59.1699 72.8193 59.2402 72.8193C59.3105 72.8252 59.3779 72.8281 59.4424 72.8281C59.7764 72.8281 60.0488 72.79 60.2598 72.7139C60.4707 72.6377 60.6406 72.5205 60.7695 72.3623C60.8984 72.21 61.001 72.0107 61.0771 71.7646L61.7891 69.9277ZM60.7344 61.4902L62.7998 68.3809L63.1602 71.0615L61.4375 71.2461L58.0186 61.4902H60.7344ZM67.4932 66.3418V66.1572C67.4932 65.46 67.5928 64.8184 67.792 64.2324C67.9912 63.6406 68.2812 63.1279 68.6621 62.6943C69.043 62.2607 69.5117 61.9238 70.0684 61.6836C70.625 61.4375 71.2637 61.3145 71.9844 61.3145C72.7051 61.3145 73.3467 61.4375 73.9092 61.6836C74.4717 61.9238 74.9434 62.2607 75.3242 62.6943C75.7109 63.1279 76.0039 63.6406 76.2031 64.2324C76.4023 64.8184 76.502 65.46 76.502 66.1572V66.3418C76.502 67.0332 76.4023 67.6748 76.2031 68.2666C76.0039 68.8525 75.7109 69.3652 75.3242 69.8047C74.9434 70.2383 74.4746 70.5752 73.918 70.8154C73.3613 71.0557 72.7227 71.1758 72.002 71.1758C71.2812 71.1758 70.6396 71.0557 70.0771 70.8154C69.5205 70.5752 69.0488 70.2383 68.6621 69.8047C68.2812 69.3652 67.9912 68.8525 67.792 68.2666C67.5928 67.6748 67.4932 67.0332 67.4932 66.3418ZM70.0244 66.1572V66.3418C70.0244 66.7402 70.0596 67.1123 70.1299 67.458C70.2002 67.8037 70.3115 68.1084 70.4639 68.3721C70.6221 68.6299 70.8271 68.832 71.0791 68.9785C71.3311 69.125 71.6387 69.1982 72.002 69.1982C72.3535 69.1982 72.6553 69.125 72.9072 68.9785C73.1592 68.832 73.3613 68.6299 73.5137 68.3721C73.666 68.1084 73.7773 67.8037 73.8477 67.458C73.9238 67.1123 73.9619 66.7402 73.9619 66.3418V66.1572C73.9619 65.7705 73.9238 65.4072 73.8477 65.0674C73.7773 64.7217 73.6631 64.417 73.5049 64.1533C73.3525 63.8838 73.1504 63.6729 72.8984 63.5205C72.6465 63.3682 72.3418 63.292 71.9844 63.292C71.627 63.292 71.3223 63.3682 71.0703 63.5205C70.8242 63.6729 70.6221 63.8838 70.4639 64.1533C70.3115 64.417 70.2002 64.7217 70.1299 65.0674C70.0596 65.4072 70.0244 65.7705 70.0244 66.1572ZM83.6826 68.7236V61.4902H86.2139V71H83.832L83.6826 68.7236ZM83.9639 66.7725L84.7109 66.7549C84.7109 67.3877 84.6377 67.9766 84.4912 68.5215C84.3447 69.0605 84.125 69.5293 83.832 69.9277C83.5391 70.3203 83.1699 70.6279 82.7246 70.8506C82.2793 71.0674 81.7549 71.1758 81.1514 71.1758C80.6885 71.1758 80.2607 71.1113 79.8682 70.9824C79.4814 70.8477 79.1475 70.6396 78.8662 70.3584C78.5908 70.0713 78.374 69.7051 78.2158 69.2598C78.0635 68.8086 77.9873 68.2666 77.9873 67.6338V61.4902H80.5186V67.6514C80.5186 67.9326 80.5508 68.1699 80.6152 68.3633C80.6855 68.5566 80.7822 68.7148 80.9053 68.8379C81.0283 68.9609 81.1719 69.0488 81.3359 69.1016C81.5059 69.1543 81.6934 69.1807 81.8984 69.1807C82.4199 69.1807 82.8301 69.0752 83.1289 68.8643C83.4336 68.6533 83.6475 68.3662 83.7705 68.0029C83.8994 67.6338 83.9639 67.2236 83.9639 66.7725ZM97.2881 61.4902V63.2832H91.751V61.4902H97.2881ZM93.1221 59.1436H95.6533V68.1348C95.6533 68.4102 95.6885 68.6211 95.7588 68.7676C95.835 68.9141 95.9463 69.0166 96.0928 69.0752C96.2393 69.1279 96.4238 69.1543 96.6465 69.1543C96.8047 69.1543 96.9453 69.1484 97.0684 69.1367C97.1973 69.1191 97.3057 69.1016 97.3936 69.084L97.4023 70.9473C97.1855 71.0176 96.9512 71.0732 96.6992 71.1143C96.4473 71.1553 96.1689 71.1758 95.8643 71.1758C95.3076 71.1758 94.8213 71.085 94.4053 70.9033C93.9951 70.7158 93.6787 70.417 93.4561 70.0068C93.2334 69.5967 93.1221 69.0576 93.1221 68.3896V59.1436ZM103.106 71.1758C102.368 71.1758 101.706 71.0586 101.12 70.8242C100.534 70.584 100.036 70.2529 99.626 69.8311C99.2217 69.4092 98.9111 68.9199 98.6943 68.3633C98.4775 67.8008 98.3691 67.2031 98.3691 66.5703V66.2188C98.3691 65.498 98.4717 64.8389 98.6768 64.2412C98.8818 63.6436 99.1748 63.125 99.5557 62.6855C99.9424 62.2461 100.411 61.9092 100.962 61.6748C101.513 61.4346 102.134 61.3145 102.825 61.3145C103.499 61.3145 104.097 61.4258 104.618 61.6484C105.14 61.8711 105.576 62.1875 105.928 62.5977C106.285 63.0078 106.555 63.5 106.736 64.0742C106.918 64.6426 107.009 65.2754 107.009 65.9727V67.0273H99.4502V65.3398H104.521V65.1465C104.521 64.7949 104.457 64.4814 104.328 64.2061C104.205 63.9248 104.018 63.7021 103.766 63.5381C103.514 63.374 103.191 63.292 102.799 63.292C102.465 63.292 102.178 63.3652 101.938 63.5117C101.697 63.6582 101.501 63.8633 101.349 64.127C101.202 64.3906 101.091 64.7012 101.015 65.0586C100.944 65.4102 100.909 65.7969 100.909 66.2188V66.5703C100.909 66.9512 100.962 67.3027 101.067 67.625C101.179 67.9473 101.334 68.2256 101.533 68.46C101.738 68.6943 101.984 68.876 102.271 69.0049C102.564 69.1338 102.896 69.1982 103.265 69.1982C103.722 69.1982 104.146 69.1104 104.539 68.9346C104.938 68.7529 105.28 68.4805 105.567 68.1172L106.798 69.4531C106.599 69.7402 106.326 70.0156 105.98 70.2793C105.641 70.543 105.23 70.7598 104.75 70.9297C104.27 71.0938 103.722 71.1758 103.106 71.1758ZM111.122 57.5V71H108.582V57.5H111.122ZM115.886 57.5V71H113.346V57.5H115.886ZM124.991 63.459V71H122.451V61.4902H124.833L124.991 63.459ZM124.64 65.9111H123.937C123.937 65.249 124.016 64.6396 124.174 64.083C124.338 63.5205 124.575 63.0342 124.886 62.624C125.202 62.208 125.592 61.8857 126.055 61.6572C126.518 61.4287 127.054 61.3145 127.663 61.3145C128.085 61.3145 128.472 61.3789 128.823 61.5078C129.175 61.6309 129.477 61.8271 129.729 62.0967C129.986 62.3604 130.186 62.7061 130.326 63.1338C130.467 63.5557 130.537 64.0625 130.537 64.6543V71H128.006V64.9355C128.006 64.502 127.947 64.168 127.83 63.9336C127.713 63.6992 127.546 63.5352 127.329 63.4414C127.118 63.3477 126.863 63.3008 126.564 63.3008C126.236 63.3008 125.949 63.3682 125.703 63.5029C125.463 63.6377 125.264 63.8252 125.105 64.0654C124.947 64.2998 124.83 64.5752 124.754 64.8916C124.678 65.208 124.64 65.5479 124.64 65.9111ZM130.3 65.6211L129.395 65.7354C129.395 65.1143 129.471 64.5371 129.623 64.0039C129.781 63.4707 130.013 63.002 130.317 62.5977C130.628 62.1934 131.012 61.8799 131.469 61.6572C131.926 61.4287 132.453 61.3145 133.051 61.3145C133.508 61.3145 133.924 61.3818 134.299 61.5166C134.674 61.6455 134.993 61.8535 135.257 62.1406C135.526 62.4219 135.731 62.791 135.872 63.248C136.019 63.7051 136.092 64.2646 136.092 64.9268V71H133.552V64.9268C133.552 64.4873 133.493 64.1533 133.376 63.9248C133.265 63.6904 133.101 63.5293 132.884 63.4414C132.673 63.3477 132.421 63.3008 132.128 63.3008C131.823 63.3008 131.557 63.3623 131.328 63.4854C131.1 63.6025 130.909 63.7666 130.757 63.9775C130.604 64.1885 130.49 64.4346 130.414 64.7158C130.338 64.9912 130.3 65.293 130.3 65.6211ZM142.429 71.1758C141.69 71.1758 141.028 71.0586 140.442 70.8242C139.856 70.584 139.358 70.2529 138.948 69.8311C138.544 69.4092 138.233 68.9199 138.017 68.3633C137.8 67.8008 137.691 67.2031 137.691 66.5703V66.2188C137.691 65.498 137.794 64.8389 137.999 64.2412C138.204 63.6436 138.497 63.125 138.878 62.6855C139.265 62.2461 139.733 61.9092 140.284 61.6748C140.835 61.4346 141.456 61.3145 142.147 61.3145C142.821 61.3145 143.419 61.4258 143.94 61.6484C144.462 61.8711 144.898 62.1875 145.25 62.5977C145.607 63.0078 145.877 63.5 146.059 64.0742C146.24 64.6426 146.331 65.2754 146.331 65.9727V67.0273H138.772V65.3398H143.844V65.1465C143.844 64.7949 143.779 64.4814 143.65 64.2061C143.527 63.9248 143.34 63.7021 143.088 63.5381C142.836 63.374 142.514 63.292 142.121 63.292C141.787 63.292 141.5 63.3652 141.26 63.5117C141.02 63.6582 140.823 63.8633 140.671 64.127C140.524 64.3906 140.413 64.7012 140.337 65.0586C140.267 65.4102 140.231 65.7969 140.231 66.2188V66.5703C140.231 66.9512 140.284 67.3027 140.39 67.625C140.501 67.9473 140.656 68.2256 140.855 68.46C141.061 68.6943 141.307 68.876 141.594 69.0049C141.887 69.1338 142.218 69.1982 142.587 69.1982C143.044 69.1982 143.469 69.1104 143.861 68.9346C144.26 68.7529 144.603 68.4805 144.89 68.1172L146.12 69.4531C145.921 69.7402 145.648 70.0156 145.303 70.2793C144.963 70.543 144.553 70.7598 144.072 70.9297C143.592 71.0938 143.044 71.1758 142.429 71.1758ZM157.616 60.3916L154.136 71H151.332L156.087 58.2031H157.871L157.616 60.3916ZM160.508 71L157.019 60.3916L156.737 58.2031H158.539L163.32 71H160.508ZM160.35 66.2363V68.3018H153.591V66.2363H160.35ZM167.021 57.5V71H164.48V57.5H167.021ZM171.784 57.5V71H169.244V57.5H171.784ZM183.491 68.8555V64.6191C183.491 64.3145 183.441 64.0537 183.342 63.8369C183.242 63.6143 183.087 63.4414 182.876 63.3184C182.671 63.1953 182.404 63.1338 182.076 63.1338C181.795 63.1338 181.552 63.1836 181.347 63.2832C181.142 63.377 180.983 63.5146 180.872 63.6963C180.761 63.8721 180.705 64.0801 180.705 64.3203H178.174C178.174 63.916 178.268 63.5322 178.455 63.1689C178.643 62.8057 178.915 62.4863 179.272 62.2109C179.63 61.9297 180.055 61.71 180.547 61.5518C181.045 61.3936 181.602 61.3145 182.217 61.3145C182.955 61.3145 183.611 61.4375 184.186 61.6836C184.76 61.9297 185.211 62.2988 185.539 62.791C185.873 63.2832 186.04 63.8984 186.04 64.6367V68.7061C186.04 69.2275 186.072 69.6553 186.137 69.9893C186.201 70.3174 186.295 70.6045 186.418 70.8506V71H183.86C183.737 70.7422 183.644 70.4199 183.579 70.0332C183.521 69.6406 183.491 69.248 183.491 68.8555ZM183.825 65.208L183.843 66.6406H182.428C182.094 66.6406 181.804 66.6787 181.558 66.7549C181.312 66.8311 181.109 66.9395 180.951 67.0801C180.793 67.2148 180.676 67.373 180.6 67.5547C180.529 67.7363 180.494 67.9355 180.494 68.1523C180.494 68.3691 180.544 68.5654 180.644 68.7412C180.743 68.9111 180.887 69.0459 181.074 69.1455C181.262 69.2393 181.481 69.2861 181.733 69.2861C182.114 69.2861 182.445 69.21 182.727 69.0576C183.008 68.9053 183.225 68.7178 183.377 68.4951C183.535 68.2725 183.617 68.0615 183.623 67.8623L184.291 68.9346C184.197 69.1748 184.068 69.4238 183.904 69.6816C183.746 69.9395 183.544 70.1826 183.298 70.4111C183.052 70.6338 182.756 70.8184 182.41 70.9648C182.064 71.1055 181.654 71.1758 181.18 71.1758C180.576 71.1758 180.028 71.0557 179.536 70.8154C179.05 70.5693 178.663 70.2324 178.376 69.8047C178.095 69.3711 177.954 68.8789 177.954 68.3281C177.954 67.8301 178.048 67.3877 178.235 67.001C178.423 66.6143 178.698 66.2891 179.062 66.0254C179.431 65.7559 179.891 65.5537 180.441 65.4189C180.992 65.2783 181.631 65.208 182.357 65.208H183.825ZM187.991 57.5H190.522V68.8203L190.268 71H187.991V57.5ZM196.543 66.1484V66.333C196.543 67.042 196.467 67.6924 196.314 68.2842C196.168 68.876 195.939 69.3887 195.629 69.8223C195.318 70.25 194.932 70.584 194.469 70.8242C194.012 71.0586 193.473 71.1758 192.852 71.1758C192.271 71.1758 191.768 71.0586 191.34 70.8242C190.918 70.5898 190.563 70.2588 190.276 69.8311C189.989 69.4033 189.758 68.9023 189.582 68.3281C189.406 67.7539 189.274 67.127 189.187 66.4473V66.043C189.274 65.3633 189.406 64.7363 189.582 64.1621C189.758 63.5879 189.989 63.0869 190.276 62.6592C190.563 62.2314 190.918 61.9004 191.34 61.666C191.762 61.4316 192.26 61.3145 192.834 61.3145C193.461 61.3145 194.006 61.4346 194.469 61.6748C194.938 61.9092 195.324 62.2432 195.629 62.6768C195.939 63.1045 196.168 63.6143 196.314 64.2061C196.467 64.792 196.543 65.4395 196.543 66.1484ZM194.012 66.333V66.1484C194.012 65.7617 193.982 65.3984 193.924 65.0586C193.871 64.7129 193.777 64.4111 193.643 64.1533C193.508 63.8896 193.323 63.6816 193.089 63.5293C192.86 63.377 192.564 63.3008 192.201 63.3008C191.855 63.3008 191.562 63.3594 191.322 63.4766C191.082 63.5938 190.883 63.7578 190.725 63.9688C190.572 64.1797 190.458 64.4316 190.382 64.7246C190.306 65.0117 190.259 65.3281 190.241 65.6738V66.8252C190.259 67.2881 190.335 67.6982 190.47 68.0557C190.61 68.4072 190.821 68.6855 191.103 68.8906C191.39 69.0898 191.762 69.1895 192.219 69.1895C192.576 69.1895 192.872 69.1191 193.106 68.9785C193.341 68.8379 193.522 68.6387 193.651 68.3809C193.786 68.123 193.88 67.8213 193.933 67.4756C193.985 67.124 194.012 66.7432 194.012 66.333ZM197.712 66.3418V66.1572C197.712 65.46 197.812 64.8184 198.011 64.2324C198.21 63.6406 198.5 63.1279 198.881 62.6943C199.262 62.2607 199.73 61.9238 200.287 61.6836C200.844 61.4375 201.482 61.3145 202.203 61.3145C202.924 61.3145 203.565 61.4375 204.128 61.6836C204.69 61.9238 205.162 62.2607 205.543 62.6943C205.93 63.1279 206.223 63.6406 206.422 64.2324C206.621 64.8184 206.721 65.46 206.721 66.1572V66.3418C206.721 67.0332 206.621 67.6748 206.422 68.2666C206.223 68.8525 205.93 69.3652 205.543 69.8047C205.162 70.2383 204.693 70.5752 204.137 70.8154C203.58 71.0557 202.941 71.1758 202.221 71.1758C201.5 71.1758 200.858 71.0557 200.296 70.8154C199.739 70.5752 199.268 70.2383 198.881 69.8047C198.5 69.3652 198.21 68.8525 198.011 68.2666C197.812 67.6748 197.712 67.0332 197.712 66.3418ZM200.243 66.1572V66.3418C200.243 66.7402 200.278 67.1123 200.349 67.458C200.419 67.8037 200.53 68.1084 200.683 68.3721C200.841 68.6299 201.046 68.832 201.298 68.9785C201.55 69.125 201.857 69.1982 202.221 69.1982C202.572 69.1982 202.874 69.125 203.126 68.9785C203.378 68.832 203.58 68.6299 203.732 68.3721C203.885 68.1084 203.996 67.8037 204.066 67.458C204.143 67.1123 204.181 66.7402 204.181 66.3418V66.1572C204.181 65.7705 204.143 65.4072 204.066 65.0674C203.996 64.7217 203.882 64.417 203.724 64.1533C203.571 63.8838 203.369 63.6729 203.117 63.5205C202.865 63.3682 202.561 63.292 202.203 63.292C201.846 63.292 201.541 63.3682 201.289 63.5205C201.043 63.6729 200.841 63.8838 200.683 64.1533C200.53 64.417 200.419 64.7217 200.349 65.0674C200.278 65.4072 200.243 65.7705 200.243 66.1572ZM213.901 68.7236V61.4902H216.433V71H214.051L213.901 68.7236ZM214.183 66.7725L214.93 66.7549C214.93 67.3877 214.856 67.9766 214.71 68.5215C214.563 69.0605 214.344 69.5293 214.051 69.9277C213.758 70.3203 213.389 70.6279 212.943 70.8506C212.498 71.0674 211.974 71.1758 211.37 71.1758C210.907 71.1758 210.479 71.1113 210.087 70.9824C209.7 70.8477 209.366 70.6396 209.085 70.3584C208.81 70.0713 208.593 69.7051 208.435 69.2598C208.282 68.8086 208.206 68.2666 208.206 67.6338V61.4902H210.737V67.6514C210.737 67.9326 210.77 68.1699 210.834 68.3633C210.904 68.5566 211.001 68.7148 211.124 68.8379C211.247 68.9609 211.391 69.0488 211.555 69.1016C211.725 69.1543 211.912 69.1807 212.117 69.1807C212.639 69.1807 213.049 69.0752 213.348 68.8643C213.652 68.6533 213.866 68.3662 213.989 68.0029C214.118 67.6338 214.183 67.2236 214.183 66.7725ZM223.024 61.4902V63.2832H217.487V61.4902H223.024ZM218.858 59.1436H221.39V68.1348C221.39 68.4102 221.425 68.6211 221.495 68.7676C221.571 68.9141 221.683 69.0166 221.829 69.0752C221.976 69.1279 222.16 69.1543 222.383 69.1543C222.541 69.1543 222.682 69.1484 222.805 69.1367C222.934 69.1191 223.042 69.1016 223.13 69.084L223.139 70.9473C222.922 71.0176 222.688 71.0732 222.436 71.1143C222.184 71.1553 221.905 71.1758 221.601 71.1758C221.044 71.1758 220.558 71.085 220.142 70.9033C219.731 70.7158 219.415 70.417 219.192 70.0068C218.97 69.5967 218.858 69.0576 218.858 68.3896V59.1436ZM53.6768 77.4902V79.2832H48.1396V77.4902H53.6768ZM49.5107 75.1436H52.042V84.1348C52.042 84.4102 52.0771 84.6211 52.1475 84.7676C52.2236 84.9141 52.335 85.0166 52.4814 85.0752C52.6279 85.1279 52.8125 85.1543 53.0352 85.1543C53.1934 85.1543 53.334 85.1484 53.457 85.1367C53.5859 85.1191 53.6943 85.1016 53.7822 85.084L53.791 86.9473C53.5742 87.0176 53.3398 87.0732 53.0879 87.1143C52.8359 87.1553 52.5576 87.1758 52.2529 87.1758C51.6963 87.1758 51.21 87.085 50.7939 86.9033C50.3838 86.7158 50.0674 86.417 49.8447 86.0068C49.6221 85.5967 49.5107 85.0576 49.5107 84.3896V75.1436ZM57.5879 73.5V87H55.0566V73.5H57.5879ZM57.2275 81.9111H56.5332C56.5391 81.249 56.627 80.6396 56.7969 80.083C56.9668 79.5205 57.21 79.0342 57.5264 78.624C57.8428 78.208 58.2207 77.8857 58.6602 77.6572C59.1055 77.4287 59.5977 77.3145 60.1367 77.3145C60.6055 77.3145 61.0303 77.3818 61.4111 77.5166C61.7979 77.6455 62.1289 77.8564 62.4043 78.1494C62.6855 78.4365 62.9023 78.8145 63.0547 79.2832C63.207 79.752 63.2832 80.3203 63.2832 80.9883V87H60.7344V80.9707C60.7344 80.5488 60.6729 80.2178 60.5498 79.9775C60.4326 79.7314 60.2598 79.5586 60.0312 79.459C59.8086 79.3535 59.5332 79.3008 59.2051 79.3008C58.8418 79.3008 58.5312 79.3682 58.2734 79.5029C58.0215 79.6377 57.8193 79.8252 57.667 80.0654C57.5146 80.2998 57.4033 80.5752 57.333 80.8916C57.2627 81.208 57.2275 81.5479 57.2275 81.9111ZM69.585 87.1758C68.8467 87.1758 68.1846 87.0586 67.5986 86.8242C67.0127 86.584 66.5146 86.2529 66.1045 85.8311C65.7002 85.4092 65.3896 84.9199 65.1729 84.3633C64.9561 83.8008 64.8477 83.2031 64.8477 82.5703V82.2188C64.8477 81.498 64.9502 80.8389 65.1553 80.2412C65.3604 79.6436 65.6533 79.125 66.0342 78.6855C66.4209 78.2461 66.8896 77.9092 67.4404 77.6748C67.9912 77.4346 68.6123 77.3145 69.3037 77.3145C69.9775 77.3145 70.5752 77.4258 71.0967 77.6484C71.6182 77.8711 72.0547 78.1875 72.4062 78.5977C72.7637 79.0078 73.0332 79.5 73.2148 80.0742C73.3965 80.6426 73.4873 81.2754 73.4873 81.9727V83.0273H65.9287V81.3398H71V81.1465C71 80.7949 70.9355 80.4814 70.8066 80.2061C70.6836 79.9248 70.4961 79.7021 70.2441 79.5381C69.9922 79.374 69.6699 79.292 69.2773 79.292C68.9434 79.292 68.6562 79.3652 68.416 79.5117C68.1758 79.6582 67.9795 79.8633 67.8271 80.127C67.6807 80.3906 67.5693 80.7012 67.4932 81.0586C67.4229 81.4102 67.3877 81.7969 67.3877 82.2188V82.5703C67.3877 82.9512 67.4404 83.3027 67.5459 83.625C67.6572 83.9473 67.8125 84.2256 68.0117 84.46C68.2168 84.6943 68.4629 84.876 68.75 85.0049C69.043 85.1338 69.374 85.1982 69.7432 85.1982C70.2002 85.1982 70.625 85.1104 71.0176 84.9346C71.416 84.7529 71.7588 84.4805 72.0459 84.1172L73.2764 85.4531C73.0771 85.7402 72.8047 86.0156 72.459 86.2793C72.1191 86.543 71.709 86.7598 71.2285 86.9297C70.748 87.0938 70.2002 87.1758 69.585 87.1758ZM84.1836 84.3281L87.1982 74.2031H90.1338L85.6777 87H83.7441L84.1836 84.3281ZM81.4062 74.2031L84.4121 84.3281L84.8691 87H82.918L78.4883 74.2031H81.4062ZM93.8428 77.4902V87H91.3027V77.4902H93.8428ZM91.1445 75.0117C91.1445 74.6426 91.2734 74.3379 91.5312 74.0977C91.7891 73.8574 92.1348 73.7373 92.5684 73.7373C92.9961 73.7373 93.3389 73.8574 93.5967 74.0977C93.8604 74.3379 93.9922 74.6426 93.9922 75.0117C93.9922 75.3809 93.8604 75.6855 93.5967 75.9258C93.3389 76.166 92.9961 76.2861 92.5684 76.2861C92.1348 76.2861 91.7891 76.166 91.5312 75.9258C91.2734 75.6855 91.1445 75.3809 91.1445 75.0117ZM101.076 84.3721C101.076 84.1904 101.023 84.0264 100.918 83.8799C100.812 83.7334 100.616 83.5986 100.329 83.4756C100.048 83.3467 99.6406 83.2295 99.1074 83.124C98.627 83.0186 98.1787 82.8867 97.7627 82.7285C97.3525 82.5645 96.9951 82.3682 96.6904 82.1396C96.3916 81.9111 96.1572 81.6416 95.9873 81.3311C95.8174 81.0146 95.7324 80.6543 95.7324 80.25C95.7324 79.8516 95.8174 79.4766 95.9873 79.125C96.1631 78.7734 96.4121 78.4629 96.7344 78.1934C97.0625 77.918 97.4609 77.7041 97.9297 77.5518C98.4043 77.3936 98.9375 77.3145 99.5293 77.3145C100.355 77.3145 101.064 77.4463 101.656 77.71C102.254 77.9736 102.711 78.3369 103.027 78.7998C103.35 79.2568 103.511 79.7783 103.511 80.3643H100.979C100.979 80.1182 100.927 79.8984 100.821 79.7051C100.722 79.5059 100.563 79.3506 100.347 79.2393C100.136 79.1221 99.8604 79.0635 99.5205 79.0635C99.2393 79.0635 98.9961 79.1133 98.791 79.2129C98.5859 79.3066 98.4277 79.4355 98.3164 79.5996C98.2109 79.7578 98.1582 79.9336 98.1582 80.127C98.1582 80.2734 98.1875 80.4053 98.2461 80.5225C98.3105 80.6338 98.4131 80.7363 98.5537 80.8301C98.6943 80.9238 98.876 81.0117 99.0986 81.0938C99.3271 81.1699 99.6084 81.2402 99.9424 81.3047C100.628 81.4453 101.24 81.6299 101.779 81.8584C102.318 82.0811 102.746 82.3857 103.062 82.7725C103.379 83.1533 103.537 83.6543 103.537 84.2754C103.537 84.6973 103.443 85.084 103.256 85.4355C103.068 85.7871 102.799 86.0947 102.447 86.3584C102.096 86.6162 101.674 86.8184 101.182 86.9648C100.695 87.1055 100.147 87.1758 99.5381 87.1758C98.6533 87.1758 97.9033 87.0176 97.2881 86.7012C96.6787 86.3848 96.2158 85.9834 95.8994 85.4971C95.5889 85.0049 95.4336 84.501 95.4336 83.9854H97.833C97.8447 84.3311 97.9326 84.6094 98.0967 84.8203C98.2666 85.0312 98.4805 85.1836 98.7383 85.2773C99.002 85.3711 99.2861 85.418 99.5908 85.418C99.9189 85.418 100.191 85.374 100.408 85.2861C100.625 85.1924 100.789 85.0693 100.9 84.917C101.018 84.7588 101.076 84.5771 101.076 84.3721ZM110.313 84.8555V80.6191C110.313 80.3145 110.264 80.0537 110.164 79.8369C110.064 79.6143 109.909 79.4414 109.698 79.3184C109.493 79.1953 109.227 79.1338 108.898 79.1338C108.617 79.1338 108.374 79.1836 108.169 79.2832C107.964 79.377 107.806 79.5146 107.694 79.6963C107.583 79.8721 107.527 80.0801 107.527 80.3203H104.996C104.996 79.916 105.09 79.5322 105.277 79.1689C105.465 78.8057 105.737 78.4863 106.095 78.2109C106.452 77.9297 106.877 77.71 107.369 77.5518C107.867 77.3936 108.424 77.3145 109.039 77.3145C109.777 77.3145 110.434 77.4375 111.008 77.6836C111.582 77.9297 112.033 78.2988 112.361 78.791C112.695 79.2832 112.862 79.8984 112.862 80.6367V84.7061C112.862 85.2275 112.895 85.6553 112.959 85.9893C113.023 86.3174 113.117 86.6045 113.24 86.8506V87H110.683C110.56 86.7422 110.466 86.4199 110.401 86.0332C110.343 85.6406 110.313 85.248 110.313 84.8555ZM110.647 81.208L110.665 82.6406H109.25C108.916 82.6406 108.626 82.6787 108.38 82.7549C108.134 82.8311 107.932 82.9395 107.773 83.0801C107.615 83.2148 107.498 83.373 107.422 83.5547C107.352 83.7363 107.316 83.9355 107.316 84.1523C107.316 84.3691 107.366 84.5654 107.466 84.7412C107.565 84.9111 107.709 85.0459 107.896 85.1455C108.084 85.2393 108.304 85.2861 108.556 85.2861C108.937 85.2861 109.268 85.21 109.549 85.0576C109.83 84.9053 110.047 84.7178 110.199 84.4951C110.357 84.2725 110.439 84.0615 110.445 83.8623L111.113 84.9346C111.02 85.1748 110.891 85.4238 110.727 85.6816C110.568 85.9395 110.366 86.1826 110.12 86.4111C109.874 86.6338 109.578 86.8184 109.232 86.9648C108.887 87.1055 108.477 87.1758 108.002 87.1758C107.398 87.1758 106.851 87.0557 106.358 86.8154C105.872 86.5693 105.485 86.2324 105.198 85.8047C104.917 85.3711 104.776 84.8789 104.776 84.3281C104.776 83.8301 104.87 83.3877 105.058 83.001C105.245 82.6143 105.521 82.2891 105.884 82.0254C106.253 81.7559 106.713 81.5537 107.264 81.4189C107.814 81.2783 108.453 81.208 109.18 81.208H110.647ZM124.438 82.4385H121.177V80.3818H124.438C124.941 80.3818 125.352 80.2998 125.668 80.1357C125.984 79.9658 126.216 79.7314 126.362 79.4326C126.509 79.1338 126.582 78.7969 126.582 78.4219C126.582 78.041 126.509 77.6865 126.362 77.3584C126.216 77.0303 125.984 76.7666 125.668 76.5674C125.352 76.3682 124.941 76.2686 124.438 76.2686H122.091V87H119.454V74.2031H124.438C125.439 74.2031 126.298 74.3848 127.013 74.748C127.733 75.1055 128.284 75.6006 128.665 76.2334C129.046 76.8662 129.236 77.5898 129.236 78.4043C129.236 79.2305 129.046 79.9453 128.665 80.5488C128.284 81.1523 127.733 81.6182 127.013 81.9463C126.298 82.2744 125.439 82.4385 124.438 82.4385ZM133.429 79.5645V87H130.897V77.4902H133.279L133.429 79.5645ZM136.294 77.4287L136.25 79.7754C136.127 79.7578 135.978 79.7432 135.802 79.7314C135.632 79.7139 135.477 79.7051 135.336 79.7051C134.979 79.7051 134.668 79.752 134.404 79.8457C134.146 79.9336 133.93 80.0654 133.754 80.2412C133.584 80.417 133.455 80.6309 133.367 80.8828C133.285 81.1348 133.238 81.4219 133.227 81.7441L132.717 81.5859C132.717 80.9707 132.778 80.4053 132.901 79.8896C133.024 79.3682 133.203 78.9141 133.438 78.5273C133.678 78.1406 133.971 77.8418 134.316 77.6309C134.662 77.4199 135.058 77.3145 135.503 77.3145C135.644 77.3145 135.787 77.3262 135.934 77.3496C136.08 77.3672 136.2 77.3936 136.294 77.4287ZM136.821 82.3418V82.1572C136.821 81.46 136.921 80.8184 137.12 80.2324C137.319 79.6406 137.609 79.1279 137.99 78.6943C138.371 78.2607 138.84 77.9238 139.396 77.6836C139.953 77.4375 140.592 77.3145 141.312 77.3145C142.033 77.3145 142.675 77.4375 143.237 77.6836C143.8 77.9238 144.271 78.2607 144.652 78.6943C145.039 79.1279 145.332 79.6406 145.531 80.2324C145.73 80.8184 145.83 81.46 145.83 82.1572V82.3418C145.83 83.0332 145.73 83.6748 145.531 84.2666C145.332 84.8525 145.039 85.3652 144.652 85.8047C144.271 86.2383 143.803 86.5752 143.246 86.8154C142.689 87.0557 142.051 87.1758 141.33 87.1758C140.609 87.1758 139.968 87.0557 139.405 86.8154C138.849 86.5752 138.377 86.2383 137.99 85.8047C137.609 85.3652 137.319 84.8525 137.12 84.2666C136.921 83.6748 136.821 83.0332 136.821 82.3418ZM139.353 82.1572V82.3418C139.353 82.7402 139.388 83.1123 139.458 83.458C139.528 83.8037 139.64 84.1084 139.792 84.3721C139.95 84.6299 140.155 84.832 140.407 84.9785C140.659 85.125 140.967 85.1982 141.33 85.1982C141.682 85.1982 141.983 85.125 142.235 84.9785C142.487 84.832 142.689 84.6299 142.842 84.3721C142.994 84.1084 143.105 83.8037 143.176 83.458C143.252 83.1123 143.29 82.7402 143.29 82.3418V82.1572C143.29 81.7705 143.252 81.4072 143.176 81.0674C143.105 80.7217 142.991 80.417 142.833 80.1533C142.681 79.8838 142.479 79.6729 142.227 79.5205C141.975 79.3682 141.67 79.292 141.312 79.292C140.955 79.292 140.65 79.3682 140.398 79.5205C140.152 79.6729 139.95 79.8838 139.792 80.1533C139.64 80.417 139.528 80.7217 139.458 81.0674C139.388 81.4072 139.353 81.7705 139.353 82.1572ZM151.314 85.1982C151.625 85.1982 151.9 85.1396 152.141 85.0225C152.381 84.8994 152.568 84.7295 152.703 84.5127C152.844 84.29 152.917 84.0293 152.923 83.7305H155.305C155.299 84.3984 155.12 84.9932 154.769 85.5146C154.417 86.0303 153.945 86.4375 153.354 86.7363C152.762 87.0293 152.1 87.1758 151.367 87.1758C150.629 87.1758 149.984 87.0527 149.434 86.8066C148.889 86.5605 148.435 86.2207 148.071 85.7871C147.708 85.3477 147.436 84.8379 147.254 84.2578C147.072 83.6719 146.981 83.0449 146.981 82.377V82.1221C146.981 81.4482 147.072 80.8213 147.254 80.2412C147.436 79.6553 147.708 79.1455 148.071 78.7119C148.435 78.2725 148.889 77.9297 149.434 77.6836C149.979 77.4375 150.617 77.3145 151.35 77.3145C152.129 77.3145 152.812 77.4639 153.397 77.7627C153.989 78.0615 154.452 78.4893 154.786 79.0459C155.126 79.5967 155.299 80.25 155.305 81.0059H152.923C152.917 80.6895 152.85 80.4023 152.721 80.1445C152.598 79.8867 152.416 79.6816 152.176 79.5293C151.941 79.3711 151.651 79.292 151.306 79.292C150.937 79.292 150.635 79.3711 150.4 79.5293C150.166 79.6816 149.984 79.8926 149.855 80.1621C149.727 80.4258 149.636 80.7275 149.583 81.0674C149.536 81.4014 149.513 81.7529 149.513 82.1221V82.377C149.513 82.7461 149.536 83.1006 149.583 83.4404C149.63 83.7803 149.718 84.082 149.847 84.3457C149.981 84.6094 150.166 84.8174 150.4 84.9697C150.635 85.1221 150.939 85.1982 151.314 85.1982ZM161.149 87.1758C160.411 87.1758 159.749 87.0586 159.163 86.8242C158.577 86.584 158.079 86.2529 157.669 85.8311C157.265 85.4092 156.954 84.9199 156.737 84.3633C156.521 83.8008 156.412 83.2031 156.412 82.5703V82.2188C156.412 81.498 156.515 80.8389 156.72 80.2412C156.925 79.6436 157.218 79.125 157.599 78.6855C157.985 78.2461 158.454 77.9092 159.005 77.6748C159.556 77.4346 160.177 77.3145 160.868 77.3145C161.542 77.3145 162.14 77.4258 162.661 77.6484C163.183 77.8711 163.619 78.1875 163.971 78.5977C164.328 79.0078 164.598 79.5 164.779 80.0742C164.961 80.6426 165.052 81.2754 165.052 81.9727V83.0273H157.493V81.3398H162.564V81.1465C162.564 80.7949 162.5 80.4814 162.371 80.2061C162.248 79.9248 162.061 79.7021 161.809 79.5381C161.557 79.374 161.234 79.292 160.842 79.292C160.508 79.292 160.221 79.3652 159.98 79.5117C159.74 79.6582 159.544 79.8633 159.392 80.127C159.245 80.3906 159.134 80.7012 159.058 81.0586C158.987 81.4102 158.952 81.7969 158.952 82.2188V82.5703C158.952 82.9512 159.005 83.3027 159.11 83.625C159.222 83.9473 159.377 84.2256 159.576 84.46C159.781 84.6943 160.027 84.876 160.314 85.0049C160.607 85.1338 160.938 85.1982 161.308 85.1982C161.765 85.1982 162.189 85.1104 162.582 84.9346C162.98 84.7529 163.323 84.4805 163.61 84.1172L164.841 85.4531C164.642 85.7402 164.369 86.0156 164.023 86.2793C163.684 86.543 163.273 86.7598 162.793 86.9297C162.312 87.0938 161.765 87.1758 161.149 87.1758ZM171.635 84.3721C171.635 84.1904 171.582 84.0264 171.477 83.8799C171.371 83.7334 171.175 83.5986 170.888 83.4756C170.606 83.3467 170.199 83.2295 169.666 83.124C169.186 83.0186 168.737 82.8867 168.321 82.7285C167.911 82.5645 167.554 82.3682 167.249 82.1396C166.95 81.9111 166.716 81.6416 166.546 81.3311C166.376 81.0146 166.291 80.6543 166.291 80.25C166.291 79.8516 166.376 79.4766 166.546 79.125C166.722 78.7734 166.971 78.4629 167.293 78.1934C167.621 77.918 168.02 77.7041 168.488 77.5518C168.963 77.3936 169.496 77.3145 170.088 77.3145C170.914 77.3145 171.623 77.4463 172.215 77.71C172.812 77.9736 173.27 78.3369 173.586 78.7998C173.908 79.2568 174.069 79.7783 174.069 80.3643H171.538C171.538 80.1182 171.485 79.8984 171.38 79.7051C171.28 79.5059 171.122 79.3506 170.905 79.2393C170.694 79.1221 170.419 79.0635 170.079 79.0635C169.798 79.0635 169.555 79.1133 169.35 79.2129C169.145 79.3066 168.986 79.4355 168.875 79.5996C168.77 79.7578 168.717 79.9336 168.717 80.127C168.717 80.2734 168.746 80.4053 168.805 80.5225C168.869 80.6338 168.972 80.7363 169.112 80.8301C169.253 80.9238 169.435 81.0117 169.657 81.0938C169.886 81.1699 170.167 81.2402 170.501 81.3047C171.187 81.4453 171.799 81.6299 172.338 81.8584C172.877 82.0811 173.305 82.3857 173.621 82.7725C173.938 83.1533 174.096 83.6543 174.096 84.2754C174.096 84.6973 174.002 85.084 173.814 85.4355C173.627 85.7871 173.357 86.0947 173.006 86.3584C172.654 86.6162 172.232 86.8184 171.74 86.9648C171.254 87.1055 170.706 87.1758 170.097 87.1758C169.212 87.1758 168.462 87.0176 167.847 86.7012C167.237 86.3848 166.774 85.9834 166.458 85.4971C166.147 85.0049 165.992 84.501 165.992 83.9854H168.392C168.403 84.3311 168.491 84.6094 168.655 84.8203C168.825 85.0312 169.039 85.1836 169.297 85.2773C169.561 85.3711 169.845 85.418 170.149 85.418C170.478 85.418 170.75 85.374 170.967 85.2861C171.184 85.1924 171.348 85.0693 171.459 84.917C171.576 84.7588 171.635 84.5771 171.635 84.3721ZM180.881 84.3721C180.881 84.1904 180.828 84.0264 180.723 83.8799C180.617 83.7334 180.421 83.5986 180.134 83.4756C179.853 83.3467 179.445 83.2295 178.912 83.124C178.432 83.0186 177.983 82.8867 177.567 82.7285C177.157 82.5645 176.8 82.3682 176.495 82.1396C176.196 81.9111 175.962 81.6416 175.792 81.3311C175.622 81.0146 175.537 80.6543 175.537 80.25C175.537 79.8516 175.622 79.4766 175.792 79.125C175.968 78.7734 176.217 78.4629 176.539 78.1934C176.867 77.918 177.266 77.7041 177.734 77.5518C178.209 77.3936 178.742 77.3145 179.334 77.3145C180.16 77.3145 180.869 77.4463 181.461 77.71C182.059 77.9736 182.516 78.3369 182.832 78.7998C183.154 79.2568 183.315 79.7783 183.315 80.3643H180.784C180.784 80.1182 180.731 79.8984 180.626 79.7051C180.526 79.5059 180.368 79.3506 180.151 79.2393C179.94 79.1221 179.665 79.0635 179.325 79.0635C179.044 79.0635 178.801 79.1133 178.596 79.2129C178.391 79.3066 178.232 79.4355 178.121 79.5996C178.016 79.7578 177.963 79.9336 177.963 80.127C177.963 80.2734 177.992 80.4053 178.051 80.5225C178.115 80.6338 178.218 80.7363 178.358 80.8301C178.499 80.9238 178.681 81.0117 178.903 81.0938C179.132 81.1699 179.413 81.2402 179.747 81.3047C180.433 81.4453 181.045 81.6299 181.584 81.8584C182.123 82.0811 182.551 82.3857 182.867 82.7725C183.184 83.1533 183.342 83.6543 183.342 84.2754C183.342 84.6973 183.248 85.084 183.061 85.4355C182.873 85.7871 182.604 86.0947 182.252 86.3584C181.9 86.6162 181.479 86.8184 180.986 86.9648C180.5 87.1055 179.952 87.1758 179.343 87.1758C178.458 87.1758 177.708 87.0176 177.093 86.7012C176.483 86.3848 176.021 85.9834 175.704 85.4971C175.394 85.0049 175.238 84.501 175.238 83.9854H177.638C177.649 84.3311 177.737 84.6094 177.901 84.8203C178.071 85.0312 178.285 85.1836 178.543 85.2773C178.807 85.3711 179.091 85.418 179.396 85.418C179.724 85.418 179.996 85.374 180.213 85.2861C180.43 85.1924 180.594 85.0693 180.705 84.917C180.822 84.7588 180.881 84.5771 180.881 84.3721ZM189.301 83.0889H187.06C187.065 82.5615 187.106 82.1074 187.183 81.7266C187.265 81.3398 187.402 80.9912 187.596 80.6807C187.795 80.3701 188.059 80.0625 188.387 79.7578C188.662 79.5117 188.902 79.2773 189.107 79.0547C189.312 78.832 189.474 78.6035 189.591 78.3691C189.708 78.1289 189.767 77.8623 189.767 77.5693C189.767 77.2295 189.714 76.9482 189.608 76.7256C189.509 76.4971 189.356 76.3242 189.151 76.207C188.952 76.0898 188.7 76.0312 188.396 76.0312C188.144 76.0312 187.909 76.0869 187.692 76.1982C187.476 76.3037 187.297 76.4678 187.156 76.6904C187.021 76.9131 186.951 77.2061 186.945 77.5693H184.396C184.414 76.7666 184.599 76.1045 184.95 75.583C185.308 75.0557 185.785 74.666 186.383 74.4141C186.98 74.1562 187.651 74.0273 188.396 74.0273C189.216 74.0273 189.919 74.1621 190.505 74.4316C191.091 74.6953 191.539 75.085 191.85 75.6006C192.16 76.1104 192.315 76.7314 192.315 77.4639C192.315 77.9736 192.216 78.4277 192.017 78.8262C191.817 79.2188 191.557 79.585 191.234 79.9248C190.912 80.2646 190.558 80.6162 190.171 80.9795C189.837 81.2783 189.608 81.5918 189.485 81.9199C189.368 82.248 189.307 82.6377 189.301 83.0889ZM186.796 85.8047C186.796 85.4297 186.925 85.1191 187.183 84.873C187.44 84.6211 187.786 84.4951 188.22 84.4951C188.647 84.4951 188.99 84.6211 189.248 84.873C189.512 85.1191 189.644 85.4297 189.644 85.8047C189.644 86.168 189.512 86.4756 189.248 86.7275C188.99 86.9795 188.647 87.1055 188.22 87.1055C187.786 87.1055 187.44 86.9795 187.183 86.7275C186.925 86.4756 186.796 86.168 186.796 85.8047Z" fill="black"/>
</svg>
