<svg width="399" height="373" viewBox="0 0 399 373" fill="none" xmlns="http://www.w3.org/2000/svg">
<g clip-path="url(#clip0_5117_7294)">
<path d="M373.348 310.137H0.403809V310.323H373.348V310.137Z" fill="#EBEBEB"/>
<path d="M335.979 322.141H311.275V322.327H335.979V322.141Z" fill="#EBEBEB"/>
<path d="M247.457 324.17H240.976V324.356H247.457V324.17Z" fill="#EBEBEB"/>
<path d="M310.53 315.217H296.216V315.403H310.53V315.217Z" fill="#EBEBEB"/>
<path d="M71.7477 316.471H39.5327V316.657H71.7477V316.471Z" fill="#EBEBEB"/>
<path d="M83.1155 316.471H78.394V316.657H83.1155V316.471Z" fill="#EBEBEB"/>
<path d="M168.341 319.619H98.4658V319.806H168.341V319.619Z" fill="#EBEBEB"/>
<path d="M177.18 276.865H33.1559C32.0276 276.863 30.9462 276.414 30.1491 275.615C29.352 274.816 28.9043 273.734 28.9043 272.606V70.1188C28.9141 68.9969 29.3661 67.9241 30.1622 67.1335C30.9582 66.3429 32.034 65.8984 33.1559 65.8965H177.18C178.309 65.8965 179.392 66.3453 180.191 67.1441C180.99 67.943 181.439 69.0264 181.439 70.1561V272.606C181.439 273.735 180.99 274.819 180.191 275.618C179.392 276.417 178.309 276.865 177.18 276.865ZM33.1559 66.0457C32.0771 66.0477 31.0431 66.4777 30.281 67.2413C29.5188 68.005 29.0908 69.0399 29.0908 70.1188V272.606C29.0908 273.685 29.5188 274.719 30.281 275.483C31.0431 276.247 32.0771 276.677 33.1559 276.679H177.18C178.259 276.677 179.294 276.247 180.057 275.484C180.82 274.72 181.25 273.685 181.252 272.606V70.1188C181.25 69.0392 180.82 68.0043 180.057 67.2409C179.294 66.4774 178.259 66.0477 177.18 66.0457H33.1559Z" fill="#EBEBEB"/>
<path d="M338.523 276.865H194.491C193.362 276.863 192.28 276.414 191.482 275.615C190.684 274.817 190.234 273.735 190.232 272.606V70.1188C190.244 68.9962 190.698 67.9234 191.495 67.133C192.292 66.3427 193.369 65.8984 194.491 65.8965H338.523C339.643 65.9004 340.717 66.3458 341.512 67.1361C342.306 67.9265 342.757 68.9982 342.767 70.1188V272.606C342.767 273.733 342.32 274.814 341.525 275.612C340.729 276.411 339.65 276.861 338.523 276.865ZM194.491 66.0457C193.412 66.0477 192.377 66.4774 191.614 67.2409C190.851 68.0043 190.421 69.0392 190.419 70.1188V272.606C190.421 273.685 190.851 274.72 191.614 275.484C192.377 276.247 193.412 276.677 194.491 276.679H338.523C339.602 276.677 340.637 276.247 341.4 275.484C342.164 274.72 342.593 273.685 342.595 272.606V70.1188C342.593 69.0392 342.164 68.0043 341.4 67.2409C340.637 66.4774 339.602 66.0477 338.523 66.0457H194.491Z" fill="#EBEBEB"/>
<path d="M249.046 275.038C249.089 276.89 249.481 278.718 250.202 280.424L248.039 282.237L251.164 286.773L253.655 285.378C254.994 286.653 256.56 287.665 258.272 288.362L258.019 291.197L263.434 292.196L264.18 289.458C266.032 289.414 267.858 289.021 269.565 288.302L271.393 290.488L275.928 287.37L274.54 284.878C275.817 283.54 276.829 281.974 277.524 280.26L280.358 280.514L281.358 275.098L278.62 274.352C278.581 272.499 278.188 270.671 277.464 268.966L279.657 267.138L276.539 262.602L274.041 263.99C272.707 262.712 271.143 261.699 269.431 261.006L269.677 258.164L264.269 257.164L263.524 259.909C261.672 259.95 259.845 260.34 258.138 261.058L256.303 258.872L251.768 261.991L253.163 264.482C251.89 265.822 250.878 267.388 250.18 269.1L247.345 268.846L246.346 274.262L249.046 275.038ZM256.505 273.352C256.77 271.9 257.461 270.559 258.49 269.499C259.518 268.44 260.837 267.709 262.281 267.4C263.725 267.091 265.228 267.218 266.6 267.764C267.971 268.31 269.15 269.251 269.987 270.467C270.824 271.684 271.281 273.121 271.3 274.598C271.319 276.074 270.9 277.523 270.095 278.761C269.29 279.999 268.136 280.971 266.779 281.552C265.422 282.134 263.923 282.299 262.472 282.028C260.533 281.664 258.818 280.547 257.701 278.921C256.584 277.295 256.157 275.293 256.512 273.352H256.505Z" fill="#F0F0F0"/>
<path d="M113.861 176.088C114.54 179.445 110.475 183.108 104.784 184.257C99.0926 185.406 93.931 183.608 93.2522 180.251C92.5735 176.894 96.6386 173.223 102.33 172.045C108.021 170.866 113.182 172.724 113.861 176.088Z" fill="#E0E0E0"/>
<path d="M116.062 164.025C116.515 163.387 116.7 162.597 116.577 161.824C115.913 158.519 108.372 157.266 99.6897 159.012C91.0075 160.757 84.5481 164.86 85.2119 168.158C85.4062 168.916 85.8842 169.57 86.5471 169.985C86.4447 170.345 86.4268 170.722 86.4949 171.09C86.6873 171.841 87.1703 172.485 87.8375 172.88C87.723 173.249 87.7 173.641 87.7703 174.021C87.8684 174.393 88.0404 174.742 88.2763 175.045C88.5121 175.349 88.8068 175.602 89.1428 175.789C89.0143 176.161 88.9834 176.559 89.0533 176.946C89.1529 177.318 89.3281 177.666 89.5681 177.968C89.8081 178.269 90.1076 178.518 90.4481 178.699C90.3015 179.074 90.2628 179.482 90.3362 179.877C90.8882 182.623 97.176 183.667 104.374 182.212C111.572 180.758 116.964 177.356 116.412 174.611C116.321 174.218 116.125 173.857 115.846 173.566C116.091 173.27 116.271 172.926 116.375 172.556C116.479 172.186 116.505 171.798 116.45 171.418C116.368 171.031 116.185 170.674 115.92 170.381C116.155 170.077 116.328 169.729 116.426 169.357C116.525 168.986 116.548 168.598 116.495 168.217C116.413 167.841 116.242 167.491 115.995 167.195C116.456 166.572 116.652 165.792 116.539 165.025C116.458 164.66 116.294 164.318 116.062 164.025Z" fill="#EBEBEB"/>
<path d="M123.14 132.081C122.21 127.385 120.105 123.002 117.023 119.339C113.941 115.676 109.982 112.854 105.515 111.135C101.047 109.416 96.2177 108.856 91.4758 109.508C86.7339 110.161 82.2344 112.003 78.3969 114.864C74.5593 117.725 71.5087 121.512 69.5296 125.871C67.5505 130.23 66.7073 135.019 67.0786 139.791C67.4499 144.564 69.0237 149.165 71.6532 153.165C74.2827 157.165 77.8822 160.434 82.1161 162.667C82.7946 163.017 83.3762 163.529 83.8095 164.158C84.2427 164.786 84.5142 165.512 84.5999 166.271C84.5999 166.345 84.5999 166.42 84.5999 166.494C85.2787 169.851 92.9614 171.127 101.755 169.352C110.549 167.576 117.128 163.384 116.449 160.064C116.449 159.989 116.449 159.922 116.397 159.847C116.183 159.108 116.155 158.326 116.315 157.573C116.475 156.82 116.819 156.117 117.315 155.528C119.956 152.292 121.848 148.512 122.855 144.458C123.862 140.404 123.96 136.177 123.14 132.081Z" fill="#F5F5F5"/>
<path d="M105.716 163.868H105.649C105.559 163.872 105.471 163.841 105.404 163.781C105.337 163.721 105.296 163.637 105.291 163.547C105.291 162.995 104.597 150.522 109.967 144.547L105.85 145.375C105.785 145.391 105.717 145.386 105.655 145.36C105.594 145.335 105.542 145.29 105.507 145.233L103.463 142.249L101.658 149.448C101.641 149.51 101.608 149.566 101.562 149.61C101.516 149.655 101.459 149.687 101.397 149.702C101.334 149.715 101.268 149.71 101.207 149.688C101.147 149.665 101.093 149.626 101.054 149.575L96.5786 143.607L94.6095 150.015C94.5957 150.076 94.5631 150.131 94.5163 150.173C94.4694 150.214 94.4107 150.24 94.3484 150.246C94.2887 150.256 94.2275 150.251 94.1702 150.232C94.1129 150.212 94.0614 150.179 94.0202 150.134L89.7239 144.972L88.978 148.553C88.9678 148.618 88.9369 148.679 88.89 148.726C88.8431 148.773 88.7825 148.804 88.717 148.814L84.2416 149.709C86.4793 151.313 93.6473 156.99 95.3777 165.569C95.3866 165.613 95.3867 165.658 95.3782 165.701C95.3696 165.745 95.3526 165.786 95.328 165.823C95.3034 165.861 95.2718 165.892 95.2349 165.917C95.198 165.942 95.1565 165.959 95.113 165.968C95.0694 165.977 95.0245 165.977 94.9808 165.969C94.9372 165.96 94.8956 165.943 94.8586 165.918C94.8215 165.894 94.7897 165.862 94.7649 165.825C94.74 165.788 94.7227 165.747 94.7139 165.703C92.7149 155.826 83.3018 149.881 83.2048 149.828C83.1469 149.792 83.1011 149.739 83.0734 149.677C83.0456 149.614 83.0373 149.545 83.0493 149.477C83.0613 149.41 83.0932 149.348 83.1409 149.299C83.1885 149.25 83.2498 149.216 83.3167 149.202L88.3216 148.195L89.157 144.151C89.1683 144.089 89.1976 144.031 89.2413 143.984C89.285 143.938 89.3412 143.905 89.4032 143.89C89.465 143.872 89.5308 143.873 89.592 143.893C89.6531 143.913 89.7069 143.951 89.7463 144.002L94.0724 149.172L96.1013 142.734C96.1183 142.673 96.1523 142.618 96.1992 142.575C96.2462 142.533 96.3043 142.505 96.3667 142.494C96.4291 142.483 96.4934 142.49 96.552 142.514C96.6106 142.538 96.6612 142.578 96.698 142.63L101.173 148.598L102.993 141.384C103.01 141.321 103.044 141.265 103.091 141.221C103.139 141.177 103.198 141.148 103.262 141.138C103.326 141.124 103.392 141.131 103.452 141.156C103.512 141.181 103.562 141.224 103.597 141.279L105.94 144.681L110.937 143.674C111.01 143.656 111.087 143.665 111.155 143.697C111.223 143.73 111.278 143.785 111.31 143.853C111.342 143.919 111.353 143.994 111.339 144.067C111.326 144.139 111.289 144.206 111.235 144.256C105.231 149.605 105.962 163.383 105.969 163.525C105.972 163.602 105.948 163.678 105.902 163.741C105.856 163.803 105.791 163.848 105.716 163.868Z" fill="#E0E0E0"/>
<path d="M186.876 343.827C266.748 343.827 331.497 340.046 331.497 335.382C331.497 330.718 266.748 326.938 186.876 326.938C107.005 326.938 42.2559 330.718 42.2559 335.382C42.2559 340.046 107.005 343.827 186.876 343.827Z" fill="#F5F5F5"/>
<path d="M389.606 89.8975C389.606 79.3153 384.071 69.746 375.136 62.8721C375.433 61.4744 375.584 60.0499 375.588 58.6211C375.588 44.5114 361.246 33.0429 343.394 32.7172C337.968 19.0598 321.835 9.20117 302.699 9.20117C287.47 9.20117 274.104 15.4962 266.526 24.9569C264.614 24.6953 262.687 24.5623 260.757 24.559C242.561 24.559 227.803 36.1723 227.803 50.499C227.801 52.9249 228.23 55.3319 229.069 57.6081C217.475 63.7042 209.825 74.0874 209.825 85.8817C209.825 97.2417 216.915 107.281 227.803 113.45V113.812C227.803 127.722 241.693 139.137 259.165 139.715C268.787 149.122 283.546 155.146 300.095 155.146C310.961 155.239 321.663 152.483 331.132 147.15C332.621 147.317 334.118 147.402 335.617 147.403C353.812 147.403 368.571 135.79 368.571 121.463V121.21C381.304 114.336 389.606 102.886 389.606 89.8975Z" fill="#0F75BB"/>
<path d="M208.396 166.072C208.396 168.442 205.646 170.359 202.264 170.359C198.882 170.359 196.133 168.442 196.133 166.072C196.133 163.703 198.882 161.785 202.264 161.785C205.646 161.785 208.396 163.703 208.396 166.072Z" fill="#0F75BB"/>
<path d="M250.863 155.833C250.863 162.689 242.887 168.242 233.048 168.242C223.209 168.242 215.287 162.725 215.287 155.833C215.287 148.941 223.263 143.424 233.102 143.424C242.941 143.424 250.863 149.032 250.863 155.833Z" fill="#0F75BB"/>
<path opacity="0.7" d="M389.606 89.8975C389.606 79.3153 384.071 69.746 375.136 62.8721C375.433 61.4744 375.584 60.0499 375.588 58.6211C375.588 44.5114 361.246 33.0429 343.394 32.7172C337.968 19.0598 321.835 9.20117 302.699 9.20117C287.47 9.20117 274.104 15.4962 266.526 24.9569C264.614 24.6953 262.687 24.5623 260.757 24.559C242.561 24.559 227.803 36.1723 227.803 50.499C227.801 52.9249 228.23 55.3319 229.069 57.6081C217.475 63.7042 209.825 74.0874 209.825 85.8817C209.825 97.2417 216.915 107.281 227.803 113.45V113.812C227.803 127.722 241.693 139.137 259.165 139.715C268.787 149.122 283.546 155.146 300.095 155.146C310.961 155.239 321.663 152.483 331.132 147.15C332.621 147.317 334.118 147.402 335.617 147.403C353.812 147.403 368.571 135.79 368.571 121.463V121.21C381.304 114.336 389.606 102.886 389.606 89.8975Z" fill="white"/>
<path d="M240.631 81.6122L237.89 89.9668H235.682L239.427 79.8887H240.832L240.631 81.6122ZM242.908 89.9668L240.16 81.6122L239.939 79.8887H241.358L245.123 89.9668H242.908ZM242.784 86.2152V87.8418H237.461V86.2152H242.784ZM247.926 84.111V89.9668H245.933V82.4774H247.809L247.926 84.111ZM250.183 82.429L250.148 84.2771C250.051 84.2633 249.934 84.2517 249.795 84.2425C249.662 84.2287 249.539 84.2217 249.428 84.2217C249.147 84.2217 248.902 84.2586 248.695 84.3325C248.492 84.4017 248.321 84.5055 248.183 84.644C248.049 84.7824 247.947 84.9508 247.878 85.1492C247.813 85.3477 247.776 85.5738 247.767 85.8276L247.366 85.703C247.366 85.2185 247.414 84.7732 247.511 84.3671C247.608 83.9564 247.749 83.5988 247.933 83.2942C248.123 82.9897 248.353 82.7543 248.626 82.5882C248.898 82.4221 249.209 82.339 249.56 82.339C249.671 82.339 249.784 82.3482 249.899 82.3667C250.015 82.3805 250.109 82.4013 250.183 82.429ZM254.433 90.1052C253.851 90.1052 253.33 90.0129 252.869 89.8284C252.407 89.6392 252.015 89.3784 251.692 89.0462C251.373 88.714 251.129 88.3286 250.958 87.8903C250.787 87.4473 250.702 86.9766 250.702 86.4782V86.2014C250.702 85.6338 250.783 85.1146 250.944 84.644C251.106 84.1733 251.337 83.7649 251.637 83.4188C251.941 83.0727 252.31 82.8074 252.744 82.6228C253.178 82.4336 253.667 82.339 254.211 82.339C254.742 82.339 255.213 82.4267 255.623 82.602C256.034 82.7774 256.378 83.0266 256.655 83.3496C256.936 83.6726 257.149 84.0602 257.292 84.5124C257.435 84.9601 257.506 85.4584 257.506 86.0075V86.8382H251.553V85.5092H255.547V85.3569C255.547 85.08 255.497 84.8332 255.395 84.6163C255.298 84.3948 255.15 84.2194 254.952 84.0902C254.754 83.961 254.5 83.8964 254.191 83.8964C253.928 83.8964 253.702 83.9541 253.512 84.0695C253.323 84.1848 253.169 84.3463 253.049 84.554C252.933 84.7616 252.846 85.0062 252.786 85.2877C252.73 85.5646 252.702 85.8691 252.702 86.2014V86.4782C252.702 86.7782 252.744 87.055 252.827 87.3088C252.915 87.5626 253.037 87.7818 253.194 87.9664C253.355 88.151 253.549 88.294 253.775 88.3956C254.006 88.4971 254.267 88.5478 254.558 88.5478C254.917 88.5478 255.252 88.4786 255.561 88.3402C255.875 88.1971 256.145 87.9826 256.371 87.6965L257.34 88.7486C257.183 88.9747 256.969 89.1916 256.696 89.3992C256.429 89.6069 256.106 89.7776 255.727 89.9114C255.349 90.0406 254.917 90.1052 254.433 90.1052ZM266.214 88.2779V84.9416C266.214 84.7016 266.175 84.4963 266.096 84.3256C266.018 84.1502 265.895 84.0141 265.729 83.9172C265.568 83.8203 265.358 83.7718 265.099 83.7718C264.878 83.7718 264.686 83.811 264.525 83.8895C264.363 83.9633 264.239 84.0718 264.151 84.2148C264.063 84.3532 264.02 84.5171 264.02 84.7063H262.026C262.026 84.3879 262.1 84.0856 262.248 83.7995C262.395 83.5134 262.61 83.2619 262.891 83.045C263.173 82.8235 263.507 82.6505 263.895 82.5259C264.287 82.4013 264.726 82.339 265.21 82.339C265.792 82.339 266.308 82.4359 266.761 82.6297C267.213 82.8235 267.568 83.1143 267.827 83.5019C268.09 83.8895 268.221 84.374 268.221 84.9554V88.1602C268.221 88.5709 268.246 88.9078 268.297 89.1708C268.348 89.4292 268.422 89.6553 268.519 89.8491V89.9668H266.504C266.408 89.7638 266.334 89.51 266.283 89.2054C266.237 88.8962 266.214 88.5871 266.214 88.2779ZM266.477 85.4054L266.491 86.5336H265.376C265.113 86.5336 264.885 86.5636 264.691 86.6236C264.497 86.6836 264.338 86.7689 264.213 86.8797C264.089 86.9858 263.996 87.1104 263.936 87.2535C263.881 87.3965 263.853 87.5534 263.853 87.7241C263.853 87.8949 263.893 88.0495 263.971 88.1879C264.05 88.3217 264.163 88.4279 264.31 88.5063C264.458 88.5801 264.631 88.6171 264.829 88.6171C265.129 88.6171 265.39 88.5571 265.612 88.4371C265.833 88.3171 266.004 88.1694 266.124 87.9941C266.248 87.8187 266.313 87.6526 266.318 87.4957L266.844 88.3402C266.77 88.5294 266.668 88.7255 266.539 88.9285C266.414 89.1316 266.255 89.3231 266.061 89.503C265.868 89.6784 265.635 89.8237 265.362 89.9391C265.09 90.0499 264.767 90.1052 264.393 90.1052C263.918 90.1052 263.487 90.0106 263.099 89.8214C262.716 89.6276 262.411 89.3623 262.185 89.0254C261.964 88.684 261.853 88.2963 261.853 87.8626C261.853 87.4703 261.927 87.122 262.075 86.8174C262.222 86.5128 262.439 86.2567 262.725 86.0491C263.016 85.8368 263.378 85.6776 263.812 85.5715C264.246 85.4607 264.749 85.4054 265.321 85.4054H266.477ZM271.862 79.335V89.9668H269.862V79.335H271.862ZM275.614 79.335V89.9668H273.613V79.335H275.614ZM287.678 88.3471V89.9668H282.314V88.3471H287.678ZM282.992 79.8887V89.9668H280.916V79.8887H282.992ZM286.979 83.9933V85.5715H282.314V83.9933H286.979ZM287.671 79.8887V81.5153H282.314V79.8887H287.671ZM293.07 88.1741V82.4774H295.064V89.9668H293.188L293.07 88.1741ZM293.292 86.6374L293.88 86.6236C293.88 87.122 293.822 87.5857 293.707 88.0149C293.592 88.4394 293.419 88.8086 293.188 89.1223C292.957 89.4315 292.666 89.6738 292.316 89.8491C291.965 90.0199 291.552 90.1052 291.077 90.1052C290.712 90.1052 290.375 90.0545 290.066 89.953C289.762 89.8468 289.499 89.683 289.277 89.4615C289.06 89.2354 288.889 88.947 288.765 88.5963C288.645 88.241 288.585 87.8141 288.585 87.3158V82.4774H290.578V87.3296C290.578 87.5511 290.604 87.738 290.655 87.8903C290.71 88.0425 290.786 88.1671 290.883 88.264C290.98 88.3609 291.093 88.4302 291.222 88.4717C291.356 88.5132 291.504 88.534 291.665 88.534C292.076 88.534 292.399 88.4509 292.634 88.2848C292.874 88.1187 293.043 87.8926 293.139 87.6065C293.241 87.3158 293.292 86.9927 293.292 86.6374ZM298.58 84.111V89.9668H296.586V82.4774H298.462L298.58 84.111ZM300.836 82.429L300.802 84.2771C300.705 84.2633 300.587 84.2517 300.449 84.2425C300.315 84.2287 300.193 84.2217 300.082 84.2217C299.8 84.2217 299.556 84.2586 299.348 84.3325C299.145 84.4017 298.974 84.5055 298.836 84.644C298.702 84.7824 298.601 84.9508 298.531 85.1492C298.467 85.3477 298.43 85.5738 298.421 85.8276L298.019 85.703C298.019 85.2185 298.068 84.7732 298.165 84.3671C298.262 83.9564 298.402 83.5988 298.587 83.2942C298.776 82.9897 299.007 82.7543 299.279 82.5882C299.551 82.4221 299.863 82.339 300.213 82.339C300.324 82.339 300.437 82.3482 300.553 82.3667C300.668 82.3805 300.763 82.4013 300.836 82.429ZM301.252 86.2983V86.1529C301.252 85.6038 301.33 85.0985 301.487 84.637C301.644 84.171 301.872 83.7672 302.172 83.4257C302.472 83.0843 302.841 82.8189 303.28 82.6297C303.718 82.4359 304.221 82.339 304.789 82.339C305.356 82.339 305.862 82.4359 306.305 82.6297C306.748 82.8189 307.119 83.0843 307.419 83.4257C307.724 83.7672 307.954 84.171 308.111 84.637C308.268 85.0985 308.347 85.6038 308.347 86.1529V86.2983C308.347 86.8428 308.268 87.3481 308.111 87.8141C307.954 88.2756 307.724 88.6793 307.419 89.0254C307.119 89.3669 306.75 89.6322 306.312 89.8214C305.873 90.0106 305.37 90.1052 304.803 90.1052C304.235 90.1052 303.73 90.0106 303.287 89.8214C302.848 89.6322 302.477 89.3669 302.172 89.0254C301.872 88.6793 301.644 88.2756 301.487 87.8141C301.33 87.3481 301.252 86.8428 301.252 86.2983ZM303.245 86.1529V86.2983C303.245 86.612 303.273 86.9051 303.328 87.1773C303.384 87.4496 303.471 87.6895 303.591 87.8972C303.716 88.1002 303.877 88.2594 304.076 88.3748C304.274 88.4902 304.516 88.5478 304.803 88.5478C305.079 88.5478 305.317 88.4902 305.516 88.3748C305.714 88.2594 305.873 88.1002 305.993 87.8972C306.113 87.6895 306.201 87.4496 306.256 87.1773C306.316 86.9051 306.346 86.612 306.346 86.2983V86.1529C306.346 85.8483 306.316 85.5622 306.256 85.2946C306.201 85.0224 306.111 84.7824 305.986 84.5747C305.866 84.3625 305.707 84.1964 305.509 84.0764C305.31 83.9564 305.07 83.8964 304.789 83.8964C304.507 83.8964 304.267 83.9564 304.069 84.0764C303.875 84.1964 303.716 84.3625 303.591 84.5747C303.471 84.7824 303.384 85.0224 303.328 85.2946C303.273 85.5622 303.245 85.8483 303.245 86.1529ZM317.324 81.6122L314.583 89.9668H312.375L316.12 79.8887H317.525L317.324 81.6122ZM319.601 89.9668L316.853 81.6122L316.632 79.8887H318.051L321.816 89.9668H319.601ZM319.477 86.2152V87.8418H314.154V86.2152H319.477ZM324.62 79.328V89.9668H322.626V79.328H324.62ZM329.34 82.4774L326.087 86.1875L324.343 87.9526L323.616 86.5128L325 84.7547L326.945 82.4774H329.34ZM327.271 89.9668L325.056 86.5059L326.433 85.3015L329.569 89.9668H327.271ZM334.241 88.2779V84.9416C334.241 84.7016 334.202 84.4963 334.123 84.3256C334.045 84.1502 333.922 84.0141 333.756 83.9172C333.595 83.8203 333.385 83.7718 333.126 83.7718C332.905 83.7718 332.713 83.811 332.552 83.8895C332.39 83.9633 332.266 84.0718 332.178 84.2148C332.09 84.3532 332.047 84.5171 332.047 84.7063H330.053C330.053 84.3879 330.127 84.0856 330.275 83.7995C330.422 83.5134 330.637 83.2619 330.918 83.045C331.2 82.8235 331.534 82.6505 331.922 82.5259C332.314 82.4013 332.753 82.339 333.237 82.339C333.819 82.339 334.335 82.4359 334.788 82.6297C335.24 82.8235 335.595 83.1143 335.854 83.5019C336.117 83.8895 336.248 84.374 336.248 84.9554V88.1602C336.248 88.5709 336.274 88.9078 336.324 89.1708C336.375 89.4292 336.449 89.6553 336.546 89.8491V89.9668H334.532C334.435 89.7638 334.361 89.51 334.31 89.2054C334.264 88.8962 334.241 88.5871 334.241 88.2779ZM334.504 85.4054L334.518 86.5336H333.403C333.14 86.5336 332.912 86.5636 332.718 86.6236C332.524 86.6836 332.365 86.7689 332.24 86.8797C332.116 86.9858 332.024 87.1104 331.964 87.2535C331.908 87.3965 331.881 87.5534 331.881 87.7241C331.881 87.8949 331.92 88.0495 331.998 88.1879C332.077 88.3217 332.19 88.4279 332.337 88.5063C332.485 88.5801 332.658 88.6171 332.856 88.6171C333.156 88.6171 333.417 88.5571 333.639 88.4371C333.86 88.3171 334.031 88.1694 334.151 87.9941C334.275 87.8187 334.34 87.6526 334.345 87.4957L334.871 88.3402C334.797 88.5294 334.695 88.7255 334.566 88.9285C334.442 89.1316 334.282 89.3231 334.089 89.503C333.895 89.6784 333.662 89.8237 333.389 89.9391C333.117 90.0499 332.794 90.1052 332.42 90.1052C331.945 90.1052 331.514 90.0106 331.126 89.8214C330.743 89.6276 330.438 89.3623 330.212 89.0254C329.991 88.684 329.88 88.2963 329.88 87.8626C329.88 87.4703 329.954 87.122 330.102 86.8174C330.249 86.5128 330.466 86.2567 330.752 86.0491C331.043 85.8368 331.405 85.6776 331.839 85.5715C332.273 85.4607 332.776 85.4054 333.348 85.4054H334.504ZM342.208 88.3333V79.335H344.215V89.9668H342.409L342.208 88.3333ZM337.473 86.3121V86.1667C337.473 85.5945 337.538 85.0754 337.667 84.6094C337.796 84.1387 337.986 83.7349 338.235 83.398C338.484 83.0612 338.791 82.8005 339.155 82.6159C339.52 82.4313 339.935 82.339 340.401 82.339C340.84 82.339 341.223 82.4313 341.55 82.6159C341.882 82.8005 342.164 83.0635 342.395 83.405C342.63 83.7418 342.819 84.141 342.962 84.6024C343.105 85.0593 343.209 85.5599 343.274 86.1045V86.4229C343.209 86.9443 343.105 87.4288 342.962 87.8764C342.819 88.324 342.63 88.7163 342.395 89.0531C342.164 89.3854 341.882 89.6438 341.55 89.8284C341.218 90.0129 340.83 90.1052 340.387 90.1052C339.921 90.1052 339.506 90.0106 339.141 89.8214C338.782 89.6322 338.477 89.3669 338.228 89.0254C337.983 88.684 337.796 88.2825 337.667 87.8211C337.538 87.3596 337.473 86.8566 337.473 86.3121ZM339.467 86.1667V86.3121C339.467 86.6213 339.49 86.9097 339.536 87.1773C339.587 87.445 339.668 87.6826 339.778 87.8903C339.894 88.0933 340.041 88.2525 340.221 88.3679C340.406 88.4786 340.63 88.534 340.893 88.534C341.234 88.534 341.516 88.4579 341.737 88.3056C341.959 88.1487 342.127 87.9341 342.242 87.6618C342.362 87.3896 342.432 87.0758 342.45 86.7205V85.8137C342.436 85.523 342.395 85.2623 342.325 85.0316C342.261 84.7962 342.164 84.5955 342.035 84.4294C341.91 84.2633 341.753 84.1341 341.564 84.0418C341.379 83.9495 341.16 83.9033 340.907 83.9033C340.648 83.9033 340.427 83.9633 340.242 84.0833C340.057 84.1987 339.907 84.3579 339.792 84.5609C339.681 84.7639 339.598 85.0039 339.543 85.2808C339.492 85.553 339.467 85.8483 339.467 86.1667ZM349.22 90.1052C348.638 90.1052 348.117 90.0129 347.655 89.8284C347.194 89.6392 346.802 89.3784 346.479 89.0462C346.16 88.714 345.916 88.3286 345.745 87.8903C345.574 87.4473 345.489 86.9766 345.489 86.4782V86.2014C345.489 85.6338 345.569 85.1146 345.731 84.644C345.892 84.1733 346.123 83.7649 346.423 83.4188C346.728 83.0727 347.097 82.8074 347.531 82.6228C347.964 82.4336 348.454 82.339 348.998 82.339C349.529 82.339 349.999 82.4267 350.41 82.602C350.821 82.7774 351.165 83.0266 351.441 83.3496C351.723 83.6726 351.935 84.0602 352.078 84.5124C352.221 84.9601 352.293 85.4584 352.293 86.0075V86.8382H346.34V85.5092H350.334V85.3569C350.334 85.08 350.283 84.8332 350.182 84.6163C350.085 84.3948 349.937 84.2194 349.739 84.0902C349.54 83.961 349.286 83.8964 348.977 83.8964C348.714 83.8964 348.488 83.9541 348.299 84.0695C348.11 84.1848 347.955 84.3463 347.835 84.554C347.72 84.7616 347.632 85.0062 347.572 85.2877C347.517 85.5646 347.489 85.8691 347.489 86.2014V86.4782C347.489 86.7782 347.531 87.055 347.614 87.3088C347.701 87.5626 347.824 87.7818 347.981 87.9664C348.142 88.151 348.336 88.294 348.562 88.3956C348.793 88.4971 349.053 88.5478 349.344 88.5478C349.704 88.5478 350.039 88.4786 350.348 88.3402C350.662 88.1971 350.932 87.9826 351.158 87.6965L352.127 88.7486C351.97 88.9747 351.755 89.1916 351.483 89.3992C351.215 89.6069 350.892 89.7776 350.514 89.9114C350.136 90.0406 349.704 90.1052 349.22 90.1052ZM355.421 84.0279V89.9668H353.421V82.4774H355.297L355.421 84.0279ZM355.145 85.9591H354.591C354.591 85.4377 354.653 84.9577 354.778 84.5194C354.907 84.0764 355.094 83.6934 355.338 83.3704C355.588 83.0427 355.894 82.7889 356.259 82.609C356.624 82.429 357.046 82.339 357.526 82.339C357.858 82.339 358.162 82.3898 358.439 82.4913C358.716 82.5882 358.954 82.7428 359.152 82.955C359.355 83.1627 359.512 83.435 359.623 83.7718C359.734 84.1041 359.789 84.5032 359.789 84.9693V89.9668H357.796V85.1908C357.796 84.8493 357.749 84.5863 357.657 84.4017C357.565 84.2171 357.433 84.0879 357.263 84.0141C357.097 83.9402 356.896 83.9033 356.66 83.9033C356.402 83.9033 356.176 83.9564 355.982 84.0625C355.793 84.1687 355.636 84.3163 355.511 84.5055C355.387 84.6901 355.295 84.907 355.235 85.1562C355.175 85.4054 355.145 85.673 355.145 85.9591ZM359.602 85.7307L358.889 85.8207C358.889 85.3315 358.949 84.877 359.069 84.4571C359.194 84.0372 359.376 83.668 359.616 83.3496C359.861 83.0312 360.163 82.7843 360.523 82.609C360.883 82.429 361.298 82.339 361.769 82.339C362.129 82.339 362.456 82.3921 362.752 82.4982C363.047 82.5997 363.298 82.7635 363.506 82.9897C363.718 83.2112 363.88 83.5019 363.991 83.8618C364.106 84.2217 364.164 84.6624 364.164 85.1839V89.9668H362.163V85.1839C362.163 84.8378 362.117 84.5747 362.025 84.3948C361.937 84.2102 361.808 84.0833 361.637 84.0141C361.471 83.9402 361.273 83.9033 361.042 83.9033C360.802 83.9033 360.592 83.9518 360.412 84.0487C360.232 84.141 360.082 84.2702 359.962 84.4363C359.842 84.6024 359.752 84.7962 359.692 85.0177C359.632 85.2346 359.602 85.4723 359.602 85.7307ZM367.929 89.1223L369.916 82.4774H372.054L369.043 91.095C368.979 91.2842 368.891 91.4873 368.78 91.7042C368.674 91.921 368.529 92.1264 368.344 92.3202C368.164 92.5186 367.936 92.6801 367.659 92.8047C367.387 92.9293 367.052 92.9916 366.655 92.9916C366.466 92.9916 366.312 92.9801 366.192 92.957C366.072 92.9339 365.929 92.9016 365.763 92.8601V91.3996C365.813 91.3996 365.866 91.3996 365.922 91.3996C365.977 91.4042 366.03 91.4065 366.081 91.4065C366.344 91.4065 366.559 91.3765 366.725 91.3165C366.891 91.2566 367.025 91.1643 367.126 91.0397C367.228 90.9197 367.308 90.7628 367.368 90.569L367.929 89.1223ZM367.098 82.4774L368.725 87.9041L369.009 90.0152L367.652 90.1606L364.96 82.4774H367.098ZM260.22 101.897C260.22 101.754 260.178 101.625 260.095 101.51C260.012 101.394 259.857 101.288 259.631 101.191C259.41 101.09 259.089 100.997 258.669 100.914C258.291 100.831 257.938 100.727 257.61 100.603C257.287 100.474 257.006 100.319 256.766 100.139C256.53 99.9591 256.346 99.7468 256.212 99.5023C256.078 99.2531 256.011 98.9693 256.011 98.6509C256.011 98.3371 256.078 98.0418 256.212 97.7649C256.35 97.488 256.546 97.2435 256.8 97.0312C257.059 96.8143 257.372 96.6459 257.742 96.5259C258.115 96.4013 258.535 96.339 259.001 96.339C259.652 96.339 260.21 96.4428 260.676 96.6505C261.147 96.8581 261.507 97.1442 261.756 97.5088C262.01 97.8687 262.137 98.2794 262.137 98.7409H260.143C260.143 98.5471 260.102 98.374 260.019 98.2217C259.94 98.0648 259.816 97.9426 259.645 97.8549C259.479 97.7626 259.262 97.7164 258.994 97.7164C258.773 97.7164 258.581 97.7557 258.42 97.8341C258.258 97.9079 258.134 98.0095 258.046 98.1387C257.963 98.2633 257.921 98.4017 257.921 98.554C257.921 98.6693 257.945 98.7732 257.991 98.8655C258.041 98.9531 258.122 99.0339 258.233 99.1077C258.344 99.1816 258.487 99.2508 258.662 99.3154C258.842 99.3754 259.064 99.4307 259.327 99.4815C259.866 99.5922 260.349 99.7376 260.773 99.9176C261.198 100.093 261.535 100.333 261.784 100.637C262.033 100.937 262.158 101.332 262.158 101.821C262.158 102.153 262.084 102.458 261.936 102.735C261.788 103.012 261.576 103.254 261.299 103.462C261.022 103.665 260.69 103.824 260.303 103.939C259.92 104.05 259.488 104.105 259.008 104.105C258.311 104.105 257.721 103.981 257.236 103.731C256.756 103.482 256.392 103.166 256.143 102.783C255.898 102.396 255.776 101.999 255.776 101.593H257.665C257.675 101.865 257.744 102.084 257.873 102.25C258.007 102.416 258.175 102.536 258.378 102.61C258.586 102.684 258.81 102.721 259.05 102.721C259.308 102.721 259.523 102.686 259.693 102.617C259.864 102.543 259.993 102.446 260.081 102.326C260.173 102.202 260.22 102.059 260.22 101.897ZM266.899 104.105C266.318 104.105 265.796 104.013 265.335 103.828C264.873 103.639 264.481 103.378 264.158 103.046C263.84 102.714 263.595 102.329 263.424 101.89C263.254 101.447 263.168 100.977 263.168 100.478V100.201C263.168 99.6338 263.249 99.1146 263.41 98.644C263.572 98.1733 263.803 97.7649 264.103 97.4188C264.407 97.0727 264.776 96.8074 265.21 96.6228C265.644 96.4336 266.133 96.339 266.678 96.339C267.208 96.339 267.679 96.4267 268.09 96.602C268.5 96.7774 268.844 97.0266 269.121 97.3496C269.402 97.6726 269.615 98.0602 269.758 98.5124C269.901 98.9601 269.972 99.4584 269.972 100.008V100.838H264.02V99.5092H268.013V99.3569C268.013 99.08 267.963 98.8332 267.861 98.6163C267.764 98.3948 267.617 98.2194 267.418 98.0902C267.22 97.961 266.966 97.8964 266.657 97.8964C266.394 97.8964 266.168 97.9541 265.978 98.0695C265.789 98.1848 265.635 98.3463 265.515 98.554C265.399 98.7616 265.312 99.0062 265.252 99.2877C265.196 99.5646 265.169 99.8691 265.169 100.201V100.478C265.169 100.778 265.21 101.055 265.293 101.309C265.381 101.563 265.503 101.782 265.66 101.966C265.822 102.151 266.015 102.294 266.241 102.396C266.472 102.497 266.733 102.548 267.024 102.548C267.384 102.548 267.718 102.479 268.027 102.34C268.341 102.197 268.611 101.983 268.837 101.696L269.806 102.749C269.649 102.975 269.435 103.192 269.162 103.399C268.895 103.607 268.572 103.778 268.193 103.911C267.815 104.041 267.384 104.105 266.899 104.105ZM273.101 98.111V103.967H271.107V96.4774H272.983L273.101 98.111ZM275.357 96.429L275.323 98.2771C275.226 98.2633 275.108 98.2517 274.97 98.2425C274.836 98.2287 274.714 98.2217 274.603 98.2217C274.321 98.2217 274.077 98.2586 273.869 98.3325C273.666 98.4017 273.495 98.5055 273.357 98.644C273.223 98.7824 273.122 98.9508 273.052 99.1492C272.988 99.3477 272.951 99.5738 272.942 99.8276L272.54 99.703C272.54 99.2185 272.589 98.7732 272.686 98.3671C272.783 97.9564 272.923 97.5988 273.108 97.2942C273.297 96.9897 273.528 96.7543 273.8 96.5882C274.072 96.4221 274.384 96.339 274.734 96.339C274.845 96.339 274.958 96.3482 275.074 96.3667C275.189 96.3805 275.284 96.4013 275.357 96.429ZM278.971 102.513L280.632 96.4774H282.715L280.189 103.967H278.929L278.971 102.513ZM277.828 96.4774L279.497 102.52L279.531 103.967H278.265L275.738 96.4774H277.828ZM285.712 96.4774V103.967H283.712V96.4774H285.712ZM283.587 94.5255C283.587 94.2348 283.689 93.9948 283.892 93.8056C284.095 93.6165 284.367 93.5219 284.709 93.5219C285.046 93.5219 285.316 93.6165 285.519 93.8056C285.726 93.9948 285.83 94.2348 285.83 94.5255C285.83 94.8162 285.726 95.0562 285.519 95.2454C285.316 95.4346 285.046 95.5292 284.709 95.5292C284.367 95.5292 284.095 95.4346 283.892 95.2454C283.689 95.0562 283.587 94.8162 283.587 94.5255ZM290.454 102.548C290.698 102.548 290.915 102.502 291.104 102.409C291.294 102.312 291.441 102.179 291.547 102.008C291.658 101.833 291.716 101.627 291.72 101.392H293.596C293.592 101.918 293.451 102.386 293.174 102.797C292.897 103.203 292.526 103.524 292.06 103.759C291.594 103.99 291.072 104.105 290.495 104.105C289.914 104.105 289.406 104.008 288.973 103.815C288.543 103.621 288.186 103.353 287.9 103.012C287.614 102.666 287.399 102.264 287.256 101.807C287.113 101.346 287.041 100.852 287.041 100.326V100.125C287.041 99.5945 287.113 99.1008 287.256 98.644C287.399 98.1825 287.614 97.781 287.9 97.4396C288.186 97.0935 288.543 96.8235 288.973 96.6297C289.402 96.4359 289.905 96.339 290.481 96.339C291.095 96.339 291.633 96.4567 292.094 96.692C292.56 96.9274 292.925 97.2642 293.188 97.7026C293.456 98.1364 293.592 98.6509 293.596 99.2462H291.72C291.716 98.997 291.663 98.7709 291.561 98.5678C291.464 98.3648 291.321 98.2033 291.132 98.0833C290.948 97.9587 290.719 97.8964 290.447 97.8964C290.156 97.8964 289.918 97.9587 289.734 98.0833C289.549 98.2033 289.406 98.3694 289.305 98.5817C289.203 98.7893 289.132 99.027 289.09 99.2946C289.053 99.5576 289.035 99.8345 289.035 100.125V100.326C289.035 100.617 289.053 100.896 289.09 101.163C289.127 101.431 289.196 101.669 289.298 101.876C289.404 102.084 289.549 102.248 289.734 102.368C289.918 102.488 290.158 102.548 290.454 102.548ZM298.199 104.105C297.618 104.105 297.096 104.013 296.635 103.828C296.173 103.639 295.781 103.378 295.458 103.046C295.14 102.714 294.895 102.329 294.725 101.89C294.554 101.447 294.468 100.977 294.468 100.478V100.201C294.468 99.6338 294.549 99.1146 294.711 98.644C294.872 98.1733 295.103 97.7649 295.403 97.4188C295.707 97.0727 296.077 96.8074 296.51 96.6228C296.944 96.4336 297.433 96.339 297.978 96.339C298.508 96.339 298.979 96.4267 299.39 96.602C299.8 96.7774 300.144 97.0266 300.421 97.3496C300.703 97.6726 300.915 98.0602 301.058 98.5124C301.201 98.9601 301.272 99.4584 301.272 100.008V100.838H295.32V99.5092H299.314V99.3569C299.314 99.08 299.263 98.8332 299.161 98.6163C299.064 98.3948 298.917 98.2194 298.718 98.0902C298.52 97.961 298.266 97.8964 297.957 97.8964C297.694 97.8964 297.468 97.9541 297.279 98.0695C297.089 98.1848 296.935 98.3463 296.815 98.554C296.7 98.7616 296.612 99.0062 296.552 99.2877C296.496 99.5646 296.469 99.8691 296.469 100.201V100.478C296.469 100.778 296.51 101.055 296.593 101.309C296.681 101.563 296.803 101.782 296.96 101.966C297.122 102.151 297.316 102.294 297.542 102.396C297.772 102.497 298.033 102.548 298.324 102.548C298.684 102.548 299.018 102.479 299.327 102.34C299.641 102.197 299.911 101.983 300.137 101.696L301.106 102.749C300.949 102.975 300.735 103.192 300.463 103.399C300.195 103.607 299.872 103.778 299.494 103.911C299.115 104.041 298.684 104.105 298.199 104.105ZM306.457 101.897C306.457 101.754 306.415 101.625 306.332 101.51C306.249 101.394 306.095 101.288 305.869 101.191C305.647 101.09 305.326 100.997 304.906 100.914C304.528 100.831 304.175 100.727 303.847 100.603C303.524 100.474 303.243 100.319 303.003 100.139C302.768 99.9591 302.583 99.7468 302.449 99.5023C302.315 99.2531 302.248 98.9693 302.248 98.6509C302.248 98.3371 302.315 98.0418 302.449 97.7649C302.588 97.488 302.784 97.2435 303.038 97.0312C303.296 96.8143 303.61 96.6459 303.979 96.5259C304.353 96.4013 304.773 96.339 305.239 96.339C305.889 96.339 306.448 96.4428 306.914 96.6505C307.384 96.8581 307.744 97.1442 307.994 97.5088C308.247 97.8687 308.374 98.2794 308.374 98.7409H306.381C306.381 98.5471 306.339 98.374 306.256 98.2217C306.178 98.0648 306.053 97.9426 305.882 97.8549C305.716 97.7626 305.499 97.7164 305.232 97.7164C305.01 97.7164 304.819 97.7557 304.657 97.8341C304.496 97.9079 304.371 98.0095 304.283 98.1387C304.2 98.2633 304.159 98.4017 304.159 98.554C304.159 98.6693 304.182 98.7732 304.228 98.8655C304.279 98.9531 304.36 99.0339 304.47 99.1077C304.581 99.1816 304.724 99.2508 304.899 99.3154C305.079 99.3754 305.301 99.4307 305.564 99.4815C306.104 99.5922 306.586 99.7376 307.011 99.9176C307.435 100.093 307.772 100.333 308.021 100.637C308.27 100.937 308.395 101.332 308.395 101.821C308.395 102.153 308.321 102.458 308.173 102.735C308.026 103.012 307.814 103.254 307.537 103.462C307.26 103.665 306.928 103.824 306.54 103.939C306.157 104.05 305.725 104.105 305.246 104.105C304.549 104.105 303.958 103.981 303.474 103.731C302.994 103.482 302.629 103.166 302.38 102.783C302.135 102.396 302.013 101.999 302.013 101.593H303.903C303.912 101.865 303.981 102.084 304.11 102.25C304.244 102.416 304.413 102.536 304.616 102.61C304.823 102.684 305.047 102.721 305.287 102.721C305.546 102.721 305.76 102.686 305.931 102.617C306.102 102.543 306.231 102.446 306.318 102.326C306.411 102.202 306.457 102.059 306.457 101.897ZM315.421 93.8887V103.967H313.344V93.8887H315.421ZM319.435 98.194V99.8137H314.853V98.194H319.435ZM319.92 93.8887V95.5153H314.853V93.8887H319.92ZM321.124 93.8887H324.883C325.653 93.8887 326.315 94.0041 326.869 94.2348C327.428 94.4655 327.857 94.807 328.157 95.2592C328.457 95.7114 328.607 96.2675 328.607 96.9274C328.607 97.4673 328.514 97.931 328.33 98.3186C328.15 98.7016 327.894 99.0224 327.561 99.2808C327.234 99.5346 326.848 99.7376 326.405 99.8899L325.748 100.236H322.481L322.467 98.6163H324.896C325.261 98.6163 325.563 98.5517 325.803 98.4225C326.043 98.2933 326.223 98.1133 326.343 97.8826C326.468 97.6518 326.53 97.3842 326.53 97.0796C326.53 96.7566 326.47 96.4774 326.35 96.2421C326.23 96.0068 326.048 95.8268 325.803 95.7022C325.559 95.5776 325.252 95.5153 324.883 95.5153H323.201V103.967H321.124V93.8887ZM326.758 103.967L324.46 99.4746L326.655 99.4607L328.98 103.87V103.967H326.758ZM336.968 102.347V103.967H331.604V102.347H336.968ZM332.282 93.8887V103.967H330.205V93.8887H332.282ZM336.269 97.9933V99.5715H331.604V97.9933H336.269ZM336.961 93.8887V95.5153H331.604V93.8887H336.961ZM344.942 102.347V103.967H339.578V102.347H344.942ZM340.256 93.8887V103.967H338.179V93.8887H340.256ZM344.243 97.9933V99.5715H339.578V97.9933H344.243ZM344.935 93.8887V95.5153H339.578V93.8887H344.935ZM349.427 100.887H347.662C347.667 100.471 347.699 100.114 347.759 99.8137C347.824 99.5092 347.932 99.2346 348.084 98.99C348.241 98.7455 348.449 98.5032 348.707 98.2633C348.924 98.0695 349.113 97.8849 349.275 97.7095C349.436 97.5342 349.563 97.3542 349.656 97.1696C349.748 96.9804 349.794 96.7705 349.794 96.5397C349.794 96.2721 349.753 96.0506 349.669 95.8753C349.591 95.6953 349.471 95.5592 349.31 95.4669C349.153 95.3746 348.954 95.3284 348.714 95.3284C348.516 95.3284 348.331 95.3723 348.161 95.4599C347.99 95.543 347.849 95.6722 347.738 95.8476C347.632 96.0229 347.577 96.2536 347.572 96.5397H345.565C345.579 95.9076 345.724 95.3861 346.001 94.9754C346.282 94.5601 346.658 94.2533 347.129 94.0548C347.6 93.8518 348.128 93.7503 348.714 93.7503C349.36 93.7503 349.914 93.8564 350.375 94.0687C350.837 94.2763 351.19 94.5832 351.435 94.9893C351.679 95.3907 351.801 95.8799 351.801 96.4567C351.801 96.8581 351.723 97.2158 351.566 97.5296C351.409 97.8387 351.204 98.1271 350.95 98.3948C350.696 98.6624 350.417 98.9393 350.112 99.2254C349.849 99.4607 349.669 99.7076 349.573 99.966C349.48 100.224 349.432 100.531 349.427 100.887ZM347.454 103.025C347.454 102.73 347.556 102.486 347.759 102.292C347.962 102.093 348.234 101.994 348.576 101.994C348.913 101.994 349.183 102.093 349.386 102.292C349.593 102.486 349.697 102.73 349.697 103.025C349.697 103.312 349.593 103.554 349.386 103.752C349.183 103.951 348.913 104.05 348.576 104.05C348.234 104.05 347.962 103.951 347.759 103.752C347.556 103.554 347.454 103.312 347.454 103.025Z" fill="black"/>
<path opacity="0.7" d="M208.396 166.072C208.396 168.442 205.646 170.359 202.264 170.359C198.882 170.359 196.133 168.442 196.133 166.072C196.133 163.703 198.882 161.785 202.264 161.785C205.646 161.785 208.396 163.703 208.396 166.072Z" fill="white"/>
<path opacity="0.7" d="M250.863 155.833C250.863 162.689 242.887 168.242 233.048 168.242C223.209 168.242 215.287 162.725 215.287 155.833C215.287 148.941 223.263 143.424 233.102 143.424C242.941 143.424 250.863 149.032 250.863 155.833Z" fill="white"/>
<path d="M76.5962 288.637C76.5962 288.637 71.7255 282.841 68.6151 285.549C65.5048 288.257 67.0711 293.986 70.6663 294.173C72.8078 294.299 74.9239 293.656 76.6334 292.36L76.5962 288.637Z" fill="#0F75BB"/>
<path opacity="0.2" d="M76.5962 288.637C76.5962 288.637 71.7255 282.841 68.6151 285.549C65.5048 288.257 67.0711 293.986 70.6663 294.173C72.8078 294.299 74.9239 293.656 76.6334 292.36L76.5962 288.637Z" fill="white"/>
<path d="M96.4663 273.941C96.4663 273.941 100.554 269.652 103.09 270.383C105.626 271.114 105.327 281.341 97.5031 277.201L96.4663 273.941Z" fill="#0F75BB"/>
<path opacity="0.3" d="M96.4663 273.941C96.4663 273.941 100.554 269.652 103.09 270.383C105.626 271.114 105.327 281.341 97.5031 277.201L96.4663 273.941Z" fill="white"/>
<path d="M81.8548 305.907C81.8548 305.907 68.4288 287.518 79.3262 283.795C90.2237 280.073 92.1779 298.589 89.0228 303.743C85.8677 308.898 81.8548 305.907 81.8548 305.907Z" fill="#0F75BB"/>
<path d="M88.09 268.256C88.09 268.256 96.429 248.897 84.0771 248.315C71.7252 247.733 70.3826 267.51 84.5918 270.382L88.09 268.256Z" fill="#0F75BB"/>
<path opacity="0.3" d="M81.8548 305.907C81.8548 305.907 68.4288 287.518 79.3262 283.795C90.2237 280.073 92.1779 298.589 89.0228 303.743C85.8677 308.898 81.8548 305.907 81.8548 305.907Z" fill="white"/>
<path opacity="0.3" d="M88.09 268.256C88.09 268.256 96.429 248.897 84.0771 248.315C71.7252 247.733 70.3826 267.51 84.5918 270.382L88.09 268.256Z" fill="white"/>
<path d="M85.1295 284.109C85.1295 284.109 81.0794 267.018 88.859 265.653C96.6386 264.288 104.344 279.73 88.225 287.496C88.2324 287.496 85.4727 285.78 85.1295 284.109Z" fill="#0F75BB"/>
<path opacity="0.2" d="M85.1295 284.109C85.1295 284.109 81.0794 267.018 88.859 265.653C96.6386 264.288 104.344 279.73 88.225 287.496C88.2324 287.496 85.4727 285.78 85.1295 284.109Z" fill="white"/>
<path d="M83.9437 266.875C79.2894 263.473 76.0746 256.908 78.812 251.373C78.7001 251.888 78.5659 252.447 78.4391 252.962C77.5216 258.184 80.3933 263.212 83.9437 266.875Z" fill="#0F75BB"/>
<path d="M80.9599 250.262C86.2781 251.299 88.7097 257.081 88.0607 262.042C87.9414 262.743 87.837 263.452 87.7027 264.138C87.7711 262.736 87.7537 261.331 87.6505 259.93C87.3149 255.805 85.0473 251.777 80.9375 250.232L80.9599 250.262Z" fill="#0F75BB"/>
<path d="M90.4024 266.875C93.6694 268.032 95.549 271.754 95.273 275.081C95.0045 277.528 93.6321 279.729 92.1104 281.564C90.8835 283.042 89.4836 284.366 87.9409 285.51C88.6271 284.839 89.2984 284.167 89.9175 283.451C91.7673 281.363 93.5948 279.065 94.3929 276.364C94.8937 274.56 94.7732 272.639 94.0507 270.911C93.3283 269.183 92.046 267.749 90.4098 266.838L90.4024 266.875Z" fill="#0F75BB"/>
<path d="M88.0904 268.256C88.896 270.755 89.5822 273.754 88.2993 276.216C87.2103 277.812 87.0984 279.901 87.0686 281.803C87.0686 282.467 87.0686 283.124 87.1133 283.795C86.7937 282.49 86.6482 281.148 86.6807 279.804C86.6577 278.418 87.0359 277.056 87.7697 275.88C88.9706 273.575 88.3963 270.755 88.0904 268.256Z" fill="#0F75BB"/>
<path d="M82.6079 285.549C85.7556 287.25 87.0012 297.925 86.8893 301.416C86.7923 300.722 86.6879 300.036 86.5537 299.35C85.957 295.933 85.3379 292.502 84.4353 289.159C84.0102 287.899 83.7417 286.369 82.6079 285.549Z" fill="#0F75BB"/>
<path d="M78.7893 286.137C78.0316 288.598 77.9155 291.212 78.452 293.73C78.9886 296.249 80.1599 298.589 81.8549 300.527C81.3578 300.101 80.8871 299.645 80.4452 299.162C78.9263 297.39 77.9599 295.212 77.6656 292.897C77.3713 290.582 77.762 288.232 78.7893 286.137Z" fill="#0F75BB"/>
<path d="M99.6069 276.021C100.994 275.794 102.288 275.175 103.336 274.238C103.083 275.842 101.046 276.596 99.6069 276.021Z" fill="#0F75BB"/>
<path d="M98.8018 273.201C99.4731 271.829 101.785 270.963 102.748 272.455C101.375 271.851 100.032 272.605 98.8018 273.201Z" fill="#0F75BB"/>
<path d="M74.3736 289.502C72.8072 288.398 71.1812 286.518 69.1523 287.495C70.8082 285.533 73.6277 287.741 74.3736 289.502Z" fill="#0F75BB"/>
<path d="M74.3735 292.352C72.3074 293.098 68.2572 293.173 67.9663 290.293C69.1448 292.635 72.1433 292.121 74.3735 292.352Z" fill="#0F75BB"/>
<path d="M65.2217 298.32H106.969L103.478 325.035H68.705L65.2217 298.32Z" fill="#263238"/>
<g opacity="0.2">
<path d="M106.969 298.32L105.746 307.66L105.671 308.25L104.978 313.561L104.799 314.941L104.284 318.873L103.874 322.021L103.478 325.035H68.705L68.3097 322.021L67.8994 318.873L67.3922 314.941L67.2057 313.561L66.5195 308.25L66.4375 307.66L65.2217 298.32H106.969Z" fill="#FAFAFA"/>
</g>
<path opacity="0.2" d="M104.283 318.871L103.873 322.019H68.3092L67.8989 318.871H104.283Z" fill="#FAFAFA"/>
<path opacity="0.2" d="M104.977 313.561L104.798 314.941H67.3916L67.2051 313.561H104.977Z" fill="#FAFAFA"/>
<path opacity="0.2" d="M105.745 307.66L105.671 308.25H66.5191L66.437 307.66H105.745Z" fill="#FAFAFA"/>
<path d="M286.154 285.125H277.449V302.977H286.154V285.125Z" fill="#263238"/>
<path d="M306.42 313.57C306.42 307.363 301.668 301.932 294.56 298.933V295.166H269.036V298.933C261.927 301.917 257.184 307.363 257.184 313.57C257.223 316.472 258.222 319.279 260.025 321.552V324.715H303.578V321.552C305.381 319.279 306.38 316.472 306.42 313.57Z" fill="#263238"/>
<path opacity="0.6" d="M306.42 313.57C306.42 307.363 301.668 301.932 294.56 298.933V295.166H269.036V298.933C261.927 301.917 257.184 307.363 257.184 313.57C257.223 316.472 258.222 319.279 260.025 321.552V324.715H303.578V321.552C305.381 319.279 306.38 316.472 306.42 313.57Z" fill="#FAFAFA"/>
<path d="M295.202 298.776H268.394C267.989 298.776 267.6 298.615 267.313 298.328C267.026 298.041 266.865 297.652 266.865 297.247V255.762H267.611V297.247C267.606 297.351 267.622 297.455 267.66 297.553C267.697 297.65 267.755 297.739 267.829 297.813C267.902 297.886 267.991 297.944 268.088 297.981C268.186 298.019 268.29 298.035 268.394 298.03H295.202C295.303 298.03 295.403 298.01 295.496 297.97C295.589 297.93 295.673 297.872 295.743 297.799C295.812 297.725 295.867 297.639 295.902 297.544C295.937 297.449 295.953 297.348 295.947 297.247V255.762H296.693V297.247C296.693 297.646 296.537 298.029 296.259 298.315C295.98 298.601 295.601 298.766 295.202 298.776Z" fill="#263238"/>
<path d="M307.897 290.294H255.707L267.156 245.967H296.447L307.897 290.294Z" fill="#0F75BB"/>
<path opacity="0.2" d="M303.578 321.545H260.026V324.708H303.578V321.545Z" fill="black"/>
<path opacity="0.2" d="M294.56 295.158H269.036V298.925H294.56V295.158Z" fill="black"/>
<path opacity="0.6" d="M307.897 290.294H255.707L267.156 245.967H296.447L307.897 290.294Z" fill="#FAFAFA"/>
<path d="M201.004 226.137C207.612 234.724 214.661 243.743 223.194 250.271C224.71 251.458 226.418 252.379 228.244 252.993C228.37 253.031 228.244 253.098 228.094 253.202C227.945 253.307 228.005 253.292 228.005 253.352C228.005 253.411 227.774 253.56 227.714 253.613C226.946 254.332 226.471 255.31 226.379 256.358C226.379 256.567 226.424 256.552 226.424 256.418C225.969 252.986 223.888 249.607 222.127 246.406C215.004 234.373 206.046 223.131 197.446 211.941L204.159 205.361C211.716 211.789 218.842 218.707 225.491 226.07C230.623 231.814 235.635 237.842 239.529 244.773C243.4 251.404 245.712 260.812 238.82 266.653C235.769 269.208 231.917 270.61 227.938 270.614C214.885 270.435 202.951 258.126 194.947 249.278C191.535 245.389 188.35 241.307 185.407 237.051L200.981 226.137H201.004Z" fill="#DC897C"/>
<path d="M182.028 197.476L189.897 197.096C190.772 197.057 191.638 197.292 192.374 197.767L204.561 205.667L202.54 214.164C194.947 218.954 188.465 214.552 186.481 212.919C186.022 212.537 185.485 212.262 184.907 212.113L180.596 210.957C179.633 210.699 178.794 210.107 178.228 209.287C177.662 208.467 177.407 207.472 177.508 206.481L178.045 201.259C178.143 200.254 178.599 199.319 179.331 198.624C180.063 197.929 181.02 197.522 182.028 197.476Z" fill="#E4897B"/>
<path d="M224.111 250.256L216.22 275.403C216.22 275.403 215.332 274.933 213.885 274.12C210.074 271.979 202.361 267.488 196.663 263.035C193.351 260.454 190.696 257.887 189.95 255.798C187.302 248.786 203.062 223.922 203.062 223.922C208.015 225.16 214.027 234.142 214.027 234.142C214.027 234.142 222.209 245.683 224.111 250.256Z" fill="#0F75BB"/>
<path opacity="0.2" d="M213.885 274.119C210.073 271.978 202.361 267.487 196.662 263.033C196.516 259.488 196.789 255.937 197.475 252.455C197.475 252.455 210.14 259.632 213.885 274.119Z" fill="black"/>
<path d="M203.055 223.928C203.055 223.928 218.331 263.287 203.554 336.492L133.918 336.32C133.463 325.63 138.304 275.573 128.115 225.166C128.115 225.166 130.972 221.675 153.438 220.19C162.329 219.601 175.226 219.534 183.043 220.265C189.799 220.961 196.49 222.186 203.055 223.928Z" fill="#263238"/>
<path opacity="0.6" d="M209.842 284.922C209.745 287.585 209.611 290.323 209.432 293.128C209.275 295.418 209.104 297.768 208.895 300.17C208.634 303.034 208.335 305.981 207.962 309.002C207.679 311.489 207.356 314.006 206.993 316.552C206.55 319.65 206.053 322.818 205.501 326.056C204.919 329.443 204.278 332.919 203.554 336.5L133.918 336.328C133.814 334.001 133.963 329.808 134.157 324.161C134.239 321.923 134.321 319.402 134.403 316.701C134.455 314.739 134.507 312.65 134.552 310.48C134.597 308.062 134.642 305.519 134.656 302.855C134.656 300.791 134.656 298.658 134.656 296.455C134.656 293.911 134.619 291.285 134.56 288.592C134.56 286.593 134.47 284.563 134.403 282.497C134.157 275.149 133.717 267.368 132.986 259.319C131.977 247.855 130.346 236.454 128.1 225.167C128.1 225.167 130.964 221.676 153.46 220.191C162.351 219.602 175.24 219.527 183.072 220.266C189.828 220.967 196.518 222.192 203.084 223.929C203.084 223.929 211.229 244.973 209.842 284.922Z" fill="#FAFAFA"/>
<path opacity="0.2" d="M141.661 256.125C141.661 256.125 141.041 272.746 134.403 282.511C134.157 275.163 133.717 267.382 132.986 259.333C135.708 257.252 138.67 256.021 141.661 256.125Z" fill="black"/>
<g opacity="0.6">
<path d="M209.843 284.921C209.746 287.585 209.611 290.322 209.432 293.127L202.123 301.736L191.62 289.383L181.133 301.759L170.639 289.405L160.144 301.759L149.649 289.405L139.14 301.759L134.664 296.455C134.664 293.911 134.627 291.285 134.567 288.592L139.17 294.008L149.657 281.646L160.151 294.008L170.646 281.646L181.141 294.008L191.628 281.646L202.13 294.008L209.843 284.921Z" fill="#FAFAFA"/>
</g>
<g opacity="0.6">
<path d="M208.895 300.193C208.634 303.058 208.336 306.004 207.963 309.026L202.122 315.919L191.62 303.558L181.133 315.919L170.638 303.558L160.144 315.919L149.649 303.558L139.14 315.919L134.522 310.48C134.567 308.063 134.612 305.52 134.627 302.856L139.14 308.16L149.627 295.807L160.121 308.16L170.616 295.807L181.111 308.16L191.598 295.807L202.1 308.16L208.895 300.193Z" fill="#FAFAFA"/>
</g>
<g opacity="0.6">
<path d="M207.016 316.552C206.573 319.65 206.076 322.818 205.524 326.056L202.145 330.039L191.643 317.693L181.133 330.062L170.639 317.715L160.144 330.062L149.649 317.715L139.14 330.062L134.127 324.161C134.209 321.923 134.292 319.401 134.374 316.701L139.14 322.318L149.627 309.957L160.122 322.318L170.616 309.957L181.111 322.318L191.598 309.957L202.1 322.318L207.016 316.552Z" fill="#FAFAFA"/>
</g>
<path d="M152.565 189.463C155.31 198.78 158.794 215.983 152.752 222.936C162.202 225.92 169.005 227.934 177.366 234.126C179.559 228.046 182.237 220.161 182.237 220.161C171.422 218.624 170.959 210.754 172.115 203.212L152.565 189.463Z" fill="#E4897B"/>
<path opacity="0.2" d="M160.502 195.08L172.071 203.219C171.771 204.973 171.631 206.751 171.653 208.53C167.558 208.329 161.591 204.413 160.763 200.22C160.365 198.537 160.276 196.795 160.502 195.08Z" fill="black"/>
<path d="M144.622 220.901L151.298 214.627L169.184 220.767L177.001 232.785L179.918 220.602L183.96 216.954L191.039 221.289L189.942 229.01L184.826 226.503L178.642 236.626L164.821 228.51L160.964 232.21L144.622 220.901Z" fill="#0F75BB"/>
<path opacity="0.2" d="M178.642 236.625L182.252 223.973L189.942 229.008L184.826 226.502L178.642 236.625Z" fill="black"/>
<path opacity="0.2" d="M178.642 236.625L166.462 224.689L160.964 232.209L164.821 228.509L178.642 236.625Z" fill="black"/>
<path d="M149.18 245.309C153.655 250.702 159.771 258.192 164.306 263.339C169.714 269.352 175.092 275.738 181.633 280.348C181.887 280.505 181.596 280.348 181.469 280.348C181.4 280.323 181.327 280.308 181.253 280.303C181.193 280.303 181.253 280.303 181.253 280.341C184.192 280.99 187.496 280.303 190.636 279.878C200.206 278.267 209.619 275.559 219.204 273.09L222.97 281.721C219.338 283.959 215.72 285.861 211.961 287.689C202.54 292.105 185.385 300.08 174.987 296.171C171.146 294.387 167.565 292.088 164.343 289.338C159.39 285.216 154.706 280.78 150.321 276.059C146.017 271.486 141.944 266.808 138.021 261.929C136.701 260.303 135.463 258.707 134.15 256.961L149.18 245.309Z" fill="#DC897C"/>
<path d="M121.94 233.791C114.309 257.977 148.59 281.655 148.59 281.655L166.909 260.826C166.909 260.826 158.839 245.906 149.694 232.642C140.124 218.767 125.96 221.064 121.94 233.791Z" fill="#0F75BB"/>
<path d="M217.704 274.209L230.593 260.826L240.334 273.822C240.334 273.822 232.644 284.474 222.179 281.699L217.704 274.209Z" fill="#E4897B"/>
<path d="M243.161 256.723L248.106 268.151L240.334 273.821L230.593 260.826L243.161 256.723Z" fill="#E4897B"/>
<path d="M177.441 154.856C184.072 157.459 188.629 175.542 180.566 179.899C172.503 184.256 164.873 149.932 177.441 154.856Z" fill="#263238"/>
<path d="M148.836 176.139C152.267 188.821 153.64 196.349 161.516 201.802C173.331 210.008 187.995 201.429 188.42 188.143C188.808 176.207 183.125 157.489 169.475 154.573C156.034 151.686 145.42 163.487 148.836 176.139Z" fill="#E4897B"/>
<path d="M160.158 159.831L158.756 148.701C156.012 150.195 152.867 150.785 149.768 150.387C136.342 148.082 126.757 157.176 133.359 164.218C127.287 167.299 131.255 175.639 135.76 180.831C142.018 188.06 148.44 191.275 152.468 187.545C156.198 185.449 155.989 172.2 154.43 167.403C152.073 160.137 160.158 159.831 160.158 159.831Z" fill="#263238"/>
<path d="M146.598 189.642C148.794 192.037 151.751 193.598 154.967 194.059C159.032 194.544 159.748 190.754 157.518 187.248C155.504 184.092 150.962 180.041 147.411 181.175C143.861 182.309 143.816 186.636 146.598 189.642Z" fill="#E4897B"/>
<path d="M168.266 176.378C168.483 177.415 169.214 178.169 169.9 178.049C170.586 177.93 170.967 176.99 170.75 175.953C170.534 174.916 169.803 174.163 169.117 174.275C168.43 174.387 168.058 175.334 168.266 176.378Z" fill="#263238"/>
<path d="M180.111 174.349C180.328 175.393 181.051 176.139 181.737 176.02C182.424 175.901 182.804 174.968 182.588 173.924C182.371 172.879 181.64 172.133 180.962 172.253C180.283 172.372 179.895 173.32 180.111 174.349Z" fill="#263238"/>
<path d="M177.292 175.514C177.292 175.514 180.917 181.109 184.139 183.563C182.647 185.6 179.328 185.353 179.328 185.353L177.292 175.514Z" fill="#DE5753"/>
<path d="M172.063 170.918C172.162 170.956 172.25 171.021 172.316 171.104C172.367 171.169 172.404 171.244 172.426 171.323C172.447 171.403 172.453 171.486 172.443 171.568C172.433 171.649 172.406 171.728 172.365 171.8C172.324 171.871 172.27 171.934 172.204 171.985C171.443 172.606 170.541 173.03 169.576 173.219C168.612 173.407 167.616 173.355 166.677 173.066C166.6 173.04 166.528 172.998 166.467 172.943C166.405 172.888 166.356 172.821 166.321 172.746C166.286 172.672 166.267 172.591 166.264 172.509C166.261 172.427 166.275 172.345 166.304 172.268C166.362 172.113 166.477 171.987 166.627 171.918C166.776 171.848 166.947 171.84 167.102 171.895C167.843 172.111 168.625 172.142 169.38 171.986C170.136 171.83 170.842 171.491 171.436 171C171.523 170.93 171.627 170.885 171.738 170.87C171.848 170.856 171.961 170.872 172.063 170.918Z" fill="#263238"/>
<path d="M183.527 168.672C183.429 168.699 183.326 168.7 183.227 168.677C183.128 168.653 183.036 168.606 182.961 168.538C182.376 167.993 181.676 167.589 180.912 167.355C180.148 167.121 179.341 167.064 178.552 167.188C178.47 167.218 178.382 167.23 178.295 167.224C178.207 167.218 178.122 167.194 178.044 167.153C177.967 167.112 177.899 167.055 177.844 166.986C177.79 166.918 177.751 166.838 177.73 166.753C177.708 166.668 177.705 166.579 177.72 166.493C177.734 166.406 177.767 166.324 177.816 166.251C177.865 166.178 177.928 166.116 178.002 166.069C178.077 166.022 178.16 165.992 178.247 165.979C179.231 165.802 180.243 165.856 181.202 166.138C182.162 166.421 183.042 166.923 183.774 167.605C183.898 167.715 183.973 167.868 183.985 168.033C183.996 168.198 183.941 168.361 183.833 168.486C183.751 168.575 183.645 168.64 183.527 168.672Z" fill="#263238"/>
<path d="M149.06 151.843C149.06 151.843 158.324 133.939 175.569 137.602C175.569 137.602 172.272 138.348 170.87 139.593C170.87 139.593 185.922 138.28 190.614 148.859L187.734 147.165C187.734 147.165 191.568 155.931 187.078 161.705L186.235 158.803C186.235 158.803 180.074 166.449 170.877 164.278L174.055 162.667C174.055 162.667 158.212 162.182 154.289 158.139C150.365 154.096 149.06 151.843 149.06 151.843Z" fill="#263238"/>
<path d="M180.909 190.822C180.84 190.822 180.771 190.808 180.707 190.781C180.643 190.754 180.585 190.715 180.536 190.665C178.201 188.136 174.106 189.106 174.069 189.114C173.946 189.13 173.821 189.1 173.718 189.03C173.615 188.96 173.541 188.855 173.511 188.735C173.481 188.614 173.496 188.486 173.553 188.376C173.611 188.266 173.707 188.18 173.823 188.136C174.017 188.091 178.53 187.017 181.282 189.979C181.374 190.074 181.426 190.201 181.426 190.333C181.426 190.466 181.374 190.593 181.282 190.688C181.232 190.733 181.173 190.769 181.109 190.792C181.045 190.815 180.977 190.825 180.909 190.822Z" fill="#263238"/>
<path d="M310.53 324.707H57.688V336.494H310.53V324.707Z" fill="#0F75BB"/>
<path opacity="0.2" d="M310.53 324.707H57.688V336.494H310.53V324.707Z" fill="#FAFAFA"/>
<path d="M314.311 324.707H54.63C53.8452 324.707 53.0919 325.016 52.5334 325.568C51.975 326.119 51.6563 326.869 51.6465 327.654C51.6563 328.439 51.975 329.188 52.5334 329.74C53.0919 330.291 53.8452 330.6 54.63 330.6H314.311C315.09 330.591 315.834 330.277 316.384 329.727C316.934 329.176 317.248 328.432 317.258 327.654C317.248 326.875 316.934 326.131 316.384 325.581C315.834 325.03 315.09 324.717 314.311 324.707Z" fill="#0F75BB"/>
<path opacity="0.4" d="M314.311 324.707H54.63C53.8452 324.707 53.0919 325.016 52.5334 325.568C51.975 326.119 51.6563 326.869 51.6465 327.654C51.6563 328.439 51.975 329.188 52.5334 329.74C53.0919 330.291 53.8452 330.6 54.63 330.6H314.311C315.09 330.591 315.834 330.277 316.384 329.727C316.934 329.176 317.248 328.432 317.258 327.654C317.248 326.875 316.934 326.131 316.384 325.581C315.834 325.03 315.09 324.717 314.311 324.707Z" fill="#FAFAFA"/>
</g>
<defs>
<clipPath id="clip0_5117_7294">
<rect width="397.808" height="373" fill="white" transform="translate(0.403809)"/>
</clipPath>
</defs>
</svg>
