<svg width="320" height="236" viewBox="0 0 320 236" fill="none" xmlns="http://www.w3.org/2000/svg">
<path d="M205.086 226.634C205.086 226.701 162.734 226.749 110.498 226.749C58.2626 226.749 15.9102 226.718 15.9102 226.634C15.9102 226.55 58.2538 226.52 110.498 226.52C162.743 226.52 205.086 226.573 205.086 226.634Z" fill="#263238"/>
<path d="M165.519 120.77H37.2461V124.876H165.519V120.77Z" fill="#E0E0E0"/>
<path d="M48.8824 226.845L44.7188 226.827V124.336H48.8824V226.845Z" fill="#E0E0E0"/>
<path d="M159.418 226.836H155.215L155.255 124.336H159.418V226.836Z" fill="#E0E0E0"/>
<path d="M86.9531 83.0059C86.9531 83.0059 109.849 106.993 109.447 112.319C109.044 117.645 103.917 118.795 102.246 118.587C100.576 118.379 87.983 104.363 87.983 104.363L86.9531 83.0059Z" fill="#377DFF"/>
<g opacity="0.4">
<path d="M86.9531 83.0059C86.9531 83.0059 109.849 106.993 109.447 112.319C109.044 117.645 103.917 118.795 102.246 118.587C100.576 118.379 87.983 104.363 87.983 104.363L86.9531 83.0059Z" fill="black"/>
</g>
<path d="M99.1523 201.514L105.362 222.283L112.337 218.495L108.372 199.48L99.1523 201.514Z" fill="#FFBE9D"/>
<path d="M111.484 209.355L113.619 219.203C113.619 219.203 124.333 220.335 124.903 222.112L105.99 226.925L102.012 211.742L111.484 209.355Z" fill="#377DFF"/>
<path d="M107.563 219.863C107.396 219.964 107.271 220.124 107.214 220.312C107.157 220.499 107.171 220.701 107.254 220.879C107.349 221.051 107.506 221.179 107.693 221.238C107.88 221.296 108.082 221.28 108.257 221.193C108.435 221.085 108.567 220.915 108.626 220.716C108.686 220.517 108.669 220.302 108.58 220.115C108.462 219.946 108.283 219.83 108.081 219.79C107.879 219.751 107.67 219.791 107.497 219.902" fill="#E0E0E0"/>
<g opacity="0.4">
<path d="M105.99 226.925L105.637 225.391L123.9 221.338C123.9 221.338 124.833 221.493 124.89 222.107L105.99 226.925Z" fill="black"/>
</g>
<path d="M113.901 219.013C113.924 219.105 113.459 219.265 113.093 219.68C112.726 220.096 112.571 220.542 112.478 220.524C112.385 220.507 112.385 219.941 112.849 219.45C113.314 218.96 113.901 218.924 113.901 219.013Z" fill="#263238"/>
<path d="M116.096 219.328C116.14 219.412 115.782 219.673 115.566 220.141C115.349 220.61 115.367 221.047 115.274 221.069C115.181 221.091 114.991 220.579 115.274 220C115.557 219.421 116.074 219.239 116.096 219.328Z" fill="#263238"/>
<path d="M117.829 221.413C117.749 221.453 117.506 221.024 117.612 220.458C117.718 219.893 118.103 219.574 118.16 219.65C118.218 219.725 118.019 220.056 117.939 220.534C117.86 221.011 117.922 221.382 117.829 221.413Z" fill="#263238"/>
<path d="M113.151 216.825C113.151 216.923 112.674 216.901 112.161 217.069C111.648 217.237 111.277 217.511 111.215 217.44C111.153 217.369 111.454 216.945 112.064 216.755C112.674 216.565 113.195 216.742 113.151 216.825Z" fill="#263238"/>
<path d="M112.708 214.849C112.419 215.014 112.09 215.097 111.758 215.088C111.4 215.114 111.041 215.096 110.688 215.035C110.479 215.003 110.274 214.952 110.074 214.885C109.952 214.855 109.835 214.806 109.729 214.739C109.651 214.688 109.593 214.614 109.562 214.527C109.532 214.439 109.531 214.344 109.561 214.257C109.59 214.181 109.637 214.113 109.698 214.058C109.759 214.004 109.831 213.964 109.91 213.943C110.031 213.911 110.156 213.896 110.281 213.899C110.495 213.898 110.708 213.916 110.918 213.952C111.275 214.013 111.619 214.131 111.939 214.301C112.483 214.597 112.721 214.902 112.695 214.929C112.668 214.955 112.372 214.734 111.842 214.513C111.531 214.386 111.206 214.299 110.874 214.252C110.679 214.228 110.482 214.219 110.286 214.226C110.074 214.226 109.901 214.266 109.875 214.367C109.848 214.469 109.875 214.42 109.923 214.469C110.001 214.518 110.086 214.556 110.175 214.58C110.362 214.642 110.553 214.694 110.745 214.734C111.077 214.804 111.414 214.844 111.753 214.854C112.071 214.832 112.39 214.83 112.708 214.849Z" fill="#263238"/>
<path d="M112.61 215.013C112.584 215.035 112.314 214.752 112.128 214.165C112.022 213.819 111.975 213.457 111.991 213.095C112.002 212.879 112.033 212.664 112.084 212.454C112.105 212.316 112.161 212.186 112.246 212.075C112.331 211.965 112.442 211.877 112.57 211.822C112.652 211.805 112.737 211.811 112.815 211.84C112.893 211.869 112.962 211.919 113.012 211.986C113.09 212.084 113.152 212.192 113.198 212.308C113.288 212.511 113.343 212.728 113.362 212.949C113.401 213.316 113.348 213.687 113.207 214.028C112.964 214.615 112.606 214.823 112.593 214.792C112.74 214.52 112.872 214.24 112.986 213.952C113.08 213.639 113.106 213.309 113.061 212.984C113.033 212.797 112.98 212.614 112.902 212.441C112.822 212.246 112.703 212.105 112.637 212.145C112.57 212.184 112.42 212.361 112.385 212.538C112.331 212.726 112.296 212.918 112.279 213.113C112.251 213.444 112.27 213.777 112.336 214.103C112.469 214.668 112.659 214.987 112.61 215.013Z" fill="#263238"/>
<path d="M82.3008 142.294C82.5306 143.214 98.7432 209.368 98.7432 209.368L113.466 204.921L99.5653 137.914L82.3008 142.294Z" fill="#263238"/>
<path d="M80.1294 57.762L77.5569 77.5282C77.4538 78.3247 77.5135 79.1337 77.7323 79.9064C77.9511 80.6791 78.3246 81.3993 78.83 82.0233C79.3355 82.6474 79.9624 83.1623 80.6727 83.5369C81.3831 83.9114 82.1621 84.1379 82.9626 84.2024C84.4811 84.3239 85.9882 83.8565 87.1715 82.897C88.3548 81.9376 89.1236 80.5596 89.3186 79.0487C89.5086 77.5592 89.6721 76.3216 89.7031 76.1669C89.7031 76.1669 94.7993 76.3525 95.8071 71.4198C96.2977 69.033 96.9033 64.0428 97.4027 59.5212C97.6593 57.1779 97.024 54.8239 95.6234 52.9278C94.2229 51.0317 92.1597 49.7325 89.8445 49.2889L89.3672 49.196C84.1648 48.5065 80.6774 52.542 80.1294 57.762Z" fill="#FFBE9D"/>
<path d="M89.7241 76.1018C87.4304 75.6979 85.3088 74.6209 83.6289 73.0078C83.6289 73.0078 84.4687 76.8576 89.4898 77.3615L89.7241 76.1018Z" fill="#EB996E"/>
<path d="M95.9898 62.3162C95.9553 62.5 95.8507 62.6631 95.6981 62.7712C95.5455 62.8792 95.3569 62.9237 95.1721 62.8952C94.9918 62.869 94.8293 62.7724 94.7199 62.6266C94.6106 62.4809 94.5634 62.2978 94.5887 62.1173C94.6222 61.933 94.7265 61.7692 94.8794 61.661C95.0323 61.5527 95.2214 61.5087 95.4064 61.5383C95.5867 61.5646 95.7493 61.6611 95.8586 61.8069C95.9679 61.9527 96.0151 62.1358 95.9898 62.3162Z" fill="#263238"/>
<path d="M96.0284 61.4617C95.9267 61.5368 95.467 61.0196 94.7024 60.8959C93.9377 60.7721 93.3101 61.0241 93.2482 60.8959C93.1863 60.7677 93.3366 60.697 93.6106 60.5688C93.9847 60.406 94.3995 60.3612 94.7996 60.4406C95.195 60.513 95.5563 60.7115 95.8295 61.0064C96.0328 61.2495 96.0814 61.4307 96.0284 61.4617Z" fill="#263238"/>
<path d="M88.3441 61.2272C88.3095 61.4121 88.2045 61.5764 88.0511 61.6852C87.8976 61.7941 87.7079 61.8391 87.522 61.8106C87.4307 61.8003 87.3425 61.7718 87.2624 61.7269C87.1823 61.682 87.112 61.6215 87.0556 61.5491C86.9992 61.4766 86.9578 61.3936 86.9339 61.3049C86.91 61.2163 86.9041 61.1237 86.9164 61.0327C86.951 60.849 87.0556 60.6858 87.2081 60.5778C87.3607 60.4698 87.5493 60.4253 87.7341 60.4537C87.8253 60.4635 87.9137 60.4915 87.9939 60.5359C88.0742 60.5803 88.1448 60.6403 88.2016 60.7123C88.2584 60.7843 88.3003 60.867 88.3248 60.9554C88.3492 61.0438 88.3558 61.1362 88.3441 61.2272Z" fill="#263238"/>
<path d="M88.4288 60.2684C88.3227 60.3436 87.863 59.8264 87.1028 59.7027C86.3425 59.5789 85.7105 59.8308 85.6442 59.7027C85.5779 59.5745 85.7326 59.5082 86.011 59.3756C86.3834 59.2125 86.7969 59.1678 87.1956 59.2474C87.5915 59.3219 87.9536 59.52 88.2299 59.8132C88.4332 60.0563 88.4818 60.2375 88.4288 60.2684Z" fill="#263238"/>
<path d="M90.0508 66.6166C90.4749 66.563 90.9041 66.563 91.3282 66.6166C91.5226 66.6166 91.7171 66.6166 91.7702 66.5017C91.8293 66.3072 91.8293 66.0995 91.7702 65.905L91.4784 64.3138C91.0851 62.0596 90.842 60.2165 90.9304 60.2032C91.0188 60.1899 91.4166 62.0066 91.8144 64.2608C91.9028 64.8177 91.9912 65.3481 92.0751 65.8564C92.1526 66.1128 92.1369 66.3883 92.0309 66.6343C91.9893 66.6977 91.9339 66.7509 91.8689 66.79C91.8038 66.829 91.7308 66.8529 91.6552 66.8597C91.5436 66.8716 91.431 66.8716 91.3193 66.8597C90.8884 66.8284 90.4627 66.7468 90.0508 66.6166Z" fill="#263238"/>
<path d="M88.952 58.7223C88.8371 58.9168 88.099 58.6737 87.184 58.6074C86.2691 58.5411 85.5044 58.6471 85.416 58.4394C85.3763 58.3422 85.5398 58.1698 85.858 58.0283C86.2918 57.8514 86.7618 57.7816 87.2282 57.825C87.697 57.8559 88.1517 57.9983 88.5542 58.2405C88.8681 58.4394 89.0051 58.6295 88.952 58.7223Z" fill="#263238"/>
<path d="M96.3818 58.6995C96.2139 58.8454 95.7232 58.5625 95.0956 58.4343C94.468 58.3061 93.911 58.3282 93.8226 58.1249C93.7873 58.0277 93.9022 57.8685 94.1674 57.7492C94.5161 57.6121 94.8976 57.581 95.2639 57.6596C95.6303 57.7382 95.9653 57.9231 96.2271 58.1912C96.4172 58.4343 96.457 58.6244 96.3818 58.6995Z" fill="#263238"/>
<path d="M79.8325 61.5024C79.7529 61.4494 76.628 59.8449 76.0843 63.2439C75.5406 66.6429 79.0678 66.4882 79.0899 66.3909C79.112 66.2937 79.8325 61.5024 79.8325 61.5024Z" fill="#FFBE9D"/>
<path d="M78.2554 64.9443C78.2554 64.9443 78.1935 64.9753 78.083 65.0062C78.009 65.0259 77.9317 65.0306 77.8558 65.02C77.7799 65.0093 77.7069 64.9836 77.641 64.9443C77.3007 64.7587 77.0885 64.1399 77.1725 63.5211C77.2098 63.228 77.3125 62.947 77.4731 62.699C77.5214 62.598 77.5938 62.5105 77.684 62.4441C77.7742 62.3778 77.8794 62.3348 77.9902 62.3189C78.0608 62.3118 78.1316 62.3296 78.1905 62.3691C78.2494 62.4086 78.2927 62.4675 78.3129 62.5354C78.3438 62.6371 78.3129 62.7034 78.3129 62.7122C78.3129 62.7211 78.3924 62.6636 78.388 62.5222C78.3818 62.4335 78.346 62.3495 78.2864 62.2835C78.2021 62.2009 78.0904 62.1522 77.9725 62.1465C77.8273 62.1538 77.6865 62.1983 77.5634 62.2757C77.4403 62.3531 77.3392 62.4608 77.2698 62.5885C77.0788 62.86 76.9574 63.1741 76.9162 63.5034C76.8278 64.1929 77.0753 64.8913 77.5438 65.1123C77.6311 65.1527 77.7261 65.1736 77.8223 65.1736C77.9184 65.1736 78.0134 65.1527 78.1007 65.1123C78.2333 65.0195 78.2687 64.9443 78.2554 64.9443Z" fill="#EB996E"/>
<path d="M77.9736 61.0246C78.2994 61.0653 78.6079 61.1937 78.8664 61.3961C79.1249 61.5985 79.3235 61.8673 79.4411 62.1738C79.5692 62.6954 79.5118 63.2523 79.6355 63.7783C79.7593 64.3043 80.1748 64.8347 80.714 64.8126C80.8995 64.7906 81.076 64.7202 81.2257 64.6085C81.3755 64.4968 81.4932 64.3477 81.5671 64.1761C81.7093 63.831 81.7843 63.462 81.7881 63.0888C81.8897 61.471 81.8588 59.8401 82.1019 58.2268C82.2791 56.5998 82.9343 55.0617 83.9848 53.8068C85.081 52.6134 86.8048 51.915 88.365 52.3482C89.3993 52.631 90.2568 53.3648 91.2734 53.7139C91.8789 53.9154 92.5224 53.9762 93.1549 53.892C93.7875 53.8078 94.3926 53.5806 94.9243 53.2277C94.983 53.1897 95.0452 53.1571 95.1099 53.1305C95.2949 53.0458 95.4467 52.9024 95.5418 52.7226C95.6369 52.5427 95.67 52.3366 95.6359 52.136C95.6188 52.0062 95.5719 51.8822 95.4989 51.7736C93.7972 49.4752 90.1684 48.2376 87.3042 48.4011C84.4401 48.5646 81.5008 50.0011 79.83 52.3393C78.1593 54.6775 77.8233 58.3063 77.9736 61.0246Z" fill="#263238"/>
<path d="M91.5813 68.9229C90.8432 68.8151 90.1357 68.5547 89.5039 68.1582C89.8786 68.1734 90.2459 68.2668 90.5824 68.4322C90.9456 68.5253 91.2857 68.6923 91.5813 68.9229Z" fill="#263238"/>
<path d="M95.2762 72.733C95.2109 73.0684 95.067 73.3834 94.8563 73.6524C94.3765 74.3228 93.7429 74.8685 93.0088 75.2436C92.2818 75.6124 91.5066 75.8772 90.7059 76.0304C90.3809 76.121 90.0444 76.1641 89.707 76.1585C90.0182 76.0362 90.339 75.9401 90.6662 75.8713C91.4389 75.6741 92.1886 75.3955 92.9027 75.0403C93.607 74.6782 94.2273 74.1722 94.7237 73.5552C95.0994 73.0734 95.2409 72.7154 95.2762 72.733Z" fill="#EB996E"/>
<path d="M92.8817 75.2578C91.6838 75.8545 90.8043 77.4678 90.044 78.5375C89.7857 78.8436 89.6012 79.205 89.5048 79.5938C89.4691 80.0167 89.5437 80.4416 89.7214 80.827C89.9379 81.4149 90.1634 81.9939 90.4286 82.5685C90.4993 82.7364 90.5921 82.9177 90.7689 82.9575C90.9457 82.9972 91.1755 82.7895 91.2684 82.5817C91.4375 82.0433 91.5312 81.484 91.5468 80.9198C91.5616 80.6383 91.6451 80.3646 91.7899 80.1227C91.9347 79.8808 92.1366 79.678 92.3778 79.532" fill="#EB996E"/>
<path d="M94.774 79.6684L93.6115 78.7844C93.5413 78.7262 93.4511 78.6979 93.3603 78.7053C93.2695 78.7127 93.1851 78.7554 93.1253 78.8242L92.5065 79.5402L92.8336 81.348C93.2137 83.6685 91.5076 83.306 91.5076 83.306L91.3706 82.864L90.6147 80.0352C90.4645 78.6827 90.5705 78.5236 91.2291 77.5468L92.67 75.4871C92.8148 75.2705 93.0284 75.1091 93.2762 75.0289C93.524 74.9487 93.7916 74.9544 94.0358 75.0451C96.1044 75.8097 100.564 77.1888 101.068 78.9435C101.983 82.1347 102.721 90.2808 102.734 90.4355L96.4182 91.0234L96.4491 85.5912C95.8936 85.245 95.475 84.7171 95.2646 84.0972C94.9994 83.1381 94.774 79.6772 94.774 79.6772" fill="#FFBE9D"/>
<path d="M99.1367 80.7324C99.1367 80.7324 99.0704 80.8429 98.898 80.9888C98.6521 81.2032 98.3579 81.3549 98.0405 81.4308C97.815 81.4815 97.581 81.4815 97.3554 81.4308C97.0881 81.3633 96.8514 81.2076 96.6836 80.9888C96.3123 80.5468 96.2416 79.9192 95.9322 79.4639C95.7422 79.2556 95.5234 79.0755 95.2825 78.9291C95.0554 78.7829 94.8192 78.6515 94.5753 78.5357C94.3802 78.4187 94.1574 78.3561 93.9299 78.3545C93.7381 78.4159 93.5628 78.5202 93.4172 78.6594C92.847 79.1854 92.5332 79.5832 92.5023 79.5434C92.4713 79.5037 92.5597 79.4329 92.6923 79.2517C92.879 78.9967 93.0843 78.7558 93.3067 78.5313C93.4686 78.3635 93.6688 78.2375 93.8902 78.1644C93.9602 78.1509 94.0322 78.1509 94.1023 78.1644C94.1682 78.1759 94.2332 78.1922 94.2968 78.213C94.4229 78.2497 94.5456 78.297 94.6637 78.3545C94.9199 78.4655 95.1667 78.5971 95.4018 78.7478C95.6701 78.9046 95.9118 79.103 96.1178 79.3357C96.4891 79.8749 96.5333 80.4893 96.8471 80.865C96.9875 81.0294 97.1695 81.153 97.374 81.223C97.5784 81.2929 97.798 81.3067 98.0096 81.2628C98.3088 81.2067 98.5932 81.0893 98.845 80.9181C99.0085 80.7943 99.1234 80.7192 99.1367 80.7324Z" fill="#EB996E"/>
<path d="M98.4354 82.6508C97.2279 82.5797 96.0516 82.2399 94.9922 81.6562C95.5819 81.7634 96.1615 81.9201 96.7248 82.1248C97.3085 82.2528 97.8806 82.4287 98.4354 82.6508Z" fill="#EB996E"/>
<path d="M96.1952 79.6947C94.5421 79.6947 94.3477 79.6196 92.478 79.7212C92.1988 79.7229 91.9215 79.7676 91.6559 79.8538C91.5228 79.8979 91.402 79.973 91.3037 80.0729C91.2053 80.1728 91.1321 80.2946 91.0901 80.4284C90.9619 80.9411 91.4791 81.4052 91.9741 81.5246C92.4692 81.6439 93.0349 81.5511 93.5476 81.6704C94.3618 81.8146 95.0972 82.2459 95.6206 82.8859C96.6991 84.4108 97.8306 83.6771 98.5643 84.2119L100.491 82.992L99.8108 80.1455L96.1775 79.7035" fill="#FFBE9D"/>
<path d="M98.7505 84.2245C98.5831 84.1471 98.4063 84.0921 98.2245 84.0609C97.7035 84.0544 97.187 83.9634 96.6952 83.7913C96.3671 83.6255 96.0801 83.3884 95.8554 83.0974C95.6299 82.7706 95.3395 82.4937 95.0024 82.2841C94.6254 82.062 94.2171 81.8981 93.7913 81.7979C93.3187 81.7247 92.8417 81.6833 92.3636 81.6741C92.0988 81.6585 91.844 81.5667 91.63 81.4099C91.416 81.2531 91.2517 81.0379 91.157 80.7901C91.1213 80.6609 91.1196 80.5245 91.1521 80.3944C91.1847 80.2643 91.2503 80.1448 91.3426 80.0476C91.5073 79.8699 91.7212 79.7452 91.957 79.6895C92.3662 79.6232 92.78 79.5892 93.1946 79.5879C93.5747 79.5879 93.9327 79.5879 94.2598 79.5879C94.914 79.5879 95.4355 79.6321 95.798 79.6498C95.9875 79.6462 96.177 79.661 96.3637 79.694C96.1778 79.7325 95.9877 79.7474 95.798 79.7382C95.4355 79.7382 94.914 79.7382 94.2598 79.7382C93.9371 79.7382 93.5835 79.7382 93.2034 79.7779C92.8032 79.784 92.4041 79.8224 92.01 79.8929C91.6343 79.9724 91.2498 80.3349 91.3735 80.7238C91.4594 80.9262 91.601 81.1 91.7817 81.2252C91.9624 81.3504 92.1749 81.4218 92.3946 81.431C92.8804 81.4405 93.3649 81.4848 93.8443 81.5636C94.2938 81.6727 94.7233 81.8517 95.1173 82.094C95.4713 82.3226 95.7727 82.624 96.0013 82.978C96.2041 83.2539 96.4652 83.4818 96.7659 83.6454C97.2391 83.8218 97.7344 83.9319 98.2378 83.9725C98.3804 83.9983 98.5169 84.0508 98.64 84.1272C98.7196 84.1847 98.7549 84.2156 98.7505 84.2245Z" fill="#EB996E"/>
<path d="M96.0119 78.4038C96.0119 78.3773 96.1312 78.3552 96.3036 78.4303C96.4152 78.4843 96.5118 78.5648 96.5849 78.6649C96.658 78.765 96.7053 78.8815 96.7228 79.0042C96.7403 79.1269 96.7273 79.252 96.685 79.3686C96.6428 79.4851 96.5725 79.5894 96.4804 79.6723C96.3389 79.7961 96.2196 79.8049 96.2063 79.7784C96.1931 79.7519 96.2771 79.69 96.361 79.5662C96.4681 79.4112 96.5166 79.2233 96.4981 79.0359C96.4611 78.86 96.3623 78.7031 96.2196 78.5939C96.1047 78.4745 96.0074 78.4391 96.0119 78.4038Z" fill="#EB996E"/>
<path d="M99.7105 152.496L91.6484 172.62L99.4718 173.995L108.197 156.638L99.7105 152.496Z" fill="#FFBE9D"/>
<path d="M104.483 166.305L100.063 175.335C100.063 175.335 107.745 182.88 107.086 184.617L89.2734 176.631L95.6161 162.283L104.483 166.305Z" fill="#377DFF"/>
<path d="M94.8847 172.094C94.6889 172.066 94.4895 172.112 94.3258 172.223C94.1622 172.334 94.0462 172.503 94.0007 172.695C93.9652 172.89 94.0066 173.091 94.1162 173.256C94.2259 173.421 94.3952 173.537 94.5886 173.579C94.7951 173.605 95.004 173.554 95.1747 173.435C95.3454 173.315 95.4658 173.137 95.5123 172.934C95.5259 172.728 95.4586 172.525 95.3249 172.369C95.1912 172.212 95.0015 172.113 94.7963 172.094" fill="#E0E0E0"/>
<g opacity="0.4">
<path d="M89.2578 176.643L89.8987 175.197L106.774 183.401C106.774 183.401 107.411 184.099 107.07 184.621L89.2578 176.643Z" fill="black"/>
</g>
<path d="M100.371 175.37C100.331 175.458 99.8759 175.304 99.3234 175.392C98.7709 175.48 98.3775 175.741 98.3156 175.67C98.2537 175.6 98.6029 175.158 99.2748 175.06C99.9466 174.963 100.424 175.299 100.371 175.37Z" fill="#263238"/>
<path d="M101.893 176.982C101.893 177.075 101.451 177.053 100.973 177.287C100.496 177.522 100.253 177.875 100.169 177.831C100.085 177.787 100.249 177.274 100.828 176.991C101.407 176.708 101.928 176.899 101.893 176.982Z" fill="#263238"/>
<path d="M101.957 179.692C101.868 179.692 101.957 179.188 102.399 178.808C102.841 178.428 103.331 178.424 103.336 178.512C103.34 178.6 102.973 178.742 102.62 179.056C102.266 179.369 102.045 179.723 101.957 179.692Z" fill="#263238"/>
<path d="M101.154 173.204C101.083 173.266 100.738 172.965 100.23 172.762C99.7215 172.558 99.2707 172.558 99.2618 172.461C99.253 172.364 99.7569 172.223 100.349 172.461C100.941 172.7 101.215 173.151 101.154 173.204Z" fill="#263238"/>
<path d="M102.023 171.366C101.697 171.311 101.392 171.17 101.139 170.959C100.842 170.759 100.572 170.523 100.334 170.256C100.192 170.098 100.062 169.93 99.9453 169.752C99.8678 169.653 99.808 169.541 99.7685 169.421C99.7384 169.334 99.7386 169.239 99.7691 169.153C99.7996 169.066 99.8586 168.992 99.9364 168.943C100.007 168.902 100.086 168.878 100.167 168.872C100.248 168.867 100.33 168.881 100.405 168.912C100.518 168.964 100.624 169.031 100.719 169.111C100.889 169.245 101.047 169.393 101.192 169.553C101.431 169.825 101.627 170.132 101.771 170.464C101.937 170.755 102.006 171.09 101.97 171.423C101.917 171.423 101.837 171.069 101.559 170.566C101.398 170.272 101.199 170.001 100.966 169.761C100.828 169.621 100.68 169.491 100.524 169.372C100.356 169.24 100.197 169.164 100.113 169.231C100.029 169.297 100.073 169.266 100.087 169.337C100.117 169.424 100.16 169.506 100.215 169.58C100.323 169.746 100.44 169.907 100.564 170.062C100.781 170.321 101.021 170.561 101.28 170.778C101.718 171.145 102.045 171.317 102.023 171.366Z" fill="#263238"/>
<path d="M101.849 171.437C101.794 171.108 101.847 170.77 101.999 170.473C102.132 170.135 102.322 169.823 102.561 169.549C102.702 169.387 102.859 169.239 103.029 169.107C103.131 169.012 103.255 168.943 103.391 168.909C103.526 168.875 103.668 168.877 103.803 168.913C103.88 168.952 103.945 169.011 103.991 169.084C104.037 169.157 104.062 169.242 104.064 169.328C104.062 169.454 104.043 169.579 104.006 169.7C103.949 169.912 103.859 170.115 103.741 170.301C103.539 170.611 103.266 170.868 102.945 171.052C102.808 171.15 102.652 171.218 102.487 171.255C102.322 171.291 102.152 171.295 101.986 171.264C102.272 171.143 102.551 171.005 102.822 170.853C103.089 170.664 103.314 170.42 103.48 170.137C103.574 169.974 103.645 169.798 103.692 169.616C103.75 169.417 103.745 169.231 103.666 169.218C103.586 169.211 103.505 169.221 103.429 169.247C103.353 169.272 103.283 169.314 103.224 169.368C103.066 169.483 102.918 169.612 102.782 169.753C102.555 169.996 102.363 170.27 102.212 170.566C101.955 171.079 101.902 171.468 101.849 171.437Z" fill="#263238"/>
<path d="M84.2787 128.364L109.101 116.218C111.229 115.175 113.636 114.848 115.964 115.283C118.293 115.719 120.419 116.895 122.026 118.635C123.526 120.262 124.501 122.304 124.824 124.493C125.146 126.683 124.801 128.919 123.833 130.91L107.364 164.776L93.5872 160.418L105.702 134.605L92.0712 144.992C88.3903 147.794 83.9012 149.329 79.2753 149.368L75.7039 149.399C72.7634 149.276 69.904 148.399 67.4011 146.85C64.8983 145.302 62.8364 143.135 61.4141 140.559L84.2787 128.364Z" fill="#263238"/>
<path d="M107.364 164.766C107.364 164.766 107.276 164.766 107.108 164.7L106.378 164.483L103.598 163.635L93.556 160.51L93.4587 160.479L93.5029 160.382C95.9339 155.184 98.9661 148.708 102.241 141.703C103.404 139.236 104.531 136.841 105.6 134.56L105.768 134.697C99.5186 139.356 93.9228 143.223 89.7946 145.769C88.1914 146.788 86.523 147.701 84.8 148.501C84.3339 148.711 83.8484 148.876 83.3502 148.991C83.221 149.021 83.0893 149.039 82.9568 149.044H82.8242C82.8242 149.044 83.0054 149.044 83.3414 148.947C83.8315 148.815 84.3092 148.64 84.769 148.425C86.4745 147.599 88.1278 146.669 89.7194 145.641C93.8212 143.064 99.3948 139.174 105.631 134.516L105.994 134.246L105.804 134.653C104.734 136.929 103.594 139.329 102.453 141.795C99.1605 148.797 96.1152 155.263 93.6709 160.457L93.6134 160.329L103.629 163.529L106.396 164.413L107.117 164.656L107.364 164.766Z" fill="#455A64"/>
<path d="M110.372 129C109.316 129.693 108.355 130.52 107.513 131.462C106.731 132.455 106.084 133.548 105.59 134.711C105.643 134.338 105.754 133.976 105.917 133.637C106.632 131.949 107.833 130.513 109.369 129.513C109.675 129.29 110.013 129.117 110.372 129Z" fill="#455A64"/>
<path d="M57.747 176.922H93.4517C93.6899 176.921 93.9192 177.012 94.0908 177.177C94.2625 177.342 94.363 177.568 94.3711 177.806C94.374 177.929 94.3525 178.051 94.3076 178.165C94.2628 178.28 94.1956 178.384 94.11 178.472C94.0244 178.56 93.9221 178.63 93.8091 178.678C93.696 178.726 93.5745 178.751 93.4517 178.752H57.747C57.5039 178.751 57.2712 178.653 57.0997 178.481C56.9283 178.309 56.832 178.075 56.832 177.832C56.8332 177.591 56.9301 177.359 57.1016 177.188C57.273 177.018 57.5051 176.922 57.747 176.922Z" fill="#E0E0E0"/>
<path d="M88.7581 154.189H60.8281C60.8281 153.479 60.9681 152.775 61.2399 152.119C61.5118 151.463 61.9103 150.866 62.4127 150.364C62.9151 149.861 63.5115 149.463 64.1679 149.191C64.8242 148.919 65.5277 148.779 66.2382 148.779H83.3436C84.0544 148.779 84.7584 148.918 85.4153 149.19C86.0722 149.461 86.6691 149.86 87.172 150.362C87.6748 150.865 88.0737 151.461 88.3459 152.118C88.618 152.775 88.7581 153.479 88.7581 154.189Z" fill="#455A64"/>
<path d="M89.6317 154.189H60.168V155.829H89.6317V154.189Z" fill="#E0E0E0"/>
<path d="M62.7905 155.834L55.5859 226.846H57.2832L66.0746 155.834H62.7905Z" fill="#E0E0E0"/>
<path d="M86.7914 155.834L93.9915 226.81L92.2987 226.819L83.5117 155.861L86.7914 155.834Z" fill="#E0E0E0"/>
<path d="M76.7558 155.206L75.5403 226.841H73.8032L73.043 155.012L76.7558 155.206Z" fill="#E0E0E0"/>
<path d="M76.1914 77.3519L77.9417 72.0391L89.4912 77.3828L88.9608 83.0051L83.2059 84.6405L77.5572 81.1796L76.1914 77.3519Z" fill="#377DFF"/>
<path d="M61.4352 140.572C60.9222 140.209 60.5064 139.725 60.2243 139.163C59.9422 138.601 59.8025 137.979 59.8175 137.35C59.8175 135.22 61.7181 135.043 61.78 133.863C62.412 121.686 63.7911 96.4606 64.7016 88.5002C65.8464 78.4668 77.6036 76.3496 77.6036 76.3496L87.3055 78.732V79.4657C90.6647 83.7841 92.1189 90.2947 92.1233 95.7667L91.6813 124.753L61.4352 140.572Z" fill="#377DFF"/>
<path d="M72.3224 124.336C72.2172 124.512 72.0959 124.678 71.96 124.831C71.7213 125.14 71.3544 125.578 70.8947 126.108C69.9754 127.174 68.6538 128.601 67.098 130.086C65.5421 131.571 64.057 132.827 62.952 133.693C62.3951 134.135 61.9442 134.471 61.626 134.701C61.4676 134.831 61.2957 134.943 61.1133 135.037C61.2466 134.887 61.3947 134.751 61.5553 134.63L62.8327 133.569C63.9111 132.685 65.3786 131.399 66.9256 129.918C68.4726 128.438 69.8118 127.037 70.7621 126.002L71.8804 124.769C72.0121 124.61 72.1603 124.464 72.3224 124.336Z" fill="#263238"/>
<g opacity="0.2">
<path d="M62.7617 133.823C62.7971 131.988 64.1717 130.477 65.5331 129.244C67.1239 127.798 68.8167 126.468 70.5984 125.266C70.6868 126.15 70.0768 126.958 69.4845 127.639C67.4936 129.913 65.2914 131.992 62.9076 133.849" fill="black"/>
</g>
<path d="M79.75 76.4734C79.7928 75.9444 79.9135 75.4246 80.108 74.9308C80.2273 74.415 80.4209 73.9192 80.6826 73.459C80.6398 73.988 80.5191 74.5078 80.3246 75.0016C80.203 75.5167 80.0095 76.0122 79.75 76.4734Z" fill="#263238"/>
<path d="M84.2544 74.9648C84.2539 75.485 84.1749 76.002 84.0201 76.4986C83.9454 77.011 83.7965 77.5098 83.5781 77.9793C83.5789 77.4592 83.6579 76.9422 83.8124 76.4455C83.8871 75.9332 84.036 75.4344 84.2544 74.9648Z" fill="#263238"/>
<path d="M87.6087 76.6406C87.6229 77.1078 87.5829 77.575 87.4893 78.0329C87.4744 78.5018 87.4062 78.9674 87.286 79.4208C87.1859 78.9546 87.1859 78.4726 87.286 78.0064C87.2982 77.5338 87.408 77.0687 87.6087 76.6406Z" fill="#263238"/>
<path d="M75.9493 105.009C75.7894 105.041 75.626 105.053 75.4631 105.044C75.1448 105.044 74.6896 105.044 74.1371 105.044C73.01 105.044 71.4541 105.044 69.7171 104.995C67.98 104.947 66.4374 104.92 65.2971 104.876C64.7313 104.876 64.2761 104.836 63.9711 104.814C63.8059 104.818 63.641 104.8 63.4805 104.761C63.6423 104.732 63.8068 104.721 63.9711 104.726C64.2893 104.726 64.7446 104.726 65.2971 104.726C66.4242 104.726 67.98 104.726 69.7171 104.774C71.4541 104.823 72.9967 104.845 74.1371 104.889L75.4631 104.951C75.627 104.948 75.7906 104.968 75.9493 105.009Z" fill="#FAFAFA"/>
<path d="M73.4857 101.3C73.4857 101.366 71.2757 101.366 68.5353 101.3C65.7949 101.234 63.5938 101.145 63.5938 101.079C63.5938 101.013 65.8038 101.013 68.5397 101.079C71.2757 101.145 73.4857 101.238 73.4857 101.3Z" fill="#FAFAFA"/>
<g opacity="0.2">
<path d="M69.2812 95.584C72.8172 103.284 77.14 110.197 82.1655 117.012C83.4606 118.78 84.8485 120.548 86.7181 121.649C88.5878 122.749 89.8121 122.458 91.6995 121.33C89.6088 120.663 89.0475 120.446 87.2795 119.169C85.5556 117.823 84.0511 116.217 82.8197 114.409C78.3997 108.327 74.0858 102.064 69.657 95.9818" fill="black"/>
</g>
<path d="M106.043 106.533C106.091 106.022 106.23 105.523 106.454 105.061C106.567 104.83 106.74 104.633 106.954 104.49C107.169 104.347 107.417 104.264 107.674 104.248C107.801 104.247 107.926 104.273 108.042 104.325C108.158 104.376 108.261 104.452 108.345 104.548C108.429 104.643 108.492 104.755 108.528 104.876C108.565 104.998 108.575 105.126 108.558 105.251C108.448 105.533 108.281 105.789 108.067 106.003C107.506 106.772 107.559 107.811 107.563 108.761C107.568 109.711 107.449 110.799 106.679 111.369" fill="#FFBE9D"/>
<path d="M70.9761 84.3441C70.0901 84.9632 69.3382 85.7549 68.7656 86.6717C68.193 87.5884 67.8115 88.6114 67.6439 89.6792C67.4764 90.7471 67.5262 91.8377 67.7904 92.8858C68.0546 93.9339 68.5278 94.9179 69.1816 95.7786L85.3323 117.048C87.0341 119.261 89.4489 120.819 92.1676 121.456C94.8862 122.093 97.7415 121.771 100.25 120.544C102.383 119.498 104.161 117.848 105.364 115.799C106.566 113.75 107.14 111.393 107.012 109.021L103.454 86.6558L94.7645 87.195L95.5867 105.41L82.141 86.3022C80.9174 84.5654 79.0555 83.3842 76.963 83.0172C74.8704 82.6503 72.7177 83.1274 70.9761 84.3441Z" fill="#377DFF"/>
<path d="M105.789 115.363C103.649 114.864 103.287 114.479 101.152 113.997C100.516 113.847 99.6978 113.436 99.9807 112.76C100.059 112.588 100.189 112.445 100.352 112.35C100.515 112.255 100.703 112.213 100.891 112.229C101.722 112.3 103.061 112.795 103.866 112.87C104.065 112.87 104.06 112.689 103.972 112.552C102.671 112.16 101.341 111.873 99.994 111.695C99.8043 111.669 99.6261 111.589 99.4815 111.464C99.3368 111.338 99.232 111.173 99.1798 110.989C99.1277 110.805 99.1305 110.61 99.188 110.427C99.2455 110.245 99.3551 110.083 99.5033 109.962C99.681 109.871 99.8746 109.815 100.074 109.798C100.931 109.922 100.931 109.922 101.842 110.081C104.401 110.523 104.052 110.019 104.052 110.019C104.052 109.825 101.139 109.542 99.6315 109.361C99.3051 109.364 98.9895 109.244 98.7475 109.025C98.6396 108.863 98.5908 108.668 98.6093 108.474C98.6278 108.28 98.7125 108.099 98.8492 107.96C98.9781 107.81 99.1355 107.687 99.3122 107.598C99.489 107.509 99.6817 107.456 99.879 107.443C101.545 107.412 107.017 108.022 107.017 108.022C107.017 108.022 107.733 108.994 107.512 110.987C107.287 113.171 105.789 115.363 105.789 115.363Z" fill="#FFBE9D"/>
<path d="M98.0459 121.331C98.0459 121.331 97.9664 121.331 97.8161 121.366L97.1354 121.437C96.5343 121.49 95.6503 121.574 94.4834 121.587C93.0883 121.623 91.6968 121.431 90.364 121.017C88.622 120.365 87.0621 119.304 85.8158 117.923C84.3001 116.288 82.8762 114.571 81.5505 112.778C80.0963 110.864 78.5758 108.8 76.9935 106.612C75.4111 104.424 73.7757 102.113 72.0917 99.7039L69.5413 96.022C69.3248 95.7082 69.0993 95.3944 68.896 95.0762L68.5866 94.5855C68.4826 94.421 68.3896 94.2497 68.3082 94.0728C67.9556 93.3695 67.7112 92.617 67.5833 91.8407C67.4472 91.0654 67.4323 90.2736 67.5391 89.4937C67.5884 89.1078 67.6622 88.7254 67.7601 88.3489C67.8687 87.9787 68.0001 87.6156 68.1535 87.2616C68.3072 86.9112 68.4844 86.5716 68.6839 86.245C68.8877 85.9232 69.1136 85.616 69.3601 85.3256C69.8412 84.748 70.4023 84.2419 71.0265 83.8228C71.6413 83.4126 72.3069 83.0842 73.0066 82.846C73.6967 82.6244 74.4131 82.4951 75.1371 82.4615C76.5449 82.3974 77.9451 82.7022 79.199 83.3455C80.385 83.9645 81.4028 84.8625 82.1649 85.9621C82.8956 87.0111 83.6014 88.0307 84.282 89.0208L88.0832 94.5104L93.5729 102.466L95.058 104.637C95.2215 104.88 95.3453 105.079 95.4381 105.202L95.5619 105.401C95.51 105.342 95.4613 105.28 95.416 105.216L95.0182 104.663L93.5243 102.515L87.9551 94.6076L84.1318 89.1313L82.0013 86.0815C81.2557 85.0129 80.2623 84.1409 79.1062 83.54C77.2357 82.6012 75.0693 82.4422 73.0818 83.098C72.4022 83.3316 71.7559 83.6526 71.1591 84.0527C70.5499 84.4569 70.0033 84.9483 69.5369 85.5113C69.2991 85.7908 69.0806 86.0862 68.8828 86.3953C68.6884 86.7126 68.517 87.0435 68.37 87.3854C68.2177 87.7282 68.0892 88.0812 67.9855 88.4417C67.8887 88.8078 67.8164 89.1799 67.7689 89.5556C67.5823 91.0707 67.8435 92.6073 68.5203 93.9756C68.8783 94.6441 69.283 95.2866 69.7314 95.8983L72.2817 99.5846C73.9613 101.993 75.5967 104.305 77.1703 106.493C78.7438 108.681 80.2643 110.754 81.7052 112.681C83.0226 114.473 84.4361 116.192 85.9395 117.83C87.1624 119.202 88.6942 120.262 90.4082 120.924C91.7269 121.343 93.1045 121.546 94.4878 121.525C95.6282 121.525 96.5122 121.455 97.1133 121.415L97.794 121.371C97.9664 121.331 98.0459 121.331 98.0459 121.331Z" fill="#263238"/>
<path d="M96.5084 112.084C97.064 109.697 96.6642 107.188 95.3945 105.092C95.6511 105.349 95.8619 105.648 96.0178 105.976C96.4407 106.744 96.7264 107.58 96.862 108.447C97 109.311 96.9881 110.194 96.8266 111.054C96.7795 111.413 96.6719 111.761 96.5084 112.084Z" fill="#263238"/>
<path d="M96.7244 89.5686C96.518 89.205 96.4113 88.7934 96.415 88.3752C96.3428 87.9634 96.3793 87.5398 96.5211 87.1465C96.6072 87.5443 96.6487 87.9505 96.6449 88.3576C96.717 88.757 96.7437 89.1632 96.7244 89.5686Z" fill="#263238"/>
<path d="M99.1229 89.3482C98.7512 88.6157 98.642 87.7779 98.8135 86.9746C98.9181 87.3613 98.9774 87.7588 98.9903 88.1592C99.079 88.5493 99.1234 88.9481 99.1229 89.3482Z" fill="#263238"/>
<path d="M101.495 88.8135C101.362 88.5073 101.305 88.174 101.327 87.8411C101.272 87.5122 101.293 87.175 101.389 86.8555C101.518 87.1624 101.576 87.4951 101.557 87.8279C101.609 88.157 101.588 88.4936 101.495 88.8135Z" fill="#263238"/>
<path d="M86.8608 93.7589C86.8962 93.8075 84.1558 95.77 80.7391 98.1391C77.3224 100.508 74.5246 102.387 74.4848 102.334C74.445 102.281 77.1898 100.318 80.6065 97.9491C84.0232 95.5799 86.8254 93.7059 86.8608 93.7589Z" fill="#FAFAFA"/>
<path d="M84.7226 90.5508C84.575 90.6905 84.4135 90.8149 84.2408 90.9221L82.8927 91.8679C81.748 92.6635 80.1789 93.7774 78.4727 95.0371C76.7666 96.2968 75.2461 97.4813 74.15 98.3388C73.6284 98.7499 73.1953 99.0902 72.8505 99.3554C72.6983 99.4903 72.5324 99.6088 72.3555 99.709C72.4865 99.5462 72.6347 99.398 72.7975 99.267C73.0892 99.0062 73.5179 98.6394 74.0527 98.193C75.1224 97.309 76.6296 96.0979 78.3402 94.8338C80.0507 93.5696 81.6375 92.4735 82.8043 91.7088C83.3878 91.3287 83.8607 91.0237 84.1967 90.8248C84.3625 90.7163 84.5387 90.6245 84.7226 90.5508Z" fill="#FAFAFA"/>
<path d="M190.859 201.369H160.785V205.502H190.859V201.369Z" fill="#263238"/>
<path d="M190.91 205.551H160.734V201.316H190.91V205.551ZM160.854 205.449H190.826V201.418H160.836L160.854 205.449Z" fill="#263238"/>
<path d="M163.57 204.123L167.902 225.48H183.92L188.101 205.502L163.57 204.123Z" fill="#263238"/>
<path d="M163.57 223.459L165.882 226.633H185.352L188.101 223.459H163.57Z" fill="#455A64"/>
<path d="M174.694 204.751C174.637 204.751 174.562 194.854 174.526 182.651C174.491 170.447 174.526 160.551 174.57 160.551C174.615 160.551 174.707 170.443 174.738 182.651C174.769 194.859 174.756 204.746 174.694 204.751Z" fill="#263238"/>
<path d="M181.395 179.988C181.375 180.067 181.348 180.144 181.315 180.218L181.046 180.859C180.984 181 180.917 181.151 180.847 181.301L180.648 181.862C180.577 182.066 180.497 182.282 180.418 182.508C180.338 182.733 180.272 182.985 180.192 183.241C179.836 184.45 179.556 185.68 179.353 186.923C179.126 188.45 178.978 189.987 178.911 191.529C178.802 194.33 178.88 197.136 179.145 199.927C179.242 201.001 179.339 201.867 179.415 202.468C179.445 202.747 179.468 202.977 179.49 203.158C179.5 203.239 179.5 203.32 179.49 203.401C179.467 203.324 179.449 203.246 179.437 203.167C179.406 202.986 179.37 202.756 179.322 202.477C179.224 201.881 179.105 201.014 178.986 199.94C178.673 197.141 178.573 194.321 178.685 191.507C178.763 189.956 178.925 188.412 179.171 186.879C179.382 185.629 179.678 184.394 180.055 183.184C180.139 182.928 180.206 182.68 180.294 182.45C180.383 182.22 180.462 182.008 180.542 181.809L180.758 181.248C180.833 181.08 180.909 180.93 180.975 180.806L181.28 180.183C181.31 180.113 181.348 180.048 181.395 179.988Z" fill="#263238"/>
<path d="M180.624 171.984C180.6 172.096 180.567 172.205 180.527 172.311L180.213 173.231C180.147 173.434 180.067 173.673 179.983 173.894C179.899 174.115 179.829 174.407 179.745 174.694C179.568 175.268 179.364 175.918 179.183 176.647L178.878 177.792C178.79 178.194 178.697 178.61 178.6 179.043C178.388 179.905 178.237 180.842 178.043 181.819C177.711 183.781 177.42 185.956 177.216 188.246C177.013 190.535 176.947 192.732 176.916 194.725C176.885 196.719 176.916 198.513 177.017 200.029C177.044 200.785 177.093 201.466 177.132 202.062C177.172 202.659 177.203 203.176 177.243 203.596C177.283 204.016 177.296 204.321 177.314 204.564C177.325 204.677 177.325 204.791 177.314 204.905C177.285 204.795 177.267 204.682 177.261 204.569C177.23 204.33 177.194 204.007 177.146 203.605C177.097 203.203 177.044 202.668 177 202.071C176.956 201.475 176.889 200.794 176.854 200.038C176.752 198.531 176.712 196.732 176.704 194.734C176.695 192.736 176.801 190.535 176.991 188.237C177.181 185.938 177.49 183.759 177.835 181.792C178.034 180.811 178.193 179.874 178.41 179.012C178.511 178.57 178.613 178.164 178.706 177.761L179.024 176.617C179.214 175.887 179.426 175.237 179.616 174.667C179.709 174.384 179.793 174.119 179.873 173.872L180.125 173.213L180.474 172.307C180.515 172.195 180.565 172.087 180.624 171.984Z" fill="#263238"/>
<path d="M172.79 206.5C172.785 206.46 172.785 206.42 172.79 206.38C172.79 206.292 172.79 206.182 172.759 206.04C172.759 205.726 172.71 205.289 172.67 204.714C172.6 203.561 172.498 201.916 172.37 199.896C172.109 195.826 171.733 190.203 171.044 184.024C170.695 180.93 170.288 178 169.868 175.339C169.643 174.013 169.426 172.744 169.21 171.569C168.993 170.393 168.768 169.297 168.56 168.302C168.352 167.308 168.14 166.406 167.963 165.615C167.786 164.824 167.618 164.147 167.481 163.595L167.168 162.322C167.137 162.185 167.11 162.074 167.092 161.99C167.082 161.951 167.075 161.911 167.07 161.871C167.088 161.906 167.103 161.943 167.115 161.982C167.137 162.07 167.168 162.176 167.207 162.309L167.561 163.577C167.716 164.125 167.892 164.802 168.078 165.588C168.264 166.375 168.498 167.268 168.706 168.267C168.913 169.266 169.148 170.357 169.382 171.538C169.616 172.718 169.824 173.977 170.063 175.308C170.505 177.96 170.907 180.908 171.256 184.002C171.941 190.19 172.295 195.812 172.516 199.888C172.626 201.921 172.706 203.569 172.75 204.71C172.772 205.267 172.79 205.704 172.799 206.036V206.376C172.801 206.418 172.798 206.459 172.79 206.5Z" fill="#263238"/>
<path d="M174.45 165.311C174.317 163.91 172.903 162.849 171.493 162.836C170.788 162.868 170.099 163.059 169.479 163.396C168.859 163.733 168.323 164.207 167.913 164.781C167.102 165.937 166.517 167.235 166.189 168.608C165.239 171.91 164.722 175.38 165.128 178.774C165.535 182.169 166.918 185.541 169.367 187.955C169.765 188.344 170.278 188.737 170.826 188.622C171.119 188.533 171.384 188.368 171.595 188.145C173.994 185.955 175.897 183.277 177.177 180.291C178.456 177.305 179.081 174.08 179.012 170.832C178.976 169.537 178.804 168.18 178.088 167.106C177.372 166.032 175.692 164.896 174.472 165.311" fill="#377DFF"/>
<path d="M163.934 154.083L161.954 157.672C161.905 157.756 161.848 157.849 161.75 157.857C161.653 157.866 161.569 157.769 161.512 157.681L156.27 149.636L157.476 148.951L163.934 154.083Z" fill="#377DFF"/>
<g opacity="0.2">
<path d="M163.934 154.083L161.954 157.672C161.905 157.756 161.848 157.849 161.75 157.857C161.653 157.866 161.569 157.769 161.512 157.681L156.27 149.636L157.476 148.951L163.934 154.083Z" fill="black"/>
</g>
<path d="M174.592 160.554L156.691 150.004C156.493 149.918 156.335 149.76 156.249 149.562C156.178 149.297 156.377 149.045 156.567 148.846C157.797 147.57 159.287 146.574 160.936 145.927C162.585 145.279 164.354 144.995 166.123 145.093C167.891 145.22 169.601 145.775 171.105 146.711C172.61 147.647 173.865 148.935 174.76 150.464C176.488 153.558 176.528 157.624 174.565 160.554" fill="#377DFF"/>
<path d="M159.266 146.636C159.342 146.615 159.421 146.605 159.5 146.605C159.655 146.605 159.88 146.57 160.176 146.574C161.007 146.56 161.837 146.626 162.656 146.769C165.383 147.228 167.921 148.458 169.971 150.314C172.022 152.169 173.498 154.572 174.227 157.239C174.452 158.041 174.6 158.863 174.669 159.693C174.689 159.864 174.699 160.037 174.7 160.21C174.684 160.35 174.636 160.485 174.559 160.603C174.614 160.312 174.625 160.014 174.59 159.719C174.486 158.901 174.316 158.092 174.081 157.301C173.334 154.675 171.865 152.311 169.84 150.479C167.815 148.646 165.317 147.419 162.629 146.936C161.818 146.783 160.997 146.694 160.172 146.671C159.588 146.645 159.266 146.654 159.266 146.636Z" fill="#263238"/>
<path d="M172.148 153.27C171.87 153.44 171.574 153.578 171.264 153.681C170.694 153.906 169.899 154.193 169.006 154.476C168.113 154.759 167.3 154.985 166.707 155.13C166.389 155.226 166.062 155.289 165.73 155.316C166.03 155.172 166.344 155.059 166.668 154.98L168.944 154.273L171.211 153.539C171.514 153.419 171.828 153.328 172.148 153.27Z" fill="#263238"/>
<path d="M169.33 145.707C169.577 147.019 169.611 148.362 169.432 149.685C169.346 149.023 169.312 148.355 169.33 147.687C169.281 147.028 169.281 146.366 169.33 145.707Z" fill="#263238"/>
<path d="M156.531 149.81C156.952 149.627 157.386 149.48 157.831 149.368C158.644 149.116 159.776 148.802 161.035 148.484C162.295 148.166 163.449 147.945 164.288 147.799C164.736 147.7 165.192 147.638 165.65 147.613C165.217 147.759 164.774 147.871 164.324 147.949C163.497 148.13 162.352 148.391 161.097 148.692C159.842 148.992 158.701 149.288 157.884 149.501C157.441 149.638 156.989 149.741 156.531 149.81Z" fill="#263238"/>
<path d="M167.028 162.269C165.49 161.102 163.863 160.873 161.932 160.943C160.002 161.073 158.113 161.561 156.363 162.384C153.344 163.71 150.511 165.651 148.712 168.404C146.913 171.158 146.303 174.809 147.629 177.814C147.734 178.129 147.953 178.392 148.243 178.553C148.577 178.649 148.935 178.622 149.251 178.477C152.681 177.359 156.133 176.228 159.284 174.477C162.436 172.727 165.309 170.292 167.002 167.105C167.438 166.353 167.715 165.52 167.815 164.656C167.862 164.225 167.816 163.789 167.68 163.377C167.544 162.966 167.322 162.588 167.028 162.269Z" fill="#377DFF"/>
<path d="M167.075 161.906C166.998 161.95 166.917 161.984 166.832 162.008L166.112 162.251L165.59 162.428C165.404 162.494 165.201 162.578 164.984 162.662C164.542 162.839 164.047 163.016 163.517 163.272L162.673 163.657C162.385 163.789 162.094 163.953 161.789 164.099C161.166 164.404 160.538 164.793 159.87 165.19C156.994 166.97 154.436 169.22 152.303 171.847C151.826 172.461 151.358 173.031 150.977 173.615C150.783 173.902 150.58 174.167 150.412 174.441C150.244 174.715 150.08 174.976 149.921 175.224C149.598 175.719 149.36 176.196 149.134 176.603C149.019 176.81 148.913 177.001 148.82 177.177L148.582 177.672L148.246 178.353C148.212 178.435 148.168 178.513 148.113 178.583C148.138 178.498 148.169 178.415 148.206 178.335L148.507 177.637L148.728 177.133C148.816 176.952 148.918 176.757 149.028 176.55C149.245 176.134 149.47 175.666 149.793 175.149C149.943 174.892 150.107 174.627 150.27 174.353C150.434 174.079 150.637 173.805 150.832 173.513C151.207 172.93 151.671 172.346 152.158 171.745C153.237 170.428 154.42 169.198 155.694 168.068C156.976 166.953 158.346 165.943 159.791 165.049C160.467 164.655 161.117 164.267 161.731 163.966C162.045 163.811 162.341 163.652 162.615 163.524L163.468 163.153C164.008 162.901 164.516 162.733 164.953 162.569C165.174 162.49 165.395 162.41 165.572 162.348L166.098 162.194L166.832 161.981C166.91 161.947 166.992 161.922 167.075 161.906Z" fill="#263238"/>
<path d="M155.041 168.414C153.817 168.884 152.569 169.285 151.301 169.616C150.053 170.017 148.784 170.352 147.5 170.62C148.723 170.149 149.972 169.747 151.239 169.413C152.487 169.011 153.756 168.677 155.041 168.414Z" fill="#263238"/>
<path d="M154.89 176.664C154.82 176.281 154.792 175.891 154.806 175.502C154.784 174.782 154.784 173.783 154.806 172.682C154.828 171.581 154.894 170.591 154.956 169.871C154.964 169.481 155.013 169.093 155.102 168.713C155.137 169.101 155.137 169.492 155.102 169.88C155.075 170.671 155.049 171.648 155.013 172.691C154.978 173.734 154.965 174.711 154.943 175.502C154.956 175.89 154.939 176.279 154.89 176.664Z" fill="#263238"/>
<path d="M161.959 173.062C161.901 173.062 161.711 171.043 161.539 168.545C161.367 166.048 161.274 164.01 161.336 164.006C161.398 164.001 161.583 166.026 161.756 168.528C161.928 171.029 162.021 173.058 161.959 173.062Z" fill="#263238"/>
<path d="M153.156 163.811C153.554 163.763 153.955 163.752 154.354 163.776C155.092 163.776 156.122 163.803 157.24 163.838C158.359 163.873 159.388 163.922 160.127 163.966C160.527 163.968 160.927 164.006 161.32 164.081C160.923 164.129 160.522 164.141 160.122 164.116C159.384 164.116 158.354 164.09 157.236 164.054C156.118 164.019 155.088 163.97 154.35 163.926C153.949 163.924 153.55 163.886 153.156 163.811Z" fill="#263238"/>
<path d="M170.13 188.441C170.112 188.362 170.103 188.282 170.103 188.202C170.103 188.021 170.103 187.795 170.072 187.512C170.046 186.916 170.041 186.049 170.072 184.98C170.103 183.91 170.165 182.642 170.293 181.232C170.422 179.822 170.634 178.279 170.921 176.67C171.208 175.061 171.575 173.545 171.938 172.179C172.3 170.814 172.698 169.594 173.056 168.582C173.414 167.569 173.723 166.761 173.94 166.212L174.214 165.576C174.242 165.5 174.277 165.428 174.32 165.359C174.308 165.44 174.285 165.519 174.254 165.594C174.192 165.762 174.112 165.974 174.019 166.239C173.807 166.8 173.52 167.618 173.18 168.63C172.839 169.642 172.477 170.862 172.114 172.228C171.752 173.594 171.412 175.105 171.115 176.71C170.819 178.314 170.612 179.866 170.479 181.249C170.346 182.633 170.254 183.901 170.214 184.989C170.174 186.076 170.17 186.938 170.17 187.512C170.17 187.791 170.17 188.021 170.17 188.202C170.167 188.283 170.153 188.363 170.13 188.441Z" fill="#263238"/>
<path d="M171.077 176.732C170.867 177.019 170.627 177.283 170.361 177.519C169.897 177.961 169.243 178.598 168.492 179.256C167.74 179.915 167.042 180.481 166.525 180.883C166.254 181.117 165.958 181.319 165.641 181.484C165.877 181.222 166.136 180.98 166.414 180.763L168.337 179.093L170.246 177.409C170.502 177.158 170.78 176.932 171.077 176.732Z" fill="#263238"/>
<path d="M176.736 181.293C176.454 180.964 176.2 180.612 175.975 180.241C175.489 179.525 174.879 178.641 174.207 177.66L172.404 175.11C172.135 174.77 171.895 174.409 171.684 174.031C171.994 174.334 172.276 174.664 172.528 175.017C173.023 175.649 173.686 176.537 174.384 177.541C175.083 178.544 175.684 179.477 176.104 180.157C176.35 180.515 176.562 180.895 176.736 181.293Z" fill="#263238"/>
<path d="M173.767 166.955C173.798 167.003 171.92 168.281 169.568 169.783C167.217 171.286 165.285 172.48 165.254 172.435C165.223 172.391 167.102 171.109 169.453 169.611C171.805 168.113 173.736 166.906 173.767 166.955Z" fill="#263238"/>
<path d="M179.073 172.678C177.128 170.979 175.279 169.172 173.535 167.268C175.48 168.967 177.329 170.773 179.073 172.678Z" fill="#263238"/>
<path d="M180.402 172.563L182.016 172.426C183.162 172.333 184.274 171.993 185.278 171.432C185.766 171.144 186.272 170.889 186.794 170.667C188.792 169.867 191.015 170.008 193.163 169.902C196.688 169.727 200.142 168.846 203.32 167.312C203.505 167.227 203.66 167.086 203.762 166.91C204.098 166.305 203.479 165.77 202.949 165.443C200.23 163.767 197.464 162.07 194.378 161.239C191.293 160.408 187.797 160.545 185.167 162.357C182.073 164.483 180.95 168.85 180.429 172.563" fill="#377DFF"/>
<path d="M203.763 166.711C203.667 166.68 203.575 166.637 203.489 166.583L202.725 166.185C202.062 165.836 201.107 165.301 199.9 164.74C198.493 164.053 197.029 163.489 195.524 163.056C193.684 162.535 191.758 162.384 189.858 162.614C187.954 162.825 186.155 163.594 184.687 164.824C183.543 165.888 182.629 167.174 181.999 168.603C181.558 169.563 181.167 170.546 180.828 171.547L180.541 172.36C180.514 172.457 180.476 172.551 180.426 172.638C180.443 172.539 180.468 172.442 180.501 172.347C180.563 172.139 180.647 171.865 180.748 171.52C181.06 170.506 181.431 169.511 181.862 168.541C182.481 167.079 183.399 165.763 184.558 164.678C186.047 163.407 187.882 162.612 189.827 162.393C191.755 162.165 193.71 162.329 195.573 162.875C197.087 163.318 198.556 163.901 199.962 164.616C201.164 165.213 202.106 165.748 202.76 166.119L203.507 166.561C203.596 166.604 203.682 166.654 203.763 166.711Z" fill="#263238"/>
<path d="M199.899 168.815C199.863 168.863 197.755 167.489 195.183 165.765C192.61 164.041 190.555 162.587 190.59 162.538C190.626 162.49 192.734 163.864 195.302 165.588C197.87 167.312 199.93 168.744 199.899 168.815Z" fill="#263238"/>
<path d="M197.646 162.407C197.152 162.579 196.635 162.673 196.112 162.685C195.591 162.757 195.062 162.75 194.543 162.663C195.055 162.569 195.574 162.515 196.094 162.504C196.609 162.434 197.127 162.402 197.646 162.407Z" fill="#263238"/>
<path d="M188.406 161.205C188.232 161.598 187.998 161.962 187.712 162.284C187.465 162.656 187.168 162.992 186.828 163.282C186.999 162.886 187.234 162.521 187.522 162.2C187.765 161.825 188.063 161.49 188.406 161.205Z" fill="#263238"/>
<path d="M190.298 170.04C189.941 169.89 189.601 169.705 189.281 169.487C188.671 169.116 187.849 168.577 186.965 167.936C186.081 167.295 185.312 166.689 184.755 166.247C184.437 166.026 184.141 165.775 183.871 165.496C184.212 165.677 184.536 165.888 184.839 166.128L187.089 167.764C187.973 168.4 188.773 168.957 189.361 169.359C189.691 169.561 190.004 169.788 190.298 170.04Z" fill="#263238"/>
<path d="M182.782 179.424C181.244 179.017 179.405 180.515 179.091 182.076C178.778 183.636 179.357 185.231 180.042 186.668C181.507 189.889 183.683 192.736 186.407 194.995C189.151 197.253 192.578 198.516 196.131 198.58C195.476 195.557 196.303 192.392 195.936 189.329C195.616 186.623 194.388 184.106 192.452 182.189C190.517 180.272 187.988 179.068 185.279 178.774C184.298 178.668 183.162 178.517 182.769 179.424" fill="#377DFF"/>
<path d="M196.143 198.575C196.066 198.548 195.992 198.514 195.922 198.474C195.719 198.361 195.527 198.231 195.347 198.085C194.701 197.525 194.183 196.833 193.827 196.056C193.579 195.579 193.305 195.061 193.04 194.487L192.209 192.657C191.912 191.983 191.573 191.329 191.193 190.699C190.775 190.029 190.307 189.392 189.791 188.794C188.739 187.556 187.608 186.487 186.627 185.461C185.739 184.568 184.932 183.6 184.213 182.566C183.73 181.864 183.334 181.105 183.033 180.307C182.936 180.02 182.865 179.799 182.83 179.644C182.803 179.569 182.786 179.49 182.781 179.41C182.781 179.41 182.887 179.724 183.113 180.294C183.439 181.073 183.85 181.814 184.337 182.504C185.069 183.516 185.882 184.467 186.768 185.346C187.754 186.358 188.89 187.428 189.955 188.679C190.477 189.285 190.951 189.931 191.374 190.61C191.752 191.251 192.092 191.914 192.39 192.595C192.673 193.245 192.947 193.859 193.199 194.434C193.451 195.008 193.725 195.525 193.959 196.007C194.297 196.777 194.787 197.47 195.4 198.045C195.851 198.429 196.152 198.553 196.143 198.575Z" fill="#263238"/>
<path d="M188.184 196.065C188.187 195.715 188.235 195.366 188.325 195.027C188.444 194.395 188.643 193.524 188.908 192.574C189.174 191.623 189.461 190.783 189.691 190.178C189.793 189.843 189.934 189.521 190.111 189.219C190.048 189.562 189.955 189.899 189.832 190.227C189.642 190.841 189.39 191.69 189.116 192.635C188.842 193.581 188.63 194.439 188.471 195.062C188.403 195.404 188.307 195.739 188.184 196.065Z" fill="#263238"/>
<path d="M195.852 188.644C195.482 188.595 195.118 188.512 194.764 188.397C194.101 188.22 193.186 187.986 192.165 187.756C191.144 187.526 190.221 187.345 189.544 187.221C189.175 187.173 188.811 187.091 188.457 186.978C188.831 186.969 189.204 187 189.571 187.071C190.252 187.159 191.189 187.314 192.223 187.544C193.257 187.774 194.163 188.039 194.817 188.251C195.175 188.344 195.522 188.476 195.852 188.644Z" fill="#263238"/>
<path d="M182.469 190.8C182.486 190.395 182.543 189.992 182.637 189.598C182.774 188.864 182.986 187.856 183.273 186.751C183.56 185.646 183.87 184.66 184.109 183.953C184.22 183.565 184.368 183.187 184.551 182.826C184.485 183.224 184.386 183.616 184.254 183.997C184.051 184.714 183.768 185.704 183.481 186.804C183.194 187.905 182.959 188.904 182.783 189.629C182.711 190.027 182.606 190.419 182.469 190.8Z" fill="#263238"/>
<path d="M192.319 182.178C192.319 182.235 190.388 182.08 188.028 181.828C185.667 181.576 183.749 181.329 183.758 181.271C185.193 181.315 186.626 181.43 188.05 181.616C190.414 181.868 192.324 182.12 192.319 182.178Z" fill="#263238"/>
<path d="M190.91 205.501C190.91 205.559 184.156 205.607 175.824 205.607C167.493 205.607 160.734 205.559 160.734 205.501C160.734 205.444 167.488 205.391 175.824 205.391C184.16 205.391 190.91 205.422 190.91 205.501Z" fill="#455A64"/>
<path d="M186.211 214.172C186.211 214.234 181.658 214.283 176.045 214.283C170.432 214.283 165.879 214.234 165.879 214.172C165.879 214.111 170.432 214.066 176.045 214.066C181.658 214.066 186.211 214.115 186.211 214.172Z" fill="#455A64"/>
<path d="M186.033 215.419C186.033 215.477 181.56 215.525 176.044 215.525C170.528 215.525 166.055 215.477 166.055 215.419C166.055 215.362 170.528 215.309 176.044 215.309C181.56 215.309 186.033 215.357 186.033 215.419Z" fill="#455A64"/>
<path d="M186.386 213.152C186.386 213.209 181.679 213.258 175.871 213.258C170.063 213.258 165.355 213.209 165.355 213.152C165.355 213.094 170.063 213.041 175.871 213.041C181.679 213.041 186.386 213.09 186.386 213.152Z" fill="#455A64"/>
<path d="M174.667 27.7488C157.622 25.8131 135.743 31.8139 129.857 39.886C123.972 47.958 130.354 57.9465 143.233 63.5892C133.22 70.1126 132.8 79.8107 141.322 86.8762C149.845 93.9416 166.164 98.1809 182.501 98.1325C190.677 98.0201 198.712 97.0322 206.08 95.2339C213.447 93.4356 219.98 90.8676 225.247 87.6989C232.201 89.4341 239.97 90.1556 247.686 89.7826C255.403 89.4096 262.763 87.9569 268.943 85.5868C275.123 83.2168 279.88 80.0228 282.682 76.362C285.483 72.7011 286.22 68.7177 284.809 64.8571C304.07 61.2856 314.694 48.771 306.516 39.1697C298.337 29.5684 273.038 24.971 254.674 29.6749C255.076 19.2509 237.133 9.52379 216.572 9.0205C196.011 8.5172 176.291 17.3539 174.667 27.7488Z" fill="#FAFAFA"/>
<path d="M155.381 50.6982H157.425C157.384 51.3682 157.199 51.9629 156.871 52.4824C156.548 53.002 156.094 53.4076 155.511 53.6992C154.932 53.9909 154.235 54.1367 153.419 54.1367C152.781 54.1367 152.209 54.0273 151.703 53.8086C151.197 53.5853 150.764 53.2663 150.404 52.8516C150.049 52.4368 149.778 51.9355 149.591 51.3477C149.404 50.7598 149.311 50.1012 149.311 49.3721V48.6816C149.311 47.9525 149.406 47.2939 149.598 46.7061C149.794 46.1136 150.072 45.61 150.432 45.1953C150.796 44.7806 151.231 44.4616 151.737 44.2383C152.243 44.015 152.808 43.9033 153.433 43.9033C154.262 43.9033 154.962 44.0537 155.531 44.3545C156.105 44.6553 156.55 45.07 156.864 45.5986C157.183 46.1273 157.375 46.7288 157.438 47.4033H155.388C155.365 47.0023 155.285 46.6628 155.148 46.3848C155.012 46.1022 154.804 45.8903 154.526 45.749C154.253 45.6032 153.888 45.5303 153.433 45.5303C153.091 45.5303 152.792 45.5941 152.537 45.7217C152.282 45.8493 152.068 46.043 151.895 46.3027C151.721 46.5625 151.591 46.8906 151.505 47.2871C151.423 47.679 151.382 48.1393 151.382 48.668V49.3721C151.382 49.887 151.421 50.3405 151.498 50.7324C151.576 51.1198 151.694 51.4479 151.854 51.7168C152.018 51.9811 152.227 52.1816 152.482 52.3184C152.742 52.4505 153.054 52.5166 153.419 52.5166C153.847 52.5166 154.201 52.4482 154.479 52.3115C154.757 52.1748 154.968 51.972 155.114 51.7031C155.265 51.4342 155.354 51.0993 155.381 50.6982ZM162.641 52.332V49.0371C162.641 48.8001 162.602 48.5973 162.524 48.4287C162.447 48.2555 162.326 48.1211 162.162 48.0254C162.003 47.9297 161.795 47.8818 161.54 47.8818C161.321 47.8818 161.132 47.9206 160.973 47.998C160.813 48.071 160.69 48.1781 160.604 48.3193C160.517 48.4561 160.474 48.6178 160.474 48.8047H158.505C158.505 48.4902 158.578 48.1917 158.724 47.9092C158.869 47.6266 159.081 47.3783 159.359 47.1641C159.637 46.9453 159.968 46.7744 160.351 46.6514C160.738 46.5283 161.171 46.4668 161.649 46.4668C162.224 46.4668 162.734 46.5625 163.181 46.7539C163.627 46.9453 163.978 47.2324 164.233 47.6152C164.493 47.998 164.623 48.4766 164.623 49.0508V52.2158C164.623 52.6214 164.648 52.9541 164.698 53.2139C164.748 53.4691 164.821 53.6924 164.917 53.8838V54H162.928C162.832 53.7995 162.759 53.5488 162.709 53.248C162.663 52.9427 162.641 52.6374 162.641 52.332ZM162.9 49.4951L162.914 50.6094H161.813C161.554 50.6094 161.328 50.639 161.137 50.6982C160.945 50.7575 160.788 50.8418 160.665 50.9512C160.542 51.056 160.451 51.179 160.392 51.3203C160.337 51.4616 160.31 51.6165 160.31 51.7852C160.31 51.9538 160.348 52.1064 160.426 52.2432C160.503 52.3753 160.615 52.4801 160.761 52.5576C160.907 52.6305 161.077 52.667 161.273 52.667C161.57 52.667 161.827 52.6077 162.046 52.4893C162.265 52.3708 162.433 52.2249 162.552 52.0518C162.675 51.8786 162.739 51.7145 162.743 51.5596L163.263 52.3936C163.19 52.5804 163.09 52.7741 162.962 52.9746C162.839 53.1751 162.682 53.3643 162.49 53.542C162.299 53.7152 162.069 53.8587 161.8 53.9727C161.531 54.082 161.212 54.1367 160.843 54.1367C160.373 54.1367 159.947 54.0433 159.564 53.8564C159.186 53.665 158.885 53.403 158.662 53.0703C158.443 52.7331 158.334 52.3503 158.334 51.9219C158.334 51.5345 158.407 51.1904 158.553 50.8896C158.699 50.5889 158.913 50.3359 159.195 50.1309C159.482 49.9212 159.84 49.764 160.269 49.6592C160.697 49.5498 161.194 49.4951 161.759 49.4951H162.9ZM168.068 48.1826V54H166.1V46.6035H167.945L168.068 48.1826ZM167.781 50.042H167.248C167.248 49.4951 167.319 49.0029 167.46 48.5654C167.601 48.1234 167.799 47.7474 168.055 47.4375C168.31 47.123 168.613 46.8838 168.964 46.7197C169.319 46.5511 169.716 46.4668 170.153 46.4668C170.5 46.4668 170.816 46.5169 171.104 46.6172C171.391 46.7174 171.637 46.877 171.842 47.0957C172.051 47.3145 172.211 47.6038 172.32 47.9639C172.434 48.3239 172.491 48.7637 172.491 49.2832V54H170.509V49.2764C170.509 48.9482 170.463 48.693 170.372 48.5107C170.281 48.3285 170.146 48.2008 169.969 48.1279C169.796 48.0505 169.581 48.0117 169.326 48.0117C169.062 48.0117 168.832 48.0641 168.636 48.1689C168.444 48.2738 168.285 48.4196 168.157 48.6064C168.034 48.7887 167.941 49.0029 167.877 49.249C167.813 49.4951 167.781 49.7594 167.781 50.042ZM179.778 44.0469V54H177.734V44.0469H179.778ZM185.186 44.0469H188.897C189.659 44.0469 190.312 44.1608 190.859 44.3887C191.411 44.6165 191.835 44.9538 192.131 45.4004C192.427 45.847 192.575 46.3962 192.575 47.0479C192.575 47.5811 192.484 48.0391 192.302 48.4219C192.124 48.8001 191.871 49.1169 191.543 49.3721C191.219 49.6227 190.839 49.8232 190.401 49.9736L189.752 50.3154H186.525L186.512 48.7158H188.911C189.271 48.7158 189.57 48.652 189.807 48.5244C190.044 48.3968 190.221 48.2191 190.34 47.9912C190.463 47.7633 190.524 47.499 190.524 47.1982C190.524 46.8792 190.465 46.6035 190.347 46.3711C190.228 46.1387 190.048 45.9609 189.807 45.8379C189.565 45.7148 189.262 45.6533 188.897 45.6533H187.236V54H185.186V44.0469ZM190.75 54L188.48 49.5635L190.647 49.5498L192.944 53.9043V54H190.75ZM200.833 52.4004V54H195.535V52.4004H200.833ZM196.205 44.0469V54H194.154V44.0469H196.205ZM200.143 48.1006V49.6592H195.535V48.1006H200.143ZM200.826 44.0469V45.6533H195.535V44.0469H200.826ZM206.076 45.749L203.369 54H201.188L204.887 44.0469H206.274L206.076 45.749ZM208.325 54L205.611 45.749L205.393 44.0469H206.794L210.513 54H208.325ZM208.202 50.2949V51.9014H202.945V50.2949H208.202ZM217.834 52.4004V54H212.823V52.4004H217.834ZM213.486 44.0469V54H211.436V44.0469H213.486ZM225.408 52.4004V54H220.397V52.4004H225.408ZM221.061 44.0469V54H219.01V44.0469H221.061ZM226.119 44.0469L228.197 48.5859L230.275 44.0469H232.511L229.236 50.377V54H227.158V50.377L223.877 44.0469H226.119ZM240.782 51.9561C240.782 51.8148 240.741 51.6872 240.659 51.5732C240.577 51.4593 240.424 51.3545 240.201 51.2588C239.982 51.1585 239.666 51.0674 239.251 50.9854C238.877 50.9033 238.529 50.8008 238.205 50.6777C237.886 50.5501 237.608 50.3975 237.371 50.2197C237.139 50.042 236.956 49.8324 236.824 49.5908C236.692 49.3447 236.626 49.0645 236.626 48.75C236.626 48.4401 236.692 48.1484 236.824 47.875C236.961 47.6016 237.155 47.36 237.405 47.1504C237.66 46.9362 237.97 46.7699 238.335 46.6514C238.704 46.5283 239.119 46.4668 239.579 46.4668C240.222 46.4668 240.773 46.5693 241.233 46.7744C241.698 46.9795 242.054 47.262 242.3 47.6221C242.55 47.9775 242.676 48.3831 242.676 48.8389H240.707C240.707 48.6475 240.666 48.4766 240.584 48.3262C240.507 48.1712 240.383 48.0505 240.215 47.9639C240.051 47.8727 239.837 47.8271 239.572 47.8271C239.354 47.8271 239.164 47.8659 239.005 47.9434C238.845 48.0163 238.722 48.1165 238.636 48.2441C238.554 48.3672 238.513 48.5039 238.513 48.6543C238.513 48.7682 238.535 48.8708 238.581 48.9619C238.631 49.0485 238.711 49.1283 238.82 49.2012C238.93 49.2741 239.071 49.3424 239.244 49.4062C239.422 49.4655 239.641 49.5202 239.9 49.5703C240.434 49.6797 240.91 49.8232 241.329 50.001C241.748 50.1742 242.081 50.4111 242.327 50.7119C242.573 51.0081 242.696 51.3978 242.696 51.8809C242.696 52.209 242.623 52.5098 242.478 52.7832C242.332 53.0566 242.122 53.2959 241.849 53.501C241.575 53.7015 241.247 53.8587 240.864 53.9727C240.486 54.082 240.06 54.1367 239.586 54.1367C238.898 54.1367 238.314 54.0137 237.836 53.7676C237.362 53.5215 237.002 53.2093 236.756 52.8311C236.514 52.4482 236.394 52.0563 236.394 51.6553H238.26C238.269 51.9242 238.337 52.1406 238.465 52.3047C238.597 52.4688 238.763 52.5872 238.964 52.6602C239.169 52.7331 239.39 52.7695 239.627 52.7695C239.882 52.7695 240.094 52.7354 240.263 52.667C240.431 52.5941 240.559 52.4984 240.646 52.3799C240.737 52.2568 240.782 52.1156 240.782 51.9561ZM247.598 46.6035V47.998H243.291V46.6035H247.598ZM244.357 44.7783H246.326V51.7715C246.326 51.9857 246.354 52.1497 246.408 52.2637C246.467 52.3776 246.554 52.4574 246.668 52.5029C246.782 52.5439 246.925 52.5645 247.099 52.5645C247.222 52.5645 247.331 52.5599 247.427 52.5508C247.527 52.5371 247.611 52.5234 247.68 52.5098L247.687 53.959C247.518 54.0137 247.336 54.057 247.14 54.0889C246.944 54.1208 246.727 54.1367 246.49 54.1367C246.057 54.1367 245.679 54.0661 245.355 53.9248C245.036 53.779 244.79 53.5465 244.617 53.2275C244.444 52.9085 244.357 52.4893 244.357 51.9697V44.7783ZM253.094 52.2295V46.6035H255.062V54H253.21L253.094 52.2295ZM253.312 50.7119L253.894 50.6982C253.894 51.1904 253.837 51.6484 253.723 52.0723C253.609 52.4915 253.438 52.8561 253.21 53.166C252.982 53.4714 252.695 53.7106 252.349 53.8838C252.002 54.0524 251.594 54.1367 251.125 54.1367C250.765 54.1367 250.432 54.0866 250.127 53.9863C249.826 53.8815 249.566 53.7197 249.348 53.501C249.133 53.2777 248.965 52.9928 248.842 52.6465C248.723 52.2956 248.664 51.874 248.664 51.3818V46.6035H250.633V51.3955C250.633 51.6143 250.658 51.7988 250.708 51.9492C250.763 52.0996 250.838 52.2227 250.934 52.3184C251.029 52.4141 251.141 52.4824 251.269 52.5234C251.401 52.5645 251.547 52.585 251.706 52.585C252.112 52.585 252.431 52.5029 252.663 52.3389C252.9 52.1748 253.066 51.9515 253.162 51.6689C253.262 51.3818 253.312 51.0628 253.312 50.7119ZM260.935 52.3867V43.5H262.917V54H261.133L260.935 52.3867ZM256.259 50.3906V50.2471C256.259 49.682 256.323 49.1693 256.45 48.709C256.578 48.2441 256.765 47.8454 257.011 47.5127C257.257 47.18 257.56 46.9225 257.92 46.7402C258.28 46.5579 258.69 46.4668 259.15 46.4668C259.583 46.4668 259.962 46.5579 260.285 46.7402C260.613 46.9225 260.891 47.1823 261.119 47.5195C261.352 47.8522 261.538 48.2464 261.68 48.7021C261.821 49.1533 261.924 49.6478 261.987 50.1855V50.5C261.924 51.015 261.821 51.4935 261.68 51.9355C261.538 52.3776 261.352 52.765 261.119 53.0977C260.891 53.4258 260.613 53.681 260.285 53.8633C259.957 54.0456 259.574 54.1367 259.137 54.1367C258.676 54.1367 258.266 54.0433 257.906 53.8564C257.551 53.6696 257.25 53.4076 257.004 53.0703C256.762 52.7331 256.578 52.3366 256.45 51.8809C256.323 51.4251 256.259 50.9284 256.259 50.3906ZM258.228 50.2471V50.3906C258.228 50.696 258.25 50.9808 258.296 51.2451C258.346 51.5094 258.426 51.7441 258.535 51.9492C258.649 52.1497 258.795 52.307 258.973 52.4209C259.155 52.5303 259.376 52.585 259.636 52.585C259.973 52.585 260.251 52.5098 260.47 52.3594C260.688 52.2044 260.855 51.9925 260.969 51.7236C261.087 51.4548 261.156 51.1449 261.174 50.7939V49.8984C261.16 49.6113 261.119 49.3538 261.051 49.126C260.987 48.8936 260.891 48.6953 260.764 48.5312C260.641 48.3672 260.486 48.2396 260.299 48.1484C260.117 48.0573 259.9 48.0117 259.649 48.0117C259.394 48.0117 259.175 48.071 258.993 48.1895C258.811 48.3034 258.663 48.4606 258.549 48.6611C258.439 48.8617 258.357 49.0986 258.303 49.3721C258.253 49.641 258.228 49.9326 258.228 50.2471ZM266.649 53.166L268.611 46.6035H270.724L267.75 55.1143C267.686 55.3011 267.6 55.5016 267.49 55.7158C267.385 55.93 267.242 56.1328 267.06 56.3242C266.882 56.5202 266.656 56.6797 266.383 56.8027C266.114 56.9258 265.784 56.9873 265.392 56.9873C265.205 56.9873 265.052 56.9759 264.934 56.9531C264.815 56.9303 264.674 56.8984 264.51 56.8574V55.415C264.56 55.415 264.612 55.415 264.667 55.415C264.722 55.4196 264.774 55.4219 264.824 55.4219C265.084 55.4219 265.296 55.3923 265.46 55.333C265.624 55.2738 265.756 55.1826 265.856 55.0596C265.957 54.9411 266.036 54.7861 266.096 54.5947L266.649 53.166ZM265.829 46.6035L267.436 51.9629L267.716 54.0479L266.376 54.1914L263.717 46.6035H265.829ZM277.505 54H275.522V45.9473C275.522 45.3867 275.632 44.915 275.851 44.5322C276.074 44.1449 276.386 43.8532 276.787 43.6572C277.193 43.4567 277.674 43.3564 278.229 43.3564C278.412 43.3564 278.587 43.3701 278.756 43.3975C278.924 43.4202 279.089 43.4499 279.248 43.4863L279.228 44.9697C279.141 44.9469 279.05 44.931 278.954 44.9219C278.858 44.9128 278.747 44.9082 278.619 44.9082C278.382 44.9082 278.179 44.9492 278.011 45.0312C277.847 45.1087 277.721 45.2249 277.635 45.3799C277.548 45.5348 277.505 45.724 277.505 45.9473V54ZM278.981 46.6035V47.998H274.422V46.6035H278.981ZM279.699 50.377V50.2334C279.699 49.6911 279.777 49.1921 279.932 48.7363C280.087 48.276 280.312 47.8773 280.608 47.54C280.905 47.2028 281.269 46.9408 281.702 46.7539C282.135 46.5625 282.632 46.4668 283.192 46.4668C283.753 46.4668 284.252 46.5625 284.689 46.7539C285.127 46.9408 285.494 47.2028 285.79 47.54C286.091 47.8773 286.319 48.276 286.474 48.7363C286.629 49.1921 286.706 49.6911 286.706 50.2334V50.377C286.706 50.9147 286.629 51.4137 286.474 51.874C286.319 52.3298 286.091 52.7285 285.79 53.0703C285.494 53.4076 285.129 53.6696 284.696 53.8564C284.263 54.0433 283.767 54.1367 283.206 54.1367C282.646 54.1367 282.146 54.0433 281.709 53.8564C281.276 53.6696 280.909 53.4076 280.608 53.0703C280.312 52.7285 280.087 52.3298 279.932 51.874C279.777 51.4137 279.699 50.9147 279.699 50.377ZM281.668 50.2334V50.377C281.668 50.6868 281.695 50.9762 281.75 51.2451C281.805 51.514 281.891 51.751 282.01 51.9561C282.133 52.1566 282.292 52.3138 282.488 52.4277C282.684 52.5417 282.924 52.5986 283.206 52.5986C283.479 52.5986 283.714 52.5417 283.91 52.4277C284.106 52.3138 284.263 52.1566 284.382 51.9561C284.5 51.751 284.587 51.514 284.642 51.2451C284.701 50.9762 284.73 50.6868 284.73 50.377V50.2334C284.73 49.9326 284.701 49.6501 284.642 49.3857C284.587 49.1169 284.498 48.8799 284.375 48.6748C284.257 48.4652 284.099 48.3011 283.903 48.1826C283.707 48.0641 283.47 48.0049 283.192 48.0049C282.914 48.0049 282.677 48.0641 282.481 48.1826C282.29 48.3011 282.133 48.4652 282.01 48.6748C281.891 48.8799 281.805 49.1169 281.75 49.3857C281.695 49.6501 281.668 49.9326 281.668 50.2334ZM289.885 48.2168V54H287.916V46.6035H289.769L289.885 48.2168ZM292.113 46.5557L292.079 48.3809C291.983 48.3672 291.867 48.3558 291.73 48.3467C291.598 48.333 291.478 48.3262 291.368 48.3262C291.09 48.3262 290.849 48.3626 290.644 48.4355C290.443 48.5039 290.274 48.6064 290.138 48.7432C290.006 48.8799 289.905 49.0462 289.837 49.2422C289.773 49.4382 289.737 49.6615 289.728 49.9121L289.331 49.7891C289.331 49.3105 289.379 48.8708 289.475 48.4697C289.57 48.0641 289.709 47.7109 289.892 47.4102C290.078 47.1094 290.306 46.877 290.575 46.7129C290.844 46.5488 291.152 46.4668 291.498 46.4668C291.607 46.4668 291.719 46.4759 291.833 46.4941C291.947 46.5078 292.04 46.5283 292.113 46.5557ZM203.752 60.0469V70H201.701V60.0469H203.752ZM207.717 64.2988V65.8984H203.191V64.2988H207.717ZM208.195 60.0469V61.6533H203.191V60.0469H208.195ZM209.385 60.0469H213.097C213.858 60.0469 214.512 60.1608 215.059 60.3887C215.61 60.6165 216.034 60.9538 216.33 61.4004C216.626 61.847 216.774 62.3962 216.774 63.0479C216.774 63.5811 216.683 64.0391 216.501 64.4219C216.323 64.8001 216.07 65.1169 215.742 65.3721C215.419 65.6227 215.038 65.8232 214.601 65.9736L213.951 66.3154H210.725L210.711 64.7158H213.11C213.47 64.7158 213.769 64.652 214.006 64.5244C214.243 64.3968 214.421 64.2191 214.539 63.9912C214.662 63.7633 214.724 63.499 214.724 63.1982C214.724 62.8792 214.664 62.6035 214.546 62.3711C214.427 62.1387 214.247 61.9609 214.006 61.8379C213.764 61.7148 213.461 61.6533 213.097 61.6533H211.436V70H209.385V60.0469ZM214.949 70L212.68 65.5635L214.847 65.5498L217.144 69.9043V70H214.949ZM225.032 68.4004V70H219.734V68.4004H225.032ZM220.404 60.0469V70H218.354V60.0469H220.404ZM224.342 64.1006V65.6592H219.734V64.1006H224.342ZM225.025 60.0469V61.6533H219.734V60.0469H225.025ZM232.907 68.4004V70H227.609V68.4004H232.907ZM228.279 60.0469V70H226.229V60.0469H228.279ZM232.217 64.1006V65.6592H227.609V64.1006H232.217ZM232.9 60.0469V61.6533H227.609V60.0469H232.9ZM237.337 66.958H235.594C235.598 66.5479 235.63 66.1947 235.689 65.8984C235.753 65.5977 235.86 65.3265 236.011 65.085C236.166 64.8434 236.371 64.6042 236.626 64.3672C236.84 64.1758 237.027 63.9935 237.187 63.8203C237.346 63.6471 237.471 63.4694 237.562 63.2871C237.654 63.1003 237.699 62.8929 237.699 62.665C237.699 62.4007 237.658 62.182 237.576 62.0088C237.499 61.8311 237.38 61.6966 237.221 61.6055C237.066 61.5143 236.87 61.4688 236.633 61.4688C236.437 61.4688 236.255 61.512 236.086 61.5986C235.917 61.6807 235.778 61.8083 235.669 61.9814C235.564 62.1546 235.509 62.3825 235.505 62.665H233.522C233.536 62.0407 233.68 61.5257 233.953 61.1201C234.231 60.71 234.603 60.4069 235.067 60.2109C235.532 60.0104 236.054 59.9102 236.633 59.9102C237.271 59.9102 237.818 60.015 238.273 60.2246C238.729 60.4297 239.078 60.7327 239.319 61.1338C239.561 61.5303 239.682 62.0133 239.682 62.583C239.682 62.9795 239.604 63.3327 239.449 63.6426C239.294 63.9479 239.091 64.2327 238.841 64.4971C238.59 64.7614 238.314 65.0348 238.014 65.3174C237.754 65.5498 237.576 65.7936 237.48 66.0488C237.389 66.304 237.341 66.6071 237.337 66.958ZM235.389 69.0703C235.389 68.7786 235.489 68.5371 235.689 68.3457C235.89 68.1497 236.159 68.0518 236.496 68.0518C236.829 68.0518 237.095 68.1497 237.296 68.3457C237.501 68.5371 237.604 68.7786 237.604 69.0703C237.604 69.3529 237.501 69.5921 237.296 69.7881C237.095 69.984 236.829 70.082 236.496 70.082C236.159 70.082 235.89 69.984 235.689 69.7881C235.489 69.5921 235.389 69.3529 235.389 69.0703Z" fill="black"/>
<path d="M174.786 27.7444H174.501H174.615H174.881H175.185C175.185 27.8216 174.976 27.7443 174.862 27.8119C175.132 25.7283 176.09 23.6825 177.697 21.7601C179.203 20.0264 181.161 18.4033 183.518 16.934C186.531 15.0325 190.152 13.4012 194.229 12.108C199.122 10.5252 204.644 9.51009 210.4 9.13513L212.74 9H215.156C216.805 9.00449 218.451 9.06576 220.084 9.18339C223.489 9.43627 226.811 9.92335 229.957 10.6312C230.792 10.7993 231.599 10.9994 232.374 11.2296C233.154 11.4516 233.972 11.664 234.752 11.9053C236.319 12.4119 237.825 12.9663 239.261 13.5654C240.735 14.1706 242.144 14.815 243.484 15.4959C244.796 16.2338 246.028 17.0071 247.175 17.8124C252.131 21.2487 254.796 25.3975 254.785 29.6555L254.214 29.4721C262.692 27.4458 272.345 27.078 281.324 28.4393C291.097 29.7609 299.486 32.9455 304.744 37.3289C307.315 39.7056 308.839 42.3371 309.21 45.0418C309.581 47.7464 308.791 50.4596 306.893 52.9942C305.042 55.6449 302.17 58.0826 298.446 60.1657C294.639 62.3115 289.878 63.9659 284.558 64.9917L284.882 64.7118C286.285 68.8128 285.327 73.032 282.123 76.8638C278.891 80.8245 273.356 84.1914 266.257 86.5159C260.111 88.4604 253.102 89.59 245.871 89.8008C238.641 90.0117 231.422 89.297 224.878 87.7224L225.468 87.6645C216.538 92.9753 204.254 96.5503 190.71 97.7799C177.898 98.8759 164.749 97.3976 154.049 93.6584C149.029 91.9135 144.758 89.671 141.493 87.0661C138.426 84.5529 136.43 81.7417 135.633 78.8135C134.834 76.0304 135.105 73.1952 136.432 70.4645C137.711 67.8829 140.009 65.4596 143.186 63.3412V63.6018C137.34 60.9501 132.904 57.5941 130.287 53.8436C129.063 52.131 128.264 50.3477 127.909 48.5349C127.517 46.8303 127.574 45.1066 128.08 43.4097C128.881 40.3312 131.441 37.4389 135.443 35.0896C138.787 33.1261 142.786 31.4762 147.257 30.2153C150.816 29.1995 154.622 28.424 158.577 27.9084C161.477 27.5376 164.452 27.3369 167.442 27.31C169.285 27.2952 171.126 27.3695 172.94 27.532C174.158 27.6382 174.843 27.7154 174.843 27.7154L172.94 27.5899C171.127 27.4528 169.294 27.3978 167.461 27.4258C164.493 27.4723 161.544 27.6893 158.672 28.0725C154.763 28.6154 151.009 29.4136 147.504 30.4469C143.106 31.7006 139.173 33.3337 135.88 35.273C131.972 37.5922 129.485 40.4406 128.727 43.4676C128.237 45.1362 128.186 46.8305 128.575 48.506C128.971 50.3002 129.795 52.0633 131.029 53.7567C133.621 57.4447 138.005 60.7413 143.776 63.3412L144.042 63.4571L143.833 63.6018C140.731 65.6817 138.491 68.0589 137.25 70.59C135.965 73.2716 135.706 76.0535 136.489 78.7846C137.267 81.6491 139.211 84.4003 142.197 86.8634C145.408 89.412 149.601 91.6051 154.525 93.311C165.04 96.9702 177.946 98.4134 190.519 97.3359C203.865 96.1238 215.968 92.5999 224.764 87.3653L225.011 87.2205L225.353 87.3074C231.747 88.84 238.796 89.5344 245.856 89.3269C252.916 89.1195 259.76 88.017 265.762 86.1202C272.702 83.8363 278.104 80.5332 281.248 76.6515C284.396 72.9138 285.335 68.7925 283.95 64.7891V64.5864L284.349 64.5188C289.411 63.4795 293.971 61.8979 297.717 59.8823C301.464 57.8666 304.308 55.4644 306.056 52.8398C307.921 50.3721 308.705 47.728 308.353 45.0912C308.002 42.4544 306.523 39.888 304.021 37.5702C298.893 33.2939 290.718 30.1832 281.191 28.8833C272.418 27.544 262.979 27.8981 254.69 29.8775L254.1 30.0222V29.6941C254.104 25.5322 251.506 21.477 246.68 18.1116C245.552 17.316 244.339 16.5524 243.046 15.824C241.745 15.1408 240.366 14.4962 238.918 13.8936C237.508 13.301 236.028 12.753 234.485 12.2528C233.705 12.0114 232.925 11.7991 232.145 11.5771C231.382 11.3489 230.587 11.1489 229.767 10.9787C226.674 10.2603 223.404 9.7571 220.046 9.4826C218.444 9.36981 216.83 9.30855 215.213 9.29921H212.835L210.514 9.42469C204.837 9.77858 199.385 10.7676 194.553 12.3203C187.295 14.5595 181.519 17.8462 177.963 21.7601C176.287 23.6571 175.215 25.6769 174.786 27.7444C174.919 27.7444 175.09 27.6768 175.147 27.7444H174.824H174.577H174.443H174.786Z" fill="#263238"/>
<path d="M120.703 76.3304C119.705 76.1477 118.696 76.4576 117.804 77.2211C116.912 77.9847 116.177 79.1675 115.691 80.6203C115.206 82.0732 114.992 83.7309 115.077 85.3844C115.161 87.0378 115.54 88.6128 116.166 89.9106C116.792 91.2084 117.637 92.1709 118.594 92.6765C119.551 93.182 120.577 93.2081 121.543 92.7514C122.509 92.2947 123.371 91.3756 124.021 90.1102C124.671 88.8448 125.079 87.2898 125.195 85.6414C125.298 83.4391 124.892 81.2541 124.058 79.5264C123.225 77.7987 122.026 76.6567 120.703 76.3304Z" fill="#FAFAFA"/>
<path d="M120.735 76.3388C121.155 76.3627 121.568 76.5091 121.957 76.7712C122.864 77.3795 123.656 78.379 124.25 79.6653C124.843 80.9516 125.217 82.4775 125.332 84.0837C125.415 85.6095 125.227 87.1423 124.79 88.4942C124.558 89.2224 124.264 89.8922 123.918 90.4832C123.561 91.1096 123.152 91.647 122.702 92.0783C121.766 93.0573 120.655 93.4777 119.554 93.2697C118.454 93.0616 117.429 92.2377 116.651 90.9348C116.269 90.3516 115.943 89.6741 115.685 88.9266C115.424 88.2266 115.227 87.4653 115.104 86.6685C114.859 85.1901 114.885 83.6251 115.179 82.1715C115.508 80.6479 116.079 79.2986 116.832 78.2655C117.586 77.2324 118.494 76.5536 119.461 76.3004C119.873 76.1759 120.295 76.1759 120.706 76.3004C120.706 76.3677 120.258 76.2427 119.479 76.4637C118.378 76.8139 117.371 77.7245 116.599 79.0678C116.071 79.9769 115.673 81.0705 115.435 82.2676C115.169 83.6453 115.152 85.1219 115.389 86.5147C115.651 88.0586 116.164 89.4544 116.872 90.5505C117.606 91.7724 118.57 92.5448 119.606 92.7404C120.641 92.936 121.686 92.5432 122.568 91.6267C122.999 91.2228 123.392 90.7143 123.732 90.1181C124.062 89.5634 124.343 88.9322 124.564 88.2443C124.988 86.9793 125.176 85.5349 125.105 84.0933C125.027 82.8327 124.783 81.6157 124.389 80.5283C123.818 78.9372 122.962 77.678 121.94 76.925C121.546 76.6891 121.144 76.4933 120.735 76.3388Z" fill="#263238"/>
<path d="M110.798 94.606C110.367 94.5272 109.932 94.6609 109.547 94.9902C109.163 95.3196 108.846 95.8298 108.636 96.4564C108.427 97.0831 108.335 97.7982 108.371 98.5114C108.408 99.2246 108.571 99.904 108.841 100.464C109.111 101.024 109.476 101.439 109.888 101.657C110.301 101.875 110.744 101.886 111.16 101.689C111.577 101.492 111.949 101.096 112.229 100.55C112.51 100.004 112.686 99.3336 112.736 98.6226C112.78 97.6725 112.605 96.7298 112.245 95.9845C111.886 95.2392 111.369 94.7466 110.798 94.606Z" fill="#FAFAFA"/>
<path d="M110.813 94.619C110.997 94.5756 111.185 94.6224 111.354 94.7535C111.758 95.0073 112.113 95.4386 112.379 96.0008C112.646 96.563 112.814 97.2348 112.867 97.9437C112.907 98.6279 112.824 99.3163 112.628 99.9231C112.411 100.616 112.072 101.183 111.656 101.55C111.239 101.917 110.765 102.066 110.296 101.977C109.827 101.889 109.386 101.567 109.03 101.054C108.674 100.541 108.422 99.8619 108.305 99.1064C108.198 98.4417 108.213 97.7399 108.346 97.0885C108.472 96.5361 108.67 96.0371 108.928 95.6279C109.29 95.0334 109.76 94.6519 110.266 94.5421C110.449 94.4853 110.637 94.5085 110.813 94.6094C110.813 94.6574 110.615 94.6094 110.289 94.7343C109.828 94.9086 109.408 95.3068 109.085 95.8777C108.844 96.2768 108.671 96.7742 108.584 97.3194C108.497 97.8646 108.499 98.4381 108.59 98.9814C108.684 99.658 108.902 100.27 109.216 100.733C109.529 101.196 109.921 101.487 110.338 101.566C110.756 101.645 111.178 101.508 111.546 101.174C111.915 100.84 112.211 100.326 112.395 99.7021C112.558 99.2064 112.639 98.6482 112.628 98.0844C112.618 97.5207 112.518 96.9714 112.337 96.4927C112.105 95.8102 111.749 95.2656 111.319 94.9361C111.005 94.6958 110.807 94.6574 110.813 94.619Z" fill="#263238"/>
</svg>
