<svg width="340" height="253" viewBox="0 0 340 253" fill="none" xmlns="http://www.w3.org/2000/svg">
<g clip-path="url(#clip0_5117_7581)">
<path d="M43.8062 141.715C3.93468 164.734 3.93932 202.035 43.8062 225.072C83.6731 248.11 148.318 248.091 188.189 225.072C228.061 202.053 228.056 164.752 188.189 141.715C148.322 118.677 83.6777 118.696 43.8062 141.715Z" fill="#FAFAFA"/>
<path d="M87.2736 213.485C87.2408 213.473 87.2107 213.455 87.1852 213.431C87.1597 213.407 87.1393 213.378 87.1252 213.346C83.3482 204.066 73.1263 199.607 68.76 197.709C68.0548 197.403 67.4979 197.157 67.1314 196.967C65.4795 196.109 64.4355 194.647 64.3474 193.051C64.3166 192.315 64.4812 191.584 64.8242 190.932C65.1673 190.28 65.6767 189.73 66.3008 189.339C69.5488 187.061 76.6156 189.831 82.346 195.645C90.3732 203.792 90.1504 211.662 90.1458 211.741C90.145 211.782 90.134 211.822 90.1137 211.858C90.0935 211.893 90.0646 211.923 90.0298 211.945L87.4964 213.481C87.4682 213.498 87.4365 213.509 87.4036 213.513C87.3583 213.519 87.3125 213.509 87.2736 213.485ZM81.9794 195.974C76.4114 190.327 69.6463 187.58 66.57 189.724C66.0145 190.07 65.5605 190.558 65.2541 191.136C64.9477 191.715 64.7998 192.364 64.8253 193.018C64.9095 193.772 65.187 194.491 65.6309 195.105C66.0748 195.72 66.67 196.209 67.3588 196.526C67.7114 196.712 68.2868 196.948 68.9596 197.255C73.3397 199.162 83.5384 203.598 87.4732 212.891L89.64 211.574C89.6308 210.53 89.2827 203.389 81.9794 195.974Z" fill="#377DFF"/>
<path d="M88.8281 212.632H88.8605C88.9232 212.615 88.9765 212.574 89.0086 212.517C89.0408 212.46 89.0493 212.394 89.0322 212.331C85.8399 201.093 74.8709 192.68 69.0013 192.045C68.9693 192.041 68.9367 192.043 68.9057 192.052C68.8747 192.061 68.8457 192.076 68.8206 192.097C68.7955 192.117 68.7748 192.142 68.7596 192.171C68.7444 192.199 68.7351 192.231 68.7322 192.263C68.7283 192.295 68.7309 192.328 68.7398 192.359C68.7487 192.391 68.7638 192.42 68.784 192.445C68.8043 192.471 68.8295 192.492 68.858 192.508C68.8865 192.523 68.9179 192.533 68.9503 192.537C74.7503 193.168 85.5383 201.817 88.5543 212.447C88.5687 212.506 88.6047 212.558 88.6553 212.592C88.7059 212.627 88.7675 212.641 88.8281 212.632Z" fill="#377DFF"/>
<path d="M89.9231 211.959C89.9579 211.953 89.9911 211.941 90.0206 211.922L91.7142 210.794C91.7479 210.772 91.7756 210.741 91.795 210.706C91.8144 210.67 91.8249 210.63 91.8255 210.59C91.8255 210.474 91.8766 198.818 85.1068 185.191C81.6593 178.231 75.2329 172.407 69.8273 171.298C67.2289 170.765 64.9878 171.275 63.1689 172.825C62.1388 173.697 61.6284 174.681 61.647 175.748C61.7027 178.699 65.7487 181.887 70.0361 185.265C73.0335 187.631 76.1331 190.072 77.9473 192.508C77.9661 192.534 77.9901 192.556 78.0177 192.573C78.0453 192.59 78.0761 192.601 78.1081 192.606C78.1402 192.611 78.1729 192.609 78.2042 192.601C78.2356 192.593 78.265 192.579 78.2907 192.559C78.3172 192.54 78.3396 192.515 78.3565 192.487C78.3735 192.459 78.3847 192.428 78.3894 192.396C78.3942 192.363 78.3924 192.33 78.3842 192.298C78.376 192.267 78.3616 192.237 78.3417 192.211C76.4857 189.724 73.363 187.26 70.3423 184.875C66.1663 181.576 62.1945 178.453 62.1434 175.739C62.1434 174.811 62.5657 173.985 63.4891 173.201C65.1873 171.758 67.2846 171.28 69.7252 171.781C74.9963 172.862 81.2742 178.597 84.6614 185.413C90.9996 198.159 91.3151 209.147 91.3291 210.469L89.7468 211.523C89.6926 211.559 89.655 211.616 89.642 211.68C89.629 211.744 89.6417 211.811 89.6772 211.866C89.7063 211.902 89.7443 211.929 89.7876 211.946C89.8308 211.962 89.8776 211.966 89.9231 211.959Z" fill="#377DFF"/>
<path d="M88.3223 205.032C88.3868 205.017 88.4429 204.978 88.4785 204.922C88.5142 204.867 88.5264 204.799 88.5126 204.735C84.6846 187.052 70.8806 176.148 67.2985 174.64C67.268 174.627 67.2354 174.621 67.2025 174.621C67.1695 174.621 67.137 174.628 67.1066 174.641C67.0762 174.653 67.0486 174.672 67.0254 174.695C67.0022 174.719 66.9839 174.746 66.9714 174.777C66.9589 174.807 66.9525 174.84 66.9526 174.873C66.9528 174.906 66.9594 174.938 66.9721 174.969C66.9848 174.999 67.0033 175.027 67.0267 175.05C67.0501 175.073 67.0778 175.091 67.1083 175.104C70.6254 176.593 84.2438 187.358 88.03 204.851C88.0465 204.913 88.0859 204.966 88.1402 204.999C88.1946 205.033 88.2597 205.045 88.3223 205.032Z" fill="#377DFF"/>
<path d="M117.977 233.122C138.268 233.122 154.716 223.624 154.716 211.907C154.716 200.191 138.268 190.693 117.977 190.693C97.6861 190.693 81.2373 200.191 81.2373 211.907C81.2373 223.624 97.6861 233.122 117.977 233.122Z" fill="#E0E0E0"/>
<path d="M215.895 126.779C218.588 135.723 229.109 139.62 236.462 136.808C239.81 135.523 244.387 132.298 244.495 127.105C255.063 140.709 285.654 129.134 277.352 109.646C292.396 112.039 303.928 86.5567 285.469 79.2378C303.067 71.4178 296.356 41.8278 274.201 45.2823C277.028 38.9727 272.63 33.2369 267.627 30.9373C261.953 28.3243 254.188 28.7895 251.854 32.5944C247.846 16.2662 226.101 12.6 215.738 25.8387C209.401 17.3072 193.292 17.1026 191.881 29.287C181.286 18.8444 154.736 28.3049 160.821 46.0245C143.517 42.7661 139.657 65.9251 153.013 71.1514C145.466 73.1208 140.94 83.0762 141.812 90.6844C142.687 98.372 149.496 104.472 157.847 104.398C153.652 115.912 168.234 125.511 177.151 117.109C176.998 135.538 205.861 144.117 215.895 126.779Z" fill="#377DFF"/>
<path opacity="0.8" d="M215.895 126.779C218.588 135.723 229.109 139.62 236.461 136.808C239.81 135.523 244.387 132.298 244.495 127.105C255.063 140.709 285.654 129.134 277.352 109.646C292.396 112.039 303.928 86.5567 285.469 79.2378C303.067 71.4178 296.356 41.8278 274.201 45.2823C277.028 38.9727 272.63 33.2369 267.627 30.9373C261.953 28.3243 254.188 28.7895 251.854 32.5944C247.845 16.2662 226.101 12.6 215.738 25.8387C209.401 17.3072 193.292 17.1026 191.881 29.287C181.286 18.8444 154.736 28.3049 160.821 46.0245C143.517 42.7661 139.657 65.9251 153.013 71.1514C145.466 73.1208 140.94 83.0762 141.812 90.6844C142.687 98.3719 149.496 104.472 157.847 104.398C153.652 115.912 168.234 125.511 177.151 117.109C176.998 135.538 205.861 144.117 215.895 126.779Z" fill="white"/>
<path d="M192.242 148.828C191.127 147.115 187.943 146.143 186.174 146.95C186.765 141.537 180.215 140.517 177.244 144.29C171.944 139.745 165.703 147.565 171.355 151.615C167.347 155.406 170.663 162.611 176.153 162.031C177.004 166.75 183.215 169.749 185.898 164.852C192.782 170.367 198.254 160.918 191.974 155.714C192.811 154.776 193.296 153.576 193.345 152.319C193.394 151.063 193.004 149.828 192.242 148.828Z" fill="#377DFF"/>
<path d="M162.178 153.278L162.004 153.29C162.045 152.836 161.954 152.38 161.741 151.977C161.528 151.574 161.202 151.242 160.804 151.02C159.948 150.574 158.695 150.925 158.418 151.863C158.126 151.609 157.772 151.436 157.391 151.363C157.01 151.291 156.617 151.321 156.252 151.45C155.895 151.56 155.589 151.793 155.385 152.106C155.182 152.42 155.095 152.794 155.14 153.165C155.155 153.467 155.233 153.763 155.371 154.032C155.509 154.302 155.703 154.539 155.939 154.727C155.715 155.143 155.592 155.606 155.58 156.078C155.568 156.551 155.668 157.019 155.87 157.446C156.073 157.873 156.373 158.246 156.747 158.535C157.12 158.825 157.557 159.022 158.021 159.112C158.005 159.386 158.053 159.66 158.161 159.913C158.268 160.165 158.432 160.39 158.64 160.569C158.849 160.748 159.095 160.877 159.361 160.946C159.627 161.015 159.905 161.021 160.174 160.965C160.46 160.906 160.729 160.78 160.958 160.598C161.186 160.415 161.368 160.181 161.489 159.914C161.749 160.144 162.084 160.271 162.431 160.272C162.778 160.273 163.113 160.147 163.374 159.918C163.74 159.588 163.974 159.135 164.03 158.645C164.098 158.177 163.985 157.701 163.714 157.313C164.165 157.058 164.504 156.643 164.664 156.15C164.824 155.657 164.793 155.122 164.577 154.651C164.351 154.216 164.005 153.855 163.579 153.612C163.154 153.368 162.667 153.252 162.178 153.278Z" fill="#377DFF"/>
<path d="M148.754 147.265C148.446 147.362 148.179 147.557 147.992 147.821C147.894 147.614 147.724 147.449 147.515 147.357C147.305 147.265 147.07 147.251 146.851 147.317C146.73 147.378 146.626 147.466 146.547 147.576C146.468 147.685 146.416 147.812 146.397 147.945C146.361 148.213 146.399 148.485 146.506 148.733C146.533 148.784 146.546 148.841 146.545 148.899C146.523 148.969 146.482 149.032 146.427 149.081C146.268 149.252 146.165 149.468 146.133 149.7C146.1 149.931 146.14 150.168 146.246 150.376C146.352 150.584 146.52 150.755 146.726 150.865C146.933 150.975 147.168 151.019 147.401 150.991C147.415 151.318 147.522 151.635 147.709 151.903C147.836 152.096 148.023 152.241 148.241 152.317C148.458 152.393 148.695 152.396 148.914 152.324C149.033 152.291 149.143 152.231 149.235 152.15C149.328 152.068 149.401 151.967 149.449 151.853C149.497 151.74 149.52 151.617 149.514 151.494C149.509 151.371 149.476 151.25 149.418 151.141C149.582 151.217 149.764 151.244 149.943 151.217C150.122 151.191 150.289 151.113 150.424 150.993C150.554 150.868 150.65 150.711 150.703 150.537C150.755 150.364 150.761 150.18 150.722 150.003C150.68 149.828 150.6 149.664 150.489 149.522C150.377 149.38 150.236 149.264 150.076 149.182C150.258 148.958 150.356 148.679 150.353 148.391C150.351 148.103 150.249 147.825 150.064 147.604C149.908 147.419 149.698 147.287 149.463 147.226C149.228 147.165 148.981 147.179 148.754 147.265Z" fill="#377DFF"/>
<path opacity="0.8" d="M192.242 148.828C191.127 147.115 187.943 146.143 186.174 146.95C186.765 141.537 180.215 140.517 177.244 144.29C171.944 139.745 165.703 147.565 171.355 151.615C167.347 155.406 170.663 162.611 176.153 162.031C177.004 166.75 183.215 169.749 185.898 164.852C192.782 170.367 198.254 160.918 191.974 155.714C192.811 154.776 193.296 153.576 193.345 152.319C193.394 151.063 193.004 149.828 192.242 148.828Z" fill="white"/>
<path opacity="0.8" d="M162.178 153.278L162.004 153.29C162.045 152.836 161.954 152.38 161.741 151.977C161.528 151.574 161.202 151.242 160.804 151.02C159.948 150.574 158.695 150.925 158.418 151.863C158.126 151.609 157.772 151.436 157.391 151.363C157.01 151.291 156.617 151.321 156.252 151.45C155.895 151.56 155.589 151.793 155.385 152.106C155.182 152.42 155.095 152.794 155.14 153.165C155.155 153.467 155.233 153.763 155.371 154.032C155.509 154.302 155.703 154.539 155.939 154.727C155.715 155.143 155.592 155.606 155.58 156.078C155.568 156.551 155.668 157.019 155.87 157.446C156.073 157.873 156.373 158.246 156.747 158.535C157.12 158.825 157.557 159.022 158.021 159.112C158.005 159.386 158.053 159.66 158.161 159.913C158.268 160.165 158.432 160.39 158.64 160.569C158.849 160.748 159.095 160.877 159.361 160.946C159.627 161.015 159.905 161.021 160.174 160.965C160.46 160.906 160.729 160.78 160.958 160.598C161.186 160.415 161.368 160.181 161.489 159.914C161.749 160.144 162.084 160.271 162.431 160.272C162.778 160.273 163.113 160.147 163.374 159.918C163.74 159.588 163.974 159.135 164.03 158.645C164.098 158.177 163.985 157.701 163.714 157.313C164.165 157.058 164.504 156.643 164.664 156.15C164.824 155.657 164.793 155.122 164.577 154.651C164.351 154.216 164.005 153.855 163.579 153.612C163.154 153.368 162.667 153.252 162.178 153.278Z" fill="white"/>
<path opacity="0.8" d="M148.754 147.265C148.446 147.362 148.179 147.557 147.992 147.821C147.894 147.614 147.724 147.449 147.515 147.357C147.305 147.265 147.07 147.251 146.851 147.317C146.73 147.378 146.626 147.466 146.547 147.576C146.468 147.685 146.416 147.812 146.397 147.945C146.361 148.213 146.399 148.485 146.506 148.733C146.533 148.784 146.546 148.841 146.545 148.899C146.523 148.969 146.482 149.032 146.427 149.081C146.268 149.252 146.165 149.468 146.133 149.7C146.1 149.931 146.14 150.168 146.246 150.376C146.352 150.584 146.52 150.755 146.726 150.865C146.933 150.975 147.168 151.019 147.401 150.991C147.415 151.318 147.522 151.635 147.709 151.903C147.836 152.096 148.023 152.241 148.241 152.317C148.458 152.393 148.695 152.396 148.914 152.324C149.033 152.291 149.143 152.231 149.235 152.15C149.328 152.068 149.401 151.967 149.449 151.853C149.497 151.74 149.52 151.617 149.514 151.494C149.509 151.371 149.476 151.25 149.418 151.141C149.582 151.217 149.764 151.244 149.943 151.217C150.122 151.191 150.289 151.113 150.424 150.993C150.554 150.868 150.65 150.711 150.703 150.537C150.755 150.364 150.761 150.18 150.722 150.003C150.68 149.828 150.6 149.664 150.489 149.522C150.377 149.38 150.236 149.264 150.076 149.182C150.258 148.958 150.356 148.679 150.353 148.391C150.351 148.103 150.249 147.825 150.064 147.604C149.908 147.419 149.698 147.287 149.463 147.226C149.228 147.165 148.981 147.179 148.754 147.265Z" fill="white"/>
<path d="M95.4914 198.565C96.1132 191.233 95.5332 188.148 96.2802 176.701C96.3684 173.764 96.5122 170.618 96.7442 167.825C97.5238 158.429 99.0178 155.227 99.1756 153.418C99.1756 153.418 99.1756 142.142 100.025 121.569C100.428 111.894 103.273 108.994 105.593 103.881L134.013 104.196C135.516 117.007 135.428 140.769 135.187 153.844C135.061 160.503 132.004 193.591 131.939 194.412C131.716 197.317 131.939 198.467 133.085 199.702C135.456 202.291 138.903 204.768 141.901 207.033C141.437 208.174 137.836 208.091 136.054 207.2C133.724 205.958 131.505 204.515 129.424 202.889C126.974 201.033 123.833 199.548 123.828 196.778C123.816 196.611 123.789 196.445 123.749 196.282C123.721 194.662 120.148 173.305 119.898 167.769C119.684 163.008 120.362 154.944 120.362 154.944L117.824 138.542C117.824 138.542 116.214 147.075 114.195 155.185C112.548 161.788 109.653 170.497 107.797 178.627C105.992 187.99 103.426 194.644 102.939 199.335C102.795 200.458 101.389 211.45 100.832 213.965C100.275 216.48 94.7537 216.484 94.4474 212.146C94.2479 209.251 95.3754 199.943 95.4914 198.565Z" fill="#C8856A"/>
<path d="M146.972 210.008C147.121 210.008 147.353 211.683 146.508 212.397C145.548 213.219 142.731 214.569 139.014 214.086C135.298 213.604 133.284 212.462 131.799 211.224C130.314 209.985 128.226 208.235 126.547 207.864C124.983 207.521 123.299 206.816 122.788 206.333C122.278 205.85 122.362 203.721 122.362 203.721L146.972 210.008Z" fill="#263238"/>
<path d="M123.679 195.492C123.679 195.492 123.401 195.492 123.304 195.998C123.188 196.587 123.062 198.318 122.816 199.246C122.473 200.587 122.241 203.338 122.445 204.433C122.649 205.529 125.197 206.289 126.821 206.907C128.735 207.741 130.512 208.859 132.092 210.224C133.836 211.658 137.511 213.096 139.933 213.133C143.645 213.189 146.03 212.205 146.773 210.869C147.701 209.231 146.972 208.285 142.722 206.322C141.919 205.951 139.093 204.285 138.128 203.682C137.108 203.047 136.141 202.33 135.238 201.538C134.784 201.134 134.352 200.706 133.943 200.257C133.518 199.859 133.155 199.399 132.867 198.893C132.82 198.777 132.788 198.647 132.746 198.531C132.626 198.21 132.533 197.88 132.468 197.543C132.398 197.19 132.356 196.675 132.004 196.467C131.522 196.269 130.996 196.207 130.482 196.286C129.931 196.324 129.383 196.401 128.844 196.518C128.217 196.657 127.493 196.713 127.122 197.297C126.875 197.769 126.754 198.296 126.77 198.828C126.77 199.074 126.77 199.325 126.77 199.571C126.77 199.677 126.816 199.868 126.668 199.821C126.519 199.775 126.366 199.408 126.315 199.283C126.199 199.009 126.12 198.712 125.995 198.439C125.852 198.121 125.675 197.821 125.466 197.543C125.267 197.292 125.041 197.064 124.793 196.861C124.54 196.723 124.297 196.568 124.065 196.397C123.849 196.14 123.715 195.825 123.679 195.492Z" fill="#37474F"/>
<path d="M143.409 206.666C138.05 207.028 136.361 210.318 136.133 212.355C137.352 212.813 138.633 213.083 139.933 213.153C143.645 213.208 146.184 212.225 146.921 210.888C147.789 209.348 147.204 208.1 143.409 206.666Z" fill="#FAFAFA"/>
<path d="M135.377 206.718C135.317 206.718 135.259 206.697 135.214 206.658C135.188 206.636 135.166 206.609 135.149 206.579C135.133 206.549 135.123 206.516 135.119 206.482C135.116 206.448 135.119 206.414 135.129 206.381C135.139 206.348 135.155 206.317 135.177 206.291C135.803 205.648 136.559 205.147 137.394 204.819C138.23 204.492 139.125 204.347 140.021 204.393C140.055 204.397 140.089 204.407 140.119 204.423C140.149 204.44 140.176 204.462 140.197 204.489C140.219 204.515 140.235 204.546 140.245 204.579C140.254 204.612 140.257 204.647 140.253 204.681C140.25 204.715 140.24 204.748 140.223 204.779C140.207 204.809 140.185 204.835 140.158 204.857C140.131 204.879 140.1 204.895 140.067 204.904C140.034 204.914 140 204.917 139.966 204.913C139.158 204.876 138.351 205.007 137.596 205.298C136.842 205.589 136.155 206.033 135.581 206.602C135.559 206.636 135.528 206.665 135.493 206.685C135.457 206.705 135.417 206.716 135.377 206.718Z" fill="#F0F0F0"/>
<path d="M133.076 205.376C133.015 205.376 132.956 205.357 132.909 205.32C132.882 205.298 132.86 205.272 132.844 205.242C132.827 205.212 132.817 205.178 132.814 205.144C132.81 205.11 132.814 205.076 132.824 205.043C132.833 205.01 132.85 204.98 132.871 204.953C133.497 204.31 134.253 203.808 135.088 203.48C135.924 203.153 136.82 203.008 137.716 203.056C137.751 203.057 137.787 203.065 137.819 203.08C137.852 203.096 137.88 203.118 137.904 203.145C137.928 203.172 137.945 203.203 137.956 203.237C137.967 203.272 137.97 203.308 137.967 203.343C137.963 203.379 137.952 203.413 137.934 203.445C137.916 203.476 137.892 203.503 137.863 203.524C137.834 203.545 137.801 203.561 137.766 203.569C137.731 203.577 137.695 203.577 137.66 203.571C136.85 203.536 136.042 203.67 135.287 203.965C134.532 204.26 133.847 204.708 133.275 205.283C133.25 205.312 133.22 205.335 133.185 205.351C133.151 205.367 133.114 205.375 133.076 205.376Z" fill="#F0F0F0"/>
<path d="M130.936 203.85C130.877 203.851 130.819 203.829 130.774 203.79C130.747 203.769 130.725 203.742 130.709 203.712C130.693 203.682 130.683 203.649 130.679 203.615C130.676 203.581 130.679 203.546 130.689 203.513C130.699 203.481 130.715 203.45 130.737 203.424C131.363 202.781 132.119 202.28 132.954 201.953C133.79 201.625 134.685 201.48 135.581 201.526C135.649 201.534 135.712 201.569 135.755 201.622C135.799 201.676 135.819 201.745 135.813 201.814C135.809 201.848 135.799 201.881 135.783 201.911C135.766 201.941 135.744 201.968 135.717 201.99C135.691 202.011 135.66 202.027 135.627 202.037C135.594 202.046 135.559 202.049 135.525 202.046C134.716 202.011 133.908 202.146 133.154 202.439C132.399 202.733 131.713 203.181 131.14 203.753C131.116 203.784 131.085 203.809 131.05 203.826C131.014 203.843 130.975 203.851 130.936 203.85Z" fill="#F0F0F0"/>
<path d="M128.844 202.324C128.784 202.324 128.726 202.302 128.681 202.264C128.628 202.221 128.594 202.159 128.586 202.091C128.578 202.024 128.597 201.956 128.639 201.902C129.669 200.612 131.989 199.763 133.934 199.976C133.968 199.98 134.001 199.99 134.031 200.006C134.061 200.023 134.087 200.045 134.108 200.072C134.129 200.099 134.145 200.13 134.154 200.162C134.163 200.195 134.165 200.23 134.161 200.264C134.158 200.298 134.147 200.331 134.131 200.361C134.115 200.392 134.092 200.418 134.066 200.44C134.039 200.461 134.008 200.478 133.975 200.487C133.942 200.497 133.907 200.5 133.873 200.496C132.124 200.306 129.962 201.08 129.052 202.222C129.027 202.253 128.996 202.279 128.96 202.297C128.923 202.314 128.884 202.324 128.844 202.324Z" fill="#F0F0F0"/>
<path d="M102.544 215.946C102.368 218.456 101.955 220.122 101.041 221.583C100.127 223.045 98.4332 223.49 96.7256 223.04C95.0181 222.59 92.8373 221.412 92.3733 219.236C91.9093 217.059 91.6402 215.575 92.0578 213.25L102.544 215.946Z" fill="#263238"/>
<path d="M95.5842 197.67C94.8789 197.716 94.6562 201.09 94.1922 204.463C93.7282 208.077 92.6099 209.567 92.183 212.527C91.719 215.914 92.248 217.436 93.4173 219.487C94.5866 221.538 98.7904 223.612 100.911 220.698C102.637 218.323 102.739 215.668 102.628 212.277C102.573 209.413 102.681 206.549 102.952 203.697C103.124 201.159 103.718 198.593 103.106 198.315C103.055 198.686 103.004 199.159 102.952 199.526C102.922 199.984 102.84 200.437 102.707 200.876C102.632 201.066 102.475 201.261 102.414 200.955C102.382 200.744 102.382 200.53 102.414 200.319C102.53 199.391 102.057 199.308 101.802 199.229C100.728 199.007 99.6443 198.841 98.5538 198.732C98.0155 198.691 96.1549 198.589 95.909 198.89C95.7501 199.192 95.6657 199.528 95.663 199.869C95.5934 200.38 95.4728 200.751 95.4589 200.593C95.431 200.227 95.5099 199.275 95.5238 199.048C95.5378 198.821 95.5749 198.528 95.5795 198.306C95.5842 198.083 95.5424 197.883 95.5842 197.67Z" fill="#37474F"/>
<path d="M91.9324 214.49C91.7841 216.303 92.2251 218.116 93.1899 219.659C94.3638 221.723 98.9063 223.793 101.027 220.879C102.08 219.431 102.382 217.705 102.544 215.947C101.319 213.668 93.9276 212.587 91.9324 214.49Z" fill="#FAFAFA"/>
<path d="M101.05 212.239H100.962C100.934 212.239 97.6859 210.847 94.4982 211.539C94.4306 211.552 94.3603 211.539 94.3022 211.502C94.2441 211.465 94.2029 211.406 94.1873 211.339C94.1799 211.306 94.1792 211.271 94.1852 211.238C94.1912 211.204 94.2039 211.172 94.2225 211.144C94.2411 211.115 94.2652 211.091 94.2935 211.072C94.3217 211.053 94.3534 211.039 94.3869 211.033C97.7555 210.295 101.068 211.71 101.194 211.771C101.255 211.802 101.302 211.855 101.325 211.92C101.347 211.985 101.343 212.056 101.314 212.119C101.287 212.162 101.247 212.197 101.2 212.219C101.153 212.24 101.101 212.247 101.05 212.239Z" fill="#F0F0F0"/>
<path d="M94.6884 208.991C94.6386 208.986 94.5913 208.966 94.5519 208.935C94.5126 208.904 94.4827 208.862 94.4657 208.815C94.4451 208.749 94.451 208.678 94.4822 208.616C94.5134 208.555 94.5674 208.508 94.6328 208.486C97.8112 207.456 101.3 209.094 101.43 209.163C101.461 209.179 101.488 209.2 101.51 209.227C101.532 209.253 101.549 209.284 101.559 209.317C101.569 209.35 101.572 209.384 101.568 209.418C101.565 209.453 101.554 209.486 101.537 209.516C101.504 209.576 101.448 209.621 101.382 209.641C101.317 209.661 101.246 209.654 101.184 209.623C101.157 209.623 97.7508 208.017 94.7952 208.978C94.7613 208.991 94.7246 208.996 94.6884 208.991Z" fill="#F0F0F0"/>
<path d="M94.8277 206.601C94.77 206.594 94.7163 206.568 94.6752 206.527C94.6341 206.486 94.6079 206.432 94.601 206.374C94.594 206.317 94.6067 206.258 94.6368 206.208C94.667 206.159 94.713 206.121 94.7674 206.1C98.2613 204.898 101.574 206.685 101.695 206.759C101.726 206.776 101.753 206.799 101.775 206.827C101.797 206.855 101.812 206.887 101.821 206.921C101.83 206.955 101.832 206.991 101.827 207.025C101.822 207.06 101.81 207.094 101.791 207.124C101.772 207.154 101.748 207.18 101.719 207.2C101.69 207.22 101.657 207.234 101.622 207.241C101.588 207.248 101.552 207.248 101.517 207.241C101.483 207.234 101.45 207.22 101.421 207.2C101.393 207.2 98.1731 205.474 94.9251 206.592C94.8934 206.6 94.8605 206.603 94.8277 206.601Z" fill="#F0F0F0"/>
<path d="M95.0275 204.281C94.9786 204.276 94.9322 204.257 94.8936 204.226C94.855 204.196 94.8258 204.155 94.8094 204.109C94.7869 204.044 94.7908 203.972 94.8202 203.91C94.8497 203.847 94.9024 203.799 94.9671 203.775C98.243 202.601 101.806 204.429 101.927 204.513C101.986 204.547 102.028 204.604 102.046 204.67C102.063 204.736 102.054 204.806 102.02 204.865C101.984 204.926 101.926 204.969 101.858 204.987C101.79 205.004 101.718 204.994 101.658 204.958C101.63 204.958 98.1734 203.172 95.1295 204.267C95.0968 204.278 95.0621 204.283 95.0275 204.281Z" fill="#EBEBEB"/>
<path d="M102.618 103.945C99.3705 109.666 99.2313 114.357 98.7069 131.465C98.1826 148.573 98.6095 150.025 98.5213 152.081C98.4332 154.136 97.1757 157.816 95.9972 167.968C95.2945 174.522 95.2106 181.128 95.7466 187.697C95.7466 187.697 96.4612 189.34 100.387 189.734C103.987 190.096 105.788 188.769 105.788 188.769C105.788 188.769 111.142 171.601 112.581 165.472C114.019 159.342 117.796 142.634 117.796 142.634L119.652 155.203C119.652 155.203 118.487 160.804 119.48 169.731C120.041 174.918 120.909 180.066 122.079 185.15C123.94 185.849 125.909 186.221 127.897 186.25C129.669 186.27 131.412 185.803 132.936 184.899C132.936 184.899 136.078 161.073 136.184 150.967C136.291 140.861 135.511 116.538 134.676 104.4L102.618 103.945Z" fill="#37474F"/>
<path d="M113.648 155.148C113.648 155.148 112.121 152.903 108.321 152.402C104.521 151.9 102.512 153.937 102.512 153.937C102.512 153.937 109.588 153.274 113.648 155.148ZM102.048 155.427C106.948 156.448 109.189 156.276 111.439 155.858C111.458 155.858 104.4 154.889 102.08 155.427H102.048Z" fill="#C8856A"/>
<path d="M136.087 153.603L136.133 152.508C132.857 152.044 127.623 153.032 126.213 153.821C129.488 153.412 132.797 153.339 136.087 153.603ZM128.528 155.097C130.718 155.709 135.952 156.025 135.952 156.025L136.017 154.999C136.017 154.999 132.273 154.869 128.528 155.097Z" fill="#C8856A"/>
<path d="M96.4147 188.436C96.5819 188.565 96.7588 188.681 96.9436 188.784C96.1363 172.799 98.4192 166.201 99.8251 160.099C99.9596 159.514 100.09 158.958 100.206 158.429C101.268 153.659 100.897 150.805 100.976 142.95C100.976 140.583 101.022 138.138 101.073 135.526C101.138 132.486 101.268 129.345 101.537 126.246C107.142 125.642 108.423 120.158 110.038 113.23C110.256 112.302 110.502 111.305 110.734 110.298L110.237 110.177C109.987 111.184 109.773 112.168 109.541 113.114C107.922 120.074 106.757 125.1 101.588 125.721C102.28 118.659 103.825 111.829 107.37 106.92L106.957 106.623C101.686 113.926 100.762 125.332 100.549 135.526C100.498 138.124 100.475 140.569 100.451 142.95C100.373 150.777 100.744 153.622 99.6952 158.322C99.5745 158.851 99.4492 159.408 99.3147 159.992C97.9273 166.066 95.6537 172.613 96.4147 188.436ZM121.229 124.807L117.773 142.634L119.629 155.204L119.814 143.14L122.134 131.118C122.204 132.315 122.273 133.544 122.343 134.797C122.932 145.135 123.271 153.069 122.714 155.529C121.146 162.266 121.536 166.53 122.25 174.279C122.324 175.063 122.399 175.884 122.473 176.747C122.858 181.123 123.359 182.895 123.651 185.712C123.814 185.754 123.99 185.8 124.18 185.842C123.888 183.03 123.373 181.169 122.983 176.701C122.904 175.838 122.83 175.017 122.761 174.232C122.06 166.539 121.675 162.303 123.225 155.645C123.814 153.111 123.484 145.645 122.867 134.765C122.756 132.793 122.645 130.881 122.547 129.057L123.039 126.891C125.494 126.334 129.442 124.515 130.199 121.16C126.366 125.03 121.229 124.807 121.229 124.807Z" fill="#263238"/>
<path d="M127.048 70.8066C132.041 71.7625 134.44 73.3633 137.038 77.7666C139.637 82.17 143.534 93.2735 143.483 95.7698H133.099L127.048 70.8066Z" fill="#C8856A"/>
<path d="M133.711 91.8117C135.924 91.2178 137.558 90.7955 138.718 90.8234C137.79 90.2063 133.614 90.9208 133.614 90.9208L133.711 91.8117Z" fill="#AF6152"/>
<path d="M126.802 70.4863C130.338 70.7647 132.908 71.7484 135.266 74.6345C137.623 77.5206 137.827 78.6388 139.075 81.794C140.323 84.9492 141.172 87.0511 141.172 87.0511C141.172 87.0511 138.797 91.306 131.08 90.6657L128.333 82.4343L126.802 70.4863Z" fill="#37474F"/>
<path d="M108.395 69.5215C108.395 69.5215 103.922 70.7 99.4588 72.3055C99.4588 72.3055 94.5636 74.2868 97.2362 88.6754C97.9137 92.3039 99.2871 97.5842 99.663 102.071C99.8764 104.618 99.7094 110.762 99.3706 115.991C99.3706 115.991 107.305 121.225 121.875 119.601C133.312 118.32 135.168 113.291 135.168 113.291C135.168 113.291 134.704 100.41 133.753 91.9002C132.384 79.6831 129.939 72.8484 126.793 70.4541L120.297 69.7581L108.395 69.5215Z" fill="#455A64"/>
<path d="M103.273 60.2645C104.358 62.3409 105.749 64.2428 107.398 65.9067C107.89 66.4511 108.573 66.7838 109.305 66.8347L108.196 62.501L107.347 59.5128C107.347 59.5128 109.263 56.7288 108.971 54.5063C108.869 53.6734 108.649 52.8594 108.317 52.0888L123.021 49.7688C123.021 49.7688 123.513 45.7877 120.942 43.3239C118.483 40.9621 115.374 39.8021 110.572 41.1663C104.711 42.8367 102.303 46.4605 102.442 49.0079C101.545 49.6345 100.918 50.5779 100.688 51.648C100.396 52.8637 100.447 54.9378 103.273 60.2645Z" fill="#263238"/>
<path d="M104.725 64.2733C104.875 64.3397 105.03 64.394 105.189 64.4357C105.609 64.5659 106.053 64.6023 106.488 64.5425C106.854 64.4394 107.188 64.2482 107.463 63.9857C107.785 63.7268 108.058 63.4125 108.27 63.0577L108.428 71.2658C112.39 76.1007 125.818 74.7737 120.283 69.9388L120.445 66.9738C121.091 66.8116 121.724 66.6006 122.338 66.3428C123.319 65.9802 124.17 65.3363 124.786 64.4919C125.401 63.6475 125.754 62.6402 125.8 61.5961C125.939 58.1949 123.707 51.3556 122.325 47.6761C122.112 47.1216 121.779 46.6209 121.351 46.2095C120.923 45.7981 120.409 45.4861 119.847 45.2957C117.197 44.6508 115.392 46.8594 112.381 48.9149C111.137 49.7687 107.866 50.7709 106.897 50.5436C107.665 51.2009 108.186 52.1015 108.372 53.0956C108.522 53.8225 108.542 54.5702 108.432 55.3042C108.27 55.9537 108.169 56.6171 108.131 57.2855C108.174 57.5917 108.124 57.9039 107.987 58.181C107.854 58.3255 107.677 58.4214 107.484 58.4533C107.29 58.4853 107.092 58.4515 106.92 58.3573C106.581 58.1631 106.269 57.9261 105.992 57.6521C105.6 57.3088 105.116 57.0878 104.6 57.0164C104.108 57.0009 103.624 57.1344 103.21 57.3994C102.796 57.6644 102.471 58.0485 102.28 58.5012C101.913 59.4266 101.903 60.455 102.252 61.3873C102.441 62.0138 102.759 62.594 103.184 63.0909C103.61 63.5878 104.135 63.9905 104.725 64.2733Z" fill="#C8856A"/>
<path d="M120.45 66.9647C117.852 67.54 115.471 67.7395 113.792 67.4287C112.112 67.1178 110.275 65.336 109.356 63.3594C109.736 65.0344 111.138 67.8323 113.745 68.5376C116.353 69.2429 118.664 68.7186 120.371 68.3706L120.45 66.9647Z" fill="#AF6152"/>
<path d="M113.68 51.2808L112.024 53.0765C111.786 52.8442 111.646 52.5289 111.634 52.1963C111.622 51.8636 111.738 51.5391 111.959 51.2901C112.069 51.1722 112.202 51.0781 112.35 51.0134C112.497 50.9487 112.657 50.9149 112.818 50.9141C112.979 50.9132 113.139 50.9453 113.287 51.0083C113.435 51.0714 113.569 51.1641 113.68 51.2808Z" fill="#263238"/>
<path d="M122.334 50.6969L119.875 50.8036C119.858 50.6439 119.873 50.4823 119.921 50.3288C119.969 50.1754 120.048 50.0333 120.152 49.9115C120.257 49.7897 120.386 49.6908 120.531 49.6207C120.675 49.5507 120.833 49.5111 120.993 49.5044C121.327 49.4949 121.651 49.613 121.9 49.8346C122.15 50.0562 122.305 50.3647 122.334 50.6969Z" fill="#263238"/>
<path d="M113.397 54.9976C113.457 55.1841 113.571 55.3487 113.724 55.4707C113.877 55.5928 114.063 55.6668 114.258 55.6835C114.453 55.7002 114.649 55.6588 114.821 55.5645C114.992 55.4703 115.132 55.3274 115.223 55.1538C115.314 54.9802 115.351 54.7837 115.33 54.5889C115.309 54.3942 115.232 54.2099 115.106 54.0593C114.981 53.9087 114.814 53.7985 114.627 53.7426C114.439 53.6866 114.239 53.6874 114.052 53.7448C113.926 53.7839 113.81 53.8474 113.709 53.9316C113.608 54.0158 113.525 54.119 113.464 54.2354C113.404 54.3518 113.366 54.479 113.355 54.6098C113.343 54.7406 113.358 54.8724 113.397 54.9976Z" fill="#263238"/>
<path d="M120.487 52.8456C120.548 53.0316 120.662 53.1955 120.815 53.3168C120.969 53.4381 121.155 53.5114 121.35 53.5275C121.544 53.5436 121.74 53.5017 121.911 53.4072C122.082 53.3127 122.222 53.1697 122.312 52.9962C122.402 52.8227 122.439 52.6264 122.418 52.4319C122.398 52.2374 122.32 52.0535 122.195 51.9031C122.07 51.7527 121.903 51.6425 121.716 51.5865C121.528 51.5305 121.328 51.5311 121.141 51.5882C121.015 51.6272 120.899 51.6909 120.797 51.7754C120.696 51.8599 120.613 51.9636 120.552 52.0805C120.491 52.1974 120.454 52.3252 120.443 52.4565C120.432 52.5879 120.447 52.7201 120.487 52.8456Z" fill="#263238"/>
<path d="M117.119 52.623L119.29 58.655L122.496 56.5206C121.019 54.8348 119.181 53.5027 117.119 52.623Z" fill="#AF6152"/>
<path d="M119.304 61.2118L119.276 61.184C119.234 61.1596 119.185 61.1483 119.137 61.1515C118.751 61.1788 118.363 61.1788 117.977 61.1515C117.642 61.1105 117.315 61.0198 117.007 60.8824C116.744 60.7072 116.468 60.5521 116.181 60.4184C116.163 60.4135 116.144 60.4127 116.126 60.4162C116.107 60.4197 116.09 60.4273 116.074 60.4384C116.059 60.4496 116.047 60.464 116.038 60.4806C116.029 60.4972 116.024 60.5156 116.023 60.5344C116.051 60.8267 116.487 61.0494 116.729 61.1747C117.019 61.3242 117.333 61.4216 117.657 61.4624C118.002 61.5064 118.351 61.5064 118.696 61.4624C118.871 61.4431 119.045 61.4121 119.216 61.3696C119.295 61.3185 119.341 61.2629 119.304 61.2118Z" fill="#AF6152"/>
<path d="M106.488 105.448C106.994 105.448 107.495 105.448 107.996 105.476C109.292 105.506 110.588 105.469 111.88 105.365C112.687 105.295 113.49 105.193 114.288 105.049C115.015 104.949 115.733 104.794 116.437 104.585C117.829 104.089 119.188 103.523 120.538 102.957C121.889 102.39 123.647 102.302 125.058 102.182C128.375 101.908 131.336 101.917 134.63 101.416C136.557 101.13 138.432 100.567 140.198 99.7457C141.335 99.1858 142.306 98.338 143.014 97.2865C143.896 95.8945 143.427 94.9665 142.198 94.1266C141.145 93.3982 138.078 91.8716 133.697 91.8066C131.605 92.3542 129.155 93.1754 126.835 93.9318C124.659 94.6463 123.007 95.231 120.803 95.7878C119.843 95.9897 118.854 96.018 117.884 95.8713C116.956 95.7414 116.163 95.4537 115.272 95.3098C114.14 95.0434 112.989 94.8711 111.829 94.7948C109.852 94.7948 107.829 95.4305 106.488 95.6114C105.147 95.7924 105.236 96.5394 106.247 97.0916C106.776 97.3074 107.35 97.3887 107.918 97.3282C108.553 97.3282 109.189 97.2818 109.825 97.3282C109.973 97.3282 110.265 97.3282 110.344 97.4721C110.423 97.6159 110.219 97.8154 110.08 97.8804C109.286 98.247 108.405 98.1449 107.556 98.1402H104.772C104.4 98.1402 104.025 98.1402 103.653 98.1402C103.129 98.1727 102.591 98.2516 102.298 98.7388C102.202 98.8825 102.155 99.0533 102.164 99.226C102.164 99.3698 102.247 99.4905 102.085 99.5972C101.952 99.6634 101.807 99.7013 101.658 99.7086C101.501 99.7421 101.355 99.8127 101.231 99.9145C101.108 100.016 101.01 100.146 100.947 100.293C100.884 100.441 100.857 100.601 100.868 100.761C100.88 100.921 100.93 101.075 101.013 101.212C101.152 101.407 101.335 101.566 101.547 101.676C101.655 101.725 101.753 101.794 101.834 101.88C101.892 101.961 101.935 102.05 101.964 102.145C102.066 102.386 102.226 102.6 102.428 102.766C102.807 103.045 103.252 103.22 103.718 103.277C104.108 103.346 104.502 103.393 104.897 103.434C105.43 103.495 105.964 103.578 106.502 103.648L107.194 103.727L107.542 103.764C107.653 103.764 107.764 103.782 107.871 103.815C107.806 103.88 107.537 103.852 107.44 103.857L106.943 103.889C106.628 103.912 106.312 103.945 106.015 103.996C105.799 104.027 105.589 104.093 105.393 104.191C105.223 104.264 105.083 104.395 104.999 104.56C104.914 104.725 104.889 104.914 104.929 105.096C104.964 105.163 105.015 105.22 105.078 105.263C105.14 105.306 105.212 105.333 105.287 105.342C105.424 105.371 105.564 105.391 105.704 105.402C105.927 105.448 106.21 105.448 106.488 105.448Z" fill="#C8856A"/>
<path d="M115.332 100.507C116.185 99.0178 116.844 97.4259 117.295 95.7701C116.608 95.6262 115.963 95.4267 115.267 95.3061C114.136 95.0396 112.984 94.8673 111.825 94.791C109.848 94.791 107.825 95.4267 106.484 95.6077C105.143 95.7886 105.231 96.5357 106.243 97.0878C106.771 97.3036 107.345 97.3849 107.913 97.3245C108.549 97.3245 109.184 97.2781 109.82 97.3245C109.969 97.3245 110.261 97.3245 110.34 97.4683C110.419 97.6121 110.214 97.8117 110.075 97.8766C109.282 98.2432 108.4 98.1411 107.551 98.1365H104.767C104.396 98.1365 104.02 98.1365 103.649 98.1365C103.125 98.1689 102.586 98.2478 102.294 98.735C102.198 98.8787 102.151 99.0496 102.159 99.2222C102.159 99.3429 102.215 99.4496 102.132 99.5424C102.334 99.6697 102.506 99.839 102.637 100.039L103.528 101.565C102.782 101.647 102.028 101.628 101.287 101.51C101.367 101.575 101.453 101.634 101.542 101.686C101.643 101.734 101.736 101.799 101.816 101.876C102.381 101.994 102.937 102.149 103.482 102.34C103.972 102.622 104.407 102.99 104.767 103.426H104.888C105.421 103.486 105.955 103.57 106.493 103.639L107.185 103.718L107.533 103.755C107.644 103.756 107.755 103.773 107.862 103.807C107.797 103.871 107.528 103.844 107.43 103.848L106.934 103.881C106.618 103.904 106.303 103.936 106.006 103.987C105.848 104.015 105.692 104.057 105.542 104.113C107.11 105.324 109.3 105.899 111.138 105.064C111.372 104.959 111.598 104.838 111.815 104.702C113.374 103.718 114.428 102.094 115.332 100.507Z" fill="#AF6152"/>
<path d="M109.277 104.924C107.421 104.761 105.764 104.613 103.092 100.321C101.018 96.9987 99.9273 94.8132 97.8857 90.164C95.8441 85.5147 94.3268 82.276 94.5171 79.3156C94.6702 76.8982 95.2873 74.2766 99.5283 72.6387C102.08 74.2627 105.597 78.847 107.226 82.9905C108.855 87.134 111.736 94.8736 111.736 94.8736L109.277 104.924Z" fill="#C8856A"/>
<path d="M99.4588 72.4531C95.0415 74.2581 93.4268 77.6035 94.6564 82.5683C96.0252 88.1363 99.7604 95.5603 99.7604 95.5603C99.7604 95.5603 102.257 95.6763 105.398 93.644C107.312 92.3757 108.813 90.5759 109.718 88.4658C109.718 88.4658 108.145 84.0485 107.291 81.696C105.607 77.0421 102.646 73.2094 99.4588 72.4531Z" fill="#37474F"/>
<path d="M104.799 95.784C104.929 90.782 107.207 87.7382 108.947 83.9937C110.687 80.2492 111.643 77.9942 112.284 75.7252C112.924 73.4563 113.253 70.1572 112.943 68.4775C112.682 67.1957 112.317 65.9372 111.852 64.7145C111.537 63.8793 111.875 63.7865 112.669 63.8236C113.462 63.8607 114.316 64.2366 115.054 65.6796C115.791 67.1227 115.982 67.9996 116.33 67.93C116.678 67.8604 118.404 65.8467 119.411 64.9001C120.418 63.9535 120.803 63.9257 122.362 63.7355C123.604 63.5508 124.869 63.579 126.102 63.819C126.742 64.0185 127.684 64.9233 128.069 65.211C128.607 65.6286 127.698 66.3942 126.677 66.0323L125.675 65.675C126.069 65.9812 126.041 66.4035 126.102 66.9278C126.122 67.2813 126.011 67.6299 125.791 67.9068C125.791 67.9068 126.162 68.0182 126.301 68.6817C126.385 69.08 126.369 69.4928 126.255 69.8835C126.37 69.8693 126.487 69.8905 126.589 69.9444C126.692 69.9983 126.776 70.0823 126.83 70.1851C127.057 70.5563 127.359 71.1548 126.023 72.3705C124.686 73.5862 123.703 74.4028 122.552 75.354C121.783 75.9399 121.113 76.6448 120.566 77.442C119.865 78.4628 119.638 80.1843 119.207 82.9543C118.214 89.0977 118.023 90.6243 116.97 94.378C116.172 97.2316 115.235 100.187 112.131 103.384C109.393 106.205 107.574 104.581 106.502 102.558C105.462 100.446 104.882 98.137 104.799 95.784Z" fill="#C8856A"/>
<path d="M104.8 95.7828C104.684 91.1428 107.352 87.1663 109.17 83.1016C110.125 81.067 110.977 78.9856 111.722 76.8655C112.63 74.2236 112.98 71.4227 112.753 68.6388C112.487 67.2664 112.1 65.9201 111.597 64.6159C111.133 63.2703 113.063 63.5301 113.759 63.9245C115.077 64.6809 115.453 66.2445 116.079 67.4973C116.13 67.604 116.246 67.8082 116.293 67.7804C117.643 66.7178 118.669 65.1959 120.116 64.1983C120.625 63.9168 121.192 63.758 121.773 63.7343C122.897 63.5805 124.034 63.5494 125.165 63.6415C126.371 63.6415 127.229 64.5184 128.065 65.2608C127.201 64.5648 126.338 63.725 125.155 63.7621C124.035 63.7033 122.912 63.7655 121.805 63.9477C121.259 63.9831 120.727 64.1417 120.251 64.4117C118.808 65.4418 117.852 67.0055 116.432 68.0959C115.861 68.3372 115.601 67.2421 115.393 66.8895C114.929 65.929 114.525 64.8015 113.565 64.2725C113.103 64.0418 112.578 63.967 112.07 64.0591C111.843 64.1148 111.95 64.3096 111.987 64.4952C112.66 66.3512 113.351 68.3 113.277 70.2999C113.277 74.8889 111.421 79.1855 109.477 83.2501C107.533 87.3148 104.878 91.1381 104.795 95.7781L104.8 95.7828Z" fill="#AF6152"/>
<path d="M121.657 66.2677C122.835 65.6135 124.441 64.7829 125.694 65.7109C125.042 65.4972 124.339 65.507 123.694 65.7388C123.095 65.9104 122.26 66.1332 121.657 66.2677Z" fill="#AF6152"/>
<path d="M122.751 68.7926C123.643 68.167 124.723 67.8687 125.809 67.9481C124.813 68.3057 123.79 68.588 122.751 68.7926Z" fill="#AF6152"/>
<path d="M123.61 71.2377C124.461 70.7285 125.352 70.2878 126.273 69.9199C125.577 70.6709 124.629 71.1398 123.61 71.2377Z" fill="#AF6152"/>
<path d="M201.088 101.307C201.722 101.01 202.374 100.756 203.042 100.546C203.75 100.325 204.477 100.17 205.213 100.082C206.005 99.9889 206.804 99.9749 207.598 100.041C208.49 100.113 209.371 100.278 210.229 100.532C211.386 100.855 212.482 101.363 213.477 102.036C214.353 102.626 215.102 103.384 215.681 104.268C216.225 105.109 216.577 106.059 216.711 107.052C216.846 108.127 216.751 109.218 216.433 110.253C216.177 111.223 215.74 112.134 215.143 112.94C214.641 113.605 214.04 114.188 213.361 114.671C212.741 115.108 212.072 115.469 211.366 115.747L209.412 116.494C208.855 116.705 208.313 116.953 207.788 117.236C207.348 117.467 206.993 117.833 206.777 118.28L205.385 121.273L201.756 120.225L202.406 116.615C202.483 115.981 202.765 115.39 203.209 114.93C203.652 114.489 204.166 114.127 204.731 113.859C205.348 113.557 205.985 113.298 206.638 113.084C207.319 112.859 207.983 112.584 208.624 112.262C209.251 111.947 209.828 111.541 210.336 111.056C210.868 110.523 211.249 109.859 211.44 109.13C211.586 108.656 211.624 108.155 211.551 107.664C211.477 107.205 211.307 106.767 211.05 106.379C210.774 105.97 210.421 105.618 210.011 105.344C209.555 105.036 209.052 104.805 208.521 104.657C207.826 104.439 207.102 104.326 206.373 104.323C205.83 104.33 205.289 104.392 204.758 104.509C204.294 104.616 203.909 104.722 203.585 104.82C203.327 104.918 203.046 104.937 202.777 104.875C202.545 104.824 202.333 104.705 202.168 104.533C202.003 104.361 201.892 104.145 201.849 103.91L201.088 101.307ZM198.499 125.435C198.623 124.999 198.833 124.592 199.116 124.238C199.381 123.897 199.713 123.613 200.091 123.403C200.887 122.978 201.817 122.88 202.684 123.129C203.124 123.254 203.533 123.469 203.886 123.76C204.222 124.034 204.503 124.367 204.717 124.744C205.151 125.53 205.256 126.456 205.009 127.319C204.886 127.747 204.679 128.146 204.4 128.494C204.121 128.841 203.776 129.129 203.385 129.342C202.593 129.76 201.669 129.852 200.81 129.597C200.368 129.471 199.955 129.26 199.594 128.976C199.255 128.708 198.971 128.377 198.759 128.001C198.554 127.625 198.424 127.212 198.378 126.786C198.329 126.33 198.37 125.87 198.499 125.431V125.435Z" fill="#F0F0F0"/>
<path d="M54.1859 182.008C53.8649 182.582 53.5052 183.134 53.1094 183.659C52.2398 184.82 51.1524 185.801 49.9078 186.546C49.1873 186.979 48.4238 187.337 47.6296 187.613C46.5685 188.002 45.4512 188.217 44.3213 188.248C43.3282 188.277 42.3392 188.109 41.412 187.752C40.5319 187.406 39.7395 186.868 39.092 186.179C38.3972 185.433 37.8703 184.547 37.5469 183.581C37.2111 182.699 37.0442 181.763 37.055 180.82C37.0786 180.038 37.2177 179.264 37.468 178.523C37.6991 177.849 38.0107 177.206 38.396 176.607L39.4771 174.964C39.789 174.499 40.0665 174.012 40.3077 173.507C40.5208 173.091 40.5924 172.617 40.5118 172.157L39.9411 169.099L43.2865 167.911L44.7713 171.025C45.0582 171.552 45.1673 172.157 45.0822 172.751C44.9837 173.331 44.7892 173.891 44.5069 174.407C44.199 174.976 43.8533 175.523 43.4721 176.045C43.0772 176.591 42.7221 177.165 42.4096 177.762C42.1008 178.344 41.8818 178.97 41.76 179.618C41.6485 180.318 41.7221 181.034 41.9734 181.697C42.1215 182.139 42.3655 182.543 42.688 182.88C42.9957 183.19 43.3658 183.43 43.7737 183.585C44.2083 183.747 44.67 183.822 45.1333 183.808C45.6496 183.79 46.16 183.691 46.6459 183.516C47.2989 183.301 47.9153 182.988 48.4741 182.588C48.8844 182.286 49.2623 181.942 49.6016 181.562C49.8939 181.228 50.1352 180.936 50.3301 180.681C50.474 180.465 50.677 180.296 50.9147 180.193C51.1212 180.106 51.3487 180.082 51.5691 180.123C51.7894 180.164 51.9927 180.269 52.1536 180.425L54.1859 182.008ZM42.9293 162.162C43.075 162.563 43.1397 162.989 43.1195 163.415C43.102 163.82 43.0043 164.218 42.8318 164.584C42.6453 164.966 42.3853 165.306 42.0668 165.586C41.7483 165.867 41.3775 166.081 40.9758 166.218C40.5719 166.364 40.1424 166.425 39.7137 166.399C39.3079 166.37 38.9103 166.27 38.5398 166.102C38.1786 165.923 37.8544 165.677 37.584 165.378C37.2962 165.064 37.0753 164.694 36.9344 164.292C36.7841 163.889 36.7224 163.459 36.7534 163.03C36.777 162.624 36.8811 162.226 37.0597 161.861C37.2406 161.497 37.4894 161.171 37.7928 160.9C38.1114 160.614 38.4835 160.393 38.8878 160.251C39.295 160.104 39.727 160.04 40.1592 160.06C40.5643 160.073 40.9626 160.169 41.3291 160.342C41.6955 160.515 42.0223 160.762 42.2889 161.067C42.5753 161.385 42.7932 161.757 42.9293 162.162Z" fill="#E0E0E0"/>
<path d="M187.818 192.169C187.443 192.123 187.082 192.002 186.755 191.812C186.429 191.622 186.145 191.368 185.92 191.065L180.496 183.747C180.283 183.459 180.129 183.131 180.044 182.783C179.958 182.435 179.943 182.073 180 181.719C180.056 181.364 180.182 181.025 180.371 180.72C180.559 180.415 180.807 180.151 181.099 179.943C181.694 179.515 182.433 179.339 183.156 179.453C183.88 179.567 184.529 179.961 184.964 180.55L188.477 185.306L199.52 174.583C200.045 174.073 200.75 173.791 201.482 173.797C202.214 173.803 202.915 174.097 203.431 174.616C203.688 174.867 203.892 175.167 204.032 175.498C204.171 175.829 204.243 176.185 204.243 176.544C204.243 176.903 204.171 177.259 204.032 177.59C203.892 177.921 203.688 178.221 203.431 178.472L190.101 191.408C189.816 191.684 189.475 191.896 189.101 192.03C188.727 192.164 188.329 192.216 187.934 192.183L187.818 192.169Z" fill="#E6E6E6"/>
<path d="M29.2783 68.7916C28.8907 68.8591 28.4934 68.8462 28.111 68.7536C27.7286 68.661 27.3694 68.4907 27.0557 68.2533L19.4507 62.5369C19.1366 62.3149 18.8702 62.0321 18.6674 61.7052C18.4646 61.3783 18.3295 61.014 18.2702 60.634C18.2109 60.2539 18.2285 59.8658 18.3221 59.4926C18.4156 59.1195 18.5831 58.769 18.8147 58.4618C19.0463 58.1547 19.3373 57.8972 19.6703 57.7046C20.0033 57.5121 20.3716 57.3884 20.7533 57.3409C21.1351 57.2934 21.5225 57.323 21.8925 57.4281C22.2626 57.5332 22.6077 57.7115 22.9075 57.9525L27.8491 61.6645L35.5283 47.4661C35.8951 46.7961 36.5129 46.2991 37.2461 46.0846C37.9792 45.8701 38.7675 45.9557 39.4375 46.3224C40.1076 46.6891 40.6045 47.307 40.819 48.0401C41.0335 48.7732 40.948 49.5615 40.5813 50.2316L31.3013 67.3671C31.1045 67.7309 30.8314 68.0478 30.5006 68.2961C30.1698 68.5443 29.7892 68.7181 29.385 68.8055L29.2783 68.7916Z" fill="#F0F0F0"/>
<path d="M25.2045 131.696C25.2258 131.757 25.2595 131.813 25.3036 131.86C25.3477 131.907 25.4012 131.945 25.4606 131.97C25.52 131.995 25.584 132.008 25.6486 132.007C25.7131 132.006 25.7768 131.992 25.8356 131.965L31.7887 129.548C31.908 129.5 32.0035 129.406 32.0539 129.288C32.1044 129.17 32.1058 129.036 32.0578 128.917C32.0098 128.797 31.9163 128.702 31.798 128.652C31.6797 128.601 31.5461 128.6 31.4268 128.648L25.469 131.065C25.4084 131.087 25.3531 131.121 25.3064 131.165C25.2597 131.21 25.2228 131.263 25.1979 131.322C25.173 131.382 25.1608 131.446 25.1619 131.51C25.1631 131.574 25.1776 131.638 25.2045 131.696ZM32.1042 130.304L26.1464 132.726C26.0865 132.748 26.0316 132.782 25.9854 132.826C25.9391 132.87 25.9025 132.923 25.8776 132.982C25.8528 133.041 25.8404 133.104 25.8411 133.168C25.8419 133.231 25.8558 133.294 25.882 133.353C26.3038 134.181 27.0214 134.821 27.8927 135.146C28.7639 135.471 29.7254 135.458 30.587 135.108C31.4485 134.758 32.1473 134.097 32.5451 133.256C32.9429 132.416 33.0108 131.457 32.7352 130.569C32.6833 130.453 32.5884 130.362 32.4705 130.315C32.3527 130.269 32.2213 130.27 32.1042 130.318V130.304ZM23.9935 118.904V118.871C24.1332 118.302 24.0449 117.701 23.7476 117.196C23.691 117.125 23.6113 117.076 23.5224 117.057C23.4334 117.039 23.3407 117.052 23.2604 117.094C23.1715 117.117 23.0942 117.172 23.0429 117.248C22.9917 117.324 22.97 117.416 22.9819 117.507C23.0448 117.793 23.1642 118.063 23.3331 118.302C23.5021 118.541 23.7171 118.744 23.9656 118.899L23.9935 118.904ZM23.0191 122.3C23.3523 122.593 23.6625 122.911 23.9471 123.251C25.3391 124.885 26.0583 126.801 26.7311 128.485C26.7914 128.634 26.8517 128.787 26.9074 128.949L27.0884 129.413L29.1439 128.583C29.0186 128.281 28.9026 127.989 28.7727 127.683C28.1045 126.105 27.2693 124.151 27.1116 122.008C27.0719 121.566 27.0719 121.122 27.1116 120.681H27.0837C26.209 120.698 25.3412 120.524 24.541 120.17H24.4992V120.194C24.3821 120.476 24.2441 120.749 24.0863 121.01C23.7969 121.49 23.4371 121.923 23.0191 122.295V122.3ZM20.5738 109.16C19.3016 109.605 18.1332 110.304 17.1394 111.214C16.1457 112.125 15.3473 113.228 14.7927 114.456C14.2381 115.685 13.939 117.013 13.9134 118.361C13.8878 119.708 14.1363 121.047 14.6439 122.295C15.3001 123.894 16.36 125.295 17.7198 126.361C19.0797 127.427 20.693 128.123 22.4019 128.379C22.8564 128.444 23.2861 128.626 23.6489 128.908C24.0117 129.189 24.2951 129.56 24.4714 129.984C24.5147 130.091 24.5985 130.176 24.7046 130.221C24.8107 130.267 24.9304 130.268 25.0375 130.225L26.3042 129.71C26.1882 129.418 26.0629 129.116 25.9376 128.782C25.2741 127.079 24.5828 125.311 23.316 123.794C23.0223 123.441 22.6961 123.117 22.3416 122.824C21.7152 123.273 20.9448 123.473 20.1794 123.386C19.9706 123.35 19.7796 123.246 19.6367 123.09C19.4938 122.934 19.4072 122.734 19.3906 122.523C19.3697 122.278 19.4303 122.033 19.5628 121.825C19.6953 121.618 19.8925 121.461 20.1237 121.377C20.7223 121.131 21.5157 121.284 22.337 121.785C22.7487 121.432 23.0971 121.012 23.3671 120.542C23.5202 120.288 23.6506 120.02 23.7568 119.743C22.8288 119.154 22.2164 118.324 22.17 117.572C22.1512 117.308 22.2157 117.044 22.3545 116.819C22.4933 116.593 22.6994 116.416 22.9437 116.314C23.188 116.212 23.4583 116.188 23.7165 116.247C23.9748 116.307 24.2079 116.445 24.3832 116.644C24.8797 117.219 25.0189 118.245 24.7637 119.321C25.0358 119.448 25.3184 119.55 25.6082 119.627C26.1287 119.773 26.6694 119.832 27.209 119.804C27.2673 119.415 27.415 119.045 27.6405 118.723C27.8659 118.401 28.1629 118.136 28.5082 117.948C28.7344 117.847 28.9876 117.823 29.2285 117.881C29.4694 117.939 29.6843 118.075 29.8399 118.268C29.9768 118.43 30.0542 118.633 30.0593 118.845C30.0644 119.057 29.9968 119.264 29.8677 119.433C29.3818 120.029 28.6896 120.422 27.9282 120.532C27.8746 120.994 27.8668 121.461 27.905 121.924C28.0581 123.896 28.7959 125.636 29.5104 127.353L29.5522 127.446C29.6682 127.715 29.7749 127.979 29.8816 128.244L31.1483 127.729C31.2548 127.684 31.3409 127.602 31.3896 127.497C31.4289 127.387 31.4289 127.268 31.3896 127.158C31.2175 126.731 31.1608 126.266 31.2251 125.81C31.2895 125.354 31.4726 124.923 31.7562 124.56C32.8213 123.165 33.4983 121.514 33.7183 119.773C33.9383 118.032 33.6936 116.264 33.009 114.649C31.9958 112.346 30.1579 110.506 27.8568 109.491C25.5556 108.475 22.9576 108.357 20.5738 109.16ZM20.1887 122.472C20.1887 122.527 20.2304 122.555 20.3372 122.583C20.6772 122.618 21.0203 122.561 21.3301 122.416C21.3951 122.388 21.4554 122.365 21.5157 122.333C21.1849 122.136 20.7923 122.072 20.416 122.152C20.3472 122.174 20.2877 122.218 20.2466 122.278C20.2055 122.337 20.1851 122.409 20.1887 122.481V122.472ZM29.1949 118.992C29.2506 118.89 29.2599 118.848 29.2228 118.802C29.1775 118.746 29.1144 118.708 29.0442 118.694C28.9741 118.679 28.9011 118.689 28.8376 118.723C28.5088 118.922 28.2657 119.236 28.1556 119.604V119.641H28.1927L28.3968 119.567C28.7094 119.454 28.9853 119.259 29.1949 119.001V118.992Z" fill="#F0F0F0"/>
<path d="M169.956 71.4209L171.938 63.0469H173.046L173.299 64.4414L171.187 73H169.997L169.956 71.4209ZM168.938 63.0469L170.578 71.4209L170.441 73H169.115L166.907 63.0469H168.938ZM175.042 71.3867L176.662 63.0469H178.692L176.491 73H175.165L175.042 71.3867ZM173.668 63.0469L175.664 71.4551L175.609 73H174.42L172.294 64.4346L172.567 63.0469H173.668ZM181.604 62.5V73H179.636V62.5H181.604ZM181.324 69.042H180.784C180.789 68.527 180.857 68.0531 180.989 67.6201C181.121 67.1826 181.311 66.8044 181.557 66.4854C181.803 66.1618 182.097 65.9111 182.438 65.7334C182.785 65.5557 183.168 65.4668 183.587 65.4668C183.951 65.4668 184.282 65.5192 184.578 65.624C184.879 65.7243 185.136 65.8883 185.351 66.1162C185.569 66.3395 185.738 66.6335 185.856 66.998C185.975 67.3626 186.034 67.8047 186.034 68.3242V73H184.052V68.3105C184.052 67.9824 184.004 67.7249 183.908 67.5381C183.817 67.3467 183.683 67.2122 183.505 67.1348C183.332 67.0527 183.118 67.0117 182.862 67.0117C182.58 67.0117 182.338 67.0641 182.138 67.1689C181.942 67.2738 181.785 67.4196 181.666 67.6064C181.548 67.7887 181.461 68.0029 181.406 68.249C181.352 68.4951 181.324 68.7594 181.324 69.042ZM189.609 65.6035V73H187.634V65.6035H189.609ZM187.511 63.6758C187.511 63.3887 187.611 63.1517 187.812 62.9648C188.012 62.778 188.281 62.6846 188.618 62.6846C188.951 62.6846 189.217 62.778 189.418 62.9648C189.623 63.1517 189.726 63.3887 189.726 63.6758C189.726 63.9629 189.623 64.1999 189.418 64.3867C189.217 64.5736 188.951 64.667 188.618 64.667C188.281 64.667 188.012 64.5736 187.812 64.3867C187.611 64.1999 187.511 63.9629 187.511 63.6758ZM194.292 71.5986C194.534 71.5986 194.748 71.5531 194.935 71.4619C195.121 71.3662 195.267 71.234 195.372 71.0654C195.481 70.8923 195.538 70.6895 195.543 70.457H197.396C197.391 70.9766 197.252 71.4391 196.979 71.8447C196.705 72.2458 196.338 72.5625 195.878 72.7949C195.418 73.0228 194.903 73.1367 194.333 73.1367C193.759 73.1367 193.257 73.041 192.829 72.8496C192.405 72.6582 192.052 72.3939 191.77 72.0566C191.487 71.7148 191.275 71.3184 191.134 70.8672C190.993 70.4115 190.922 69.9238 190.922 69.4043V69.2061C190.922 68.682 190.993 68.1943 191.134 67.7432C191.275 67.2874 191.487 66.891 191.77 66.5537C192.052 66.2119 192.405 65.9453 192.829 65.7539C193.253 65.5625 193.75 65.4668 194.319 65.4668C194.925 65.4668 195.456 65.583 195.912 65.8154C196.372 66.0479 196.732 66.3805 196.992 66.8135C197.257 67.2419 197.391 67.75 197.396 68.3379H195.543C195.538 68.0918 195.486 67.8685 195.386 67.668C195.29 67.4674 195.149 67.3079 194.962 67.1895C194.78 67.0664 194.554 67.0049 194.285 67.0049C193.998 67.0049 193.763 67.0664 193.581 67.1895C193.399 67.3079 193.257 67.472 193.157 67.6816C193.057 67.8867 192.986 68.1214 192.945 68.3857C192.909 68.6455 192.891 68.9189 192.891 69.2061V69.4043C192.891 69.6914 192.909 69.9671 192.945 70.2314C192.982 70.4958 193.05 70.7305 193.15 70.9355C193.255 71.1406 193.399 71.3024 193.581 71.4209C193.763 71.5394 194 71.5986 194.292 71.5986ZM200.458 62.5V73H198.489V62.5H200.458ZM200.178 69.042H199.638C199.642 68.527 199.711 68.0531 199.843 67.6201C199.975 67.1826 200.164 66.8044 200.41 66.4854C200.656 66.1618 200.95 65.9111 201.292 65.7334C201.638 65.5557 202.021 65.4668 202.44 65.4668C202.805 65.4668 203.135 65.5192 203.432 65.624C203.732 65.7243 203.99 65.8883 204.204 66.1162C204.423 66.3395 204.591 66.6335 204.71 66.998C204.828 67.3626 204.888 67.8047 204.888 68.3242V73H202.905V68.3105C202.905 67.9824 202.857 67.7249 202.762 67.5381C202.671 67.3467 202.536 67.2122 202.358 67.1348C202.185 67.0527 201.971 67.0117 201.716 67.0117C201.433 67.0117 201.192 67.0641 200.991 67.1689C200.795 67.2738 200.638 67.4196 200.52 67.6064C200.401 67.7887 200.314 68.0029 200.26 68.249C200.205 68.4951 200.178 68.7594 200.178 69.042ZM212.927 71.5986C213.168 71.5986 213.382 71.5531 213.569 71.4619C213.756 71.3662 213.902 71.234 214.007 71.0654C214.116 70.8923 214.173 70.6895 214.178 70.457H216.03C216.026 70.9766 215.887 71.4391 215.613 71.8447C215.34 72.2458 214.973 72.5625 214.513 72.7949C214.052 73.0228 213.537 73.1367 212.968 73.1367C212.394 73.1367 211.892 73.041 211.464 72.8496C211.04 72.6582 210.687 72.3939 210.404 72.0566C210.122 71.7148 209.91 71.3184 209.769 70.8672C209.627 70.4115 209.557 69.9238 209.557 69.4043V69.2061C209.557 68.682 209.627 68.1943 209.769 67.7432C209.91 67.2874 210.122 66.891 210.404 66.5537C210.687 66.2119 211.04 65.9453 211.464 65.7539C211.888 65.5625 212.384 65.4668 212.954 65.4668C213.56 65.4668 214.091 65.583 214.547 65.8154C215.007 66.0479 215.367 66.3805 215.627 66.8135C215.891 67.2419 216.026 67.75 216.03 68.3379H214.178C214.173 68.0918 214.121 67.8685 214.021 67.668C213.925 67.4674 213.784 67.3079 213.597 67.1895C213.414 67.0664 213.189 67.0049 212.92 67.0049C212.633 67.0049 212.398 67.0664 212.216 67.1895C212.034 67.3079 211.892 67.472 211.792 67.6816C211.692 67.8867 211.621 68.1214 211.58 68.3857C211.544 68.6455 211.525 68.9189 211.525 69.2061V69.4043C211.525 69.6914 211.544 69.9671 211.58 70.2314C211.617 70.4958 211.685 70.7305 211.785 70.9355C211.89 71.1406 212.034 71.3024 212.216 71.4209C212.398 71.5394 212.635 71.5986 212.927 71.5986ZM216.857 69.377V69.2334C216.857 68.6911 216.935 68.1921 217.09 67.7363C217.245 67.276 217.47 66.8773 217.767 66.54C218.063 66.2028 218.427 65.9408 218.86 65.7539C219.293 65.5625 219.79 65.4668 220.351 65.4668C220.911 65.4668 221.41 65.5625 221.848 65.7539C222.285 65.9408 222.652 66.2028 222.948 66.54C223.249 66.8773 223.477 67.276 223.632 67.7363C223.787 68.1921 223.864 68.6911 223.864 69.2334V69.377C223.864 69.9147 223.787 70.4137 223.632 70.874C223.477 71.3298 223.249 71.7285 222.948 72.0703C222.652 72.4076 222.287 72.6696 221.854 72.8564C221.422 73.0433 220.925 73.1367 220.364 73.1367C219.804 73.1367 219.305 73.0433 218.867 72.8564C218.434 72.6696 218.067 72.4076 217.767 72.0703C217.47 71.7285 217.245 71.3298 217.09 70.874C216.935 70.4137 216.857 69.9147 216.857 69.377ZM218.826 69.2334V69.377C218.826 69.6868 218.854 69.9762 218.908 70.2451C218.963 70.514 219.049 70.751 219.168 70.9561C219.291 71.1566 219.451 71.3138 219.646 71.4277C219.842 71.5417 220.082 71.5986 220.364 71.5986C220.638 71.5986 220.872 71.5417 221.068 71.4277C221.264 71.3138 221.422 71.1566 221.54 70.9561C221.659 70.751 221.745 70.514 221.8 70.2451C221.859 69.9762 221.889 69.6868 221.889 69.377V69.2334C221.889 68.9326 221.859 68.6501 221.8 68.3857C221.745 68.1169 221.656 67.8799 221.533 67.6748C221.415 67.4652 221.257 67.3011 221.062 67.1826C220.866 67.0641 220.629 67.0049 220.351 67.0049C220.073 67.0049 219.836 67.0641 219.64 67.1826C219.448 67.3011 219.291 67.4652 219.168 67.6748C219.049 67.8799 218.963 68.1169 218.908 68.3857C218.854 68.6501 218.826 68.9326 218.826 69.2334ZM229.449 71.2295V65.6035H231.418V73H229.565L229.449 71.2295ZM229.668 69.7119L230.249 69.6982C230.249 70.1904 230.192 70.6484 230.078 71.0723C229.964 71.4915 229.793 71.8561 229.565 72.166C229.338 72.4714 229.05 72.7106 228.704 72.8838C228.358 73.0524 227.95 73.1367 227.48 73.1367C227.12 73.1367 226.788 73.0866 226.482 72.9863C226.182 72.8815 225.922 72.7197 225.703 72.501C225.489 72.2777 225.32 71.9928 225.197 71.6465C225.079 71.2956 225.02 70.874 225.02 70.3818V65.6035H226.988V70.3955C226.988 70.6143 227.013 70.7988 227.063 70.9492C227.118 71.0996 227.193 71.2227 227.289 71.3184C227.385 71.4141 227.496 71.4824 227.624 71.5234C227.756 71.5645 227.902 71.585 228.062 71.585C228.467 71.585 228.786 71.5029 229.019 71.3389C229.256 71.1748 229.422 70.9515 229.518 70.6689C229.618 70.3818 229.668 70.0628 229.668 69.7119ZM234.85 67.1826V73H232.881V65.6035H234.727L234.85 67.1826ZM234.562 69.042H234.029C234.029 68.4951 234.1 68.0029 234.241 67.5654C234.382 67.1234 234.581 66.7474 234.836 66.4375C235.091 66.123 235.394 65.8838 235.745 65.7197C236.101 65.5511 236.497 65.4668 236.935 65.4668C237.281 65.4668 237.598 65.5169 237.885 65.6172C238.172 65.7174 238.418 65.877 238.623 66.0957C238.833 66.3145 238.992 66.6038 239.102 66.9639C239.215 67.3239 239.272 67.7637 239.272 68.2832V73H237.29V68.2764C237.29 67.9482 237.244 67.693 237.153 67.5107C237.062 67.3285 236.928 67.2008 236.75 67.1279C236.577 67.0505 236.363 67.0117 236.107 67.0117C235.843 67.0117 235.613 67.0641 235.417 67.1689C235.226 67.2738 235.066 67.4196 234.938 67.6064C234.815 67.7887 234.722 68.0029 234.658 68.249C234.594 68.4951 234.562 68.7594 234.562 69.042ZM244.393 65.6035V66.998H240.086V65.6035H244.393ZM241.152 63.7783H243.121V70.7715C243.121 70.9857 243.148 71.1497 243.203 71.2637C243.262 71.3776 243.349 71.4574 243.463 71.5029C243.577 71.5439 243.72 71.5645 243.894 71.5645C244.017 71.5645 244.126 71.5599 244.222 71.5508C244.322 71.5371 244.406 71.5234 244.475 71.5098L244.481 72.959C244.313 73.0137 244.131 73.057 243.935 73.0889C243.739 73.1208 243.522 73.1367 243.285 73.1367C242.852 73.1367 242.474 73.0661 242.15 72.9248C241.831 72.779 241.585 72.5465 241.412 72.2275C241.239 71.9085 241.152 71.4893 241.152 70.9697V63.7783ZM247.482 67.2168V73H245.514V65.6035H247.366L247.482 67.2168ZM249.711 65.5557L249.677 67.3809C249.581 67.3672 249.465 67.3558 249.328 67.3467C249.196 67.333 249.075 67.3262 248.966 67.3262C248.688 67.3262 248.446 67.3626 248.241 67.4355C248.041 67.5039 247.872 67.6064 247.735 67.7432C247.603 67.8799 247.503 68.0462 247.435 68.2422C247.371 68.4382 247.334 68.6615 247.325 68.9121L246.929 68.7891C246.929 68.3105 246.977 67.8708 247.072 67.4697C247.168 67.0641 247.307 66.7109 247.489 66.4102C247.676 66.1094 247.904 65.877 248.173 65.7129C248.442 65.5488 248.749 65.4668 249.096 65.4668C249.205 65.4668 249.317 65.4759 249.431 65.4941C249.545 65.5078 249.638 65.5283 249.711 65.5557ZM252.719 65.6035V73H250.743V65.6035H252.719ZM250.62 63.6758C250.62 63.3887 250.72 63.1517 250.921 62.9648C251.121 62.778 251.39 62.6846 251.728 62.6846C252.06 62.6846 252.327 62.778 252.527 62.9648C252.732 63.1517 252.835 63.3887 252.835 63.6758C252.835 63.9629 252.732 64.1999 252.527 64.3867C252.327 64.5736 252.06 64.667 251.728 64.667C251.39 64.667 251.121 64.5736 250.921 64.3867C250.72 64.1999 250.62 63.9629 250.62 63.6758ZM257.75 73.1367C257.176 73.1367 256.661 73.0456 256.205 72.8633C255.749 72.6764 255.362 72.4189 255.043 72.0908C254.729 71.7627 254.487 71.3822 254.318 70.9492C254.15 70.5117 254.065 70.0469 254.065 69.5547V69.2812C254.065 68.7207 254.145 68.208 254.305 67.7432C254.464 67.2783 254.692 66.875 254.988 66.5332C255.289 66.1914 255.654 65.9294 256.082 65.7471C256.51 65.5602 256.993 65.4668 257.531 65.4668C258.055 65.4668 258.52 65.5534 258.926 65.7266C259.331 65.8997 259.671 66.1458 259.944 66.4648C260.222 66.7839 260.432 67.1667 260.573 67.6133C260.715 68.0553 260.785 68.5475 260.785 69.0898V69.9102H254.906V68.5977H258.851V68.4473C258.851 68.1738 258.8 67.93 258.7 67.7158C258.604 67.4971 258.459 67.3239 258.263 67.1963C258.067 67.0687 257.816 67.0049 257.511 67.0049C257.251 67.0049 257.028 67.0618 256.841 67.1758C256.654 67.2897 256.501 67.4492 256.383 67.6543C256.269 67.8594 256.182 68.1009 256.123 68.3789C256.068 68.6523 256.041 68.9531 256.041 69.2812V69.5547C256.041 69.8509 256.082 70.1243 256.164 70.375C256.251 70.6257 256.371 70.8421 256.526 71.0244C256.686 71.2067 256.877 71.348 257.101 71.4482C257.328 71.5485 257.586 71.5986 257.873 71.5986C258.229 71.5986 258.559 71.5303 258.864 71.3936C259.174 71.2523 259.441 71.0404 259.664 70.7578L260.621 71.7969C260.466 72.0202 260.254 72.2344 259.985 72.4395C259.721 72.6445 259.402 72.8132 259.028 72.9453C258.655 73.0729 258.229 73.1367 257.75 73.1367ZM265.905 70.9561C265.905 70.8148 265.864 70.6872 265.782 70.5732C265.7 70.4593 265.548 70.3545 265.324 70.2588C265.105 70.1585 264.789 70.0674 264.374 69.9854C264 69.9033 263.652 69.8008 263.328 69.6777C263.009 69.5501 262.731 69.3975 262.494 69.2197C262.262 69.042 262.079 68.8324 261.947 68.5908C261.815 68.3447 261.749 68.0645 261.749 67.75C261.749 67.4401 261.815 67.1484 261.947 66.875C262.084 66.6016 262.278 66.36 262.528 66.1504C262.784 65.9362 263.093 65.7699 263.458 65.6514C263.827 65.5283 264.242 65.4668 264.702 65.4668C265.345 65.4668 265.896 65.5693 266.356 65.7744C266.821 65.9795 267.177 66.262 267.423 66.6221C267.674 66.9775 267.799 67.3831 267.799 67.8389H265.83C265.83 67.6475 265.789 67.4766 265.707 67.3262C265.63 67.1712 265.507 67.0505 265.338 66.9639C265.174 66.8727 264.96 66.8271 264.695 66.8271C264.477 66.8271 264.287 66.8659 264.128 66.9434C263.968 67.0163 263.845 67.1165 263.759 67.2441C263.677 67.3672 263.636 67.5039 263.636 67.6543C263.636 67.7682 263.659 67.8708 263.704 67.9619C263.754 68.0485 263.834 68.1283 263.943 68.2012C264.053 68.2741 264.194 68.3424 264.367 68.4062C264.545 68.4655 264.764 68.5202 265.023 68.5703C265.557 68.6797 266.033 68.8232 266.452 69.001C266.871 69.1742 267.204 69.4111 267.45 69.7119C267.696 70.0081 267.819 70.3978 267.819 70.8809C267.819 71.209 267.746 71.5098 267.601 71.7832C267.455 72.0566 267.245 72.2959 266.972 72.501C266.698 72.7015 266.37 72.8587 265.987 72.9727C265.609 73.082 265.183 73.1367 264.709 73.1367C264.021 73.1367 263.438 73.0137 262.959 72.7676C262.485 72.5215 262.125 72.2093 261.879 71.8311C261.637 71.4482 261.517 71.0563 261.517 70.6553H263.383C263.392 70.9242 263.46 71.1406 263.588 71.3047C263.72 71.4688 263.886 71.5872 264.087 71.6602C264.292 71.7331 264.513 71.7695 264.75 71.7695C265.005 71.7695 265.217 71.7354 265.386 71.667C265.554 71.5941 265.682 71.4984 265.769 71.3799C265.86 71.2568 265.905 71.1156 265.905 70.9561ZM174.222 87.332V84.0371C174.222 83.8001 174.183 83.5973 174.105 83.4287C174.028 83.2555 173.907 83.1211 173.743 83.0254C173.584 82.9297 173.376 82.8818 173.121 82.8818C172.902 82.8818 172.713 82.9206 172.554 82.998C172.394 83.071 172.271 83.1781 172.185 83.3193C172.098 83.4561 172.055 83.6178 172.055 83.8047H170.086C170.086 83.4902 170.159 83.1917 170.305 82.9092C170.451 82.6266 170.662 82.3783 170.94 82.1641C171.218 81.9453 171.549 81.7744 171.932 81.6514C172.319 81.5283 172.752 81.4668 173.23 81.4668C173.805 81.4668 174.315 81.5625 174.762 81.7539C175.208 81.9453 175.559 82.2324 175.814 82.6152C176.074 82.998 176.204 83.4766 176.204 84.0508V87.2158C176.204 87.6214 176.229 87.9541 176.279 88.2139C176.329 88.4691 176.402 88.6924 176.498 88.8838V89H174.509C174.413 88.7995 174.34 88.5488 174.29 88.248C174.244 87.9427 174.222 87.6374 174.222 87.332ZM174.481 84.4951L174.495 85.6094H173.395C173.135 85.6094 172.909 85.639 172.718 85.6982C172.526 85.7575 172.369 85.8418 172.246 85.9512C172.123 86.056 172.032 86.179 171.973 86.3203C171.918 86.4616 171.891 86.6165 171.891 86.7852C171.891 86.9538 171.929 87.1064 172.007 87.2432C172.084 87.3753 172.196 87.4801 172.342 87.5576C172.488 87.6305 172.659 87.667 172.854 87.667C173.151 87.667 173.408 87.6077 173.627 87.4893C173.846 87.3708 174.014 87.2249 174.133 87.0518C174.256 86.8786 174.32 86.7145 174.324 86.5596L174.844 87.3936C174.771 87.5804 174.671 87.7741 174.543 87.9746C174.42 88.1751 174.263 88.3643 174.071 88.542C173.88 88.7152 173.65 88.8587 173.381 88.9727C173.112 89.082 172.793 89.1367 172.424 89.1367C171.954 89.1367 171.528 89.0433 171.146 88.8564C170.767 88.665 170.466 88.403 170.243 88.0703C170.024 87.7331 169.915 87.3503 169.915 86.9219C169.915 86.5345 169.988 86.1904 170.134 85.8896C170.28 85.5889 170.494 85.3359 170.776 85.1309C171.063 84.9212 171.421 84.764 171.85 84.6592C172.278 84.5498 172.775 84.4951 173.34 84.4951H174.481ZM179.69 83.2168V89H177.722V81.6035H179.574L179.69 83.2168ZM181.919 81.5557L181.885 83.3809C181.789 83.3672 181.673 83.3558 181.536 83.3467C181.404 83.333 181.283 83.3262 181.174 83.3262C180.896 83.3262 180.654 83.3626 180.449 83.4355C180.249 83.5039 180.08 83.6064 179.943 83.7432C179.811 83.8799 179.711 84.0462 179.643 84.2422C179.579 84.4382 179.542 84.6615 179.533 84.9121L179.137 84.7891C179.137 84.3105 179.185 83.8708 179.28 83.4697C179.376 83.0641 179.515 82.7109 179.697 82.4102C179.884 82.1094 180.112 81.877 180.381 81.7129C180.65 81.5488 180.957 81.4668 181.304 81.4668C181.413 81.4668 181.525 81.4759 181.639 81.4941C181.753 81.5078 181.846 81.5283 181.919 81.5557ZM186.116 89.1367C185.542 89.1367 185.027 89.0456 184.571 88.8633C184.116 88.6764 183.728 88.4189 183.409 88.0908C183.095 87.7627 182.853 87.3822 182.685 86.9492C182.516 86.5117 182.432 86.0469 182.432 85.5547V85.2812C182.432 84.7207 182.511 84.208 182.671 83.7432C182.83 83.2783 183.058 82.875 183.354 82.5332C183.655 82.1914 184.02 81.9294 184.448 81.7471C184.877 81.5602 185.36 81.4668 185.897 81.4668C186.422 81.4668 186.886 81.5534 187.292 81.7266C187.698 81.8997 188.037 82.1458 188.311 82.4648C188.589 82.7839 188.798 83.1667 188.939 83.6133C189.081 84.0553 189.151 84.5475 189.151 85.0898V85.9102H183.272V84.5977H187.217V84.4473C187.217 84.1738 187.167 83.93 187.066 83.7158C186.971 83.4971 186.825 83.3239 186.629 83.1963C186.433 83.0687 186.182 83.0049 185.877 83.0049C185.617 83.0049 185.394 83.0618 185.207 83.1758C185.02 83.2897 184.868 83.4492 184.749 83.6543C184.635 83.8594 184.549 84.1009 184.489 84.3789C184.435 84.6523 184.407 84.9531 184.407 85.2812V85.5547C184.407 85.8509 184.448 86.1243 184.53 86.375C184.617 86.6257 184.738 86.8421 184.893 87.0244C185.052 87.2067 185.243 87.348 185.467 87.4482C185.695 87.5485 185.952 87.5986 186.239 87.5986C186.595 87.5986 186.925 87.5303 187.23 87.3936C187.54 87.2523 187.807 87.0404 188.03 86.7578L188.987 87.7969C188.832 88.0202 188.62 88.2344 188.352 88.4395C188.087 88.6445 187.768 88.8132 187.395 88.9453C187.021 89.0729 186.595 89.1367 186.116 89.1367ZM197.382 81.6035V82.998H193.075V81.6035H197.382ZM194.142 79.7783H196.11V86.7715C196.11 86.9857 196.138 87.1497 196.192 87.2637C196.252 87.3776 196.338 87.4574 196.452 87.5029C196.566 87.5439 196.71 87.5645 196.883 87.5645C197.006 87.5645 197.115 87.5599 197.211 87.5508C197.311 87.5371 197.396 87.5234 197.464 87.5098L197.471 88.959C197.302 89.0137 197.12 89.057 196.924 89.0889C196.728 89.1208 196.511 89.1367 196.274 89.1367C195.841 89.1367 195.463 89.0661 195.14 88.9248C194.821 88.779 194.575 88.5465 194.401 88.2275C194.228 87.9085 194.142 87.4893 194.142 86.9697V79.7783ZM200.424 78.5V89H198.455V78.5H200.424ZM200.144 85.042H199.604C199.608 84.527 199.676 84.0531 199.809 83.6201C199.941 83.1826 200.13 82.8044 200.376 82.4854C200.622 82.1618 200.916 81.9111 201.258 81.7334C201.604 81.5557 201.987 81.4668 202.406 81.4668C202.771 81.4668 203.101 81.5192 203.397 81.624C203.698 81.7243 203.956 81.8883 204.17 82.1162C204.389 82.3395 204.557 82.6335 204.676 82.998C204.794 83.3626 204.854 83.8047 204.854 84.3242V89H202.871V84.3105C202.871 83.9824 202.823 83.7249 202.728 83.5381C202.636 83.3467 202.502 83.2122 202.324 83.1348C202.151 83.0527 201.937 83.0117 201.682 83.0117C201.399 83.0117 201.158 83.0641 200.957 83.1689C200.761 83.2738 200.604 83.4196 200.485 83.6064C200.367 83.7887 200.28 84.0029 200.226 84.249C200.171 84.4951 200.144 84.7594 200.144 85.042ZM209.755 89.1367C209.181 89.1367 208.666 89.0456 208.21 88.8633C207.754 88.6764 207.367 88.4189 207.048 88.0908C206.733 87.7627 206.492 87.3822 206.323 86.9492C206.155 86.5117 206.07 86.0469 206.07 85.5547V85.2812C206.07 84.7207 206.15 84.208 206.31 83.7432C206.469 83.2783 206.697 82.875 206.993 82.5332C207.294 82.1914 207.659 81.9294 208.087 81.7471C208.515 81.5602 208.998 81.4668 209.536 81.4668C210.06 81.4668 210.525 81.5534 210.931 81.7266C211.336 81.8997 211.676 82.1458 211.949 82.4648C212.227 82.7839 212.437 83.1667 212.578 83.6133C212.719 84.0553 212.79 84.5475 212.79 85.0898V85.9102H206.911V84.5977H210.855V84.4473C210.855 84.1738 210.805 83.93 210.705 83.7158C210.609 83.4971 210.464 83.3239 210.268 83.1963C210.072 83.0687 209.821 83.0049 209.516 83.0049C209.256 83.0049 209.033 83.0618 208.846 83.1758C208.659 83.2897 208.506 83.4492 208.388 83.6543C208.274 83.8594 208.187 84.1009 208.128 84.3789C208.073 84.6523 208.046 84.9531 208.046 85.2812V85.5547C208.046 85.8509 208.087 86.1243 208.169 86.375C208.256 86.6257 208.376 86.8421 208.531 87.0244C208.691 87.2067 208.882 87.348 209.105 87.4482C209.333 87.5485 209.591 87.5986 209.878 87.5986C210.233 87.5986 210.564 87.5303 210.869 87.3936C211.179 87.2523 211.446 87.0404 211.669 86.7578L212.626 87.7969C212.471 88.0202 212.259 88.2344 211.99 88.4395C211.726 88.6445 211.407 88.8132 211.033 88.9453C210.66 89.0729 210.233 89.1367 209.755 89.1367ZM217.397 78.5H219.366V87.3047L219.168 89H217.397V78.5ZM224.049 85.2266V85.3701C224.049 85.9215 223.99 86.4274 223.871 86.8877C223.757 87.348 223.579 87.7467 223.338 88.084C223.096 88.4167 222.796 88.6764 222.436 88.8633C222.08 89.0456 221.661 89.1367 221.178 89.1367C220.727 89.1367 220.335 89.0456 220.002 88.8633C219.674 88.681 219.398 88.4235 219.175 88.0908C218.951 87.7581 218.771 87.3685 218.635 86.9219C218.498 86.4753 218.396 85.9876 218.327 85.459V85.1445C218.396 84.6159 218.498 84.1283 218.635 83.6816C218.771 83.235 218.951 82.8454 219.175 82.5127C219.398 82.18 219.674 81.9225 220.002 81.7402C220.33 81.5579 220.717 81.4668 221.164 81.4668C221.652 81.4668 222.076 81.5602 222.436 81.7471C222.8 81.9294 223.101 82.1891 223.338 82.5264C223.579 82.859 223.757 83.2555 223.871 83.7158C223.99 84.1715 224.049 84.6751 224.049 85.2266ZM222.08 85.3701V85.2266C222.08 84.9258 222.057 84.6432 222.012 84.3789C221.971 84.11 221.898 83.8753 221.793 83.6748C221.688 83.4697 221.545 83.3079 221.362 83.1895C221.185 83.071 220.954 83.0117 220.672 83.0117C220.403 83.0117 220.175 83.0573 219.988 83.1484C219.801 83.2396 219.646 83.3672 219.523 83.5312C219.405 83.6953 219.316 83.8913 219.257 84.1191C219.198 84.3424 219.161 84.5885 219.147 84.8574V85.7529C219.161 86.113 219.22 86.432 219.325 86.71C219.435 86.9834 219.599 87.1999 219.817 87.3594C220.041 87.5143 220.33 87.5918 220.686 87.5918C220.964 87.5918 221.194 87.5371 221.376 87.4277C221.558 87.3184 221.7 87.1634 221.8 86.9629C221.905 86.7624 221.978 86.5277 222.019 86.2588C222.06 85.9854 222.08 85.6891 222.08 85.3701ZM228.677 89.1367C228.103 89.1367 227.588 89.0456 227.132 88.8633C226.676 88.6764 226.289 88.4189 225.97 88.0908C225.655 87.7627 225.414 87.3822 225.245 86.9492C225.076 86.5117 224.992 86.0469 224.992 85.5547V85.2812C224.992 84.7207 225.072 84.208 225.231 83.7432C225.391 83.2783 225.619 82.875 225.915 82.5332C226.216 82.1914 226.58 81.9294 227.009 81.7471C227.437 81.5602 227.92 81.4668 228.458 81.4668C228.982 81.4668 229.447 81.5534 229.853 81.7266C230.258 81.8997 230.598 82.1458 230.871 82.4648C231.149 82.7839 231.359 83.1667 231.5 83.6133C231.641 84.0553 231.712 84.5475 231.712 85.0898V85.9102H225.833V84.5977H229.777V84.4473C229.777 84.1738 229.727 83.93 229.627 83.7158C229.531 83.4971 229.385 83.3239 229.189 83.1963C228.993 83.0687 228.743 83.0049 228.438 83.0049C228.178 83.0049 227.954 83.0618 227.768 83.1758C227.581 83.2897 227.428 83.4492 227.31 83.6543C227.196 83.8594 227.109 84.1009 227.05 84.3789C226.995 84.6523 226.968 84.9531 226.968 85.2812V85.5547C226.968 85.8509 227.009 86.1243 227.091 86.375C227.177 86.6257 227.298 86.8421 227.453 87.0244C227.613 87.2067 227.804 87.348 228.027 87.4482C228.255 87.5485 228.513 87.5986 228.8 87.5986C229.155 87.5986 229.486 87.5303 229.791 87.3936C230.101 87.2523 230.368 87.0404 230.591 86.7578L231.548 87.7969C231.393 88.0202 231.181 88.2344 230.912 88.4395C230.648 88.6445 230.329 88.8132 229.955 88.9453C229.581 89.0729 229.155 89.1367 228.677 89.1367ZM236.832 86.9561C236.832 86.8148 236.791 86.6872 236.709 86.5732C236.627 86.4593 236.474 86.3545 236.251 86.2588C236.032 86.1585 235.715 86.0674 235.301 85.9854C234.927 85.9033 234.578 85.8008 234.255 85.6777C233.936 85.5501 233.658 85.3975 233.421 85.2197C233.188 85.042 233.006 84.8324 232.874 84.5908C232.742 84.3447 232.676 84.0645 232.676 83.75C232.676 83.4401 232.742 83.1484 232.874 82.875C233.011 82.6016 233.204 82.36 233.455 82.1504C233.71 81.9362 234.02 81.7699 234.385 81.6514C234.754 81.5283 235.169 81.4668 235.629 81.4668C236.271 81.4668 236.823 81.5693 237.283 81.7744C237.748 81.9795 238.104 82.262 238.35 82.6221C238.6 82.9775 238.726 83.3831 238.726 83.8389H236.757C236.757 83.6475 236.716 83.4766 236.634 83.3262C236.556 83.1712 236.433 83.0505 236.265 82.9639C236.101 82.8727 235.886 82.8271 235.622 82.8271C235.403 82.8271 235.214 82.8659 235.055 82.9434C234.895 83.0163 234.772 83.1165 234.686 83.2441C234.604 83.3672 234.562 83.5039 234.562 83.6543C234.562 83.7682 234.585 83.8708 234.631 83.9619C234.681 84.0485 234.761 84.1283 234.87 84.2012C234.979 84.2741 235.121 84.3424 235.294 84.4062C235.472 84.4655 235.69 84.5202 235.95 84.5703C236.483 84.6797 236.96 84.8232 237.379 85.001C237.798 85.1742 238.131 85.4111 238.377 85.7119C238.623 86.0081 238.746 86.3978 238.746 86.8809C238.746 87.209 238.673 87.5098 238.527 87.7832C238.382 88.0566 238.172 88.2959 237.898 88.501C237.625 88.7015 237.297 88.8587 236.914 88.9727C236.536 89.082 236.11 89.1367 235.636 89.1367C234.948 89.1367 234.364 89.0137 233.886 88.7676C233.412 88.5215 233.052 88.2093 232.806 87.8311C232.564 87.4482 232.443 87.0563 232.443 86.6553H234.31C234.319 86.9242 234.387 87.1406 234.515 87.3047C234.647 87.4688 234.813 87.5872 235.014 87.6602C235.219 87.7331 235.44 87.7695 235.677 87.7695C235.932 87.7695 236.144 87.7354 236.312 87.667C236.481 87.5941 236.609 87.4984 236.695 87.3799C236.786 87.2568 236.832 87.1156 236.832 86.9561ZM243.647 81.6035V82.998H239.341V81.6035H243.647ZM240.407 79.7783H242.376V86.7715C242.376 86.9857 242.403 87.1497 242.458 87.2637C242.517 87.3776 242.604 87.4574 242.718 87.5029C242.832 87.5439 242.975 87.5645 243.148 87.5645C243.271 87.5645 243.381 87.5599 243.477 87.5508C243.577 87.5371 243.661 87.5234 243.729 87.5098L243.736 88.959C243.568 89.0137 243.385 89.057 243.189 89.0889C242.993 89.1208 242.777 89.1367 242.54 89.1367C242.107 89.1367 241.729 89.0661 241.405 88.9248C241.086 88.779 240.84 88.5465 240.667 88.2275C240.494 87.9085 240.407 87.4893 240.407 86.9697V79.7783ZM250.764 89H248.781V80.9473C248.781 80.3867 248.891 79.915 249.109 79.5322C249.333 79.1449 249.645 78.8532 250.046 78.6572C250.451 78.4567 250.932 78.3564 251.488 78.3564C251.671 78.3564 251.846 78.3701 252.015 78.3975C252.183 78.4202 252.347 78.4499 252.507 78.4863L252.486 79.9697C252.4 79.9469 252.309 79.931 252.213 79.9219C252.117 79.9128 252.006 79.9082 251.878 79.9082C251.641 79.9082 251.438 79.9492 251.27 80.0312C251.105 80.1087 250.98 80.2249 250.894 80.3799C250.807 80.5348 250.764 80.724 250.764 80.9473V89ZM252.24 81.6035V82.998H247.681V81.6035H252.24ZM252.958 85.377V85.2334C252.958 84.6911 253.035 84.1921 253.19 83.7363C253.345 83.276 253.571 82.8773 253.867 82.54C254.163 82.2028 254.528 81.9408 254.961 81.7539C255.394 81.5625 255.891 81.4668 256.451 81.4668C257.012 81.4668 257.511 81.5625 257.948 81.7539C258.386 81.9408 258.753 82.2028 259.049 82.54C259.35 82.8773 259.577 83.276 259.732 83.7363C259.887 84.1921 259.965 84.6911 259.965 85.2334V85.377C259.965 85.9147 259.887 86.4137 259.732 86.874C259.577 87.3298 259.35 87.7285 259.049 88.0703C258.753 88.4076 258.388 88.6696 257.955 88.8564C257.522 89.0433 257.025 89.1367 256.465 89.1367C255.904 89.1367 255.405 89.0433 254.968 88.8564C254.535 88.6696 254.168 88.4076 253.867 88.0703C253.571 87.7285 253.345 87.3298 253.19 86.874C253.035 86.4137 252.958 85.9147 252.958 85.377ZM254.927 85.2334V85.377C254.927 85.6868 254.954 85.9762 255.009 86.2451C255.063 86.514 255.15 86.751 255.269 86.9561C255.392 87.1566 255.551 87.3138 255.747 87.4277C255.943 87.5417 256.182 87.5986 256.465 87.5986C256.738 87.5986 256.973 87.5417 257.169 87.4277C257.365 87.3138 257.522 87.1566 257.641 86.9561C257.759 86.751 257.846 86.514 257.9 86.2451C257.96 85.9762 257.989 85.6868 257.989 85.377V85.2334C257.989 84.9326 257.96 84.6501 257.9 84.3857C257.846 84.1169 257.757 83.8799 257.634 83.6748C257.515 83.4652 257.358 83.3011 257.162 83.1826C256.966 83.0641 256.729 83.0049 256.451 83.0049C256.173 83.0049 255.936 83.0641 255.74 83.1826C255.549 83.3011 255.392 83.4652 255.269 83.6748C255.15 83.8799 255.063 84.1169 255.009 84.3857C254.954 84.6501 254.927 84.9326 254.927 85.2334ZM263.144 83.2168V89H261.175V81.6035H263.027L263.144 83.2168ZM265.372 81.5557L265.338 83.3809C265.242 83.3672 265.126 83.3558 264.989 83.3467C264.857 83.333 264.736 83.3262 264.627 83.3262C264.349 83.3262 264.107 83.3626 263.902 83.4355C263.702 83.5039 263.533 83.6064 263.396 83.7432C263.264 83.8799 263.164 84.0462 263.096 84.2422C263.032 84.4382 262.995 84.6615 262.986 84.9121L262.59 84.7891C262.59 84.3105 262.638 83.8708 262.733 83.4697C262.829 83.0641 262.968 82.7109 263.15 82.4102C263.337 82.1094 263.565 81.877 263.834 81.7129C264.103 81.5488 264.41 81.4668 264.757 81.4668C264.866 81.4668 264.978 81.4759 265.092 81.4941C265.206 81.5078 265.299 81.5283 265.372 81.5557ZM191.564 99.1348V105H189.589V97.6035H191.441L191.564 99.1348ZM191.291 101.042H190.744C190.744 100.527 190.806 100.053 190.929 99.6201C191.056 99.1826 191.241 98.8044 191.482 98.4854C191.729 98.1618 192.032 97.9111 192.392 97.7334C192.752 97.5557 193.169 97.4668 193.643 97.4668C193.971 97.4668 194.271 97.5169 194.545 97.6172C194.818 97.7129 195.053 97.8656 195.249 98.0752C195.45 98.2803 195.604 98.5492 195.714 98.8818C195.823 99.21 195.878 99.6042 195.878 100.064V105H193.909V100.283C193.909 99.946 193.864 99.6862 193.772 99.5039C193.681 99.3216 193.551 99.194 193.383 99.1211C193.219 99.0482 193.021 99.0117 192.788 99.0117C192.533 99.0117 192.31 99.0641 192.118 99.1689C191.931 99.2738 191.776 99.4196 191.653 99.6064C191.53 99.7887 191.439 100.003 191.38 100.249C191.321 100.495 191.291 100.759 191.291 101.042ZM195.693 100.816L194.989 100.905C194.989 100.422 195.049 99.9733 195.167 99.5586C195.29 99.1439 195.47 98.7793 195.707 98.4648C195.949 98.1504 196.247 97.9066 196.603 97.7334C196.958 97.5557 197.368 97.4668 197.833 97.4668C198.188 97.4668 198.512 97.5192 198.804 97.624C199.095 97.7243 199.344 97.8861 199.549 98.1094C199.758 98.3281 199.918 98.6152 200.027 98.9707C200.141 99.3262 200.198 99.7614 200.198 100.276V105H198.223V100.276C198.223 99.9346 198.177 99.6748 198.086 99.4971C197.999 99.3148 197.872 99.1895 197.703 99.1211C197.539 99.0482 197.343 99.0117 197.115 99.0117C196.878 99.0117 196.671 99.0596 196.493 99.1553C196.315 99.2464 196.167 99.374 196.049 99.5381C195.93 99.7021 195.841 99.8936 195.782 100.112C195.723 100.326 195.693 100.561 195.693 100.816ZM203.917 104.166L205.879 97.6035H207.991L205.018 106.114C204.954 106.301 204.867 106.502 204.758 106.716C204.653 106.93 204.509 107.133 204.327 107.324C204.149 107.52 203.924 107.68 203.65 107.803C203.382 107.926 203.051 107.987 202.659 107.987C202.472 107.987 202.32 107.976 202.201 107.953C202.083 107.93 201.941 107.898 201.777 107.857V106.415C201.827 106.415 201.88 106.415 201.935 106.415C201.989 106.42 202.042 106.422 202.092 106.422C202.352 106.422 202.563 106.392 202.728 106.333C202.892 106.274 203.024 106.183 203.124 106.06C203.224 105.941 203.304 105.786 203.363 105.595L203.917 104.166ZM203.097 97.6035L204.703 102.963L204.983 105.048L203.644 105.191L200.984 97.6035H203.097ZM214.725 105H212.749V97.2686C212.749 96.6396 212.877 96.1087 213.132 95.6758C213.392 95.2428 213.761 94.9147 214.239 94.6914C214.722 94.4681 215.306 94.3564 215.989 94.3564C216.377 94.3564 216.753 94.3952 217.117 94.4727C217.482 94.5456 217.858 94.6413 218.245 94.7598L217.958 96.3389C217.707 96.2614 217.438 96.1885 217.151 96.1201C216.864 96.0518 216.518 96.0176 216.112 96.0176C215.657 96.0176 215.31 96.1247 215.073 96.3389C214.841 96.5485 214.725 96.8584 214.725 97.2686V105ZM216.194 97.6035V98.998H211.648V97.6035H216.194ZM219.161 97.6035V105H217.186V97.6035H219.161ZM224.213 105.137C223.639 105.137 223.124 105.046 222.668 104.863C222.212 104.676 221.825 104.419 221.506 104.091C221.191 103.763 220.95 103.382 220.781 102.949C220.613 102.512 220.528 102.047 220.528 101.555V101.281C220.528 100.721 220.608 100.208 220.768 99.7432C220.927 99.2783 221.155 98.875 221.451 98.5332C221.752 98.1914 222.117 97.9294 222.545 97.7471C222.973 97.5602 223.456 97.4668 223.994 97.4668C224.518 97.4668 224.983 97.5534 225.389 97.7266C225.794 97.8997 226.134 98.1458 226.407 98.4648C226.685 98.7839 226.895 99.1667 227.036 99.6133C227.177 100.055 227.248 100.548 227.248 101.09V101.91H221.369V100.598H225.313V100.447C225.313 100.174 225.263 99.93 225.163 99.7158C225.067 99.4971 224.922 99.3239 224.726 99.1963C224.53 99.0687 224.279 99.0049 223.974 99.0049C223.714 99.0049 223.491 99.0618 223.304 99.1758C223.117 99.2897 222.964 99.4492 222.846 99.6543C222.732 99.8594 222.645 100.101 222.586 100.379C222.531 100.652 222.504 100.953 222.504 101.281V101.555C222.504 101.851 222.545 102.124 222.627 102.375C222.714 102.626 222.834 102.842 222.989 103.024C223.149 103.207 223.34 103.348 223.563 103.448C223.791 103.549 224.049 103.599 224.336 103.599C224.691 103.599 225.022 103.53 225.327 103.394C225.637 103.252 225.904 103.04 226.127 102.758L227.084 103.797C226.929 104.02 226.717 104.234 226.448 104.439C226.184 104.645 225.865 104.813 225.491 104.945C225.118 105.073 224.691 105.137 224.213 105.137ZM230.447 94.5V105H228.472V94.5H230.447ZM236.442 103.387V94.5H238.425V105H236.641L236.442 103.387ZM231.767 101.391V101.247C231.767 100.682 231.83 100.169 231.958 99.709C232.086 99.2441 232.272 98.8454 232.519 98.5127C232.765 98.18 233.068 97.9225 233.428 97.7402C233.788 97.5579 234.198 97.4668 234.658 97.4668C235.091 97.4668 235.469 97.5579 235.793 97.7402C236.121 97.9225 236.399 98.1823 236.627 98.5195C236.859 98.8522 237.046 99.2464 237.188 99.7021C237.329 100.153 237.431 100.648 237.495 101.186V101.5C237.431 102.015 237.329 102.493 237.188 102.936C237.046 103.378 236.859 103.765 236.627 104.098C236.399 104.426 236.121 104.681 235.793 104.863C235.465 105.046 235.082 105.137 234.645 105.137C234.184 105.137 233.774 105.043 233.414 104.856C233.059 104.67 232.758 104.408 232.512 104.07C232.27 103.733 232.086 103.337 231.958 102.881C231.83 102.425 231.767 101.928 231.767 101.391ZM233.735 101.247V101.391C233.735 101.696 233.758 101.981 233.804 102.245C233.854 102.509 233.934 102.744 234.043 102.949C234.157 103.15 234.303 103.307 234.48 103.421C234.663 103.53 234.884 103.585 235.144 103.585C235.481 103.585 235.759 103.51 235.978 103.359C236.196 103.204 236.363 102.993 236.477 102.724C236.595 102.455 236.663 102.145 236.682 101.794V100.898C236.668 100.611 236.627 100.354 236.559 100.126C236.495 99.8936 236.399 99.6953 236.271 99.5312C236.148 99.3672 235.993 99.2396 235.807 99.1484C235.624 99.0573 235.408 99.0117 235.157 99.0117C234.902 99.0117 234.683 99.071 234.501 99.1895C234.319 99.3034 234.171 99.4606 234.057 99.6611C233.947 99.8617 233.865 100.099 233.811 100.372C233.76 100.641 233.735 100.933 233.735 101.247ZM243.319 101.958H241.576C241.581 101.548 241.613 101.195 241.672 100.898C241.736 100.598 241.843 100.326 241.993 100.085C242.148 99.8434 242.353 99.6042 242.608 99.3672C242.823 99.1758 243.009 98.9935 243.169 98.8203C243.328 98.6471 243.454 98.4694 243.545 98.2871C243.636 98.1003 243.682 97.8929 243.682 97.665C243.682 97.4007 243.641 97.182 243.559 97.0088C243.481 96.8311 243.363 96.6966 243.203 96.6055C243.048 96.5143 242.852 96.4688 242.615 96.4688C242.419 96.4688 242.237 96.512 242.068 96.5986C241.9 96.6807 241.761 96.8083 241.651 96.9814C241.547 97.1546 241.492 97.3825 241.487 97.665H239.505C239.519 97.0407 239.662 96.5257 239.936 96.1201C240.214 95.71 240.585 95.4069 241.05 95.2109C241.515 95.0104 242.036 94.9102 242.615 94.9102C243.253 94.9102 243.8 95.015 244.256 95.2246C244.712 95.4297 245.06 95.7327 245.302 96.1338C245.543 96.5303 245.664 97.0133 245.664 97.583C245.664 97.9795 245.587 98.3327 245.432 98.6426C245.277 98.9479 245.074 99.2327 244.823 99.4971C244.573 99.7614 244.297 100.035 243.996 100.317C243.736 100.55 243.559 100.794 243.463 101.049C243.372 101.304 243.324 101.607 243.319 101.958ZM241.371 104.07C241.371 103.779 241.471 103.537 241.672 103.346C241.872 103.15 242.141 103.052 242.479 103.052C242.811 103.052 243.078 103.15 243.278 103.346C243.483 103.537 243.586 103.779 243.586 104.07C243.586 104.353 243.483 104.592 243.278 104.788C243.078 104.984 242.811 105.082 242.479 105.082C242.141 105.082 241.872 104.984 241.672 104.788C241.471 104.592 241.371 104.353 241.371 104.07Z" fill="black"/>
</g>
<defs>
<clipPath id="clip0_5117_7581">
<rect width="340" height="253" fill="white"/>
</clipPath>
</defs>
</svg>
